<svg xmlns="http://www.w3.org/2000/svg" width="36" height="32" viewBox="0 0 36 32" fill="none">
  <rect x="12.8262" y="5.64062" width="4.91305" height="2.54783" stroke="#3F4599"/>
  <path d="M7.95849 24.0622C2.99153 19.3317 9.23966 11.6448 12.9846 8.39258H18.0108C25.9935 15.4882 25.9935 19.3317 24.5152 22.8796C23.0369 26.4274 14.1672 29.9752 7.95849 24.0622Z" stroke="#3F4599"/>
  <path d="M17.9433 15.8769V16.4338C17.9433 16.4847 17.9295 16.5266 17.9019 16.5593C17.8742 16.5921 17.8389 16.6085 17.7958 16.6085H17.0215C16.9508 17.1326 16.7526 17.5584 16.4269 17.886C16.1012 18.2136 15.6771 18.4138 15.1547 18.4865C15.6679 19.1344 16.3731 20.1098 17.2704 21.4128C17.3134 21.4711 17.3195 21.5329 17.2888 21.5985C17.2642 21.664 17.2197 21.6967 17.1551 21.6967H16.2563C16.2072 21.6967 16.1688 21.6749 16.1411 21.6312C15.2008 20.2955 14.4357 19.2563 13.8457 18.5138C13.818 18.4811 13.8042 18.4411 13.8042 18.3937V17.7004C13.8042 17.6531 13.8188 17.6121 13.848 17.5775C13.8772 17.543 13.9117 17.5257 13.9517 17.5257H14.4679C14.8736 17.5257 15.2 17.4474 15.4474 17.2909C15.6948 17.1344 15.8523 16.9069 15.9199 16.6085H13.9517C13.9087 16.6085 13.8733 16.5921 13.8457 16.5593C13.818 16.5266 13.8042 16.4847 13.8042 16.4338V15.8769C13.8042 15.826 13.818 15.7841 13.8457 15.7513C13.8733 15.7186 13.9087 15.7022 13.9517 15.7022H15.8553C15.6802 15.2909 15.2684 15.0853 14.62 15.0853H13.9517C13.9117 15.0853 13.8772 15.068 13.848 15.0334C13.8188 14.9988 13.8042 14.9579 13.8042 14.9106V14.1845C13.8042 14.1335 13.818 14.0917 13.8457 14.0589C13.8733 14.0261 13.9087 14.0098 13.9517 14.0098H17.7866C17.8296 14.0098 17.865 14.0261 17.8926 14.0589C17.9203 14.0917 17.9341 14.1335 17.9341 14.1845V14.7413C17.9341 14.7923 17.9203 14.8341 17.8926 14.8669C17.865 14.8997 17.8296 14.916 17.7866 14.916H16.7127C16.8571 15.1381 16.9554 15.4001 17.0076 15.7022H17.7958C17.8389 15.7022 17.8742 15.7186 17.9019 15.7513C17.9295 15.7841 17.9433 15.826 17.9433 15.8769Z" fill="#3F4599"/>
  <path d="M14.3948 5.43479C14.2962 5.13914 13.9808 4.07479 13.5078 2.18261C11.6156 2.41913 11.1426 3.06957 11.1426 3.36522L12.6208 5.43479H14.3948ZM14.3948 5.43479H14.6904M14.6904 5.43479H17.9426C18.5339 4.44928 18.9478 2.36 18.2382 1.88696C17.5287 1.41391 14.789 1.09855 13.5078 1L14.6904 5.43479Z" stroke="#3F4599"/>
  <path d="M0.5 31.1547V22.5808V22.2852L4.63913 24.3547V31.1547H0.5Z" stroke="#3F4599"/>
  <path d="M4.63916 31.1555V24.6511V24.3555L8.48264 24.9468V31.1555H4.63916Z" stroke="#3F4599"/>
  <path d="M8.77832 31.1559V24.9472C10.0595 24.2574 13.154 22.6691 15.2827 22.9056C17.9435 23.2013 16.7609 25.2708 15.2827 25.5665C13.2131 25.5665 13.5088 27.0448 13.8044 27.3404C14.1001 27.6361 16.4818 27.3824 19.1262 26.7213C21.4914 26.13 21.4914 25.8343 22.674 25.0928C25.6305 21.3995 25.281 23.7648 25.3349 24.6796C25.5714 28.7004 21.8856 30.6912 20.0131 31.1839L8.77832 31.1559Z" fill="#F5F5F5" stroke="#3F4599"/>
  <rect x="27.1171" y="15.4965" width="1.75701" height="5.30484" fill="#3F4599" stroke="#3F4599" stroke-width="0.608207"/>
  <rect x="30.0741" y="17.8607" width="1.75701" height="5.30484" fill="#3F4599" stroke="#3F4599" stroke-width="0.608207"/>
  <path d="M31.2478 8.68648H34.4999L29.4738 1.59082L23.8564 8.68648H27.1086V14.0082H30.9521V10.4604" stroke="#3F4599"/>
</svg>