
<svg width="118" height="87" viewBox="0 0 118 87" fill="none" xmlns="http://www.w3.org/2000/svg">
<path d="M1.27612 13.999L41.8484 1.16451L41.9449 1.4549L1.7585 15.451L1.27612 13.999Z" fill="url(#paint0_linear_3646_22611)"/>
<path d="M73.9221 20.1562L114.494 7.32174L114.591 7.61213L74.4045 21.6082L73.9221 20.1562Z" fill="url(#paint1_linear_3646_22611)"/>
<path d="M75.769 39.9512L117.019 29.4976L117.098 29.7931L76.1662 41.4287L75.769 39.9512Z" fill="url(#paint2_linear_3646_22611)"/>
<path d="M0.0446777 68.2705L41.2946 57.8169L41.374 58.1124L0.441812 69.748L0.0446777 68.2705Z" fill="url(#paint3_linear_3646_22611)"/>
<path d="M90.82 80.7377C90.82 80.7377 82.6364 79.3998 77.0505 73.416L82.2703 65.3117C82.2703 65.3117 86.6171 72.6669 95.0527 74.7124C95.0527 74.7124 93.0704 78.4746 90.82 80.7377Z" stroke="#020914" stroke-width="0.615645" stroke-miterlimit="10"/>
<path d="M79.0166 72.001L81.4853 68.1679C81.5157 68.1862 81.5461 68.2007 81.5781 68.2159C82.1682 68.496 82.8177 68.5026 83.3827 68.2868C84.9498 70.1127 87.4944 72.5378 91.0207 74.2121C91.4733 74.427 91.9326 74.6236 92.398 74.8033C92.3895 75.399 92.6136 75.9797 93.0239 76.4155C92.4745 77.2796 91.7831 78.2859 91.0349 79.1849C90.3471 78.9289 89.6015 79.0256 89.0136 79.3971C87.8626 79.0681 86.2998 78.5417 84.6078 77.7383C82.5896 76.7801 80.8019 75.6334 79.2681 74.3153C79.6211 73.5305 79.4986 72.6492 79.0166 72.001Z" fill="#C7CAF1"/>
<path d="M86.6231 72.8655C85.6074 72.3833 84.3931 72.8157 83.9108 73.8314C83.4285 74.8472 83.861 76.0615 84.8767 76.5438C85.8924 77.026 87.1068 76.5936 87.589 75.5779C88.0713 74.5622 87.6388 73.3478 86.6231 72.8655Z" fill="#F3F4FF"/>
<path d="M86.4662 73.1844C85.6271 72.7861 84.6239 73.1433 84.2255 73.9824C83.8271 74.8214 84.1844 75.8246 85.0235 76.223C85.8625 76.6214 86.8657 76.2641 87.2641 75.4251C87.6625 74.586 87.3052 73.5828 86.4662 73.1844Z" stroke="#000200" stroke-width="0.615645" stroke-miterlimit="10"/>
<path d="M90.8284 77.4113C90.8284 77.4113 89.0333 76.755 88.6887 76.3954" stroke="#000200" stroke-width="0.615645" stroke-miterlimit="10"/>
<path d="M82.5747 72.5117L81.2033 71.2726" stroke="#000200" stroke-width="0.615645" stroke-miterlimit="10"/>
<path opacity="0.5" d="M31.1222 7.47423C31.1222 7.62686 31.1796 7.77051 31.282 7.8962C27.9672 10.4029 24.2718 13.3513 22.2769 14.7447C22.1009 14.6891 21.9034 14.6568 21.6951 14.6568C21.4671 14.6568 21.2516 14.6945 21.0631 14.7609L18.4612 12.6816C18.6318 12.5325 18.7323 12.3458 18.7323 12.1429C18.7323 12.0046 18.6856 11.8717 18.5994 11.755C20.9104 9.49611 24.191 6.10237 25.9885 3.98353C26.1573 4.0338 26.3458 4.06253 26.5433 4.06253C26.8917 4.06253 27.2077 3.97455 27.4465 3.8291L31.3017 7.02712C31.1868 7.1582 31.1222 7.31083 31.1222 7.47423Z" fill="#19BC8A"/>
<path d="M16.667 12.5918L21.3356 16.1831C21.3356 16.1831 28.8773 11.5145 33.905 7.56407L26.4532 1.36914C26.4532 1.36914 19.6298 10.3473 16.667 12.5918Z" stroke="#020404" stroke-width="0.615645" stroke-miterlimit="10"/>
<path d="M24.6559 10.886C25.5484 10.886 26.2719 10.3232 26.2719 9.62901C26.2719 8.93482 25.5484 8.37207 24.6559 8.37207C23.7633 8.37207 23.0398 8.93482 23.0398 9.62901C23.0398 10.3232 23.7633 10.886 24.6559 10.886Z" stroke="#0B1314" stroke-width="0.615645" stroke-miterlimit="10"/>
<path opacity="0.3" d="M24.6544 11.2439C25.7453 11.2439 26.6296 10.5203 26.6296 9.62779C26.6296 8.73526 25.7453 8.01172 24.6544 8.01172C23.5635 8.01172 22.6792 8.73526 22.6792 9.62779C22.6792 10.5203 23.5635 11.2439 24.6544 11.2439Z" fill="#8CDEC4"/>
<path d="M24.6559 10.886C25.5484 10.886 26.2719 10.3232 26.2719 9.62901C26.2719 8.93482 25.5484 8.37207 24.6559 8.37207C23.7633 8.37207 23.0398 8.93482 23.0398 9.62901C23.0398 10.3232 23.7633 10.886 24.6559 10.886Z" stroke="#0B1314" stroke-width="0.615645" stroke-miterlimit="10"/>
<path d="M28.7875 6.03711C28.7875 6.03711 27.5305 7.29405 27.1714 7.47361" stroke="#020914" stroke-width="0.615645" stroke-miterlimit="10"/>
<path d="M20.7073 13.2197C20.7073 13.0401 22.1438 11.7832 22.1438 11.7832" stroke="#020914" stroke-width="0.615645" stroke-miterlimit="10"/>
<path d="M38.6191 70.3489L39.084 86.2144L47.1414 77.4007L38.6191 70.3489Z" fill="#464EBC"/>
<path d="M46.8402 71.5664L47.1731 77.6341L18.1435 78.5004L46.8402 71.5664Z" fill="#7178DD"/>
<path d="M68.8934 42.2092L54.2693 28.209L7.36641 42.9688L13.2391 60.7459L68.8934 42.2092Z" fill="#DADCFF"/>
<path d="M68.386 25.395L68.386 3.83041L2.23581 25.395L7.39257 43.3928L68.386 25.395Z" fill="#19BC8A"/>
<path d="M12.5525 59.7348L17.8491 78.7061L93.2827 60.2728L92.1868 35.7514L12.5525 59.7348Z" fill="#464EBC"/>
<g filter="url(#filter0_d_3646_22611)">
<path d="M21.0254 53.0252C20.5055 53.1776 20.121 53.182 19.872 53.0386C19.6204 52.8866 19.4324 52.5982 19.3079 52.1736C19.2647 52.0263 19.2036 51.7855 19.1244 51.4512C19.0452 51.1168 18.9343 50.5942 18.7918 49.8832C18.6844 49.7735 18.5907 49.6787 18.5108 49.5986C18.4309 49.5185 18.3497 49.4341 18.2672 49.3454C18.1847 49.2566 18.0928 49.1518 17.9916 49.031C17.8903 48.9101 17.7615 48.7597 17.6052 48.5797C17.3639 48.3022 17.0858 47.9792 16.7707 47.6105C16.4643 47.2392 16.1673 46.884 15.8797 46.5449C15.5895 46.1971 15.3394 45.8894 15.1292 45.6217C14.9276 45.3514 14.8154 45.1773 14.7926 45.0993C14.7392 44.9173 15.0028 44.7413 15.5834 44.5711C15.9473 44.4644 16.249 44.4183 16.4885 44.4328C16.7341 44.4361 16.9453 44.4824 17.122 44.5718C17.2962 44.6524 17.4434 44.7693 17.5635 44.9222C17.6811 45.0666 17.7981 45.2251 17.9146 45.398C18.0663 45.6264 18.1772 45.7962 18.2474 45.9073C18.3176 46.0185 18.3728 46.1105 18.413 46.1834C18.4619 46.2538 18.5107 46.3242 18.5596 46.3945C18.6059 46.4562 18.6736 46.5587 18.7626 46.702C18.8603 46.8427 18.9931 47.039 19.1611 47.2909C19.329 47.5428 19.5621 47.8885 19.8603 48.328C19.9566 47.7258 20.0302 47.2384 20.081 46.866C20.1404 46.491 20.1858 46.1484 20.2172 45.8381C20.246 45.5191 20.2649 45.1984 20.2739 44.8758C20.289 44.5421 20.3072 44.1227 20.3285 43.6178C20.3323 43.4379 20.3538 43.3187 20.3931 43.2601C20.4385 43.1903 20.5219 43.1377 20.6432 43.1021C20.6865 43.0894 20.806 43.0638 21.0017 43.0253C21.2035 42.9755 21.4161 42.9461 21.6393 42.9372C21.8711 42.9257 22.0902 42.9508 22.2965 43.0127C22.5028 43.0745 22.6339 43.2008 22.6898 43.3914C22.733 43.5387 22.742 43.7619 22.7167 44.061C22.7001 44.3575 22.6591 44.6989 22.5935 45.0851C22.534 45.4601 22.4506 45.8656 22.3432 46.3017C22.2444 46.7352 22.1345 47.1627 22.0133 47.584C21.8922 48.0053 21.7634 48.4006 21.627 48.7699C21.4967 49.128 21.3686 49.429 21.2425 49.673C21.2948 49.8835 21.3542 50.1342 21.4206 50.4252C21.4958 50.7137 21.5623 51.0047 21.6201 51.2983C21.684 51.5807 21.7416 51.8414 21.7929 52.0804C21.8416 52.3108 21.8743 52.4705 21.891 52.5597C21.9027 52.6316 21.9006 52.6886 21.8848 52.7309C21.8664 52.7645 21.8182 52.7928 21.7402 52.8156L21.0254 53.0252ZM27.3743 40.988C28.0069 40.8025 28.5751 40.7348 29.079 40.7847C29.5804 40.8259 30.0248 40.9779 30.4124 41.2407C30.7974 41.4948 31.1272 41.8498 31.402 42.3056C31.6742 42.7527 31.9017 43.2882 32.0846 43.9121C32.1862 44.2587 32.2707 44.6432 32.3381 45.0657C32.4141 45.4857 32.4481 45.9226 32.44 46.3766C32.4381 46.8195 32.3847 47.2632 32.2798 47.708C32.175 48.1527 31.9924 48.5732 31.7322 48.9694C31.4806 49.3631 31.1432 49.7207 30.7199 50.0424C30.2942 50.3554 29.7564 50.6071 29.1065 50.7976C28.3873 51.0084 27.7577 51.0753 27.2176 50.9984C26.6862 50.9189 26.2242 50.7391 25.8316 50.459C25.4451 50.1677 25.1175 49.7886 24.8489 49.3216C24.589 48.852 24.3752 48.3313 24.2076 47.7594C24.0094 47.0835 23.8944 46.4022 23.8624 45.7152C23.8279 45.0197 23.919 44.3672 24.1356 43.758C24.3608 43.1462 24.7323 42.5998 25.25 42.1188C25.7651 41.629 26.4732 41.2521 27.3743 40.988ZM27.6919 43.0825C27.3886 43.1714 27.1409 43.3052 26.9486 43.4839C26.7625 43.6514 26.6181 43.849 26.5154 44.0766C26.4215 44.3018 26.3598 44.541 26.3306 44.7942C26.31 45.0449 26.3092 45.2991 26.3283 45.557C26.3449 45.8062 26.3776 46.046 26.4263 46.2763C26.4724 46.498 26.5209 46.6955 26.5717 46.8688C26.8028 47.6573 27.1017 48.1955 27.4683 48.4832C27.8436 48.7684 28.2739 48.8399 28.7591 48.6976C29.1577 48.5808 29.4458 48.3599 29.6234 48.035C29.7985 47.7014 29.9033 47.3366 29.9378 46.9407C29.9785 46.5336 29.9689 46.1318 29.9091 45.7353C29.8468 45.3302 29.7763 44.9933 29.6976 44.7247C29.5122 44.0921 29.2578 43.6256 28.9345 43.3252C28.6087 43.0161 28.1945 42.9352 27.6919 43.0825ZM40.693 42.6591C40.7432 42.9266 40.7893 43.2283 40.8312 43.5642C40.8707 43.8914 40.8823 44.2361 40.8662 44.5984C40.8562 44.9495 40.8047 45.3033 40.7116 45.6599C40.6185 46.0165 40.4646 46.358 40.2498 46.6845C40.0324 47.0022 39.7417 47.2944 39.3776 47.5611C39.0197 47.8166 38.5634 48.0256 38.0089 48.1882C37.4456 48.3532 36.9419 48.4162 36.4976 48.3771C36.0507 48.3293 35.661 48.2036 35.3285 48C34.9934 47.7877 34.7149 47.5117 34.493 47.1722C34.2712 46.8326 34.098 46.4505 33.9736 46.0259C33.9177 45.8353 33.8514 45.5772 33.7748 45.2515C33.6956 44.9171 33.6131 44.5555 33.5274 44.1666C33.4503 43.7752 33.3694 43.3708 33.2847 42.9534C33.1974 42.5273 33.1122 42.1242 33.029 41.744C32.9544 41.3612 32.887 41.0187 32.8266 40.7165C32.7637 40.4056 32.7137 40.1709 32.6767 40.0124C32.6371 39.8452 32.6283 39.7349 32.6502 39.6814C32.6697 39.6193 32.714 39.5781 32.7833 39.5577L33.4982 39.3482C34.0268 39.1933 34.415 39.2018 34.663 39.3737C34.911 39.5457 35.0998 39.8526 35.2293 40.2945C35.2369 40.3205 35.2626 40.44 35.3062 40.6531C35.3559 40.8549 35.411 41.1069 35.4714 41.4092C35.5404 41.7088 35.6127 42.0358 35.6883 42.39C35.7726 42.7417 35.8474 43.0773 35.9128 43.3969C35.987 43.7139 36.0496 43.9919 36.1009 44.2309C36.1608 44.4674 36.2022 44.6247 36.225 44.7026C36.2682 44.8499 36.3221 45.0176 36.3866 45.2057C36.4598 45.3913 36.5478 45.5631 36.6506 45.7211C36.762 45.8767 36.8962 45.9973 37.0531 46.083C37.2161 46.1576 37.4145 46.1606 37.6485 46.092C37.9431 46.0056 38.1522 45.8361 38.2757 45.5835C38.4079 45.3283 38.481 45.0482 38.4951 44.7429C38.5178 44.4352 38.5046 44.1333 38.4554 43.8372C38.4149 43.5385 38.3767 43.2957 38.3407 43.1086C38.2458 42.6566 38.1471 42.1915 38.0446 41.7134C37.9508 41.2328 37.8572 40.7851 37.7638 40.3702C37.6791 39.9528 37.601 39.5899 37.5294 39.2816C37.4578 38.9732 37.4055 38.7627 37.3725 38.6501C37.3217 38.4768 37.303 38.3647 37.3163 38.3137C37.327 38.2541 37.3757 38.2116 37.4624 38.1862L38.1772 37.9767C38.4718 37.8903 38.7091 37.849 38.889 37.8528C39.0775 37.8539 39.2278 37.8852 39.3398 37.9464C39.4519 38.0077 39.5331 38.0921 39.5834 38.1996C39.6424 38.3047 39.6897 38.4178 39.7253 38.5391C39.7583 38.6518 39.8119 38.8666 39.886 39.1836C39.9687 39.4981 40.0599 39.8572 40.1594 40.2608C40.2589 40.6645 40.3578 41.0824 40.4563 41.5146C40.5548 41.9468 40.6336 42.3283 40.693 42.6591ZM44.6797 46.0917C44.1858 46.2364 43.8069 46.244 43.5431 46.1143C43.2854 45.9734 43.1007 45.7124 42.9889 45.3311C42.9584 45.2271 42.912 45.0526 42.8495 44.8074C42.7932 44.5511 42.7285 44.2501 42.6555 43.9045C42.5824 43.559 42.5004 43.1831 42.4096 42.7769C42.3249 42.3595 42.2389 41.9378 42.1517 41.5117C41.9645 40.6162 41.8038 39.8917 41.6698 39.3382C41.5445 38.7822 41.4448 38.3456 41.3707 38.0286C41.2824 37.6311 41.236 37.3765 41.2315 37.2649C41.2245 37.1447 41.2643 37.0718 41.3509 37.0464C41.6195 36.9677 41.8912 36.8834 42.1659 36.7934C42.4468 36.6923 42.7147 36.5949 42.9695 36.5014C43.2244 36.4079 43.4632 36.3238 43.686 36.2491C43.9148 36.1632 44.1202 36.0935 44.3022 36.0402C44.8568 35.8777 45.3537 35.8073 45.7929 35.8291C46.2321 35.8509 46.6098 35.9519 46.9261 36.1321C47.2511 36.3097 47.5219 36.5596 47.7387 36.8819C47.9641 37.2016 48.1416 37.5824 48.2711 38.0243C48.4693 38.7001 48.5115 39.3417 48.3978 39.949C48.2841 40.5563 47.9733 41.0849 47.4654 41.5349L49.0143 42.7746C49.2999 43.0108 49.5189 43.1959 49.6711 43.3301C49.8208 43.4556 49.9071 43.5573 49.93 43.6353C49.9477 43.696 49.9341 43.794 49.8892 43.9295C49.8503 44.0538 49.7738 44.1939 49.6595 44.3497C49.5513 44.4943 49.4047 44.6361 49.2196 44.7751C49.0432 44.9115 48.8293 45.0165 48.578 45.0901C48.3007 45.1714 48.0315 45.1516 47.7702 45.0305C47.5175 44.907 47.2657 44.722 47.0147 44.4757C46.7699 44.2181 46.5296 43.9122 46.294 43.5578C46.0671 43.2009 45.8394 42.8254 45.611 42.4313C45.294 42.5054 45.0295 42.55 44.8175 42.5651C44.9032 42.954 44.9839 43.3255 45.0595 43.6797C45.1351 44.034 45.2049 44.3522 45.2688 44.6346C45.3302 44.9083 45.3789 45.1387 45.415 45.3257C45.4484 45.5041 45.4702 45.6106 45.4804 45.6453C45.492 45.7171 45.49 45.7742 45.4741 45.8165C45.4557 45.8501 45.4076 45.8783 45.3296 45.9012L44.6797 46.0917ZM44.6137 38.066C44.5097 38.0965 44.3953 38.1394 44.2704 38.1949C44.143 38.2416 44.0082 38.2953 43.8659 38.3558C43.9375 38.6641 44.0225 39.0344 44.121 39.4666C44.2255 39.8876 44.3304 40.3414 44.4354 40.8282C44.759 40.8086 45.0334 40.7658 45.2587 40.6998C45.5273 40.621 45.7287 40.5055 45.8628 40.3533C46.0057 40.1985 46.1031 40.0335 46.1553 39.8583C46.2049 39.6744 46.2173 39.492 46.1925 39.311C46.1763 39.1276 46.148 38.9665 46.1073 38.8279C46.0032 38.4726 45.8365 38.2251 45.6074 38.0853C45.3782 37.9454 45.047 37.939 44.6137 38.066Z" fill="#464EBC"/>
</g>
<g filter="url(#filter1_d_3646_22611)">
<path d="M13.8229 26.9704C14.0369 26.8988 14.2268 26.8828 14.3924 26.9226C14.5638 26.9509 14.7195 27.0179 14.8595 27.1233C14.9967 27.2203 15.1239 27.3443 15.2412 27.4955C15.3584 27.6467 15.4686 27.805 15.5715 27.9705C16.3783 29.243 17.0434 30.2916 17.567 31.1162C18.0905 31.9407 18.5096 32.6098 18.8243 33.1234C19.1362 33.6284 19.3622 34.005 19.5024 34.2533C19.6426 34.5015 19.7299 34.677 19.7643 34.7798C19.8044 34.8997 19.8017 34.991 19.7561 35.0539C19.719 35.1139 19.6406 35.164 19.5207 35.2041L18.8656 35.4233C18.4974 35.5466 18.1877 35.6026 17.9364 35.5915C17.6908 35.5689 17.4794 35.4921 17.3022 35.361C17.1336 35.227 16.9835 35.0487 16.8519 34.8261C16.7174 34.595 16.5815 34.3311 16.444 34.0343L14.2092 34.7822L14.3785 36.6965C14.3816 36.8479 14.306 36.9493 14.1519 37.0009L13.4712 37.2287C13.3342 37.2746 13.1886 37.309 13.0344 37.332C12.8774 37.3465 12.7275 37.3396 12.5847 37.3112C12.4504 37.2799 12.3276 37.2258 12.2161 37.1489C12.1018 37.0633 12.0189 36.9435 11.9673 36.7894C11.9042 36.601 11.861 36.2727 11.8376 35.8044C11.8142 35.3362 11.8021 34.8022 11.8014 34.2026C11.8064 33.5916 11.8213 32.9534 11.8462 32.288C11.8768 31.6113 11.9103 30.9716 11.9467 30.3691C11.9831 29.7666 12.0196 29.2354 12.0561 28.7757C12.1013 28.3131 12.1437 27.9846 12.1834 27.7904C12.2118 27.6476 12.2488 27.5591 12.2945 27.5248C12.3458 27.479 12.4486 27.4303 12.6027 27.3788L13.8229 26.9704ZM14.0483 32.7651L15.5253 32.2708L13.8511 29.0605L14.0483 32.7651ZM26.5353 32.8565C26.1842 32.974 25.9059 33.01 25.7002 32.9646C25.4946 32.9191 25.3274 32.8323 25.1988 32.7039C24.4469 31.9367 23.7336 31.1995 23.0589 30.4922C22.3927 29.782 21.7151 29.0661 21.0261 28.3445C21.3442 29.2664 21.6651 30.1826 21.9888 31.0931C22.3126 32.0036 22.6378 32.9183 22.9644 33.8373C23.0074 33.9658 22.9604 34.0529 22.8234 34.0988L22.117 34.3352C21.6289 34.4985 21.2506 34.5204 20.982 34.4008C20.7192 34.2698 20.5247 34.0159 20.3986 33.6391C20.3642 33.5364 20.3112 33.3637 20.2395 33.1211C20.1735 32.867 20.0975 32.5687 20.0114 32.2262C19.9254 31.8837 19.8293 31.5111 19.7231 31.1087C19.6227 30.6948 19.5208 30.2766 19.4175 29.8541C19.2511 29.1861 19.1134 28.6324 19.0043 28.1928C18.8953 27.7532 18.8006 27.385 18.7203 27.0881C18.6457 26.7798 18.5783 26.5215 18.5181 26.3131C18.455 26.0962 18.3934 25.8835 18.3332 25.6752C18.2902 25.5467 18.3372 25.4596 18.4742 25.4137L19.5017 25.0698C19.7843 24.9753 20.0269 24.9321 20.2297 24.9405C20.4295 24.9402 20.6038 24.9771 20.7523 25.0512C20.9095 25.1224 21.0466 25.2193 21.1638 25.3419C21.2782 25.456 21.3911 25.5801 21.5027 25.7142C21.8858 26.1763 22.219 26.5742 22.502 26.9079C22.7937 27.2388 23.0482 27.5297 23.2655 27.7807C23.4828 28.0318 23.6701 28.25 23.8274 28.4354C23.9932 28.6179 24.1447 28.7862 24.282 28.9402C24.4192 29.0943 24.555 29.244 24.6894 29.3895C24.8209 29.5264 24.9624 29.6789 25.114 29.8472C24.9449 29.342 24.7672 28.8254 24.581 28.2974C24.4005 27.758 24.2214 27.2371 24.0437 26.7347C23.8718 26.221 23.7027 25.7301 23.5366 25.262C23.3789 24.791 23.2371 24.3672 23.111 23.9904C23.0852 23.9134 23.1451 23.8505 23.2907 23.8018L23.9971 23.5653C24.2797 23.4708 24.5123 23.4262 24.6951 23.4317C24.8835 23.4258 25.0435 23.4627 25.1749 23.5425C25.3035 23.6137 25.4064 23.7221 25.4837 23.8676C25.5695 24.0103 25.6454 24.1801 25.7113 24.3771C25.7829 24.5911 25.8804 24.9251 26.0037 25.3789C26.1242 25.8242 26.259 26.3266 26.4082 26.8861C26.5573 27.4456 26.7094 28.0279 26.8643 28.633C27.0163 29.2296 27.1541 29.7834 27.2774 30.2943C27.4094 30.8024 27.517 31.2378 27.6003 31.6003C27.6892 31.9514 27.7394 32.1583 27.7509 32.2211C27.7738 32.2896 27.7653 32.3496 27.7254 32.4011C27.6941 32.4496 27.6484 32.484 27.5885 32.504L26.5353 32.8565ZM30.6178 21.3495C30.8319 21.2779 31.0218 21.262 31.1874 21.3017C31.3588 21.3301 31.5145 21.397 31.6545 21.5025C31.7917 21.5994 31.9189 21.7235 32.0362 21.8747C32.1534 22.0258 32.2635 22.1842 32.3665 22.3497C33.1733 23.6222 33.8384 24.6707 34.362 25.4953C34.8855 26.3199 35.3046 26.989 35.6193 27.5025C35.9312 28.0076 36.1572 28.3842 36.2974 28.6324C36.4376 28.8807 36.5249 29.0562 36.5593 29.1589C36.5994 29.2788 36.5967 29.3702 36.5511 29.4331C36.514 29.4931 36.4355 29.5431 36.3157 29.5833L35.6606 29.8025C35.2924 29.9257 34.9827 29.9818 34.7314 29.9706C34.4858 29.9481 34.2744 29.8713 34.0972 29.7401C33.9286 29.6061 33.7785 29.4279 33.6469 29.2053C33.5124 28.9742 33.3764 28.7102 33.239 28.4134L31.0042 29.1614L31.1735 31.0757C31.1766 31.227 31.101 31.3285 30.9469 31.3801L30.2662 31.6079C30.1292 31.6537 29.9836 31.6882 29.8294 31.7112C29.6724 31.7257 29.5225 31.7187 29.3797 31.6903C29.2454 31.6591 29.1226 31.605 29.0111 31.528C28.8968 31.4425 28.8139 31.3227 28.7623 31.1685C28.6992 30.9802 28.656 30.6518 28.6326 30.1836C28.6092 29.7153 28.5971 29.1814 28.5964 28.5818C28.6014 27.9707 28.6163 27.3325 28.6412 26.6672C28.6718 25.9904 28.7053 25.3508 28.7417 24.7483C28.7781 24.1457 28.8146 23.6146 28.8511 23.1548C28.8963 22.6922 28.9387 22.3638 28.9784 22.1696C29.0068 22.0268 29.0438 21.9382 29.0895 21.9039C29.1408 21.8582 29.2435 21.8095 29.3977 21.7579L30.6178 21.3495ZM30.8433 27.1442L32.3203 26.6499L30.6461 23.4396L30.8433 27.1442ZM38.912 28.7144C38.4324 28.8748 38.0584 28.8953 37.7899 28.7757C37.5213 28.6561 37.3283 28.4207 37.2108 28.0697C37.1535 27.8984 37.0689 27.603 36.957 27.1834C36.8423 26.7552 36.7175 26.2685 36.5827 25.7233C36.4478 25.1781 36.3029 24.6029 36.148 23.9978C35.9931 23.3926 35.8496 22.8217 35.7176 22.2851C35.5856 21.7484 35.4666 21.2789 35.3604 20.8764C35.2543 20.4739 35.1769 20.1999 35.1281 20.0543C35.0852 19.9259 35.1322 19.8387 35.2692 19.7929L35.9756 19.5565C36.4551 19.396 36.8163 19.3798 37.0591 19.508C37.3077 19.6248 37.4922 19.863 37.6125 20.2226C37.6268 20.2654 37.6355 20.3054 37.6384 20.3425C37.6498 20.3768 37.6627 20.4153 37.677 20.4581L39.2606 26.5981L41.5725 25.8244C41.6239 25.8072 41.6767 25.8085 41.731 25.8285C41.7824 25.8398 41.8182 25.8755 41.8382 25.9354L42.0404 26.7104C42.1093 26.973 42.1067 27.2071 42.0327 27.4128C41.9644 27.6071 41.7376 27.7687 41.3523 27.8976L38.912 28.7144ZM45.7276 26.4333C45.2138 26.6053 44.8298 26.6243 44.5755 26.4904C44.3184 26.348 44.1196 26.0669 43.9792 25.6474C43.9304 25.5018 43.8602 25.2635 43.7684 24.9324C43.6767 24.6012 43.5461 24.0831 43.3768 23.3781C43.2653 23.2726 43.1681 23.1813 43.0852 23.1043C43.0023 23.0273 42.918 22.946 42.8322 22.8605C42.7465 22.7749 42.6507 22.6737 42.5449 22.5567C42.4391 22.4398 42.3047 22.2943 42.1418 22.1203C41.8902 21.8522 41.6 21.5399 41.2712 21.1834C40.9509 20.824 40.6407 20.4803 40.3405 20.1523C40.0374 19.8158 39.7758 19.5177 39.5556 19.2581C39.344 18.9957 39.2253 18.8259 39.1995 18.7489C39.1393 18.569 39.3961 18.3831 39.9698 18.1911C40.3294 18.0708 40.6292 18.0133 40.869 18.0187C41.1146 18.0127 41.3273 18.051 41.5073 18.1336C41.6845 18.2076 41.8359 18.3188 41.9617 18.4671C42.0847 18.6069 42.2077 18.7609 42.3306 18.9292C42.4908 19.1518 42.6081 19.3172 42.6825 19.4257C42.7568 19.5341 42.8155 19.6239 42.8584 19.6953C42.9099 19.7637 42.9613 19.8322 43.0128 19.9007C43.0614 19.9606 43.1329 20.0604 43.2273 20.2002C43.3303 20.3372 43.4704 20.5283 43.6478 20.7737C43.8251 21.019 44.0711 21.3556 44.3857 21.7836C44.4592 21.1781 44.5143 20.6884 44.5509 20.3143C44.5962 19.9373 44.6286 19.5932 44.6482 19.2819C44.6649 18.9621 44.6717 18.6409 44.6685 18.3182C44.6709 17.9842 44.6733 17.5644 44.6755 17.059C44.6724 16.8791 44.6894 16.7592 44.7265 16.6992C44.7692 16.6277 44.8505 16.572 44.9704 16.5318C45.0132 16.5175 45.1317 16.4874 45.3258 16.4415C45.5256 16.3841 45.7368 16.3467 45.9595 16.3293C46.1908 16.3091 46.4107 16.3259 46.6192 16.3799C46.8277 16.4339 46.9635 16.5551 47.0265 16.7435C47.0752 16.8891 47.0926 17.1118 47.0787 17.4116C47.0734 17.7086 47.0452 18.0512 46.9943 18.4396C46.9491 18.8166 46.881 19.225 46.7902 19.6648C46.7079 20.1018 46.6142 20.5331 46.5091 20.9587C46.4039 21.3842 46.2902 21.7841 46.1679 22.1583C46.0512 22.5211 45.9345 22.8268 45.8178 23.0753C45.878 23.2837 45.9468 23.532 46.0242 23.8203C46.1103 24.1058 46.1877 24.3941 46.2566 24.6852C46.3312 24.965 46.3986 25.2233 46.4588 25.4602C46.5162 25.6886 46.5549 25.847 46.575 25.9355C46.5894 26.0069 46.5895 26.064 46.5752 26.1068C46.5581 26.1411 46.5111 26.1711 46.434 26.1969L45.7276 26.4333ZM49.9838 25.0089C49.8896 25.0404 49.8267 25.0091 49.7952 24.9149L49.6016 24.2084C49.5844 24.1285 49.5657 24.03 49.5456 23.913C49.5226 23.7874 49.5281 23.676 49.5623 23.5789C49.619 23.2647 49.6986 22.9191 49.8009 22.5421C49.9032 22.1651 50.0255 21.7052 50.1676 21.1625C50.3097 20.6198 50.4688 19.9715 50.6449 19.2174C50.8267 18.452 51.0227 17.5295 51.2326 16.4499L48.3042 17.4299C48.2357 17.4529 48.1886 17.4543 48.1629 17.4344C48.1457 17.4116 48.1257 17.3659 48.1028 17.2974L47.9006 16.5652C47.8719 16.4511 47.8489 16.3397 47.8316 16.2313C47.8201 16.1113 47.8299 15.9985 47.8612 15.8929C47.9011 15.7843 47.9723 15.6843 48.075 15.5928C48.1777 15.5013 48.3275 15.4226 48.5244 15.3567L53.4308 13.7146C53.4822 13.6974 53.5336 13.6945 53.585 13.7059C53.6364 13.7172 53.6736 13.7572 53.6965 13.8257L53.8773 14.5364C53.9346 14.7648 53.9449 14.9661 53.908 15.1403C53.8966 15.1917 53.8412 15.4388 53.7418 15.8815C53.6396 16.3156 53.5103 16.8683 53.3541 17.5395C53.1978 18.2107 53.0203 18.9604 52.8214 19.7887C52.6311 20.6142 52.4351 21.4367 52.2333 22.2565L55.4957 21.1646C55.5471 21.1475 55.5985 21.1445 55.6499 21.1559C55.7013 21.1673 55.7384 21.2072 55.7614 21.2757L55.9636 22.0507C56.0325 22.3133 56.0299 22.5474 55.9559 22.7531C55.8876 22.9474 55.6608 23.109 55.2755 23.2379L49.9838 25.0089ZM58.8552 22.0399C58.3757 22.2003 58.0017 22.2208 57.7331 22.1012C57.4646 21.9816 57.2716 21.7462 57.1541 21.3952C57.0968 21.2239 57.0122 20.9285 56.9003 20.5089C56.7856 20.0807 56.6608 19.594 56.5259 19.0488C56.3911 18.5036 56.2462 17.9284 56.0913 17.3233C55.9363 16.7181 55.7929 16.1472 55.6609 15.6106C55.5289 15.0739 55.4098 14.6044 55.3037 14.2019C55.1976 13.7994 55.1201 13.5254 55.0714 13.3798C55.0284 13.2514 55.0754 13.1642 55.2124 13.1184L59.7335 11.6053C59.7849 11.5881 59.8363 11.5852 59.8877 11.5965C59.9391 11.6079 59.9763 11.6478 59.9992 11.7163L60.2014 12.4913C60.2703 12.7539 60.2677 12.9881 60.1937 13.1937C60.1254 13.388 59.8986 13.5496 59.5133 13.6786L57.7408 14.2718L58.2185 16.1257L60.0423 15.5153C60.0937 15.4981 60.1451 15.4952 60.1965 15.5066C60.2479 15.518 60.2851 15.5579 60.308 15.6264L60.5102 16.4014C60.5791 16.664 60.5765 16.8981 60.5025 17.1038C60.4342 17.298 60.2074 17.4596 59.8221 17.5886L58.7047 17.9626L59.2039 19.9236L62.0296 18.9779C62.0809 18.9607 62.1338 18.9621 62.188 18.982C62.2394 18.9934 62.2752 19.029 62.2952 19.089L62.4975 19.864C62.5663 20.1266 62.5637 20.3607 62.4898 20.5664C62.4215 20.7606 62.1947 20.9222 61.8093 21.0512L58.8552 22.0399Z" fill="white"/>
</g>
<g filter="url(#filter2_d_3646_22611)">
<path d="M23.7232 71.7799C23.2312 71.931 22.8525 71.9435 22.587 71.8172C22.3275 71.6797 22.1394 71.4211 22.0227 71.0413C21.9882 70.9291 21.9382 70.7508 21.8726 70.5065C21.8129 70.2509 21.7443 69.9508 21.6668 69.6062C21.5893 69.2616 21.5025 68.8868 21.4064 68.4819C21.3189 68.0742 21.2288 67.6579 21.136 67.233C21.0227 66.7105 20.9233 66.264 20.8378 65.8936C20.7583 65.5118 20.6874 65.1888 20.6251 64.9246C20.5602 64.6517 20.5055 64.4276 20.4611 64.2524C20.4227 64.0658 20.3836 63.9078 20.3438 63.7783C20.31 63.6376 20.2759 63.5111 20.2414 63.3989C20.2156 63.284 20.1827 63.1618 20.143 63.0324C20.1218 62.9633 20.1287 62.9092 20.1639 62.8701C20.1965 62.8223 20.2343 62.7918 20.2775 62.7785C20.5019 62.7096 20.7466 62.6297 21.0115 62.5388C21.2738 62.4394 21.536 62.3399 21.7983 62.2404C22.0606 62.1409 22.3155 62.0484 22.5632 61.9629C22.8082 61.8687 23.0256 61.7925 23.2155 61.7341C23.7679 61.5644 24.2638 61.4876 24.7033 61.5037C25.1401 61.5112 25.5191 61.6073 25.8404 61.792C26.1676 61.9654 26.443 62.2161 26.6666 62.5441C26.8988 62.8695 27.0865 63.2653 27.2297 63.7314C27.3862 64.2406 27.4683 64.7538 27.476 65.2709C27.4898 65.7768 27.4099 66.2548 27.2364 66.7048C27.063 67.1548 26.785 67.5567 26.4025 67.9103C26.0199 68.264 25.518 68.5363 24.8965 68.7273C24.5254 68.8413 24.1984 68.8992 23.9156 68.9011L24.4662 71.339C24.4788 71.4107 24.4775 71.4678 24.4622 71.5103C24.4443 71.5442 24.3964 71.573 24.3188 71.5969L23.7232 71.7799ZM23.5532 63.7557C23.441 63.7902 23.3185 63.8373 23.1857 63.897C23.0503 63.948 22.9075 64.0061 22.7575 64.0711C22.8516 64.4389 22.9653 64.8857 23.0985 65.4115C23.2317 65.9374 23.3642 66.4917 23.4961 67.0747C23.6362 67.0694 23.7693 67.0569 23.8954 67.037C24.0276 67.0058 24.1454 66.9744 24.249 66.9425C24.5511 66.8497 24.7715 66.7064 24.9104 66.5126C25.0552 66.3076 25.1475 66.0855 25.1875 65.8466C25.2274 65.6076 25.2302 65.3706 25.1957 65.1356C25.1613 64.9006 25.1189 64.701 25.0685 64.5371C24.9545 64.1659 24.782 63.9119 24.551 63.7751C24.326 63.6269 23.9934 63.6205 23.5532 63.7557ZM31.7033 59.1122C32.3334 58.9186 32.9006 58.8435 33.4052 58.8868C33.907 58.9216 34.3534 59.0678 34.7443 59.3255C35.1326 59.5746 35.467 59.9253 35.7476 60.3775C36.0256 60.8211 36.2601 61.3536 36.451 61.975C36.5571 62.3203 36.6465 62.7037 36.7194 63.1253C36.8009 63.5442 36.8405 63.9807 36.8384 64.4348C36.8422 64.8776 36.7945 65.322 36.6954 65.7681C36.5963 66.2142 36.4192 66.637 36.1641 67.0365C35.9177 67.4334 35.5849 67.7954 35.1659 68.1225C34.7442 68.441 34.2097 68.6997 33.5624 68.8985C32.846 69.1187 32.2173 69.1937 31.6762 69.1238C31.1439 69.0512 30.6796 68.8774 30.2834 68.6024C29.8931 68.3162 29.5607 67.9413 29.286 67.4778C29.02 67.0117 28.7995 66.4938 28.6245 65.9241C28.4176 65.2509 28.2938 64.571 28.2529 63.8846C28.2094 63.1895 28.2919 62.5359 28.5007 61.924C28.718 61.3093 29.0823 60.7581 29.5937 60.2704C30.1024 59.774 30.8056 59.388 31.7033 59.1122ZM32.0479 61.2025C31.7459 61.2953 31.4998 61.4323 31.3099 61.6134C31.1259 61.7833 30.9841 61.9827 30.8845 62.2117C30.7934 62.4381 30.7349 62.678 30.7089 62.9316C30.6915 63.1825 30.6941 63.4368 30.7165 63.6944C30.7364 63.9433 30.7721 64.1827 30.8238 64.4124C30.8728 64.6335 30.9239 64.8303 30.9769 65.003C31.2182 65.7884 31.524 66.3226 31.8944 66.6056C32.2733 66.8859 32.7045 66.9518 33.1878 66.8033C33.5849 66.6813 33.8701 66.4567 34.0435 66.1295C34.2142 65.7936 34.3143 65.4275 34.3437 65.0312C34.379 64.6236 34.3642 64.222 34.2993 63.8263C34.2318 63.422 34.1569 63.086 34.0747 62.8185C33.8811 62.1884 33.6207 61.7252 33.2936 61.429C32.9638 61.1242 32.5486 61.0487 32.0479 61.2025ZM40.539 66.6133C40.047 66.7645 39.6683 66.777 39.4028 66.6507C39.1433 66.5132 38.9552 66.2545 38.8385 65.8748C38.8067 65.7712 38.7579 65.5972 38.6923 65.3529C38.6327 65.0973 38.5641 64.7972 38.4866 64.4526C38.409 64.1081 38.3222 63.7333 38.2261 63.3283C38.136 62.912 38.0446 62.4914 37.9518 62.0665C37.753 61.1735 37.583 60.4512 37.4419 59.8995C37.3093 59.3451 37.2039 58.9099 37.1257 58.5939C37.0323 58.1975 36.9826 57.9435 36.9767 57.832C36.9681 57.7119 37.007 57.6385 37.0933 57.612C37.3608 57.5298 37.6314 57.4419 37.905 57.3484C38.1845 57.2437 38.4511 57.1429 38.7047 57.0461C38.9583 56.9492 39.196 56.862 39.4178 56.7845C39.6455 56.6956 39.85 56.6233 40.0313 56.5676C40.5837 56.3979 41.0796 56.3211 41.5191 56.3372C41.9586 56.3533 42.3376 56.4494 42.6562 56.6255C42.9834 56.7989 43.2574 57.0453 43.4784 57.3647C43.7079 57.6814 43.8903 58.0599 44.0256 58.5001C44.2324 59.1733 44.283 59.8143 44.1772 60.423C44.0714 61.0317 43.7674 61.5644 43.2654 62.0209L44.8302 63.2404C45.1189 63.4729 45.3402 63.6552 45.4942 63.7873C45.6455 63.9109 45.7331 64.0115 45.757 64.0892C45.7755 64.1496 45.7632 64.2478 45.72 64.3839C45.6828 64.5087 45.608 64.6497 45.4958 64.807C45.3895 64.953 45.2447 65.0967 45.0614 65.238C44.8868 65.3767 44.6743 65.4845 44.424 65.5614C44.1478 65.6463 43.8783 65.6299 43.6154 65.5123C43.3612 65.392 43.107 65.2103 42.8529 64.9673C42.6047 64.7129 42.3605 64.4101 42.1204 64.0588C41.8888 63.7049 41.6563 63.3324 41.4228 62.9412C41.1067 63.0194 40.8428 63.0675 40.6311 63.0853C40.7218 63.473 40.8073 63.8435 40.8875 64.1967C40.9677 64.5499 41.0416 64.8673 41.1092 65.1488C41.1741 65.4216 41.2258 65.6514 41.2642 65.8379C41.3 66.0159 41.3232 66.1221 41.3338 66.1566C41.3464 66.2283 41.345 66.2854 41.3298 66.3279C41.3118 66.3617 41.264 66.3906 41.1863 66.4145L40.539 66.6133ZM40.369 58.5892C40.2654 58.621 40.1516 58.6655 40.0274 58.7225C39.9006 58.7709 39.7665 58.8263 39.625 58.8886C39.7006 59.196 39.7904 59.5652 39.8944 59.9961C40.0045 60.4157 40.1152 60.8681 40.2265 61.3535C40.5498 61.3297 40.8237 61.2833 41.0481 61.2144C41.3156 61.1322 41.5155 61.0141 41.6477 60.8601C41.7885 60.7035 41.8838 60.5373 41.9337 60.3614C41.9809 60.1768 41.9909 59.9943 41.9638 59.8137C41.9453 59.6305 41.9148 59.4698 41.8724 59.3317C41.7636 58.9778 41.5938 58.7324 41.3628 58.5956C41.1318 58.4587 40.8006 58.4566 40.369 58.5892ZM49.0094 55.9345L50.7252 63.2712C50.7563 63.4033 50.7287 63.4826 50.6424 63.5091L49.9303 63.7279C49.447 63.8764 49.0726 63.8876 48.8071 63.7613C48.5416 63.6351 48.3545 63.395 48.2457 63.0411C48.206 62.9117 48.1506 62.7161 48.0797 62.4545C48.0174 62.1903 47.9462 61.8816 47.866 61.5284C47.7831 61.1665 47.6924 60.7788 47.5936 60.3652C47.5008 59.9403 47.4081 59.5154 47.3153 59.0905C47.2199 58.6569 47.1215 58.229 47.0201 57.8068C46.9273 57.3819 46.8395 56.9885 46.7567 56.6267L44.6852 57.2631C44.5902 57.2923 44.5242 57.2464 44.4871 57.1256L44.3032 56.3886C44.2773 56.2738 44.2614 56.1606 44.2555 56.0491C44.2556 55.9262 44.2768 55.8111 44.3194 55.7035C44.3619 55.596 44.427 55.5005 44.5147 55.4168C44.611 55.3306 44.7368 55.2636 44.8922 55.2158L50.6794 53.4378C50.7312 53.4218 50.7827 53.4202 50.8338 53.4328C50.8849 53.4455 50.921 53.4863 50.9423 53.5554L51.1252 54.3351C51.1875 54.5994 51.1791 54.8334 51.1 55.0372C51.0269 55.2297 50.7961 55.3856 50.4077 55.5049L49.0094 55.9345ZM55.4218 57.9459L56.2657 61.5689C56.2783 61.6406 56.2856 61.695 56.2876 61.7322C56.2955 61.7581 56.2607 61.783 56.183 61.8069L55.4709 62.0256C54.9875 62.1741 54.6131 62.1853 54.3476 62.059C54.0821 61.9328 53.895 61.6927 53.7863 61.3388C53.7333 61.1662 53.656 60.8688 53.5546 60.4465C53.4506 60.0156 53.3379 59.526 53.2167 58.9776C53.0954 58.4292 52.9649 57.8506 52.8251 57.2418C52.6852 56.633 52.556 56.0587 52.4374 55.5189C52.3188 54.9791 52.2114 54.5068 52.1154 54.1018C52.0193 53.6968 51.9487 53.4209 51.9036 53.2742C51.8638 53.1447 51.913 53.0588 52.0511 53.0163L56.6084 51.6161C56.6602 51.6002 56.7116 51.5986 56.7627 51.6112C56.8138 51.6239 56.85 51.6647 56.8712 51.7337L57.0541 52.5135C57.1164 52.7778 57.108 53.0118 57.0289 53.2155C56.9558 53.408 56.7251 53.5639 56.3367 53.6833L54.55 54.2322L54.9814 56.0975L56.8199 55.5327C56.8717 55.5167 56.9231 55.5151 56.9742 55.5277C57.0253 55.5404 57.0615 55.5812 57.0827 55.6503L57.2656 56.43C57.3279 56.6943 57.3195 56.9283 57.2404 57.1321C57.1673 57.3246 56.9366 57.4805 56.5482 57.5998L55.4218 57.9459ZM61.7694 49.8746C62.3995 49.681 62.9668 49.6059 63.4713 49.6493C63.9731 49.684 64.4195 49.8302 64.8104 50.088C65.1987 50.3371 65.5331 50.6877 65.8137 51.1399C66.0917 51.5835 66.3262 52.116 66.5171 52.7374C66.6232 53.0827 66.7127 53.4661 66.7855 53.8877C66.867 54.3066 66.9066 54.7431 66.9045 55.1972C66.9083 55.64 66.8606 56.0844 66.7615 56.5305C66.6624 56.9766 66.4853 57.3994 66.2302 57.7989C65.9838 58.1958 65.651 58.5578 65.232 58.8849C64.8103 59.2034 64.2758 59.4621 63.6285 59.661C62.9121 59.8811 62.2834 59.9562 61.7424 59.8862C61.21 59.8137 60.7457 59.6399 60.3495 59.3649C59.9592 59.0786 59.6268 58.7037 59.3521 58.2402C59.0861 57.7741 58.8656 57.2562 58.6906 56.6865C58.4837 56.0133 58.3599 55.3334 58.319 54.647C58.2755 53.9519 58.3581 53.2984 58.5668 52.6864C58.7841 52.0717 59.1484 51.5206 59.6598 51.0328C60.1685 50.5365 60.8717 50.1504 61.7694 49.8746ZM62.1141 51.9649C61.812 52.0577 61.5659 52.1947 61.376 52.3759C61.192 52.5457 61.0502 52.7452 60.9506 52.9741C60.8595 53.2005 60.801 53.4404 60.775 53.694C60.7576 53.945 60.7602 54.1992 60.7827 54.4568C60.8025 54.7058 60.8382 54.9451 60.8899 55.1748C60.9389 55.3959 60.99 55.5928 61.043 55.7654C61.2843 56.5508 61.5902 57.085 61.9605 57.368C62.3394 57.6483 62.7706 57.7142 63.2539 57.5657C63.651 57.4437 63.9362 57.2191 64.1096 56.8919C64.2803 56.556 64.3804 56.19 64.4098 55.7937C64.4451 55.3861 64.4303 54.9844 64.3654 54.5887C64.2979 54.1844 64.223 53.8485 64.1408 53.5809C63.9472 52.9508 63.6869 52.4877 63.3597 52.1915C63.0299 51.8866 62.6147 51.8111 62.1141 51.9649ZM70.6051 57.3758C70.1217 57.5243 69.7473 57.5354 69.4818 57.4092C69.2163 57.2829 69.0292 57.0429 68.9205 56.689C68.8675 56.5164 68.7902 56.2189 68.6888 55.7967C68.5848 55.3658 68.4721 54.8761 68.3509 54.3277C68.2296 53.7793 68.0991 53.2007 67.9593 52.5919C67.8194 51.9831 67.6902 51.4088 67.5716 50.869C67.453 50.3293 67.3457 49.8569 67.2496 49.4519C67.1535 49.0469 67.0829 48.771 67.0378 48.6243C66.998 48.4948 67.0472 48.4089 67.1853 48.3665L67.8974 48.1477C68.3807 47.9992 68.7422 47.992 68.9818 48.1262C69.2274 48.2491 69.4058 48.4918 69.5172 48.8544C69.5305 48.8975 69.5381 48.9377 69.5401 48.9749C69.5507 49.0094 69.5626 49.0482 69.5759 49.0914L71.0063 55.2688L73.3367 54.5528C73.3885 54.5369 73.4413 54.5396 73.495 54.5609C73.5461 54.5735 73.581 54.61 73.5995 54.6705L73.7824 55.4502C73.8447 55.7145 73.8363 55.9485 73.7573 56.1522C73.6842 56.3447 73.4534 56.5006 73.065 56.62L70.6051 57.3758ZM76.4084 55.5927C75.9251 55.7412 75.5507 55.7524 75.2852 55.6261C75.0197 55.4999 74.8326 55.2598 74.7238 54.9059C74.6708 54.7333 74.5936 54.4359 74.4922 54.0136C74.3881 53.5827 74.2755 53.0931 74.1542 52.5447C74.033 51.9963 73.9024 51.4177 73.7626 50.8089C73.6228 50.2001 73.4936 49.6258 73.375 49.086C73.2563 48.5462 73.149 48.0739 73.0529 47.6689C72.9568 47.2639 72.8862 46.988 72.8411 46.8413C72.8014 46.7118 72.8505 46.6259 72.9886 46.5834L73.7007 46.3647C74.2272 46.2029 74.6156 46.2064 74.8658 46.3751C75.116 46.5438 75.3087 46.8483 75.4439 47.2885C75.4572 47.3316 75.491 47.4724 75.5453 47.7107C75.6083 47.9464 75.6812 48.2452 75.764 48.607C75.8469 48.9689 75.9387 49.3752 76.0394 49.826C76.1461 50.2655 76.2524 50.7193 76.3585 51.1874C76.4731 51.6528 76.5808 52.1109 76.6815 52.5617C76.7882 53.0012 76.883 53.4019 76.9658 53.7637C77.0487 54.1255 77.1186 54.43 77.1756 54.6769C77.2299 54.9153 77.2607 55.0617 77.268 55.1161C77.2806 55.1878 77.2792 55.2449 77.2639 55.2874C77.246 55.3212 77.1982 55.3501 77.1205 55.374L76.4084 55.5927ZM80.8483 44.0127C81.4784 43.8192 82.0457 43.744 82.5502 43.7874C83.0521 43.8221 83.4985 43.9684 83.8894 44.2261C84.2776 44.4752 84.6121 44.8259 84.8927 45.2781C85.1707 45.7216 85.4051 46.2541 85.5961 46.8756C85.7021 47.2208 85.7916 47.6043 85.8645 48.0258C85.9459 48.4448 85.9856 48.8813 85.9834 49.3353C85.9872 49.7781 85.9396 50.2226 85.8405 50.6686C85.7414 51.1147 85.5643 51.5375 85.3092 51.9371C85.0627 52.334 84.73 52.696 84.311 53.0231C83.8893 53.3415 83.3548 53.6002 82.7074 53.7991C81.991 54.0192 81.3623 54.0943 80.8213 54.0244C80.2889 53.9518 79.8246 53.778 79.4284 53.503C79.0382 53.2167 78.7057 52.8418 78.4311 52.3784C78.1651 51.9122 77.9446 51.3943 77.7695 50.8247C77.5627 50.1514 77.4388 49.4716 77.3979 48.7851C77.3544 48.0901 77.437 47.4365 77.6457 46.8245C77.863 46.2099 78.2274 45.6587 78.7388 45.171C79.2475 44.6746 79.9507 44.2885 80.8483 44.0127ZM81.193 46.103C80.8909 46.1959 80.6449 46.3328 80.455 46.514C80.271 46.6839 80.1292 46.8833 80.0295 47.1123C79.9385 47.3386 79.88 47.5786 79.854 47.8322C79.8366 48.0831 79.8391 48.3374 79.8616 48.595C79.8814 48.8439 79.9172 49.0832 79.9689 49.313C80.0179 49.534 80.0689 49.7309 80.122 49.9035C80.3633 50.689 80.6691 51.2232 81.0394 51.5061C81.4184 51.7864 81.8495 51.8523 82.3329 51.7038C82.7299 51.5818 83.0151 51.3572 83.1885 51.03C83.3593 50.6942 83.4593 50.3281 83.4887 49.9318C83.5241 49.5242 83.5093 49.1226 83.4444 48.7269C83.3769 48.3226 83.302 47.9866 83.2198 47.719C83.0262 47.089 82.7658 46.6258 82.4386 46.3296C82.1088 46.0247 81.6936 45.9492 81.193 46.103Z" fill="white"/>
</g>
<defs>
<filter id="filter0_d_3646_22611" x="14.6782" y="35.1094" width="40.4625" height="24.0257" filterUnits="userSpaceOnUse" color-interpolation-filters="sRGB">
<feFlood flood-opacity="0" result="BackgroundImageFix"/>
<feColorMatrix in="SourceAlpha" type="matrix" values="0 0 0 0 0 0 0 0 0 0 0 0 0 0 0 0 0 0 127 0" result="hardAlpha"/>
<feOffset dx="2.46258" dy="2.46258"/>
<feGaussianBlur stdDeviation="1.23129"/>
<feComposite in2="hardAlpha" operator="out"/>
<feColorMatrix type="matrix" values="0 0 0 0 0.27451 0 0 0 0 0.305882 0 0 0 0 0.737255 0 0 0 0.3 0"/>
<feBlend mode="normal" in2="BackgroundImageFix" result="effect1_dropShadow_3646_22611"/>
<feBlend mode="normal" in="SourceGraphic" in2="effect1_dropShadow_3646_22611" result="shape"/>
</filter>
<filter id="filter1_d_3646_22611" x="6.72785" y="11.5107" width="58.7257" height="31.0511" filterUnits="userSpaceOnUse" color-interpolation-filters="sRGB">
<feFlood flood-opacity="0" result="BackgroundImageFix"/>
<feColorMatrix in="SourceAlpha" type="matrix" values="0 0 0 0 0 0 0 0 0 0 0 0 0 0 0 0 0 0 127 0" result="hardAlpha"/>
<feOffset dy="2.46258"/>
<feGaussianBlur stdDeviation="1.23129"/>
<feComposite in2="hardAlpha" operator="out"/>
<feColorMatrix type="matrix" values="0 0 0 0 0 0 0 0 0 0 0 0 0 0 0 0 0 0 0.25 0"/>
<feBlend mode="normal" in2="BackgroundImageFix" result="effect1_dropShadow_3646_22611"/>
<feBlend mode="normal" in="SourceGraphic" in2="effect1_dropShadow_3646_22611" result="shape"/>
</filter>
<filter id="filter2_d_3646_22611" x="17.0462" y="42.9268" width="72.7069" height="34.3216" filterUnits="userSpaceOnUse" color-interpolation-filters="sRGB">
<feFlood flood-opacity="0" result="BackgroundImageFix"/>
<feColorMatrix in="SourceAlpha" type="matrix" values="0 0 0 0 0 0 0 0 0 0 0 0 0 0 0 0 0 0 127 0" result="hardAlpha"/>
<feOffset dy="2.46258"/>
<feGaussianBlur stdDeviation="1.23129"/>
<feComposite in2="hardAlpha" operator="out"/>
<feColorMatrix type="matrix" values="0 0 0 0 0 0 0 0 0 0 0 0 0 0 0 0 0 0 0.25 0"/>
<feBlend mode="normal" in2="BackgroundImageFix" result="effect1_dropShadow_3646_22611"/>
<feBlend mode="normal" in="SourceGraphic" in2="effect1_dropShadow_3646_22611" result="shape"/>
</filter>
<linearGradient id="paint0_linear_3646_22611" x1="39.4727" y1="2.27625" x2="1.56555" y2="14.8702" gradientUnits="userSpaceOnUse">
<stop stop-color="#8CDEC4" stop-opacity="0"/>
<stop offset="1" stop-color="#8BBAE7" stop-opacity="0.29"/>
</linearGradient>
<linearGradient id="paint1_linear_3646_22611" x1="112.119" y1="8.43348" x2="74.2115" y2="21.0274" gradientUnits="userSpaceOnUse">
<stop stop-color="#8CDEC4" stop-opacity="0"/>
<stop offset="1" stop-color="#8BBAE7" stop-opacity="0.29"/>
</linearGradient>
<linearGradient id="paint2_linear_3646_22611" x1="114.583" y1="30.4693" x2="76.0073" y2="40.8377" gradientUnits="userSpaceOnUse">
<stop stop-color="#8CDEC4" stop-opacity="0"/>
<stop offset="1" stop-color="#8BBAE7" stop-opacity="0.29"/>
</linearGradient>
<linearGradient id="paint3_linear_3646_22611" x1="38.8583" y1="58.7886" x2="0.282958" y2="69.157" gradientUnits="userSpaceOnUse">
<stop stop-color="#8CDEC4" stop-opacity="0"/>
<stop offset="1" stop-color="#8BBAE7" stop-opacity="0.29"/>
</linearGradient>
</defs>
</svg>
