
<svg width="101" height="71" viewBox="0 0 101 71" fill="none" xmlns="http://www.w3.org/2000/svg">
<path d="M5.53174 11.4609L38.6738 0.976893L38.7526 1.2141L5.92578 12.647L5.53174 11.4609Z" fill="url(#paint0_linear_52_1226)"/>
<path d="M64.8735 16.4907L98.0156 6.00668L98.0944 6.24388L65.2676 17.6768L64.8735 16.4907Z" fill="url(#paint1_linear_52_1226)"/>
<path d="M66.3828 32.6582L100.078 24.119L100.143 24.3604L66.7072 33.8651L66.3828 32.6582Z" fill="url(#paint2_linear_52_1226)"/>
<path d="M4.52637 55.792L38.2219 47.2528L38.2868 47.4942L4.85077 56.9989L4.52637 55.792Z" fill="url(#paint3_linear_52_1226)"/>
<path d="M78.6772 66.3424C78.6772 66.3424 71.9923 65.2495 67.4294 60.3616L71.6932 53.7414C71.6932 53.7414 75.244 59.7496 82.1347 61.4205C82.1347 61.4205 80.5155 64.4937 78.6772 66.3424Z" stroke="#020914" stroke-width="0.502898" stroke-miterlimit="10"/>
<path d="M69.0353 59.2054L71.0518 56.0742C71.0767 56.0893 71.1015 56.1011 71.1277 56.1135C71.6097 56.3423 72.1402 56.3477 72.6017 56.1714C73.8819 57.6629 75.9605 59.6439 78.841 61.0116C79.2107 61.1871 79.5859 61.3477 79.966 61.4945C79.9591 61.9811 80.1421 62.4554 80.4773 62.8115C80.0285 63.5173 79.4638 64.3393 78.8526 65.0737C78.2907 64.8645 77.6817 64.9436 77.2014 65.247C76.2612 64.9783 74.9846 64.5483 73.6025 63.892C71.9539 63.1093 70.4936 62.1726 69.2407 61.0959C69.5291 60.4548 69.429 59.7349 69.0353 59.2054Z" fill="#C7CAF1"/>
<path d="M75.2485 59.911C74.4188 59.517 73.4268 59.8703 73.0329 60.7C72.639 61.5297 72.9922 62.5217 73.8219 62.9156C74.6516 63.3096 75.6436 62.9563 76.0375 62.1266C76.4315 61.2969 76.0782 60.3049 75.2485 59.911Z" fill="#F3F4FF"/>
<path d="M75.1206 60.1723C74.4351 59.8469 73.6157 60.1387 73.2903 60.8241C72.9648 61.5095 73.2567 62.329 73.9421 62.6544C74.6275 62.9798 75.4469 62.688 75.7724 62.0026C76.0978 61.3172 75.806 60.4978 75.1206 60.1723Z" stroke="#000200" stroke-width="0.502898" stroke-miterlimit="10"/>
<path d="M78.6838 63.6255C78.6838 63.6255 77.2175 63.0894 76.9359 62.7956" stroke="#000200" stroke-width="0.502898" stroke-miterlimit="10"/>
<path d="M71.9419 59.623L70.8216 58.6109" stroke="#000200" stroke-width="0.502898" stroke-miterlimit="10"/>
<path opacity="0.5" d="M29.9121 6.49613C29.9121 6.62081 29.9591 6.73815 30.0427 6.84082C27.335 8.88846 24.3163 11.2969 22.6867 12.4351C22.543 12.3897 22.3817 12.3633 22.2115 12.3633C22.0252 12.3633 21.8492 12.3941 21.6952 12.4483L19.5698 10.7498C19.7092 10.6281 19.7913 10.4755 19.7913 10.3098C19.7913 10.1968 19.7532 10.0883 19.6828 9.99295C21.5705 8.14773 24.2503 5.3755 25.7186 3.6447C25.8565 3.68577 26.0105 3.70924 26.1718 3.70924C26.4564 3.70924 26.7145 3.63736 26.9096 3.51855L30.0588 6.1309C29.9649 6.23797 29.9121 6.36265 29.9121 6.49613Z" fill="#19BC8A"/>
<path d="M18.104 10.6762L21.9176 13.6098C21.9176 13.6098 28.0781 9.79613 32.1851 6.5692L26.098 1.50879C26.098 1.50879 20.5242 8.84272 18.104 10.6762Z" stroke="#020404" stroke-width="0.502898" stroke-miterlimit="10"/>
<path d="M24.6302 9.28299C25.3592 9.28299 25.9503 8.8233 25.9503 8.25624C25.9503 7.68918 25.3592 7.22949 24.6302 7.22949C23.9011 7.22949 23.3101 7.68918 23.3101 8.25624C23.3101 8.8233 23.9011 9.28299 24.6302 9.28299Z" stroke="#0B1314" stroke-width="0.502898" stroke-miterlimit="10"/>
<path opacity="0.3" d="M24.6291 9.57576C25.5202 9.57576 26.2426 8.98473 26.2426 8.25565C26.2426 7.52658 25.5202 6.93555 24.6291 6.93555C23.738 6.93555 23.0156 7.52658 23.0156 8.25565C23.0156 8.98473 23.738 9.57576 24.6291 9.57576Z" fill="#8CDEC4"/>
<path d="M24.6302 9.28299C25.3592 9.28299 25.9503 8.8233 25.9503 8.25624C25.9503 7.68918 25.3592 7.22949 24.6302 7.22949C23.9011 7.22949 23.3101 7.68918 23.3101 8.25624C23.3101 8.8233 23.9011 9.28299 24.6302 9.28299Z" stroke="#0B1314" stroke-width="0.502898" stroke-miterlimit="10"/>
<path d="M28.0052 5.32275C28.0052 5.32275 26.9784 6.3495 26.6851 6.49618" stroke="#020914" stroke-width="0.502898" stroke-miterlimit="10"/>
<path d="M21.4048 11.1895C21.4048 11.0429 22.5782 10.0161 22.5782 10.0161" stroke="#020914" stroke-width="0.502898" stroke-miterlimit="10"/>
<path d="M36.0365 57.8564L36.4162 70.8163L42.9981 63.6168L36.0365 57.8564Z" fill="#464EBC"/>
<path d="M42.7515 58.8509L43.0235 63.8074L19.3103 64.515L42.7515 58.8509Z" fill="#7178DD"/>
<path d="M60.7658 34.8699L48.82 23.4336L10.5067 35.4904L15.3039 50.0118L60.7658 34.8699Z" fill="#DADCFF"/>
<path d="M60.3515 21.1359L60.3515 3.52055L6.31587 21.1359L10.5282 35.8376L60.3515 21.1359Z" fill="#19BC8A"/>
<path d="M14.7434 49.1861L19.07 64.6831L80.6889 49.6256L79.7937 29.595L14.7434 49.1861Z" fill="#464EBC"/>
<g filter="url(#filter0_d_52_1226)">
<path d="M21.7714 44.0703C21.3467 44.1947 21.0327 44.1984 20.8293 44.0812C20.6237 43.957 20.4702 43.7215 20.3685 43.3747C20.3332 43.2543 20.2833 43.0576 20.2186 42.7845C20.1539 42.5114 20.0633 42.0845 19.9469 41.5037C19.8592 41.4141 19.7826 41.3366 19.7174 41.2712C19.6521 41.2058 19.5857 41.1369 19.5184 41.0644C19.451 40.9919 19.376 40.9063 19.2932 40.8075C19.2105 40.7088 19.1053 40.5859 18.9776 40.4389C18.7805 40.2123 18.5533 39.9484 18.2959 39.6472C18.0456 39.3439 17.803 39.0538 17.5681 38.7768C17.3311 38.4927 17.1267 38.2413 16.955 38.0226C16.7904 37.8018 16.6988 37.6596 16.6801 37.5959C16.6365 37.4473 16.8518 37.3034 17.3261 37.1644C17.6233 37.0773 17.8698 37.0397 18.0654 37.0515C18.266 37.0542 18.4385 37.092 18.5829 37.165C18.7252 37.2309 18.8454 37.3263 18.9435 37.4513C19.0396 37.5692 19.1352 37.6987 19.2304 37.8399C19.3543 38.0265 19.4449 38.1652 19.5022 38.256C19.5596 38.3468 19.6047 38.4219 19.6375 38.4815C19.6774 38.539 19.7173 38.5964 19.7572 38.6539C19.7951 38.7043 19.8503 38.788 19.9231 38.9051C20.0029 39.02 20.1114 39.1804 20.2485 39.3861C20.3857 39.5919 20.5761 39.8743 20.8197 40.2333C20.8984 39.7414 20.9585 39.3433 21 39.039C21.0485 38.7327 21.0856 38.4528 21.1113 38.1994C21.1348 37.9388 21.1502 37.6768 21.1576 37.4133C21.1699 37.1407 21.1848 36.7982 21.2022 36.3857C21.2053 36.2388 21.2228 36.1414 21.2549 36.0935C21.292 36.0365 21.3601 35.9935 21.4592 35.9645C21.4946 35.9541 21.5922 35.9332 21.7521 35.9017C21.917 35.861 22.0906 35.8371 22.2729 35.8297C22.4623 35.8203 22.6413 35.8409 22.8098 35.8914C22.9783 35.9419 23.0854 36.0451 23.131 36.2008C23.1663 36.3211 23.1736 36.5034 23.153 36.7477C23.1395 36.99 23.1059 37.2688 23.0524 37.5843C23.0038 37.8906 22.9356 38.2219 22.8479 38.5781C22.7672 38.9322 22.6774 39.2814 22.5785 39.6255C22.4795 39.9697 22.3743 40.2926 22.2629 40.5942C22.1565 40.8868 22.0518 41.1327 21.9488 41.332C21.9915 41.5039 22.04 41.7087 22.0943 41.9465C22.1557 42.1821 22.21 42.4198 22.2572 42.6596C22.3095 42.8903 22.3565 43.1032 22.3984 43.2985C22.4382 43.4867 22.4649 43.6172 22.4786 43.69C22.4881 43.7487 22.4864 43.7954 22.4734 43.8299C22.4584 43.8574 22.4191 43.8804 22.3554 43.8991L21.7714 44.0703ZM26.9577 34.2375C27.4744 34.086 27.9385 34.0307 28.3502 34.0714C28.7597 34.1051 29.1228 34.2293 29.4393 34.4439C29.7538 34.6515 30.0233 34.9415 30.2477 35.3138C30.4701 35.679 30.6559 36.1165 30.8053 36.6261C30.8883 36.9092 30.9573 37.2233 31.0123 37.5685C31.0745 37.9115 31.1022 38.2684 31.0957 38.6393C31.0941 39.001 31.0504 39.3635 30.9648 39.7268C30.8791 40.0901 30.73 40.4336 30.5174 40.7572C30.3119 41.0788 30.0363 41.371 29.6906 41.6337C29.3428 41.8894 28.9035 42.095 28.3726 42.2506C27.7851 42.4228 27.2708 42.4775 26.8296 42.4147C26.3956 42.3497 26.0182 42.2029 25.6975 41.9741C25.3817 41.7361 25.1142 41.4264 24.8948 41.0449C24.6824 40.6613 24.5078 40.236 24.3708 39.7688C24.209 39.2168 24.115 38.6602 24.0889 38.099C24.0607 37.5308 24.1351 36.9979 24.312 36.5002C24.4961 36.0005 24.7995 35.5542 25.2223 35.1612C25.6431 34.7612 26.2216 34.4533 26.9577 34.2375ZM27.2171 35.9485C26.9694 36.0211 26.767 36.1304 26.6099 36.2763C26.4578 36.4131 26.3399 36.5745 26.2561 36.7605C26.1793 36.9444 26.129 37.1398 26.1051 37.3467C26.0882 37.5514 26.0876 37.7591 26.1032 37.9698C26.1168 38.1733 26.1434 38.3692 26.1832 38.5574C26.2209 38.7385 26.2605 38.8998 26.302 39.0414C26.4908 39.6855 26.735 40.125 27.0345 40.3601C27.341 40.593 27.6925 40.6514 28.0888 40.5352C28.4144 40.4398 28.6498 40.2594 28.7949 39.9939C28.9379 39.7214 29.0235 39.4235 29.0517 39.1001C29.0849 38.7675 29.0771 38.4393 29.0282 38.1154C28.9773 37.7845 28.9197 37.5093 28.8554 37.2899C28.704 36.7732 28.4962 36.3921 28.2321 36.1467C27.966 35.8942 27.6276 35.8281 27.2171 35.9485ZM37.8372 35.6026C37.8782 35.8211 37.9158 36.0676 37.9501 36.3419C37.9823 36.6092 37.9919 36.8908 37.9787 37.1867C37.9705 37.4735 37.9284 37.7625 37.8524 38.0538C37.7764 38.3451 37.6506 38.6241 37.4751 38.8908C37.2976 39.1503 37.0601 39.389 36.7627 39.6069C36.4703 39.8156 36.0976 39.9863 35.6446 40.1191C35.1845 40.2539 34.773 40.3054 34.4101 40.2734C34.0451 40.2344 33.7268 40.1317 33.4551 39.9653C33.1814 39.7919 32.9539 39.5665 32.7727 39.2891C32.5915 39.0118 32.45 38.6997 32.3483 38.3528C32.3027 38.1971 32.2486 37.9862 32.186 37.7202C32.1213 37.4471 32.0539 37.1517 31.9839 36.834C31.9209 36.5143 31.8548 36.184 31.7856 35.843C31.7143 35.495 31.6447 35.1656 31.5767 34.8551C31.5158 34.5424 31.4607 34.2626 31.4114 34.0158C31.36 33.7618 31.3192 33.5701 31.289 33.4406C31.2566 33.3041 31.2494 33.2139 31.2674 33.1702C31.2832 33.1195 31.3195 33.0858 31.3761 33.0692L31.96 32.898C32.3918 32.7715 32.709 32.7784 32.9115 32.9189C33.1141 33.0593 33.2683 33.3101 33.3741 33.671C33.3803 33.6923 33.4013 33.7899 33.4369 33.9639C33.4775 34.1288 33.5225 34.3347 33.5718 34.5816C33.6282 34.8264 33.6873 35.0934 33.749 35.3828C33.8179 35.67 33.879 35.9442 33.9325 36.2052C33.993 36.4642 34.0442 36.6913 34.0861 36.8866C34.135 37.0797 34.1688 37.2082 34.1875 37.2719C34.2227 37.3922 34.2667 37.5292 34.3195 37.6828C34.3793 37.8344 34.4511 37.9747 34.5351 38.1039C34.6261 38.2309 34.7357 38.3294 34.8639 38.3995C34.997 38.4604 35.1591 38.4628 35.3502 38.4068C35.5909 38.3363 35.7617 38.1978 35.8626 37.9914C35.9706 37.783 36.0303 37.5541 36.0418 37.3048C36.0603 37.0534 36.0495 36.8068 36.0094 36.5649C35.9763 36.321 35.9451 36.1226 35.9157 35.9698C35.8382 35.6005 35.7576 35.2206 35.6738 34.8301C35.5972 34.4375 35.5207 34.0718 35.4445 33.7329C35.3753 33.3919 35.3114 33.0955 35.253 32.8436C35.1945 32.5917 35.1518 32.4198 35.1248 32.3278C35.0833 32.1862 35.068 32.0946 35.0789 32.053C35.0877 32.0043 35.1274 31.9696 35.1982 31.9489L35.7822 31.7777C36.0228 31.7072 36.2166 31.6734 36.3635 31.6765C36.5175 31.6774 36.6403 31.7029 36.7318 31.753C36.8234 31.803 36.8897 31.872 36.9308 31.9598C36.979 32.0456 37.0177 32.138 37.0467 32.2371C37.0737 32.3292 37.1174 32.5046 37.178 32.7636C37.2456 33.0205 37.32 33.3138 37.4013 33.6435C37.4826 33.9733 37.5634 34.3147 37.6439 34.6677C37.7243 35.0208 37.7887 35.3324 37.8372 35.6026ZM41.0938 38.4065C40.6904 38.5248 40.3809 38.5309 40.1654 38.425C39.9548 38.3099 39.8039 38.0967 39.7127 37.7853C39.6878 37.7003 39.6498 37.5577 39.5988 37.3575C39.5528 37.1481 39.4999 36.9022 39.4403 36.6199C39.3806 36.3377 39.3136 36.0306 39.2394 35.6988C39.1702 35.3579 39.1 35.0134 39.0287 34.6653C38.8758 33.9338 38.7446 33.342 38.6351 32.8899C38.5327 32.4357 38.4513 32.0791 38.3907 31.8201C38.3186 31.4954 38.2807 31.2874 38.2771 31.1963C38.2713 31.098 38.3038 31.0385 38.3746 31.0178C38.594 30.9535 38.816 30.8846 39.0404 30.8111C39.2698 30.7285 39.4886 30.649 39.6968 30.5726C39.905 30.4962 40.1001 30.4275 40.282 30.3665C40.469 30.2963 40.6368 30.2394 40.7854 30.1959C41.2384 30.0631 41.6443 30.0056 42.0031 30.0234C42.3619 30.0412 42.6705 30.1237 42.9288 30.2709C43.1942 30.416 43.4155 30.6201 43.5926 30.8834C43.7767 31.1445 43.9217 31.4556 44.0275 31.8166C44.1893 32.3687 44.2238 32.8927 44.131 33.3888C44.0381 33.8849 43.7842 34.3167 43.3693 34.6843L44.6346 35.6969C44.8679 35.8899 45.0467 36.0411 45.1711 36.1507C45.2934 36.2532 45.3639 36.3363 45.3825 36.4C45.3971 36.4496 45.3859 36.5297 45.3492 36.6404C45.3175 36.7419 45.2549 36.8563 45.1616 36.9836C45.0732 37.1017 44.9535 37.2175 44.8023 37.331C44.6581 37.4425 44.4834 37.5283 44.2782 37.5884C44.0517 37.6548 43.8317 37.6386 43.6183 37.5397C43.4119 37.4388 43.2062 37.2877 43.0012 37.0865C42.8012 36.8761 42.6049 36.6262 42.4125 36.3367C42.2271 36.0452 42.0411 35.7384 41.8545 35.4165C41.5956 35.4771 41.3795 35.5135 41.2063 35.5258C41.2764 35.8435 41.3423 36.147 41.404 36.4363C41.4658 36.7257 41.5228 36.9857 41.575 37.2163C41.6252 37.4399 41.665 37.6281 41.6944 37.7808C41.7217 37.9265 41.7395 38.0136 41.7478 38.0419C41.7574 38.1006 41.7557 38.1472 41.7427 38.1817C41.7277 38.2092 41.6884 38.2322 41.6247 38.2509L41.0938 38.4065ZM41.0399 31.8507C40.955 31.8755 40.8615 31.9106 40.7595 31.9559C40.6554 31.9941 40.5452 32.0379 40.4291 32.0873C40.4875 32.3392 40.557 32.6417 40.6374 32.9947C40.7228 33.3386 40.8084 33.7094 40.8942 34.107C41.1585 34.091 41.3827 34.056 41.5668 34.0021C41.7862 33.9378 41.9507 33.8434 42.0603 33.7191C42.1769 33.5926 42.2566 33.4578 42.2991 33.3147C42.3397 33.1645 42.3498 33.0155 42.3295 32.8677C42.3163 32.7178 42.2931 32.5863 42.26 32.473C42.1749 32.1828 42.0388 31.9806 41.8516 31.8664C41.6644 31.7522 41.3938 31.7469 41.0399 31.8507Z" fill="#464EBC"/>
</g>
<g filter="url(#filter1_d_52_1226)">
<path d="M15.9015 22.7825C16.0764 22.7239 16.2315 22.7109 16.3668 22.7434C16.5068 22.7666 16.6339 22.8212 16.7483 22.9074C16.8604 22.9866 16.9643 23.0879 17.0601 23.2114C17.1559 23.3349 17.2458 23.4642 17.33 23.5994C17.989 24.6389 18.5323 25.4954 18.9599 26.169C19.3876 26.8425 19.7299 27.3891 19.987 27.8086C20.2418 28.2212 20.4264 28.5288 20.5409 28.7316C20.6555 28.9344 20.7268 29.0777 20.7549 29.1617C20.7876 29.2596 20.7854 29.3342 20.7481 29.3856C20.7179 29.4346 20.6538 29.4755 20.5559 29.5083L20.0208 29.6874C19.72 29.788 19.467 29.8338 19.2617 29.8247C19.0611 29.8063 18.8884 29.7435 18.7437 29.6364C18.606 29.527 18.4833 29.3813 18.3758 29.1995C18.266 29.0107 18.1549 28.7951 18.0427 28.5527L16.2171 29.1637L16.3554 30.7274C16.3579 30.851 16.2962 30.9339 16.1703 30.976L15.6142 31.1621C15.5023 31.1996 15.3834 31.2277 15.2575 31.2465C15.1292 31.2583 15.0067 31.2527 14.8901 31.2295C14.7804 31.2039 14.6801 31.1597 14.589 31.0969C14.4957 31.027 14.4279 30.9291 14.3858 30.8032C14.3343 30.6494 14.299 30.3812 14.2798 29.9987C14.2607 29.6162 14.2509 29.18 14.2503 28.6902C14.2543 28.1911 14.2665 27.6697 14.2869 27.1263C14.3119 26.5734 14.3392 26.0509 14.3689 25.5588C14.3987 25.0666 14.4285 24.6327 14.4583 24.2571C14.4952 23.8792 14.5299 23.611 14.5623 23.4523C14.5855 23.3357 14.6158 23.2633 14.653 23.2353C14.695 23.1979 14.7789 23.1582 14.9048 23.116L15.9015 22.7825ZM16.0857 27.5159L17.2922 27.1121L15.9246 24.4898L16.0857 27.5159ZM26.2858 27.5906C25.9991 27.6866 25.7717 27.716 25.6037 27.6789C25.4357 27.6418 25.2992 27.5708 25.1941 27.466C24.5799 26.8393 23.9972 26.2371 23.4461 25.6593C22.9019 25.0791 22.3484 24.4944 21.7856 23.9049C22.0454 24.658 22.3076 25.4064 22.572 26.1501C22.8365 26.8939 23.1021 27.6411 23.3689 28.3918C23.404 28.4967 23.3656 28.5679 23.2537 28.6054L22.6767 28.7985C22.278 28.9319 21.969 28.9498 21.7496 28.8521C21.5349 28.7451 21.376 28.5377 21.273 28.2299C21.2449 28.146 21.2016 28.0049 21.1431 27.8067C21.0892 27.5992 21.0271 27.3555 20.9567 27.0757C20.8864 26.7959 20.8079 26.4916 20.7212 26.1629C20.6392 25.8248 20.556 25.4832 20.4716 25.1381C20.3357 24.5924 20.2232 24.1401 20.1341 23.781C20.045 23.4219 19.9677 23.1211 19.9021 22.8786C19.8411 22.6268 19.7861 22.4158 19.7369 22.2455C19.6854 22.0683 19.635 21.8946 19.5858 21.7244C19.5507 21.6195 19.5891 21.5483 19.701 21.5109L20.5404 21.23C20.7712 21.1527 20.9694 21.1175 21.135 21.1243C21.2983 21.1241 21.4406 21.1542 21.5619 21.2147C21.6903 21.2729 21.8024 21.3521 21.8981 21.4522C21.9915 21.5454 22.0838 21.6468 22.1749 21.7563C22.4879 22.1338 22.76 22.4588 22.9912 22.7314C23.2295 23.0017 23.4373 23.2394 23.6149 23.4444C23.7924 23.6495 23.9454 23.8277 24.0738 23.9792C24.2093 24.1283 24.3331 24.2657 24.4452 24.3915C24.5573 24.5174 24.6682 24.6397 24.778 24.7585C24.8854 24.8703 25.001 24.995 25.1248 25.1324C24.9867 24.7198 24.8416 24.2978 24.6895 23.8665C24.542 23.4258 24.3957 23.0003 24.2506 22.59C24.1101 22.1703 23.972 21.7693 23.8363 21.3869C23.7075 21.0022 23.5917 20.656 23.4887 20.3482C23.4676 20.2853 23.5165 20.2339 23.6354 20.1941L24.2125 20.001C24.4433 19.9238 24.6333 19.8874 24.7826 19.8919C24.9366 19.887 25.0672 19.9172 25.1746 19.9823C25.2796 20.0405 25.3637 20.1291 25.4268 20.2479C25.4969 20.3645 25.5589 20.5032 25.6127 20.6641C25.6713 20.8389 25.7509 21.1117 25.8516 21.4825C25.95 21.8462 26.0602 22.2566 26.182 22.7136C26.3038 23.1706 26.428 23.6463 26.5546 24.1406C26.6788 24.6279 26.7913 25.0803 26.8921 25.4977C26.9999 25.9127 27.0878 26.2683 27.1558 26.5645C27.2284 26.8513 27.2694 27.0203 27.2788 27.0716C27.2976 27.1276 27.2906 27.1766 27.258 27.2186C27.2324 27.2583 27.1951 27.2863 27.1462 27.3027L26.2858 27.5906ZM29.6207 18.191C29.7956 18.1325 29.9507 18.1195 30.086 18.1519C30.226 18.1751 30.3532 18.2298 30.4676 18.3159C30.5796 18.3951 30.6835 18.4964 30.7793 18.6199C30.8751 18.7434 30.965 18.8728 31.0492 19.008C31.7082 20.0474 32.2515 20.904 32.6792 21.5775C33.1068 22.2511 33.4492 22.7976 33.7062 23.2172C33.961 23.6297 34.1456 23.9373 34.2601 24.1401C34.3747 24.3429 34.446 24.4863 34.4741 24.5702C34.5069 24.6681 34.5046 24.7428 34.4674 24.7941C34.4371 24.8432 34.373 24.884 34.2751 24.9168L33.74 25.0959C33.4392 25.1966 33.1862 25.2423 32.981 25.2333C32.7803 25.2148 32.6077 25.1521 32.4629 25.045C32.3252 24.9355 32.2025 24.7899 32.095 24.6081C31.9852 24.4193 31.8741 24.2037 31.7619 23.9612L29.9363 24.5722L30.0746 26.1359C30.0771 26.2595 30.0154 26.3424 29.8895 26.3846L29.3335 26.5707C29.2215 26.6081 29.1026 26.6362 28.9767 26.6551C28.8484 26.6669 28.726 26.6612 28.6093 26.638C28.4997 26.6125 28.3993 26.5683 28.3083 26.5054C28.2149 26.4356 28.1471 26.3377 28.105 26.2118C28.0535 26.0579 28.0182 25.7897 27.9991 25.4072C27.9799 25.0247 27.9701 24.5886 27.9695 24.0987C27.9736 23.5996 27.9858 23.0783 28.0061 22.5348C28.0311 21.982 28.0584 21.4595 28.0882 20.9673C28.1179 20.4751 28.1477 20.0412 28.1776 19.6657C28.2144 19.2878 28.2491 19.0195 28.2816 18.8609C28.3047 18.7442 28.335 18.6719 28.3723 18.6438C28.4142 18.6065 28.4981 18.5667 28.624 18.5246L29.6207 18.191ZM29.8049 22.9245L31.0114 22.5207L29.6438 19.8983L29.8049 22.9245ZM36.3959 24.207C36.0042 24.3381 35.6987 24.3548 35.4793 24.2571C35.2599 24.1594 35.1023 23.9672 35.0063 23.6804C34.9595 23.5405 34.8904 23.2992 34.799 22.9564C34.7053 22.6067 34.6033 22.2091 34.4932 21.7638C34.383 21.3184 34.2646 20.8486 34.1381 20.3542C34.0116 19.8599 33.8944 19.3936 33.7865 18.9552C33.6787 18.5168 33.5815 18.1332 33.4948 17.8045C33.4081 17.4757 33.3448 17.2519 33.305 17.133C33.2699 17.028 33.3083 16.9569 33.4202 16.9194L33.9973 16.7263C34.389 16.5952 34.684 16.582 34.8824 16.6867C35.0854 16.7821 35.2361 16.9767 35.3344 17.2705C35.3461 17.3054 35.3532 17.3381 35.3555 17.3684C35.3649 17.3964 35.3754 17.4278 35.3871 17.4628L36.6807 22.4784L38.5692 21.8463C38.6112 21.8323 38.6543 21.8334 38.6987 21.8497C38.7407 21.8589 38.7699 21.8881 38.7862 21.937L38.9514 22.5701C39.0077 22.7846 39.0056 22.9759 38.9451 23.1439C38.8894 23.3025 38.7041 23.4345 38.3893 23.5399L36.3959 24.207ZM41.9633 22.3438C41.5437 22.4842 41.23 22.4998 41.0222 22.3904C40.8122 22.274 40.6498 22.0445 40.5351 21.7017C40.4953 21.5828 40.4379 21.3881 40.363 21.1177C40.288 20.8472 40.1814 20.424 40.0431 19.848C39.952 19.7618 39.8726 19.6873 39.8049 19.6244C39.7372 19.5615 39.6683 19.4951 39.5982 19.4252C39.5282 19.3553 39.4499 19.2726 39.3635 19.1771C39.2771 19.0816 39.1673 18.9628 39.0342 18.8206C38.8287 18.6016 38.5916 18.3465 38.323 18.0553C38.0615 17.7617 37.808 17.481 37.5628 17.213C37.3152 16.9381 37.1015 16.6946 36.9217 16.4826C36.7488 16.2682 36.6519 16.1295 36.6308 16.0666C36.5816 15.9197 36.7914 15.7678 37.26 15.611C37.5538 15.5127 37.7986 15.4657 37.9945 15.4702C38.1951 15.4653 38.3689 15.4965 38.516 15.564C38.6606 15.6245 38.7844 15.7153 38.8872 15.8364C38.9876 15.9506 39.088 16.0764 39.1885 16.2139C39.3193 16.3957 39.4151 16.5309 39.4759 16.6194C39.5366 16.708 39.5845 16.7814 39.6196 16.8397C39.6616 16.8956 39.7037 16.9515 39.7457 17.0075C39.7854 17.0564 39.8439 17.138 39.921 17.2522C40.0051 17.364 40.1195 17.5202 40.2644 17.7206C40.4093 17.921 40.6102 18.196 40.8672 18.5455C40.9272 18.051 40.9722 17.6509 41.0022 17.3453C41.0391 17.0374 41.0656 16.7563 41.0816 16.502C41.0953 16.2408 41.1008 15.9784 41.0982 15.7148C41.1002 15.4419 41.1021 15.0991 41.1039 14.6862C41.1014 14.5393 41.1153 14.4413 41.1455 14.3923C41.1805 14.3339 41.2469 14.2884 41.3448 14.2556C41.3798 14.2439 41.4765 14.2193 41.6351 14.1818C41.7983 14.1349 41.9709 14.1044 42.1528 14.0902C42.3417 14.0736 42.5213 14.0874 42.6916 14.1315C42.862 14.1756 42.9729 14.2746 43.0244 14.4285C43.0642 14.5474 43.0784 14.7293 43.067 14.9742C43.0626 15.2168 43.0397 15.4967 42.9981 15.814C42.9611 16.1219 42.9055 16.4555 42.8313 16.8148C42.7641 17.1718 42.6876 17.5241 42.6017 17.8717C42.5158 18.2193 42.4229 18.546 42.323 18.8517C42.2277 19.148 42.1324 19.3977 42.037 19.6007C42.0862 19.7709 42.1424 19.9738 42.2057 20.2093C42.2759 20.4424 42.3392 20.6779 42.3954 20.9158C42.4564 21.1443 42.5114 21.3553 42.5606 21.5488C42.6075 21.7354 42.6392 21.8648 42.6556 21.9371C42.6673 21.9954 42.6674 22.042 42.6557 22.077C42.6418 22.105 42.6033 22.1296 42.5404 22.1506L41.9633 22.3438ZM45.44 21.1802C45.3631 21.2059 45.3118 21.1804 45.286 21.1034L45.1279 20.5263C45.1138 20.461 45.0985 20.3806 45.0821 20.285C45.0633 20.1824 45.0679 20.0914 45.0958 20.0121C45.1421 19.7554 45.2071 19.4731 45.2907 19.1651C45.3743 18.8572 45.4741 18.4815 45.5902 18.0382C45.7063 17.5949 45.8363 17.0653 45.9801 16.4493C46.1287 15.8241 46.2887 15.0705 46.4602 14.1886L44.0681 14.9892C44.0121 15.0079 43.9737 15.0091 43.9526 14.9928C43.9386 14.9742 43.9223 14.9369 43.9035 14.8809L43.7384 14.2829C43.7149 14.1896 43.6962 14.0987 43.6821 14.01C43.6726 13.9121 43.6807 13.82 43.7062 13.7336C43.7388 13.645 43.797 13.5632 43.8809 13.4885C43.9647 13.4138 44.0871 13.3495 44.248 13.2956L48.2558 11.9543C48.2978 11.9403 48.3398 11.9379 48.3818 11.9472C48.4238 11.9564 48.4541 11.9891 48.4729 12.045L48.6205 12.6256C48.6674 12.8122 48.6757 12.9766 48.6456 13.1189C48.6363 13.1609 48.5911 13.3627 48.5099 13.7243C48.4263 14.079 48.3208 14.5304 48.1931 15.0787C48.0655 15.627 47.9205 16.2394 47.758 16.916C47.6026 17.5903 47.4424 18.2622 47.2776 18.9318L49.9425 18.04C49.9845 18.0259 50.0265 18.0235 50.0685 18.0328C50.1105 18.0421 50.1408 18.0747 50.1596 18.1307L50.3248 18.7637C50.381 18.9782 50.3789 19.1695 50.3185 19.3375C50.2627 19.4962 50.0774 19.6282 49.7627 19.7335L45.44 21.1802ZM52.6868 18.7549C52.2951 18.886 51.9896 18.9027 51.7702 18.805C51.5509 18.7073 51.3932 18.515 51.2972 18.2283C51.2504 18.0884 51.1813 17.847 51.0899 17.5043C50.9962 17.1545 50.8943 16.757 50.7841 16.3116C50.6739 15.8662 50.5556 15.3964 50.429 14.9021C50.3025 14.4078 50.1853 13.9414 50.0775 13.503C49.9697 13.0647 49.8724 12.6811 49.7857 12.3523C49.699 12.0236 49.6358 11.7997 49.596 11.6808C49.5609 11.5759 49.5993 11.5047 49.7112 11.4673L53.4043 10.2313C53.4462 10.2172 53.4882 10.2148 53.5302 10.2241C53.5722 10.2334 53.6026 10.266 53.6213 10.322L53.7865 10.955C53.8427 11.1695 53.8406 11.3608 53.7802 11.5288C53.7244 11.6875 53.5391 11.8195 53.2244 11.9248L51.7765 12.4094L52.1667 13.9239L53.6565 13.4252C53.6985 13.4112 53.7405 13.4088 53.7825 13.4181C53.8245 13.4274 53.8548 13.46 53.8736 13.5159L54.0388 14.149C54.095 14.3635 54.0929 14.5548 54.0324 14.7228C53.9767 14.8815 53.7914 15.0135 53.4766 15.1188L52.5639 15.4243L52.9716 17.0262L55.2798 16.2537C55.3218 16.2397 55.3649 16.2408 55.4093 16.2571C55.4513 16.2663 55.4805 16.2955 55.4968 16.3444L55.662 16.9775C55.7183 17.192 55.7162 17.3833 55.6557 17.5513C55.6 17.7099 55.4147 17.8419 55.0999 17.9473L52.6868 18.7549Z" fill="white"/>
</g>
<g filter="url(#filter2_d_52_1226)">
<path d="M23.9797 59.3897C23.5779 59.5131 23.2685 59.5233 23.0516 59.4202C22.8396 59.3079 22.686 59.0966 22.5907 58.7864C22.5625 58.6947 22.5216 58.5491 22.468 58.3495C22.4193 58.1407 22.3633 57.8956 22.2999 57.6141C22.2366 57.3326 22.1657 57.0265 22.0872 56.6956C22.0158 56.3627 21.9421 56.0226 21.8664 55.6755C21.7738 55.2487 21.6926 54.884 21.6228 54.5814C21.5578 54.2695 21.4999 54.0057 21.449 53.7898C21.396 53.5669 21.3513 53.3839 21.3151 53.2407C21.2837 53.0883 21.2517 52.9592 21.2192 52.8535C21.1916 52.7385 21.1637 52.6352 21.1356 52.5435C21.1145 52.4497 21.0877 52.3499 21.0552 52.2442C21.0378 52.1878 21.0435 52.1436 21.0723 52.1116C21.0989 52.0726 21.1298 52.0476 21.1651 52.0368C21.3484 51.9805 21.5482 51.9152 21.7646 51.841C21.9789 51.7597 22.1931 51.6785 22.4073 51.5972C22.6216 51.516 22.8298 51.4404 23.0321 51.3706C23.2323 51.2936 23.4099 51.2313 23.565 51.1837C24.0162 51.045 24.4214 50.9823 24.7803 50.9955C25.1372 51.0016 25.4468 51.0801 25.7092 51.2309C25.9765 51.3726 26.2014 51.5774 26.3841 51.8453C26.5738 52.1111 26.7271 52.4344 26.8441 52.8151C26.9719 53.2311 27.0389 53.6503 27.0453 54.0728C27.0565 54.486 26.9913 54.8764 26.8496 55.244C26.7079 55.6116 26.4808 55.9399 26.1683 56.2288C25.8559 56.5177 25.4458 56.7401 24.9382 56.8961C24.635 56.9893 24.3679 57.0366 24.1369 57.0381L24.5867 59.0296C24.597 59.0881 24.5959 59.1348 24.5834 59.1695C24.5687 59.1971 24.5297 59.2207 24.4662 59.2402L23.9797 59.3897ZM23.8409 52.835C23.7492 52.8632 23.6492 52.9017 23.5407 52.9504C23.4301 52.9921 23.3134 53.0395 23.1909 53.0926C23.2677 53.3931 23.3606 53.7581 23.4694 54.1876C23.5782 54.6171 23.6865 55.07 23.7942 55.5462C23.9087 55.5419 24.0174 55.5316 24.1204 55.5154C24.2284 55.4899 24.3246 55.4642 24.4092 55.4382C24.656 55.3624 24.8361 55.2454 24.9495 55.0871C25.0678 54.9195 25.1432 54.7382 25.1758 54.543C25.2085 54.3478 25.2107 54.1542 25.1826 53.9622C25.1545 53.7702 25.1198 53.6072 25.0787 53.4733C24.9855 53.1701 24.8446 52.9626 24.6559 52.8508C24.4722 52.7298 24.2005 52.7246 23.8409 52.835ZM30.4984 49.0419C31.0131 48.8838 31.4765 48.8224 31.8886 48.8578C32.2985 48.8862 32.6632 49.0056 32.9825 49.2162C33.2996 49.4197 33.5728 49.7061 33.8021 50.0755C34.0291 50.4378 34.2206 50.8728 34.3766 51.3805C34.4633 51.6625 34.5363 51.9757 34.5959 52.32C34.6624 52.6623 34.6948 53.0188 34.693 53.3897C34.6961 53.7514 34.6572 54.1145 34.5763 54.4789C34.4953 54.8432 34.3506 55.1886 34.1423 55.515C33.941 55.8392 33.6691 56.1349 33.3269 56.4021C32.9824 56.6623 32.5458 56.8736 32.017 57.036C31.4318 57.2158 30.9182 57.2772 30.4763 57.22C30.0414 57.1608 29.6621 57.0188 29.3385 56.7942C29.0197 56.5603 28.7482 56.2541 28.5238 55.8755C28.3065 55.4947 28.1264 55.0716 27.9834 54.6063C27.8144 54.0564 27.7133 53.501 27.6799 52.9403C27.6443 52.3725 27.7118 51.8387 27.8823 51.3387C28.0598 50.8367 28.3574 50.3864 28.7751 49.988C29.1907 49.5826 29.7651 49.2672 30.4984 49.0419ZM30.7799 50.7494C30.5331 50.8252 30.3322 50.9371 30.177 51.0851C30.0268 51.2238 29.9109 51.3868 29.8295 51.5738C29.7551 51.7587 29.7073 51.9547 29.6861 52.1619C29.6719 52.3668 29.674 52.5745 29.6923 52.7849C29.7085 52.9883 29.7377 53.1838 29.78 53.3714C29.82 53.552 29.8617 53.7129 29.905 53.8539C30.1021 54.4955 30.352 54.9318 30.6545 55.163C30.964 55.3919 31.3162 55.4458 31.711 55.3245C32.0354 55.2248 32.2683 55.0413 32.41 54.7741C32.5495 54.4997 32.6312 54.2007 32.6552 53.877C32.6841 53.544 32.672 53.2159 32.619 52.8927C32.5638 52.5624 32.5027 52.288 32.4355 52.0694C32.2774 51.5547 32.0647 51.1764 31.7974 50.9344C31.528 50.6854 31.1888 50.6237 30.7799 50.7494ZM37.7159 55.1693C37.3141 55.2928 37.0047 55.303 36.7878 55.1999C36.5758 55.0875 36.4222 54.8762 36.3269 54.566C36.3009 54.4814 36.2611 54.3393 36.2075 54.1397C36.1587 53.9309 36.1027 53.6858 36.0394 53.4043C35.9761 53.1229 35.9051 52.8167 35.8266 52.4859C35.753 52.1458 35.6783 51.8023 35.6026 51.4552C35.4402 50.7257 35.3013 50.1357 35.186 49.685C35.0777 49.2322 34.9917 48.8766 34.9278 48.6185C34.8514 48.2947 34.8109 48.0873 34.806 47.9962C34.799 47.898 34.8308 47.8381 34.9013 47.8165C35.1198 47.7493 35.3408 47.6775 35.5643 47.6012C35.7926 47.5156 36.0104 47.4332 36.2176 47.3542C36.4248 47.2751 36.6189 47.2038 36.8001 47.1405C36.9861 47.0679 37.1532 47.0088 37.3012 46.9633C37.7524 46.8247 38.1576 46.762 38.5165 46.7751C38.8755 46.7883 39.1851 46.8668 39.4454 47.0106C39.7127 47.1522 39.9365 47.3535 40.117 47.6144C40.3045 47.8732 40.4535 48.1823 40.564 48.5419C40.733 49.0919 40.7743 49.6154 40.6878 50.1127C40.6014 50.6099 40.3531 51.045 39.943 51.4179L41.2213 52.4141C41.4571 52.604 41.6379 52.7529 41.7637 52.8609C41.8873 52.9618 41.9588 53.044 41.9783 53.1074C41.9935 53.1568 41.9834 53.237 41.9481 53.3482C41.9177 53.4501 41.8567 53.5653 41.765 53.6938C41.6781 53.8131 41.5599 53.9304 41.4102 54.0459C41.2675 54.1592 41.0939 54.2472 40.8895 54.31C40.6638 54.3794 40.4437 54.366 40.229 54.2699C40.0213 54.1717 39.8137 54.0233 39.6061 53.8247C39.4033 53.6169 39.2039 53.3696 39.0077 53.0826C38.8186 52.7935 38.6286 52.4892 38.4379 52.1697C38.1797 52.2336 37.9641 52.2728 37.7911 52.2874C37.8653 52.6041 37.9351 52.9067 38.0006 53.1953C38.0661 53.4838 38.1265 53.743 38.1817 53.973C38.2348 54.1959 38.277 54.3835 38.3084 54.5359C38.3376 54.6813 38.3565 54.768 38.3652 54.7962C38.3755 54.8548 38.3744 54.9014 38.3619 54.9361C38.3472 54.9638 38.3082 54.9874 38.2447 55.0069L37.7159 55.1693ZM37.5771 48.6147C37.4925 48.6407 37.3995 48.677 37.298 48.7236C37.1945 48.7631 37.0849 48.8084 36.9694 48.8593C37.0311 49.1104 37.1044 49.4119 37.1894 49.7639C37.2793 50.1067 37.3697 50.4763 37.4607 50.8727C37.7248 50.8533 37.9485 50.8154 38.1318 50.7591C38.3504 50.692 38.5136 50.5955 38.6216 50.4697C38.7366 50.3418 38.8145 50.206 38.8552 50.0623C38.8938 49.9116 38.902 49.7624 38.8798 49.6149C38.8647 49.4653 38.8398 49.334 38.8051 49.2212C38.7163 48.9321 38.5776 48.7317 38.3889 48.6199C38.2002 48.5081 37.9296 48.5064 37.5771 48.6147ZM44.6352 46.4462L46.0367 52.4392C46.0621 52.5472 46.0396 52.612 45.9691 52.6336L45.3874 52.8123C44.9926 52.9336 44.6867 52.9427 44.4698 52.8396C44.253 52.7365 44.1001 52.5404 44.0113 52.2513C43.9788 52.1456 43.9336 51.9858 43.8757 51.7722C43.8248 51.5563 43.7666 51.3041 43.7011 51.0156C43.6334 50.72 43.5593 50.4033 43.4786 50.0654C43.4028 49.7183 43.327 49.3712 43.2513 49.0242C43.1733 48.67 43.0929 48.3205 43.0101 47.9756C42.9343 47.6285 42.8626 47.3071 42.795 47.0116L41.1028 47.5315C41.0253 47.5553 40.9713 47.5178 40.941 47.4191L40.7908 46.8171C40.7696 46.7233 40.7567 46.6309 40.7518 46.5397C40.7519 46.4394 40.7693 46.3453 40.804 46.2575C40.8387 46.1697 40.8919 46.0916 40.9635 46.0233C41.0422 45.9528 41.145 45.8981 41.2719 45.8591L45.9993 44.4067C46.0416 44.3937 46.0836 44.3923 46.1254 44.4027C46.1671 44.413 46.1967 44.4463 46.214 44.5027L46.3634 45.1397C46.4143 45.3556 46.4074 45.5467 46.3428 45.7132C46.2831 45.8704 46.0946 45.9978 45.7773 46.0952L44.6352 46.4462ZM49.8732 48.0892L50.5625 51.0487C50.5728 51.1073 50.5788 51.1517 50.5804 51.1821C50.5869 51.2033 50.5584 51.2236 50.4949 51.2431L49.9133 51.4218C49.5184 51.5431 49.2126 51.5522 48.9957 51.4491C48.7788 51.346 48.626 51.1499 48.5372 50.8608C48.4939 50.7198 48.4308 50.4768 48.348 50.1319C48.263 49.7799 48.1709 49.3799 48.0719 48.932C47.9728 48.484 47.8662 48.0114 47.752 47.514C47.6378 47.0167 47.5322 46.5476 47.4353 46.1067C47.3384 45.6658 47.2507 45.2799 47.1723 44.9491C47.0938 44.6182 47.0361 44.3929 46.9993 44.273C46.9668 44.1673 47.0069 44.0971 47.1197 44.0624L50.8424 42.9186C50.8847 42.9057 50.9268 42.9043 50.9685 42.9146C51.0103 42.925 51.0398 42.9583 51.0571 43.0147L51.2066 43.6517C51.2574 43.8675 51.2506 44.0587 51.186 44.2251C51.1263 44.3824 50.9378 44.5097 50.6205 44.6072L49.161 45.0556L49.5134 46.5793L51.0152 46.1179C51.0575 46.1049 51.0995 46.1036 51.1413 46.1139C51.183 46.1242 51.2126 46.1576 51.2299 46.214L51.3793 46.851C51.4302 47.0668 51.4233 47.258 51.3587 47.4244C51.299 47.5817 51.1105 47.709 50.7933 47.8065L49.8732 48.0892ZM55.0583 41.4961C55.573 41.3379 56.0364 41.2766 56.4485 41.312C56.8584 41.3403 57.2231 41.4598 57.5424 41.6703C57.8595 41.8738 58.1327 42.1603 58.362 42.5296C58.589 42.892 58.7806 43.327 58.9365 43.8346C59.0232 44.1166 59.0963 44.4298 59.1558 44.7742C59.2223 45.1164 59.2547 45.473 59.2529 45.8439C59.256 46.2056 59.2171 46.5686 59.1362 46.933C59.0552 47.2974 58.9106 47.6428 58.7022 47.9691C58.5009 48.2934 58.2291 48.5891 57.8868 48.8563C57.5423 49.1164 57.1057 49.3277 56.5769 49.4902C55.9917 49.67 55.4781 49.7313 55.0362 49.6742C54.6013 49.6149 54.222 49.473 53.8984 49.2483C53.5796 49.0145 53.3081 48.7082 53.0837 48.3296C52.8664 47.9489 52.6863 47.5258 52.5433 47.0605C52.3744 46.5105 52.2732 45.9552 52.2398 45.3944C52.2042 44.8267 52.2717 44.2928 52.4422 43.7929C52.6197 43.2908 52.9173 42.8406 53.3351 42.4422C53.7506 42.0367 54.325 41.7213 55.0583 41.4961ZM55.3398 43.2035C55.0931 43.2794 54.8921 43.3913 54.7369 43.5392C54.5867 43.678 54.4708 43.8409 54.3894 44.028C54.315 44.2129 54.2672 44.4089 54.246 44.616C54.2318 44.821 54.2339 45.0287 54.2523 45.2391C54.2684 45.4425 54.2976 45.638 54.3399 45.8256C54.3799 46.0062 54.4216 46.167 54.4649 46.308C54.6621 46.9496 54.9119 47.386 55.2144 47.6171C55.5239 47.8461 55.8761 47.8999 56.2709 47.7786C56.5953 47.679 56.8283 47.4955 56.9699 47.2282C57.1094 46.9539 57.1911 46.6548 57.2151 46.3311C57.244 45.9982 57.2319 45.6701 57.1789 45.3469C57.1237 45.0166 57.0626 44.7422 56.9954 44.5236C56.8373 44.0089 56.6246 43.6306 56.3573 43.3886C56.0879 43.1396 55.7488 43.0779 55.3398 43.2035ZM62.2758 47.6235C61.881 47.7448 61.5752 47.7539 61.3583 47.6508C61.1414 47.5476 60.9886 47.3515 60.8998 47.0625C60.8564 46.9215 60.7934 46.6785 60.7105 46.3336C60.6255 45.9816 60.5335 45.5816 60.4345 45.1337C60.3354 44.6857 60.2288 44.213 60.1146 43.7157C60.0003 43.2184 59.8948 42.7493 59.7979 42.3084C59.701 41.8675 59.6133 41.4816 59.5348 41.1508C59.4563 40.8199 59.3987 40.5946 59.3619 40.4747C59.3294 40.369 59.3695 40.2988 59.4823 40.2641L60.064 40.0854C60.4588 39.9641 60.7541 39.9582 60.9498 40.0679C61.1504 40.1683 61.2962 40.3665 61.3872 40.6627C61.398 40.6979 61.4043 40.7307 61.4059 40.7611C61.4145 40.7893 61.4243 40.821 61.4351 40.8563L62.6036 45.9024L64.5072 45.3175C64.5495 45.3045 64.5926 45.3067 64.6365 45.3241C64.6783 45.3344 64.7067 45.3643 64.7219 45.4136L64.8713 46.0506C64.9222 46.2664 64.9153 46.4576 64.8507 46.624C64.791 46.7813 64.6025 46.9086 64.2853 47.0061L62.2758 47.6235ZM67.0164 46.167C66.6216 46.2883 66.3157 46.2974 66.0988 46.1943C65.882 46.0912 65.7291 45.8951 65.6403 45.606C65.597 45.465 65.5339 45.222 65.4511 44.8771C65.3661 44.5251 65.2741 44.1251 65.175 43.6772C65.076 43.2292 64.9693 42.7566 64.8551 42.2592C64.7409 41.7619 64.6353 41.2928 64.5384 40.8519C64.4416 40.411 64.3539 40.0251 64.2754 39.6943C64.1969 39.3634 64.1392 39.1381 64.1024 39.0182C64.0699 38.9125 64.1101 38.8423 64.2229 38.8076L64.8045 38.6289C65.2346 38.4968 65.5519 38.4996 65.7562 38.6374C65.9606 38.7753 66.1181 39.024 66.2285 39.3835C66.2394 39.4188 66.267 39.5338 66.3114 39.7285C66.3628 39.921 66.4223 40.165 66.49 40.4606C66.5577 40.7562 66.6326 41.0881 66.7149 41.4563C66.8021 41.8154 66.889 42.186 66.9756 42.5684C67.0692 42.9486 67.1572 43.3228 67.2395 43.691C67.3266 44.0501 67.404 44.3774 67.4717 44.6729C67.5394 44.9685 67.5965 45.2172 67.643 45.4189C67.6874 45.6136 67.7126 45.7332 67.7185 45.7777C67.7288 45.8362 67.7277 45.8829 67.7152 45.9176C67.7006 45.9452 67.6615 45.9688 67.5981 45.9883L67.0164 46.167ZM70.6432 36.7077C71.1579 36.5496 71.6213 36.4882 72.0334 36.5236C72.4433 36.552 72.808 36.6715 73.1273 36.882C73.4444 37.0855 73.7176 37.3719 73.9469 37.7413C74.1739 38.1036 74.3655 38.5386 74.5214 39.0463C74.6081 39.3283 74.6812 39.6415 74.7407 39.9859C74.8072 40.3281 74.8396 40.6846 74.8378 41.0556C74.8409 41.4173 74.802 41.7803 74.7211 42.1447C74.6401 42.5091 74.4955 42.8544 74.2871 43.1808C74.0858 43.505 73.814 43.8007 73.4717 44.0679C73.1272 44.3281 72.6906 44.5394 72.1618 44.7018C71.5766 44.8816 71.063 44.943 70.6211 44.8859C70.1862 44.8266 69.8069 44.6846 69.4833 44.46C69.1645 44.2261 68.893 43.9199 68.6686 43.5413C68.4513 43.1605 68.2712 42.7375 68.1282 42.2721C67.9593 41.7222 67.8581 41.1668 67.8247 40.6061C67.7891 40.0383 67.8566 39.5045 68.0271 39.0046C68.2046 38.5025 68.5022 38.0522 68.92 37.6538C69.3355 37.2484 69.9099 36.933 70.6432 36.7077ZM70.9247 38.4152C70.678 38.491 70.477 38.6029 70.3218 38.7509C70.1716 38.8897 70.0557 39.0526 69.9743 39.2396C69.8999 39.4245 69.8521 39.6205 69.8309 39.8277C69.8167 40.0326 69.8188 40.2403 69.8372 40.4508C69.8533 40.6541 69.8825 40.8496 69.9248 41.0373C69.9648 41.2179 70.0065 41.3787 70.0498 41.5197C70.247 42.1613 70.4968 42.5977 70.7993 42.8288C71.1088 43.0578 71.461 43.1116 71.8558 42.9903C72.1802 42.8906 72.4132 42.7072 72.5548 42.4399C72.6943 42.1655 72.776 41.8665 72.8 41.5428C72.8289 41.2098 72.8168 40.8817 72.7638 40.5585C72.7086 40.2282 72.6475 39.9538 72.5803 39.7353C72.4222 39.2206 72.2095 38.8422 71.9422 38.6003C71.6728 38.3513 71.3337 38.2896 70.9247 38.4152Z" fill="white"/>
</g>
<defs>
<filter id="filter0_d_52_1226" x="16.5869" y="29.4351" width="33.052" height="19.6267" filterUnits="userSpaceOnUse" color-interpolation-filters="sRGB">
<feFlood flood-opacity="0" result="BackgroundImageFix"/>
<feColorMatrix in="SourceAlpha" type="matrix" values="0 0 0 0 0 0 0 0 0 0 0 0 0 0 0 0 0 0 127 0" result="hardAlpha"/>
<feOffset dx="2.01159" dy="2.01159"/>
<feGaussianBlur stdDeviation="1.0058"/>
<feComposite in2="hardAlpha" operator="out"/>
<feColorMatrix type="matrix" values="0 0 0 0 0.27451 0 0 0 0 0.305882 0 0 0 0 0.737255 0 0 0 0.3 0"/>
<feBlend mode="normal" in2="BackgroundImageFix" result="effect1_dropShadow_52_1226"/>
<feBlend mode="normal" in="SourceGraphic" in2="effect1_dropShadow_52_1226" result="shape"/>
</filter>
<filter id="filter1_d_52_1226" x="10.1061" y="10.1543" width="47.9704" height="25.3645" filterUnits="userSpaceOnUse" color-interpolation-filters="sRGB">
<feFlood flood-opacity="0" result="BackgroundImageFix"/>
<feColorMatrix in="SourceAlpha" type="matrix" values="0 0 0 0 0 0 0 0 0 0 0 0 0 0 0 0 0 0 127 0" result="hardAlpha"/>
<feOffset dy="2.01159"/>
<feGaussianBlur stdDeviation="1.0058"/>
<feComposite in2="hardAlpha" operator="out"/>
<feColorMatrix type="matrix" values="0 0 0 0 0 0 0 0 0 0 0 0 0 0 0 0 0 0 0.25 0"/>
<feBlend mode="normal" in2="BackgroundImageFix" result="effect1_dropShadow_52_1226"/>
<feBlend mode="normal" in="SourceGraphic" in2="effect1_dropShadow_52_1226" result="shape"/>
</filter>
<filter id="filter2_d_52_1226" x="18.5255" y="35.8208" width="59.3918" height="28.0359" filterUnits="userSpaceOnUse" color-interpolation-filters="sRGB">
<feFlood flood-opacity="0" result="BackgroundImageFix"/>
<feColorMatrix in="SourceAlpha" type="matrix" values="0 0 0 0 0 0 0 0 0 0 0 0 0 0 0 0 0 0 127 0" result="hardAlpha"/>
<feOffset dy="2.01159"/>
<feGaussianBlur stdDeviation="1.0058"/>
<feComposite in2="hardAlpha" operator="out"/>
<feColorMatrix type="matrix" values="0 0 0 0 0 0 0 0 0 0 0 0 0 0 0 0 0 0 0.25 0"/>
<feBlend mode="normal" in2="BackgroundImageFix" result="effect1_dropShadow_52_1226"/>
<feBlend mode="normal" in="SourceGraphic" in2="effect1_dropShadow_52_1226" result="shape"/>
</filter>
<linearGradient id="paint0_linear_52_1226" x1="36.7331" y1="1.88503" x2="5.76816" y2="12.1726" gradientUnits="userSpaceOnUse">
<stop stop-color="#8CDEC4" stop-opacity="0"/>
<stop offset="1" stop-color="#8BBAE7" stop-opacity="0.29"/>
</linearGradient>
<linearGradient id="paint1_linear_52_1226" x1="96.0749" y1="6.91481" x2="65.11" y2="17.2023" gradientUnits="userSpaceOnUse">
<stop stop-color="#8CDEC4" stop-opacity="0"/>
<stop offset="1" stop-color="#8BBAE7" stop-opacity="0.29"/>
</linearGradient>
<linearGradient id="paint2_linear_52_1226" x1="98.0882" y1="24.9128" x2="66.5775" y2="33.3824" gradientUnits="userSpaceOnUse">
<stop stop-color="#8CDEC4" stop-opacity="0"/>
<stop offset="1" stop-color="#8BBAE7" stop-opacity="0.29"/>
</linearGradient>
<linearGradient id="paint3_linear_52_1226" x1="36.2318" y1="48.0466" x2="4.72101" y2="56.5162" gradientUnits="userSpaceOnUse">
<stop stop-color="#8CDEC4" stop-opacity="0"/>
<stop offset="1" stop-color="#8BBAE7" stop-opacity="0.29"/>
</linearGradient>
</defs>
</svg>
