<svg xmlns="http://www.w3.org/2000/svg" width="32" height="34" viewBox="0 0 32 34" fill="none">
  <path d="M25.9692 15.66C25.9692 14.3858 25.4172 11.4428 23.2092 9.86443C22.7073 10.3577 22.4146 10.6454 22.331 10.7276L22.0801 5.67188H26.7219L25.9692 6.65836C27.6419 8.46691 30.7866 13.1691 29.9837 17.5097" stroke="#3F4599" stroke-width="0.8"/>
  <path d="M10.8395 8.38903C9.73017 9.04835 7.4536 11.0354 7.22195 13.7093C7.91102 13.8761 8.31298 13.9735 8.42782 14.0013L4.1398 16.7711L1.75432 12.9241L3.00264 13.0468C3.71165 10.704 6.17826 5.62592 10.3726 4.05533" stroke="#3F4599" stroke-width="0.8"/>
  <path d="M12.0511 24.905C13.156 25.5715 15.9967 26.6484 18.5202 25.6243C18.355 24.9459 18.2586 24.5502 18.2311 24.4371L22.8774 26.6611L20.3183 30.7599L19.8566 29.6134C17.4135 30.0687 11.6912 30.2436 8.34745 27.3006" stroke="#3F4599" stroke-width="0.8"/>
  <path d="M22.1666 5.9189C22.1666 8.90358 19.7026 11.3378 16.6448 11.3378C13.5871 11.3378 11.123 8.90358 11.123 5.9189C11.123 2.93421 13.5871 0.5 16.6448 0.5C19.7026 0.5 22.1666 2.93421 22.1666 5.9189Z" stroke="#3F4599"/>
  <path d="M18.2554 4.60473V5.06557C18.2554 5.10774 18.2438 5.14238 18.2205 5.16949C18.1972 5.1966 18.1674 5.21015 18.1312 5.21015H17.4793C17.4198 5.64388 17.2529 5.99629 16.9786 6.26737C16.7044 6.53845 16.3474 6.70411 15.9076 6.76435C16.3396 7.30049 16.9334 8.10771 17.6888 9.18601C17.725 9.2342 17.7302 9.28541 17.7043 9.33962C17.6836 9.39384 17.6461 9.42095 17.5918 9.42095H16.8351C16.7937 9.42095 16.7613 9.40288 16.738 9.36673C15.9464 8.26132 15.3022 7.40139 14.8054 6.78694C14.7822 6.75983 14.7705 6.7267 14.7705 6.68754V6.11375C14.7705 6.0746 14.7828 6.04071 14.8074 6.0121C14.832 5.98348 14.8611 5.96918 14.8947 5.96918H15.3293C15.6708 5.96918 15.9457 5.90442 16.154 5.7749C16.3623 5.64539 16.4948 5.45714 16.5518 5.21015H14.8947C14.8585 5.21015 14.8287 5.1966 14.8054 5.16949C14.7822 5.14238 14.7705 5.10774 14.7705 5.06557V4.60473C14.7705 4.56257 14.7822 4.52793 14.8054 4.50082C14.8287 4.47371 14.8585 4.46016 14.8947 4.46016H16.4974C16.35 4.1198 16.0033 3.94962 15.4574 3.94962H14.8947C14.8611 3.94962 14.832 3.93531 14.8074 3.9067C14.7828 3.87809 14.7705 3.8442 14.7705 3.80504V3.20415C14.7705 3.16198 14.7822 3.12734 14.8054 3.10023C14.8287 3.07312 14.8585 3.05957 14.8947 3.05957H18.1235C18.1597 3.05957 18.1894 3.07312 18.2127 3.10023C18.236 3.12734 18.2476 3.16198 18.2476 3.20415V3.66499C18.2476 3.70715 18.236 3.74179 18.2127 3.7689C18.1894 3.79601 18.1597 3.80956 18.1235 3.80956H17.2193C17.3409 3.9933 17.4236 4.21016 17.4676 4.46016H18.1312C18.1674 4.46016 18.1972 4.47371 18.2205 4.50082C18.2438 4.52793 18.2554 4.56257 18.2554 4.60473Z" fill="#3F4599"/>
  <path d="M31.5001 21.7011C31.5001 24.6858 29.0361 27.12 25.9783 27.12C22.9206 27.12 20.4565 24.6858 20.4565 21.7011C20.4565 18.7164 22.9206 16.2822 25.9783 16.2822C29.0361 16.2822 31.5001 18.7164 31.5001 21.7011Z" stroke="#3F4599"/>
  <path d="M27.5899 19.8967V20.3576C27.5899 20.3997 27.5782 20.4344 27.555 20.4615C27.5317 20.4886 27.5019 20.5021 27.4657 20.5021H26.8137C26.7542 20.9359 26.5874 21.2883 26.3131 21.5594C26.0389 21.8304 25.6819 21.9961 25.242 22.0563C25.6741 22.5925 26.2678 23.3997 27.0233 24.478C27.0595 24.5262 27.0647 24.5774 27.0388 24.6316C27.0181 24.6858 26.9806 24.7129 26.9263 24.7129H26.1695C26.1281 24.7129 26.0958 24.6949 26.0725 24.6587C25.2808 23.5533 24.6366 22.6934 24.1399 22.0789C24.1166 22.0518 24.105 22.0187 24.105 21.9795V21.4057C24.105 21.3666 24.1173 21.3327 24.1418 21.3041C24.1664 21.2755 24.1955 21.2612 24.2292 21.2612H24.6638C25.0053 21.2612 25.2802 21.1964 25.4885 21.0669C25.6967 20.9374 25.8293 20.7491 25.8862 20.5021H24.2292C24.1929 20.5021 24.1632 20.4886 24.1399 20.4615C24.1166 20.4344 24.105 20.3997 24.105 20.3576V19.8967C24.105 19.8546 24.1166 19.8199 24.1399 19.7928C24.1632 19.7657 24.1929 19.7521 24.2292 19.7521H25.8319C25.6844 19.4118 25.3378 19.2416 24.7919 19.2416H24.2292C24.1955 19.2416 24.1664 19.2273 24.1418 19.1987C24.1173 19.1701 24.105 19.1362 24.105 19.097V18.4961C24.105 18.454 24.1166 18.4193 24.1399 18.3922C24.1632 18.3651 24.1929 18.3516 24.2292 18.3516H27.4579C27.4942 18.3516 27.5239 18.3651 27.5472 18.3922C27.5705 18.4193 27.5821 18.454 27.5821 18.4961V18.957C27.5821 18.9991 27.5705 19.0338 27.5472 19.0609C27.5239 19.088 27.4942 19.1016 27.4579 19.1016H26.5537C26.6753 19.2853 26.7581 19.5022 26.8021 19.7521H27.4657C27.5019 19.7521 27.5317 19.7657 27.555 19.7928C27.5782 19.8199 27.5899 19.8546 27.5899 19.8967Z" fill="#3F4599"/>
  <path d="M11.986 22.2314C11.986 25.2161 9.52193 27.6503 6.46417 27.6503C3.40641 27.6503 0.942383 25.2161 0.942383 22.2314C0.942383 19.2467 3.40641 16.8125 6.46417 16.8125C9.52193 16.8125 11.986 19.2467 11.986 22.2314Z" stroke="#3F4599"/>
  <path d="M8.0767 20.9133V21.3742C8.0767 21.4163 8.06506 21.451 8.04177 21.4781C8.01849 21.5052 7.98874 21.5187 7.95252 21.5187H7.30055C7.24105 21.9525 7.07418 22.3049 6.79994 22.576C6.5257 22.847 6.16867 23.0127 5.72885 23.0729C6.16091 23.6091 6.75466 24.4163 7.51011 25.4946C7.54633 25.5428 7.55151 25.594 7.52564 25.6482C7.50494 25.7024 7.46742 25.7295 7.41309 25.7295H6.65635C6.61496 25.7295 6.58262 25.7115 6.55933 25.6753C5.76766 24.5699 5.12346 23.71 4.62672 23.0955C4.60344 23.0684 4.5918 23.0353 4.5918 22.9961V22.4223C4.5918 22.3832 4.60409 22.3493 4.62866 22.3207C4.65324 22.2921 4.68235 22.2778 4.71598 22.2778H5.15062C5.49213 22.2778 5.76701 22.213 5.97528 22.0835C6.18355 21.954 6.31614 21.7657 6.37306 21.5187H4.71598C4.67976 21.5187 4.65001 21.5052 4.62672 21.4781C4.60344 21.451 4.5918 21.4163 4.5918 21.3742V20.9133C4.5918 20.8712 4.60344 20.8365 4.62672 20.8094C4.65001 20.7823 4.67976 20.7688 4.71598 20.7688H6.31873C6.17126 20.4284 5.82458 20.2582 5.27869 20.2582H4.71598C4.68235 20.2582 4.65324 20.2439 4.62866 20.2153C4.60409 20.1867 4.5918 20.1528 4.5918 20.1136V19.5127C4.5918 19.4706 4.60344 19.4359 4.62672 19.4088C4.65001 19.3817 4.67976 19.3682 4.71598 19.3682H7.94476C7.98098 19.3682 8.01073 19.3817 8.03401 19.4088C8.0573 19.4359 8.06894 19.4706 8.06894 19.5127V19.9736C8.06894 20.0157 8.0573 20.0504 8.03401 20.0775C8.01073 20.1046 7.98098 20.1182 7.94476 20.1182H7.04054C7.16214 20.3019 7.24493 20.5188 7.28891 20.7688H7.95252C7.98874 20.7688 8.01849 20.7823 8.04177 20.8094C8.06506 20.8365 8.0767 20.8712 8.0767 20.9133Z" fill="#3F4599"/>
</svg>