<svg xmlns="http://www.w3.org/2000/svg" width="37" height="32" viewBox="0 0 37 32" fill="none">
  <rect x="1" y="18.5" width="35" height="3.8" rx="1.9" stroke="#3F4599"/>
  <rect x="15.4014" y="22.0996" width="8.6" height="8.6" rx="4.3" stroke="#3F4599"/>
  <rect x="13.0015" y="22.0996" width="8.6" height="8.6" rx="4.3" fill="white" stroke="#3F4599"/>
  <rect x="3.39844" y="15.6064" width="8.6" height="2.83607" rx="0.5" stroke="#3F4599"/>
  <rect x="3.39844" y="12.9648" width="8.6" height="2.83607" rx="0.5" stroke="#3F4599"/>
  <rect x="3.39844" y="10.3311" width="8.6" height="2.83607" rx="0.5" stroke="#3F4599"/>
  <rect x="23.3164" y="15.6064" width="8.6" height="2.83607" rx="0.5" stroke="#3F4599"/>
  <rect x="23.3164" y="12.9648" width="8.6" height="2.83607" rx="0.5" stroke="#3F4599"/>
  <rect x="23.3164" y="10.3311" width="8.6" height="2.83607" rx="0.5" stroke="#3F4599"/>
  <path d="M10.1018 1.74886V2.27045C10.1018 2.31818 10.0857 2.35739 10.0537 2.38807C10.0216 2.41875 9.9806 2.43409 9.93071 2.43409H9.03272C8.95076 2.925 8.72091 3.32386 8.34318 3.63068C7.96546 3.9375 7.4737 4.125 6.8679 4.19318C7.46301 4.8 8.28082 5.71364 9.32136 6.93409C9.37125 6.98864 9.37837 7.04659 9.34274 7.10796C9.31423 7.16932 9.26256 7.2 9.18773 7.2H8.14541C8.08839 7.2 8.04385 7.17955 8.01178 7.13864C6.92136 5.8875 6.03405 4.91421 5.34986 4.21875C5.31779 4.18807 5.30176 4.15057 5.30176 4.10625V3.45682C5.30176 3.4125 5.31868 3.37415 5.35254 3.34176C5.38639 3.30938 5.42648 3.29318 5.4728 3.29318H6.07147C6.54185 3.29318 6.92047 3.21989 7.20733 3.0733C7.49419 2.9267 7.67681 2.71364 7.75521 2.43409H5.4728C5.42292 2.43409 5.38194 2.41875 5.34986 2.38807C5.31779 2.35739 5.30176 2.31818 5.30176 2.27045V1.74886C5.30176 1.70114 5.31779 1.66193 5.34986 1.63125C5.38194 1.60057 5.42292 1.58523 5.4728 1.58523H7.68038C7.47726 1.2 6.99975 1.00739 6.24786 1.00739H5.4728C5.42648 1.00739 5.38639 0.991193 5.35254 0.958807C5.31868 0.926421 5.30176 0.888068 5.30176 0.84375V0.163636C5.30176 0.115909 5.31779 0.0767046 5.34986 0.0460227C5.38194 0.0153409 5.42292 0 5.4728 0H9.92002C9.96991 0 10.0109 0.0153409 10.043 0.0460227C10.075 0.0767046 10.0911 0.115909 10.0911 0.163636V0.685227C10.0911 0.732955 10.075 0.772159 10.043 0.802841C10.0109 0.833523 9.96991 0.848864 9.92002 0.848864H8.67459C8.84207 1.05682 8.9561 1.30227 9.01668 1.58523H9.93071C9.9806 1.58523 10.0216 1.60057 10.0537 1.63125C10.0857 1.66193 10.1018 1.70114 10.1018 1.74886Z" fill="#3F4599"/>
  <path d="M30.5007 1.74886V2.27045C30.5007 2.31818 30.4846 2.35739 30.4526 2.38807C30.4205 2.41875 30.3795 2.43409 30.3296 2.43409H29.4316C29.3497 2.925 29.1198 3.32386 28.7421 3.63068C28.3644 3.9375 27.8726 4.125 27.2668 4.19318C27.8619 4.8 28.6797 5.71364 29.7203 6.93409C29.7702 6.98864 29.7773 7.04659 29.7417 7.10796C29.7132 7.16932 29.6615 7.2 29.5867 7.2H28.5443C28.4873 7.2 28.4428 7.17955 28.4107 7.13864C27.3203 5.8875 26.433 4.91421 25.7488 4.21875C25.7167 4.18807 25.7007 4.15057 25.7007 4.10625V3.45682C25.7007 3.4125 25.7176 3.37415 25.7515 3.34176C25.7853 3.30938 25.8254 3.29318 25.8717 3.29318H26.4704C26.9408 3.29318 27.3194 3.21989 27.6063 3.0733C27.8931 2.9267 28.0757 2.71364 28.1541 2.43409H25.8717C25.8218 2.43409 25.7809 2.41875 25.7488 2.38807C25.7167 2.35739 25.7007 2.31818 25.7007 2.27045V1.74886C25.7007 1.70114 25.7167 1.66193 25.7488 1.63125C25.7809 1.60057 25.8218 1.58523 25.8717 1.58523H28.0793C27.8762 1.2 27.3987 1.00739 26.6468 1.00739H25.8717C25.8254 1.00739 25.7853 0.991193 25.7515 0.958807C25.7176 0.926421 25.7007 0.888068 25.7007 0.84375V0.163636C25.7007 0.115909 25.7167 0.0767046 25.7488 0.0460227C25.7809 0.0153409 25.8218 0 25.8717 0H30.3189C30.3688 0 30.4098 0.0153409 30.4419 0.0460227C30.474 0.0767046 30.49 0.115909 30.49 0.163636V0.685227C30.49 0.732955 30.474 0.772159 30.4419 0.802841C30.4098 0.833523 30.3688 0.848864 30.3189 0.848864H29.0735C29.241 1.05682 29.355 1.30227 29.4156 1.58523H30.3296C30.3795 1.58523 30.4205 1.60057 30.4526 1.63125C30.4846 1.66193 30.5007 1.70114 30.5007 1.74886Z" fill="#3F4599"/>
</svg>