
<svg width="34" height="23" viewBox="0 0 34 23" fill="none" xmlns="http://www.w3.org/2000/svg">
<path d="M1.52883 9.80481C1.67168 9.51913 3.01677 8.7335 3.67146 8.37639C3.55244 8.28712 3.29653 8.00144 3.22511 7.57291C3.08227 6.71586 3.40366 6.44208 3.58222 6.41232L5.63557 6.32304C5.69509 6.23377 5.88554 5.85881 6.17123 5.07318C7.68892 1.2343 12.1527 1.2343 15.1881 1.05574C18.2235 0.877192 21.2589 1.2343 24.205 1.68068C26.8476 2.03778 28.282 4.9839 28.6688 6.41231H28.8474C29.5616 6.3528 30.99 6.3766 30.99 6.94797C31.1329 7.80502 30.6924 8.31687 30.4544 8.46567C30.4841 8.46567 30.7757 8.55494 31.7042 8.91205C33.1326 9.53698 32.9541 10.4297 33.0434 11.7689C33.1326 13.108 32.9541 19.0895 32.9541 20.2501C32.9541 21.4107 32.8648 21.3214 32.0613 21.3214C32.2042 22.1071 31.8828 22.363 31.7042 22.3928C30.1865 22.4225 26.9726 22.482 26.2584 22.482C25.5442 22.482 25.5442 21.6488 25.6334 21.2322H8.58168C8.65311 22.2321 8.25434 22.4225 8.04603 22.3928H2.68945C2.11809 22.3928 2.1538 21.619 2.24307 21.2322H1.35031C1.29078 19.6252 1.15387 16.0899 1.08245 14.8043C0.993176 13.1973 1.35028 10.1619 1.52883 9.80481Z" fill="white" stroke="#3F4599" stroke-width="0.5"/>
<path d="M12.9422 3.46626C8.65693 3.75195 7.34755 6.73972 7.22852 8.1979C13.091 8.25742 25.298 8.34075 27.2264 8.1979C25.9765 4.89468 24.6374 4.26975 23.0304 3.82337C21.4234 3.37699 18.2988 3.10916 12.9422 3.46626Z" fill="white" stroke="#3F4599" stroke-width="0.5"/>
<path d="M3.83519 12.7509C2.97814 12.7509 3.1805 11.382 3.38881 10.6976C5.88861 10.269 8.12042 11.7689 8.92385 12.5724C7.58473 12.6319 4.69224 12.7509 3.83519 12.7509Z" fill="white" stroke="#3F4599" stroke-width="0.5"/>
<path d="M30.6179 12.7509C31.475 12.7509 31.2726 11.382 31.0643 10.6976C28.5645 10.269 26.3327 11.7689 25.5293 12.5724C26.8684 12.6319 29.7609 12.7509 30.6179 12.7509Z" fill="white" stroke="#3F4599" stroke-width="0.5"/>
<rect x="9.89062" y="15.2329" width="14.677" height="2.8925" rx="1.44625" fill="white" stroke="#3F4599" stroke-width="0.5"/>
</svg>
