
<svg width="33" height="25" viewBox="0 0 33 25" fill="none" xmlns="http://www.w3.org/2000/svg">
<path d="M7.2832 16.0934V12.0267L25.4204 11.7827C25.3933 12.1623 25.3554 13.5558 25.4204 16.0934C24.3631 19.5907 19.0765 20.648 15.9045 20.4853C9.33279 20.0949 7.41876 17.3947 7.2832 16.0934Z" stroke="#3F4599" stroke-width="0.5"/>
<path d="M15.6207 1.22631C15.6207 1.22631 4.92561 5.79792 1.7941 7.08228C-1.33742 8.36663 1.7941 9.44093 1.7941 9.44093C1.7941 9.44093 13.7988 14.7764 15.2954 15.2969C16.7919 15.8174 17.7064 15.2969 18.4673 14.9716C23.0626 13.0069 28.3493 10.7592 31.1553 9.44093C33.9612 8.12264 31.1553 7.08228 31.1553 7.08228C31.1553 7.08228 18.4673 1.58213 17.3287 1.22631C16.312 0.908607 16.4746 0.96534 15.6207 1.22631Z" fill="white" stroke="#3F4599" stroke-width="0.5"/>
<path d="M18.5831 8.04121C18.5831 8.45756 18.2976 8.73856 17.818 8.92682C17.3408 9.1141 16.7455 9.17387 16.3118 9.17387C15.878 9.17387 15.3267 9.11402 14.8935 8.92953C14.4665 8.74764 14.2031 8.47157 14.2031 8.04121C14.2031 7.64245 14.4774 7.3027 14.9202 7.04811C15.3592 6.79565 15.9058 6.66455 16.3118 6.66455C16.7388 6.66455 17.3292 6.74299 17.8028 6.96605C18.2701 7.18617 18.5831 7.52237 18.5831 8.04121Z" fill="black" stroke="#3F4599" stroke-width="0.5"/>
<path d="M7.2832 13.8975C8.61164 15.253 11.8378 16.5814 16.7178 17.5574" stroke="#3F4599" stroke-width="0.5"/>
<path d="M7.2832 15.5239C8.61164 16.8795 11.8378 18.2079 16.7178 19.1839" stroke="#3F4599" stroke-width="0.5"/>
<path d="M25.4199 13.5718C24.0915 14.9273 19.9381 18.6144 15.5786 17.3131" stroke="#3F4599" stroke-width="0.5"/>
<path d="M25.4199 15.1987C24.0915 16.5543 19.9381 20.2414 15.5786 18.94" stroke="#3F4599" stroke-width="0.5"/>
<path d="M14.1962 8.69189L4.68024 10.7252L4.51758 19.6718" stroke="#3F4599" stroke-width="0.5"/>
<path d="M5.08174 19.7533C5.08174 20.0644 4.82952 20.3166 4.51841 20.3166C4.20729 20.3166 3.95508 20.0644 3.95508 19.7533C3.95508 19.4422 4.20729 19.1899 4.51841 19.1899C4.82952 19.1899 5.08174 19.4422 5.08174 19.7533Z" fill="black" stroke="#3F4599" stroke-width="0.5"/>
<path d="M3.21756 23.8201C2.95729 20.5018 3.97666 20.1602 4.51888 20.4042C5.69007 20.0788 5.87443 22.5459 5.82021 23.8201H3.21756Z" fill="black" stroke="#3F4599" stroke-width="0.5"/>
</svg>
