
<svg width="32" height="20" viewBox="0 0 32 20" fill="none" xmlns="http://www.w3.org/2000/svg">
<g filter="url(#filter0_d_2640_6925)">
<ellipse cx="21.7474" cy="9.04422" rx="8.64267" ry="8.64255" transform="rotate(-1.04067 21.7474 9.04422)" fill="#DB9300"/>
</g>
<g filter="url(#filter1_d_2640_6925)">
<ellipse cx="20.7006" cy="9.06375" rx="8.64267" ry="8.64255" transform="rotate(-1.04067 20.7006 9.06375)" fill="#FECB00"/>
</g>
<g filter="url(#filter2_i_2640_6925)">
<ellipse cx="20.7012" cy="9.06362" rx="7.4423" ry="7.4422" transform="rotate(-1.04067 20.7012 9.06362)" fill="#DB9300"/>
</g>
<g filter="url(#filter3_d_2640_6925)">
<path d="M23.0622 6.86365L23.0726 7.43748C23.0736 7.48998 23.0583 7.53341 23.0269 7.56774C22.9954 7.60208 22.9547 7.6197 22.9048 7.62061L22.0067 7.63692C21.9345 8.17848 21.7126 8.62147 21.341 8.96587C20.9693 9.31028 20.4812 9.52549 19.8767 9.6115C20.484 10.2683 21.3202 11.2586 22.3853 12.5823C22.4363 12.6414 22.4446 12.7051 22.4102 12.7732C22.3829 12.8412 22.3318 12.8759 22.257 12.8773L21.2145 12.8962C21.1575 12.8973 21.1125 12.8756 21.0796 12.8311C19.9641 11.4745 19.0572 10.4199 18.359 9.66721C18.3263 9.63404 18.3095 9.59308 18.3086 9.54432L18.2956 8.82985C18.2948 8.7811 18.3109 8.7386 18.3441 8.70235C18.3773 8.66611 18.4171 8.64756 18.4634 8.64672L19.0622 8.63585C19.5326 8.6273 19.9099 8.53979 20.1938 8.3733C20.4778 8.20682 20.6562 7.9691 20.729 7.66013L18.4463 7.7016C18.3964 7.7025 18.3551 7.68637 18.3224 7.6532C18.2897 7.62003 18.2729 7.57719 18.2719 7.52468L18.2615 6.95086C18.2606 6.89835 18.2758 6.85493 18.3073 6.82059C18.3387 6.78625 18.3794 6.76863 18.4293 6.76773L20.6372 6.72762C20.4264 6.3075 19.9449 6.10428 19.1929 6.11794L18.4178 6.13202C18.3714 6.13286 18.331 6.11577 18.2965 6.08076C18.262 6.04574 18.2443 6.00386 18.2434 5.9551L18.2298 5.20688C18.2289 5.15437 18.2441 5.11095 18.2756 5.07661C18.3071 5.04228 18.3477 5.02465 18.3976 5.02375L22.8455 4.94295C22.8954 4.94205 22.9367 4.95818 22.9694 4.99135C23.0021 5.02452 23.0189 5.06736 23.0198 5.11987L23.0303 5.69369C23.0312 5.7462 23.016 5.78962 22.9845 5.82396C22.953 5.8583 22.9124 5.87592 22.8625 5.87682L21.6168 5.89945C21.7885 6.12519 21.9075 6.39315 21.9737 6.70334L22.8879 6.68674C22.9378 6.68583 22.9791 6.70196 23.0117 6.73513C23.0444 6.76831 23.0613 6.81115 23.0622 6.86365Z" fill="#FECB00"/>
</g>
<g filter="url(#filter4_d_2640_6925)">
<ellipse cx="10.7474" cy="9.04422" rx="8.64267" ry="8.64255" transform="rotate(-1.04067 10.7474 9.04422)" fill="#DB9300"/>
</g>
<g filter="url(#filter5_d_2640_6925)">
<ellipse cx="9.70056" cy="9.06375" rx="8.64267" ry="8.64255" transform="rotate(-1.04067 9.70056 9.06375)" fill="#FECB00"/>
</g>
<g filter="url(#filter6_i_2640_6925)">
<ellipse cx="9.70124" cy="9.06362" rx="7.4423" ry="7.4422" transform="rotate(-1.04067 9.70124 9.06362)" fill="#DB9300"/>
</g>
<g filter="url(#filter7_d_2640_6925)">
<path d="M12.0622 6.86365L12.0726 7.43748C12.0736 7.48998 12.0583 7.53341 12.0269 7.56774C11.9954 7.60208 11.9547 7.6197 11.9048 7.62061L11.0067 7.63692C10.9345 8.17848 10.7126 8.62147 10.341 8.96587C9.96933 9.31028 9.48125 9.52549 8.87673 9.6115C9.48405 10.2683 10.3202 11.2586 11.3853 12.5823C11.4363 12.6414 11.4446 12.7051 11.4102 12.7732C11.3829 12.8412 11.3318 12.8759 11.257 12.8773L10.2145 12.8962C10.1575 12.8973 10.1125 12.8756 10.0796 12.8311C8.96405 11.4745 8.05717 10.4199 7.35899 9.66721C7.3263 9.63404 7.30951 9.59308 7.30862 9.54432L7.29565 8.82985C7.29476 8.7811 7.31092 8.7386 7.34413 8.70235C7.37734 8.66611 7.41712 8.64756 7.46345 8.64672L8.0622 8.63585C8.53264 8.6273 8.90985 8.53979 9.19382 8.3733C9.4778 8.20682 9.65619 7.9691 9.72901 7.66013L7.44628 7.7016C7.39638 7.7025 7.35509 7.68637 7.3224 7.6532C7.28971 7.62003 7.27289 7.57719 7.27194 7.52468L7.26151 6.95086C7.26056 6.89835 7.27581 6.85493 7.30728 6.82059C7.33874 6.78625 7.37942 6.76863 7.42931 6.76773L9.6372 6.72762C9.42636 6.3075 8.94493 6.10428 8.19293 6.11794L7.41777 6.13202C7.37143 6.13286 7.33102 6.11577 7.29651 6.08076C7.26201 6.04574 7.24431 6.00386 7.24342 5.9551L7.22983 5.20688C7.22888 5.15437 7.24413 5.11095 7.2756 5.07661C7.30706 5.04228 7.34774 5.02465 7.39763 5.02375L11.8455 4.94295C11.8954 4.94205 11.9367 4.95818 11.9694 4.99135C12.0021 5.02452 12.0189 5.06736 12.0198 5.11987L12.0303 5.69369C12.0312 5.7462 12.016 5.78962 11.9845 5.82396C11.953 5.8583 11.9124 5.87592 11.8625 5.87682L10.6168 5.89945C10.7885 6.12519 10.9075 6.39315 10.9737 6.70334L11.8879 6.68674C11.9378 6.68583 11.9791 6.70196 12.0117 6.73513C12.0444 6.76831 12.0613 6.81115 12.0622 6.86365Z" fill="#FECB00"/>
</g>
<defs>
<filter id="filter0_d_2640_6925" x="12.1452" y="0.401855" width="19.2057" height="19.2057" filterUnits="userSpaceOnUse" color-interpolation-filters="sRGB">
<feFlood flood-opacity="0" result="BackgroundImageFix"/>
<feColorMatrix in="SourceAlpha" type="matrix" values="0 0 0 0 0 0 0 0 0 0 0 0 0 0 0 0 0 0 127 0" result="hardAlpha"/>
<feOffset dy="0.96029"/>
<feGaussianBlur stdDeviation="0.480145"/>
<feComposite in2="hardAlpha" operator="out"/>
<feColorMatrix type="matrix" values="0 0 0 0 0 0 0 0 0 0 0 0 0 0 0 0 0 0 0.1 0"/>
<feBlend mode="normal" in2="BackgroundImageFix" result="effect1_dropShadow_2640_6925"/>
<feBlend mode="normal" in="SourceGraphic" in2="effect1_dropShadow_2640_6925" result="shape"/>
</filter>
<filter id="filter1_d_2640_6925" x="11.0983" y="0.421387" width="19.2057" height="19.2057" filterUnits="userSpaceOnUse" color-interpolation-filters="sRGB">
<feFlood flood-opacity="0" result="BackgroundImageFix"/>
<feColorMatrix in="SourceAlpha" type="matrix" values="0 0 0 0 0 0 0 0 0 0 0 0 0 0 0 0 0 0 127 0" result="hardAlpha"/>
<feOffset dy="0.96029"/>
<feGaussianBlur stdDeviation="0.480145"/>
<feComposite in2="hardAlpha" operator="out"/>
<feColorMatrix type="matrix" values="0 0 0 0 0 0 0 0 0 0 0 0 0 0 0 0 0 0 0.1 0"/>
<feBlend mode="normal" in2="BackgroundImageFix" result="effect1_dropShadow_2640_6925"/>
<feBlend mode="normal" in="SourceGraphic" in2="effect1_dropShadow_2640_6925" result="shape"/>
</filter>
<filter id="filter2_i_2640_6925" x="13.2598" y="1.62158" width="15.1248" height="15.8446" filterUnits="userSpaceOnUse" color-interpolation-filters="sRGB">
<feFlood flood-opacity="0" result="BackgroundImageFix"/>
<feBlend mode="normal" in="SourceGraphic" in2="BackgroundImageFix" result="shape"/>
<feColorMatrix in="SourceAlpha" type="matrix" values="0 0 0 0 0 0 0 0 0 0 0 0 0 0 0 0 0 0 127 0" result="hardAlpha"/>
<feOffset dx="0.240073" dy="0.96029"/>
<feGaussianBlur stdDeviation="0.480145"/>
<feComposite in2="hardAlpha" operator="arithmetic" k2="-1" k3="1"/>
<feColorMatrix type="matrix" values="0 0 0 0 0 0 0 0 0 0 0 0 0 0 0 0 0 0 0.25 0"/>
<feBlend mode="normal" in2="shape" result="effect1_innerShadow_2640_6925"/>
</filter>
<filter id="filter3_d_2640_6925" x="17.2702" y="4.94287" width="6.76238" height="9.87419" filterUnits="userSpaceOnUse" color-interpolation-filters="sRGB">
<feFlood flood-opacity="0" result="BackgroundImageFix"/>
<feColorMatrix in="SourceAlpha" type="matrix" values="0 0 0 0 0 0 0 0 0 0 0 0 0 0 0 0 0 0 127 0" result="hardAlpha"/>
<feOffset dy="0.96029"/>
<feGaussianBlur stdDeviation="0.480145"/>
<feComposite in2="hardAlpha" operator="out"/>
<feColorMatrix type="matrix" values="0 0 0 0 0 0 0 0 0 0 0 0 0 0 0 0 0 0 0.15 0"/>
<feBlend mode="normal" in2="BackgroundImageFix" result="effect1_dropShadow_2640_6925"/>
<feBlend mode="normal" in="SourceGraphic" in2="effect1_dropShadow_2640_6925" result="shape"/>
</filter>
<filter id="filter4_d_2640_6925" x="1.14518" y="0.401855" width="19.2057" height="19.2057" filterUnits="userSpaceOnUse" color-interpolation-filters="sRGB">
<feFlood flood-opacity="0" result="BackgroundImageFix"/>
<feColorMatrix in="SourceAlpha" type="matrix" values="0 0 0 0 0 0 0 0 0 0 0 0 0 0 0 0 0 0 127 0" result="hardAlpha"/>
<feOffset dy="0.96029"/>
<feGaussianBlur stdDeviation="0.480145"/>
<feComposite in2="hardAlpha" operator="out"/>
<feColorMatrix type="matrix" values="0 0 0 0 0 0 0 0 0 0 0 0 0 0 0 0 0 0 0.1 0"/>
<feBlend mode="normal" in2="BackgroundImageFix" result="effect1_dropShadow_2640_6925"/>
<feBlend mode="normal" in="SourceGraphic" in2="effect1_dropShadow_2640_6925" result="shape"/>
</filter>
<filter id="filter5_d_2640_6925" x="0.0983034" y="0.421387" width="19.2057" height="19.2057" filterUnits="userSpaceOnUse" color-interpolation-filters="sRGB">
<feFlood flood-opacity="0" result="BackgroundImageFix"/>
<feColorMatrix in="SourceAlpha" type="matrix" values="0 0 0 0 0 0 0 0 0 0 0 0 0 0 0 0 0 0 127 0" result="hardAlpha"/>
<feOffset dy="0.96029"/>
<feGaussianBlur stdDeviation="0.480145"/>
<feComposite in2="hardAlpha" operator="out"/>
<feColorMatrix type="matrix" values="0 0 0 0 0 0 0 0 0 0 0 0 0 0 0 0 0 0 0.1 0"/>
<feBlend mode="normal" in2="BackgroundImageFix" result="effect1_dropShadow_2640_6925"/>
<feBlend mode="normal" in="SourceGraphic" in2="effect1_dropShadow_2640_6925" result="shape"/>
</filter>
<filter id="filter6_i_2640_6925" x="2.25977" y="1.62158" width="15.1248" height="15.8446" filterUnits="userSpaceOnUse" color-interpolation-filters="sRGB">
<feFlood flood-opacity="0" result="BackgroundImageFix"/>
<feBlend mode="normal" in="SourceGraphic" in2="BackgroundImageFix" result="shape"/>
<feColorMatrix in="SourceAlpha" type="matrix" values="0 0 0 0 0 0 0 0 0 0 0 0 0 0 0 0 0 0 127 0" result="hardAlpha"/>
<feOffset dx="0.240073" dy="0.96029"/>
<feGaussianBlur stdDeviation="0.480145"/>
<feComposite in2="hardAlpha" operator="arithmetic" k2="-1" k3="1"/>
<feColorMatrix type="matrix" values="0 0 0 0 0 0 0 0 0 0 0 0 0 0 0 0 0 0 0.25 0"/>
<feBlend mode="normal" in2="shape" result="effect1_innerShadow_2640_6925"/>
</filter>
<filter id="filter7_d_2640_6925" x="6.27018" y="4.94287" width="6.76238" height="9.87419" filterUnits="userSpaceOnUse" color-interpolation-filters="sRGB">
<feFlood flood-opacity="0" result="BackgroundImageFix"/>
<feColorMatrix in="SourceAlpha" type="matrix" values="0 0 0 0 0 0 0 0 0 0 0 0 0 0 0 0 0 0 127 0" result="hardAlpha"/>
<feOffset dy="0.96029"/>
<feGaussianBlur stdDeviation="0.480145"/>
<feComposite in2="hardAlpha" operator="out"/>
<feColorMatrix type="matrix" values="0 0 0 0 0 0 0 0 0 0 0 0 0 0 0 0 0 0 0.15 0"/>
<feBlend mode="normal" in2="BackgroundImageFix" result="effect1_dropShadow_2640_6925"/>
<feBlend mode="normal" in="SourceGraphic" in2="effect1_dropShadow_2640_6925" result="shape"/>
</filter>
</defs>
</svg>
