
<svg width="82" height="37" viewBox="0 0 82 37" fill="none" xmlns="http://www.w3.org/2000/svg">
<path d="M2.09277 3.83377C2.09277 2.88333 2.8848 2.09131 3.83523 2.09131H43.1831C44.1335 2.09131 44.9255 2.88333 44.9255 3.83377V17.0448C44.9255 17.9952 44.1335 18.7872 43.1831 18.7872H5.2292L2.12445 21.7652V3.83377H2.09277Z" fill="#C6CAFF"/>
<path d="M77.3007 28.83H46.3167C45.3662 28.83 44.5742 28.038 44.5742 27.0876V21.8602C46.6652 21.2583 48.1859 19.3257 48.1859 17.0764V14.4785H77.269C78.2195 14.4785 79.0115 15.2705 79.0115 16.221V30.8893L77.3007 28.83Z" fill="#6AE9C2"/>
<path d="M0 26.7071V3.83341C0 1.71078 1.74246 0 3.86509 0H43.2129C45.3356 0 47.078 1.74246 47.078 3.86509V17.0761C47.078 19.1987 45.3356 20.9412 43.2129 20.9412H6.05108L0 26.7071ZM43.1813 0.950431H3.83341C2.24935 0.950431 0.950431 2.24935 0.950431 3.83341V24.4261L5.67091 19.9274H43.1813C44.7653 19.9274 46.0642 18.6284 46.0642 17.0444V3.83341C46.0642 2.24935 44.7653 0.950431 43.1813 0.950431Z" fill="#07090F"/>
<path d="M17.2647 15.8093H16.7895C14.9837 15.8093 13.5264 14.352 13.5264 12.5462V8.39596C13.5264 6.59014 14.9837 5.13281 16.7895 5.13281H17.2647C19.0705 5.13281 20.5279 6.59014 20.5279 8.39596V12.5462C20.5279 14.352 19.0705 15.8093 17.2647 15.8093ZM16.8212 6.11492C15.554 6.11492 14.5402 7.12872 14.5402 8.39596V12.5462C14.5402 13.8134 15.554 14.8272 16.8212 14.8272H17.2964C18.5637 14.8272 19.5774 13.8134 19.5774 12.5462V8.39596C19.5774 7.12872 18.5637 6.11492 17.2964 6.11492H16.8212Z" fill="#07090F"/>
<path d="M21.383 15.2228L17.3955 11.2354L16.7011 11.9298L20.6886 15.9173L21.383 15.2228Z" fill="#07090F"/>
<path d="M24.7742 15.4923L24.6791 15.3656C23.7604 13.9716 23.2852 12.3559 23.2852 10.6768V9.82138C23.2852 8.14228 23.7604 6.52655 24.6791 5.13258L24.7742 5.00586L25.5979 5.54444L25.5028 5.67116C24.7108 6.90672 24.2673 8.36405 24.2673 9.82138V10.6451C24.2673 12.1341 24.6791 13.5597 25.5028 14.7953L25.5979 14.922L24.7742 15.4923Z" fill="#07090F"/>
<path d="M32.98 15.4923L32.1562 14.9537L32.2513 14.827C33.0433 13.5914 33.4869 12.1341 33.4869 10.6768V9.82138C33.4869 8.33237 33.075 6.90672 32.2513 5.67116L32.1562 5.54444L32.98 5.00586L33.075 5.13258C33.9938 6.52655 34.469 8.14228 34.469 9.82138V10.6451C34.469 12.3242 33.9938 13.9399 33.075 15.3339L32.98 15.4923Z" fill="#07090F"/>
<path d="M29.4003 13.1792H28.4182V12.6723C28.4182 11.9119 28.8934 11.2466 29.5587 11.0249C30.4141 10.7397 30.9843 9.91603 30.9843 8.99728C30.9526 7.92012 30.0339 7.00137 28.9567 6.96969C28.3865 6.93801 27.8479 7.15978 27.436 7.57163C27.0242 7.9518 26.8024 8.49038 26.8024 9.06064H25.8203C25.8203 8.23693 26.1371 7.44491 26.7391 6.87465C27.341 6.30439 28.133 5.98758 28.9567 6.01926C30.5408 6.05094 31.8714 7.38154 31.9348 8.99728C31.9664 10.3596 31.1427 11.5318 29.8755 11.9753C29.5904 12.0703 29.3686 12.3871 29.3686 12.704V13.1792H29.4003Z" fill="#07090F"/>
<path d="M29.3991 14.0986H28.417V15.2075H29.3991V14.0986Z" fill="#07090F"/>
<path d="M81.103 36.7499L76.3192 30.9206H46.3172C44.1946 30.9206 42.4521 29.1781 42.4521 27.0555V19.9272H43.1808C44.7649 19.9272 46.0638 18.6283 46.0638 17.0443V12.3555H77.2379C79.3606 12.3555 81.103 14.0979 81.103 16.2206V36.7499ZM43.4343 20.9093V27.0871C43.4343 28.6712 44.7332 29.9701 46.3172 29.9701H76.7627L80.1209 34.057V16.2206C80.1209 14.6365 78.822 13.3376 77.2379 13.3376H47.0142V17.0443C47.0459 19.1035 45.4618 20.7826 43.4343 20.9093Z" fill="#07090F"/>
<path d="M53.8235 27.0873L52.873 26.8022L55.8827 16.5059H56.8332L59.8429 26.8022L58.8924 27.0873L56.358 18.375L53.8235 27.0873Z" fill="#07090F"/>
<path d="M57.9415 22.1133H54.7734V23.0954H57.9415V22.1133Z" fill="#07090F"/>
<path d="M62.9841 27.0548L62.8891 26.9281C61.9703 25.5341 61.4951 23.9184 61.4951 22.2393V21.3839C61.4951 19.7048 61.9703 18.089 62.8891 16.6951L62.9841 16.5684L63.8078 17.1069L63.7128 17.2337C62.9208 18.4692 62.4772 19.9265 62.4772 21.3839V22.2393C62.4772 23.7283 62.8891 25.1539 63.7128 26.3895L63.8078 26.5162L62.9841 27.0548Z" fill="#07090F"/>
<path d="M69.8882 27.0548L69.0645 26.5162L69.1595 26.3895C69.9515 25.1539 70.3951 23.6966 70.3951 22.2393V21.3839C70.3951 19.8949 69.9832 18.4692 69.1595 17.2337L69.0645 17.1069L69.8882 16.5684L69.9832 16.6951C70.902 18.089 71.3772 19.7048 71.3772 21.3839V22.2393C71.3772 23.9184 70.902 25.5341 69.9832 26.9281L69.8882 27.0548Z" fill="#07090F"/>
<path d="M66.9401 16.6323H65.958V24.0774H66.9401V16.6323Z" fill="#07090F"/>
<path d="M66.9401 25.3125H65.958V26.3897H66.9401V25.3125Z" fill="#07090F"/>
</svg>
