<svg xmlns="http://www.w3.org/2000/svg" width="36" height="29" viewBox="0 0 36 29" fill="none">
  <path d="M11.754 19.9024C17.4789 19.9024 22.1199 15.4471 22.1199 9.95122C22.1199 4.45531 17.4789 0 11.754 0C6.02913 0 1.38818 4.45531 1.38818 9.95122C1.38818 15.4471 6.02913 19.9024 11.754 19.9024Z" fill="#3F4599"/>
  <path d="M11.754 20.7315C17.4789 20.7315 22.1199 16.2762 22.1199 10.7803C22.1199 5.28441 17.4789 0.829102 11.754 0.829102C6.02913 0.829102 1.38818 5.28441 1.38818 10.7803C1.38818 16.2762 6.02913 20.7315 11.754 20.7315Z" fill="#F5F5F5" stroke="#3F4599" stroke-miterlimit="10" stroke-linecap="round" stroke-linejoin="round"/>
  <path d="M11.754 18.2442C16.105 18.2442 19.6321 14.9027 19.6321 10.7808C19.6321 6.65887 16.105 3.31738 11.754 3.31738C7.4031 3.31738 3.87598 6.65887 3.87598 10.7808C3.87598 14.9027 7.4031 18.2442 11.754 18.2442Z" fill="white" stroke="#3F4599" stroke-miterlimit="10" stroke-linecap="round" stroke-linejoin="round"/>
  <path d="M25.4368 28.1956C30.9327 28.1956 35.388 23.5546 35.388 17.8297C35.388 12.1048 30.9327 7.46387 25.4368 7.46387C19.9409 7.46387 15.4856 12.1048 15.4856 17.8297C15.4856 23.5546 19.9409 28.1956 25.4368 28.1956Z" fill="#3F4599"/>
  <path d="M24.6075 28.1954C30.1034 28.1954 34.5587 23.7401 34.5587 18.2442C34.5587 12.7483 30.1034 8.29297 24.6075 8.29297C19.1116 8.29297 14.6562 12.7483 14.6562 18.2442C14.6562 23.7401 19.1116 28.1954 24.6075 28.1954Z" fill="#F5F5F5" stroke="#3F4599" stroke-miterlimit="10" stroke-linecap="round" stroke-linejoin="round"/>
  <path d="M24.6077 25.7081C28.7296 25.7081 32.0711 22.3666 32.0711 18.2447C32.0711 14.1227 28.7296 10.7812 24.6077 10.7812C20.4858 10.7812 17.1443 14.1227 17.1443 18.2447C17.1443 22.3666 20.4858 25.7081 24.6077 25.7081Z" stroke="#3F4599" stroke-miterlimit="10" stroke-linecap="round" stroke-linejoin="round"/>
  <path d="M13.5059 9.18928V9.70388C13.5059 9.75097 13.4931 9.78965 13.4675 9.81992C13.442 9.85019 13.4093 9.86532 13.3696 9.86532H12.654C12.5887 10.3497 12.4055 10.7432 12.1045 11.0459C11.8035 11.3486 11.4116 11.5336 10.9289 11.6008C11.4031 12.1995 12.0548 13.1009 12.884 14.305C12.9237 14.3588 12.9294 14.416 12.901 14.4765C12.8783 14.5371 12.8371 14.5673 12.7775 14.5673H11.9469C11.9015 14.5673 11.866 14.5472 11.8404 14.5068C10.9715 13.2724 10.2644 12.3122 9.71924 11.6261C9.69369 11.5958 9.68091 11.5588 9.68091 11.5151V10.8743C9.68091 10.8306 9.6944 10.7928 9.72137 10.7608C9.74835 10.7289 9.78029 10.7129 9.81721 10.7129H10.2943C10.6691 10.7129 10.9708 10.6406 11.1994 10.496C11.428 10.3513 11.5735 10.1411 11.636 9.86532H9.81721C9.77745 9.86532 9.7448 9.85019 9.71924 9.81992C9.69369 9.78965 9.68091 9.75097 9.68091 9.70388V9.18928C9.68091 9.1422 9.69369 9.10352 9.71924 9.07325C9.7448 9.04298 9.77745 9.02784 9.81721 9.02784H11.5763C11.4145 8.64778 11.034 8.45775 10.4348 8.45775H9.81721C9.78029 8.45775 9.74835 8.44177 9.72137 8.40982C9.6944 8.37787 9.68091 8.34003 9.68091 8.29631V7.62531C9.68091 7.57822 9.69369 7.53954 9.71924 7.50927C9.7448 7.479 9.77745 7.46387 9.81721 7.46387H13.361C13.4008 7.46387 13.4334 7.479 13.459 7.50927C13.4846 7.53954 13.4973 7.57822 13.4973 7.62531V8.13991C13.4973 8.187 13.4846 8.22567 13.459 8.25594C13.4334 8.28622 13.4008 8.30135 13.361 8.30135H12.3686C12.5021 8.50652 12.5929 8.74868 12.6412 9.02784H13.3696C13.4093 9.02784 13.442 9.04298 13.4675 9.07325C13.4931 9.10352 13.5059 9.1422 13.5059 9.18928Z" fill="#3F4599"/>
</svg>