
<svg width="81" height="74" viewBox="0 0 81 74" fill="none" xmlns="http://www.w3.org/2000/svg">
<g filter="url(#filter0_f_1395_13926)">
<ellipse cx="25.193" cy="67.7493" rx="20.3356" ry="2.25952" fill="#F4F4F4"/>
</g>
<path d="M21.0438 1.09326H26.226L28.299 58.8718C27.7336 58.9636 25.4345 59.0921 20.7611 58.8718C0.974581 56.6681 0.597695 31.0499 0.974581 29.5349C2.02986 7.00196 14.7938 1.18508 21.0438 1.09326Z" fill="#2D3366"/>
<ellipse cx="27.5925" cy="29.9023" rx="21.0417" ry="29.6562" fill="#6876C7"/>
<ellipse cx="27.5935" cy="29.9022" rx="18.4998" ry="26.2669" fill="#36C499"/>
<ellipse cx="28.1569" cy="29.3373" rx="14.5456" ry="23.1601" fill="white"/>
<ellipse cx="28.0175" cy="29.3373" rx="11.58" ry="18.641" fill="#19BC8A"/>
<ellipse cx="27.7345" cy="29.3372" rx="7.9083" ry="12.7098" fill="white"/>
<path d="M45.5273 21.7342L43.5965 21.9747L41.2114 22.9369L39.8484 23.1775C39.0828 23.6442 37.652 24.5401 37.5667 24.6819C37.3677 24.5902 35.9591 24.1913 35.1917 23.9793L35.9867 21.7342L34.8509 20.0503L35.9867 18.607L33.2608 16.8429L34.283 15.6402H32.9201L31.7843 14.3572L29.2856 16.8429L28.0362 16.6024L27.014 14.1968L25.9918 15.0789L23.0387 12.6733L21.4486 14.1968L22.3573 20.2107L20.0857 20.0503L19.6314 19.4088H17.8141V16.8429L16.4512 16.0411L17.4734 17.0033L17.2462 19.4088L17.8141 19.8097H19.4042L19.6314 20.2107L22.3573 20.5314V22.4558L16.4512 23.9793L20.0857 25.9839L18.1549 27.347L18.7228 30.3139L17.2462 30.795L16.4512 31.2761L17.2462 31.5166V33.0401H15.7697L14.8611 33.3609L13.6117 32.6392L14.8611 33.7618L15.7697 33.3609H17.8141L20.1993 34.724L17.8141 36.7286L18.7228 38.1719L21.4486 39.7756L18.7228 43.4641L20.9943 42.983L22.698 44.2659L24.5153 44.4263L24.1745 49.4779L23.3795 50.5203L24.5153 49.4779L24.7424 44.2659L26.5597 41.8604L28.9448 42.7424L31.2164 39.6152L35.1917 41.4595V37.5304L36.2139 36.1673L38.599 35.6862L40.4163 36.889V39.936L40.757 36.889L39.8484 36.0871L40.757 35.4457L41.6657 35.8466L40.5299 35.1249L39.7348 35.8466L38.1447 34.9646L37.3497 32.7194L37.804 31.5166L33.9423 28.8706L37.9176 27.5876V25.1821L40.4163 23.418L41.7792 23.1775L43.5965 22.2153L45.5273 21.7342Z" fill="#121643"/>
<path d="M45.5273 21.7342L43.5965 21.9747L41.2114 22.9369L39.8484 23.1775C39.0828 23.6442 37.652 24.5401 37.5667 24.6819C37.3677 24.5902 35.9591 24.1913 35.1917 23.9793L35.9867 21.7342L34.8509 20.0503L35.9867 18.607L33.2608 16.8429L34.283 15.6402H32.9201L31.7843 14.3572L29.2856 16.8429L28.0362 16.6024L27.014 14.1968L25.9918 15.0789L23.0387 12.6733L21.4486 14.1968L22.3573 20.2107L20.0857 20.0503L19.6314 19.4088H17.8141V16.8429L16.4512 16.0411L17.4734 17.0033L17.2462 19.4088L17.8141 19.8097H19.4042L19.6314 20.2107L22.3573 20.5314V22.4558L16.4512 23.9793L20.0857 25.9839L18.1549 27.347L18.7228 30.3139L17.2462 30.795L16.4512 31.2761L17.2462 31.5166V33.0401H15.7697L14.8611 33.3609L13.6117 32.6392L14.8611 33.7618L15.7697 33.3609H17.8141L20.1993 34.724L17.8141 36.7286L18.7228 38.1719L21.4486 39.7756L18.7228 43.4641L20.9943 42.983L22.698 44.2659L24.5153 44.4263L24.1745 49.4779L23.3795 50.5203L24.5153 49.4779L24.7424 44.2659L26.5597 41.8604L28.9448 42.7424L31.2164 39.6152L35.1917 41.4595V37.5304L36.2139 36.1673L38.599 35.6862L40.4163 36.889V39.936L40.757 36.889L39.8484 36.0871L40.757 35.4457L41.6657 35.8466L40.5299 35.1249L39.7348 35.8466L38.1447 34.9646L37.3497 32.7194L37.804 31.5166L33.9423 28.8706L37.9176 27.5876V25.1821L40.4163 23.418L41.7792 23.1775L43.5965 22.2153L45.5273 21.7342Z" fill="#080B29"/>
<path fill-rule="evenodd" clip-rule="evenodd" d="M37.9183 26.8226V26.0922C37.3113 26.4772 36.7431 26.8539 36.6903 26.9416C36.4913 26.85 35.0827 26.4511 34.3152 26.2391L35.1103 23.9939L33.9745 22.3101L35.1103 20.8667L32.3844 19.1027L33.4066 17.8999H32.0437L30.9079 16.617L28.4091 19.1027L27.1598 18.8621L26.1376 16.4566L25.1154 17.3386L22.1623 14.9331L21.6367 15.4367L22.358 20.2111L21.1263 20.1242L21.1668 20.3917L22.358 20.5319V22.4563L21.1918 22.7571L21.4808 22.7912V24.7156L18.9634 25.365L20.0864 25.9844L18.1556 27.3475L18.223 27.6997L19.2093 28.2437L18.4322 28.7923L18.7235 30.3144L17.4907 30.716L17.8463 32.5736L17.247 32.7689V33.0406H16.4131L16.3698 33.0547L15.8631 33.3614H17.8149L20.2 34.7245L18.2449 36.3677L19.3228 36.9838L18.4415 37.7245L18.7235 38.1724L21.4494 39.7761L20.0199 41.7104L20.5722 42.0354L19.6631 43.2656L20.9951 42.9835L22.6988 44.2664L24.516 44.4268L24.4243 45.7867L24.6924 45.4318L24.7432 44.2664L26.5604 41.8609L28.9456 42.7429L31.2172 39.6157L34.3152 41.053V39.7902L35.1924 38.6205V37.5309L36.2146 36.1678L36.8489 36.0399L36.4732 34.9792L36.9276 33.7764L33.0659 31.1303L35.9037 30.2145L33.9431 28.871L37.0411 27.8712V27.4418L37.9183 26.8226ZM40.6296 38.0359L40.6328 38.007L40.417 37.8699V37.9421L40.6296 38.0359ZM23.7049 50.2228L23.7108 50.0874L23.3802 50.5208L23.7049 50.2228Z" fill="#121643"/>
<path fill-rule="evenodd" clip-rule="evenodd" d="M37.9183 26.8226V26.0922C37.3113 26.4772 36.7431 26.8539 36.6903 26.9416C36.4913 26.85 35.0827 26.4511 34.3152 26.2391L35.1103 23.9939L33.9745 22.3101L35.1103 20.8667L32.3844 19.1027L33.4066 17.8999H32.0437L30.9079 16.617L28.4091 19.1027L27.1598 18.8621L26.1376 16.4566L25.1154 17.3386L22.1623 14.9331L21.6367 15.4367L22.358 20.2111L21.1263 20.1242L21.1668 20.3917L22.358 20.5319V22.4563L21.1918 22.7571L21.4808 22.7912V24.7156L18.9634 25.365L20.0864 25.9844L18.1556 27.3475L18.223 27.6997L19.2093 28.2437L18.4322 28.7923L18.7235 30.3144L17.4907 30.716L17.8463 32.5736L17.247 32.7689V33.0406H16.4131L16.3698 33.0547L15.8631 33.3614H17.8149L20.2 34.7245L18.2449 36.3677L19.3228 36.9838L18.4415 37.7245L18.7235 38.1724L21.4494 39.7761L20.0199 41.7104L20.5722 42.0354L19.6631 43.2656L20.9951 42.9835L22.6988 44.2664L24.516 44.4268L24.4243 45.7867L24.6924 45.4318L24.7432 44.2664L26.5604 41.8609L28.9456 42.7429L31.2172 39.6157L34.3152 41.053V39.7902L35.1924 38.6205V37.5309L36.2146 36.1678L36.8489 36.0399L36.4732 34.9792L36.9276 33.7764L33.0659 31.1303L35.9037 30.2145L33.9431 28.871L37.0411 27.8712V27.4418L37.9183 26.8226ZM40.6296 38.0359L40.6328 38.007L40.417 37.8699V37.9421L40.6296 38.0359ZM23.7049 50.2228L23.7108 50.0874L23.3802 50.5208L23.7049 50.2228Z" fill="#1E214A"/>
<path d="M53.0942 51.3894L51.7243 49.1743L50.6113 50.1967L52.0668 52.071L53.0942 51.3894Z" fill="#2D3366"/>
<path d="M53.7521 6.6643L56.039 6.62038L55.7645 5.32179L53.6968 5.58291L53.7521 6.6643Z" fill="#2D3366"/>
<path d="M52.8184 51.2434L51.7149 49.4502L50.8184 50.2778L51.9908 51.7951L52.8184 51.2434Z" fill="#6876C7"/>
<path d="M53.9862 6.521L55.8351 6.48955L55.6109 5.44165L53.9396 5.64867L53.9862 6.521Z" fill="#6876C7"/>
<path d="M59.2251 46.4941L58.8794 46.4636C58.5537 46.4348 58.2458 46.6162 58.113 46.915C57.9341 47.3174 58.1311 47.7874 58.5435 47.9421L58.8685 48.0639C59.2063 48.1906 59.5872 48.0793 59.8036 47.7907C60.1858 47.2812 59.8596 46.5501 59.2251 46.4941Z" fill="#6876C7"/>
<path d="M54.0566 44.8586L53.2011 44.7773C53.0942 44.7672 52.9933 44.828 52.9523 44.9273L52.7736 45.3604C52.7218 45.4858 52.7821 45.6292 52.9078 45.68L53.5238 45.9288C53.6294 45.9714 53.7505 45.9354 53.8156 45.8419L54.2339 45.2413C54.3407 45.0879 54.2427 44.8763 54.0566 44.8586Z" fill="#6876C7"/>
<path d="M71.8528 43.5876L67.5078 41.7944L68.7492 45.1739L71.5769 45.0359L71.8528 43.5876Z" fill="#2D3366"/>
<path d="M69.2335 44.1392L71.5094 45.0357L67.7852 45.8634L69.2335 44.1392Z" fill="#6C7BD0"/>
<path d="M69.2336 44.1393L67.5783 41.7944L66.8887 42.76L67.7853 45.8635L69.2336 44.1393Z" fill="#6876C7"/>
<path d="M75.6839 54.7166L80.3574 54.2139L77.6512 51.8394L75.2337 53.3127L75.6839 54.7166Z" fill="#2D3366"/>
<path d="M77.7221 52.9787L75.2945 53.2795L78.1697 50.7718L77.7221 52.9787Z" fill="#6C7BD0"/>
<path d="M77.7216 52.9788L80.2966 54.2468L80.4406 53.069L78.1692 50.7719L77.7216 52.9788Z" fill="#6876C7"/>
<path d="M66.0686 24.0737L64.2676 19.7319L67.6492 20.9672L67.5164 23.7952L66.0686 24.0737Z" fill="#2D3366"/>
<path d="M66.6139 21.4522L67.5146 23.7265L68.3355 20.0008L66.6139 21.4522Z" fill="#6C7BD0"/>
<path d="M66.6148 21.452L64.2669 19.801L65.2312 19.1096L68.3363 20.0005L66.6148 21.452Z" fill="#6876C7"/>
<path d="M55.6411 24.1051L59.1855 24.5098L57.1199 26.2984L55.2925 25.1684L55.6411 24.1051Z" fill="#2D3366"/>
<path d="M57.1787 25.4339L55.3377 25.1936L57.5074 27.111L57.1787 25.4339Z" fill="#6C7BD0"/>
<path d="M57.179 25.4336L59.1396 24.484L59.2431 25.3786L57.5078 27.1107L57.179 25.4336Z" fill="#6876C7"/>
<path d="M58.407 30.5641L59.9414 30.7393L59.0472 31.5136L58.256 31.0244L58.407 30.5641Z" fill="#F5F0EA"/>
<path d="M59.0718 31.1394L58.2749 31.0353L59.2142 31.8654L59.0718 31.1394Z" fill="white"/>
<path d="M59.0721 31.1398L59.9208 30.7287L59.9656 31.116L59.2144 31.8659L59.0721 31.1398Z" fill="white"/>
<path d="M62.7478 39.3806L61.9891 37.8633L61.2305 38.415L61.5753 39.7254L62.7478 39.3806Z" fill="#6C7BCF"/>
<path d="M59.7832 38.553L61.5074 38.415L61.9902 37.8633H60.6798L59.7832 38.553Z" fill="#6876C7"/>
<path d="M61.9889 40.9668L62.7475 39.3805L61.9889 39.3115L60.8164 41.1047L61.9889 40.9668Z" fill="#282F65"/>
<path d="M61.5074 38.415L59.7832 38.553L60.8177 41.1048L61.9902 39.3116L61.5074 38.415Z" fill="#2D3366"/>
<path d="M68.9747 32.5874L70.2113 31.4261L69.4655 30.8572L68.3087 31.5627L68.9747 32.5874Z" fill="white"/>
<path d="M68.9193 29.509L69.545 31.1215L70.2118 31.4261L69.8367 30.1706L68.9193 29.509Z" fill="#F4F0ED"/>
<path d="M67.238 32.3145L68.975 32.5873L68.8239 31.8407L66.7702 31.2306L67.238 32.3145Z" fill="#E3E7E8"/>
<path d="M69.5444 31.1218L68.9186 29.5092L66.7697 31.2309L68.8235 31.841L69.5444 31.1218Z" fill="#F5F0EA"/>
<path d="M65.9432 10.772L67.108 9.53875L66.3294 9.01551L65.2169 9.78909L65.9432 10.772Z" fill="#6C7BCF"/>
<path d="M65.7018 7.70249L66.4231 9.27465L67.107 9.53877L66.6573 8.30796L65.7018 7.70249Z" fill="#6876C7"/>
<path d="M64.1914 10.6034L65.9417 10.7716L65.7461 10.0353L63.6595 9.54943L64.1914 10.6034Z" fill="#282F65"/>
<path d="M66.4218 9.27428L65.7005 7.70212L63.6587 9.54951L65.7453 10.0354L66.4218 9.27428Z" fill="#2D3366"/>
<mask id="mask0_1395_13926" style="mask-type:alpha" maskUnits="userSpaceOnUse" x="15" y="14" width="26" height="37">
<path fill-rule="evenodd" clip-rule="evenodd" d="M37.9164 26.8226V26.0922C37.3094 26.4772 36.7411 26.8539 36.6883 26.9416C36.4893 26.85 35.0807 26.4511 34.3133 26.2391L35.1083 23.9939L33.9726 22.3101L35.1083 20.8667L32.3825 19.1027L33.4047 17.8999H32.0417L30.9059 16.617L28.4072 19.1027L27.1578 18.8621L26.1356 16.4566L25.1134 17.3386L22.1604 14.9331L21.6347 15.4367L22.3561 20.2111L21.1244 20.1242L21.1648 20.3917L22.3561 20.5319V22.4563L21.1898 22.7571L21.4789 22.7912V24.7156L18.9614 25.365L20.0845 25.9844L18.1537 27.3475L18.2211 27.6997L19.2073 28.2437L18.4302 28.7923L18.7215 30.3144L17.4888 30.716L17.8444 32.5736L17.245 32.7689V33.0406H16.4112L16.3678 33.0547L15.8611 33.3614H17.8129L20.1981 34.7245L18.2429 36.3677L19.3209 36.9838L18.4396 37.7245L18.7215 38.1724L21.4474 39.7761L20.0179 41.7104L20.5703 42.0354L19.6611 43.2656L20.9931 42.9835L22.6968 44.2664L24.5141 44.4268L24.4223 45.7867L24.6904 45.4318L24.7412 44.2664L26.5585 41.8609L28.9436 42.7429L31.2152 39.6157L34.3133 41.053V39.7902L35.1905 38.6205V37.5309L36.2127 36.1678L36.8469 36.0399L36.4713 34.9792L36.9256 33.7764L33.0639 31.1303L35.9017 30.2145L33.9411 28.871L37.0392 27.8712V27.4418L37.9164 26.8226ZM40.6276 38.0359L40.6309 38.007L40.4151 37.8699V37.9421L40.6276 38.0359ZM23.7029 50.2228L23.7088 50.0874L23.3783 50.5208L23.7029 50.2228Z" fill="#121643"/>
<path fill-rule="evenodd" clip-rule="evenodd" d="M37.9164 26.8226V26.0922C37.3094 26.4772 36.7411 26.8539 36.6883 26.9416C36.4893 26.85 35.0807 26.4511 34.3133 26.2391L35.1083 23.9939L33.9726 22.3101L35.1083 20.8667L32.3825 19.1027L33.4047 17.8999H32.0417L30.9059 16.617L28.4072 19.1027L27.1578 18.8621L26.1356 16.4566L25.1134 17.3386L22.1604 14.9331L21.6347 15.4367L22.3561 20.2111L21.1244 20.1242L21.1648 20.3917L22.3561 20.5319V22.4563L21.1898 22.7571L21.4789 22.7912V24.7156L18.9614 25.365L20.0845 25.9844L18.1537 27.3475L18.2211 27.6997L19.2073 28.2437L18.4302 28.7923L18.7215 30.3144L17.4888 30.716L17.8444 32.5736L17.245 32.7689V33.0406H16.4112L16.3678 33.0547L15.8611 33.3614H17.8129L20.1981 34.7245L18.2429 36.3677L19.3209 36.9838L18.4396 37.7245L18.7215 38.1724L21.4474 39.7761L20.0179 41.7104L20.5703 42.0354L19.6611 43.2656L20.9931 42.9835L22.6968 44.2664L24.5141 44.4268L24.4223 45.7867L24.6904 45.4318L24.7412 44.2664L26.5585 41.8609L28.9436 42.7429L31.2152 39.6157L34.3133 41.053V39.7902L35.1905 38.6205V37.5309L36.2127 36.1678L36.8469 36.0399L36.4713 34.9792L36.9256 33.7764L33.0639 31.1303L35.9017 30.2145L33.9411 28.871L37.0392 27.8712V27.4418L37.9164 26.8226ZM40.6276 38.0359L40.6309 38.007L40.4151 37.8699V37.9421L40.6276 38.0359ZM23.7029 50.2228L23.7088 50.0874L23.3783 50.5208L23.7029 50.2228Z" fill="#1E214A"/>
</mask>
<g mask="url(#mask0_1395_13926)">
<g filter="url(#filter1_d_1395_13926)">
<ellipse cx="22.5822" cy="25.8776" rx="6.99037" ry="6.99039" fill="#DB9300"/>
</g>
<g filter="url(#filter2_d_1395_13926)">
<ellipse cx="21.7345" cy="25.8776" rx="6.99037" ry="6.99039" fill="#FECB00"/>
</g>
<g filter="url(#filter3_i_1395_13926)">
<ellipse cx="21.7343" cy="25.8774" rx="6.01949" ry="6.0195" fill="#DB9300"/>
</g>
<g filter="url(#filter4_d_1395_13926)">
<path d="M23.6765 24.1331V24.5973C23.6765 24.6398 23.6635 24.6747 23.6376 24.702C23.6116 24.7293 23.5785 24.743 23.5381 24.743H22.8116C22.7453 25.1799 22.5593 25.5348 22.2537 25.8079C21.9481 26.081 21.5502 26.2478 21.0601 26.3085C21.5416 26.8486 22.2032 27.6617 23.0451 28.7479C23.0855 28.7964 23.0912 28.848 23.0624 28.9026C23.0393 28.9572 22.9975 28.9845 22.937 28.9845H22.0937C22.0476 28.9845 22.0115 28.9663 21.9856 28.9299C21.1033 27.8164 20.3854 26.9502 19.8319 26.3313C19.8059 26.304 19.793 26.2706 19.793 26.2311V25.6532C19.793 25.6137 19.8067 25.5796 19.8341 25.5508C19.8614 25.5219 19.8939 25.5075 19.9314 25.5075H20.4157C20.7963 25.5075 21.1026 25.4423 21.3347 25.3118C21.5668 25.1814 21.7146 24.9917 21.778 24.743H19.9314C19.891 24.743 19.8578 24.7293 19.8319 24.702C19.8059 24.6747 19.793 24.6398 19.793 24.5973V24.1331C19.793 24.0906 19.8059 24.0557 19.8319 24.0284C19.8578 24.0011 19.891 23.9875 19.9314 23.9875H21.7174C21.5531 23.6446 21.1668 23.4732 20.5584 23.4732H19.9314C19.8939 23.4732 19.8614 23.4588 19.8341 23.43C19.8067 23.4012 19.793 23.367 19.793 23.3276V22.7223C19.793 22.6798 19.8059 22.6449 19.8319 22.6176C19.8578 22.5903 19.891 22.5767 19.9314 22.5767H23.5295C23.5698 22.5767 23.603 22.5903 23.6289 22.6176C23.6549 22.6449 23.6679 22.6798 23.6679 22.7223V23.1865C23.6679 23.229 23.6549 23.2639 23.6289 23.2912C23.603 23.3185 23.5698 23.3321 23.5295 23.3321H22.5218C22.6573 23.5172 22.7496 23.7357 22.7986 23.9875H23.5381C23.5785 23.9875 23.6116 24.0011 23.6376 24.0284C23.6635 24.0557 23.6765 24.0906 23.6765 24.1331Z" fill="#FECB00"/>
</g>
</g>
<g filter="url(#filter5_d_1395_13926)">
<ellipse cx="6.99038" cy="6.99038" rx="6.99038" ry="6.99038" transform="matrix(0.685922 0.727675 -0.727673 0.685924 49.2207 23.1753)" fill="#DB9300"/>
</g>
<g filter="url(#filter6_d_1395_13926)">
<ellipse cx="6.99038" cy="6.99038" rx="6.99038" ry="6.99038" transform="matrix(0.685922 0.727675 -0.727673 0.685924 48.6406 22.5586)" fill="#FECB00"/>
</g>
<g filter="url(#filter7_i_1395_13926)">
<ellipse cx="6.01949" cy="6.01949" rx="6.01949" ry="6.01949" transform="matrix(0.685922 0.727675 -0.727673 0.685924 48.5996 23.9312)" fill="#DB9300"/>
</g>
<g filter="url(#filter8_d_1395_13926)">
<path d="M50.9492 32.6563L50.6114 32.9747C50.5805 33.0038 50.5462 33.0183 50.5085 33.0181C50.4709 33.018 50.4382 33.0032 50.4105 32.9739L49.9122 32.4452C49.5487 32.6966 49.1629 32.8048 48.7546 32.7697C48.3462 32.7346 47.9519 32.5595 47.5716 32.2445C47.5088 32.9653 47.371 34.0045 47.1581 35.3622C47.1504 35.4248 47.1169 35.4644 47.0573 35.4809C47.0018 35.5016 46.9532 35.4899 46.9117 35.4458L46.3333 34.8322C46.3016 34.7986 46.2901 34.7599 46.2988 34.716C46.504 33.3103 46.6419 32.1937 46.7125 31.3664C46.7146 31.3288 46.73 31.2964 46.7587 31.2694L47.1793 30.8729C47.208 30.8459 47.2422 30.8324 47.282 30.8326C47.3217 30.8328 47.3545 30.8465 47.3802 30.8737L47.7124 31.2262C47.9735 31.5031 48.231 31.6813 48.4852 31.7607C48.7393 31.8401 48.9786 31.8175 49.2032 31.6931L47.9365 30.3493C47.9089 30.3199 47.896 30.2864 47.8981 30.2488C47.9002 30.2112 47.9167 30.1778 47.9476 30.1487L48.2854 29.8303C48.3163 29.8012 48.3506 29.7867 48.3882 29.7868C48.4259 29.787 48.4586 29.8017 48.4863 29.8311L49.7114 31.1308C49.8481 30.7761 49.7079 30.3773 49.2906 29.9347L48.8605 29.4784C48.8348 29.4511 48.823 29.4176 48.8252 29.3779C48.8274 29.3382 48.8428 29.3048 48.8715 29.2778L49.312 28.8626C49.3429 28.8335 49.3772 28.819 49.4149 28.8191C49.4525 28.8193 49.4852 28.834 49.5129 28.8634L51.9809 31.4817C52.0086 31.511 52.0214 31.5445 52.0193 31.5821C52.0173 31.6197 52.0008 31.6531 51.9699 31.6823L51.6321 32.0007C51.6012 32.0298 51.5669 32.0443 51.5292 32.0441C51.4915 32.044 51.4589 32.0292 51.4312 31.9999L50.74 31.2666C50.6983 31.4922 50.6026 31.7091 50.453 31.9175L50.9602 32.4557C50.9879 32.485 51.0007 32.5185 50.9987 32.5561C50.9966 32.5938 50.9801 32.6271 50.9492 32.6563Z" fill="#FECB00"/>
</g>
<g filter="url(#filter9_d_1395_13926)">
<ellipse cx="6.99038" cy="6.99038" rx="6.99038" ry="6.99038" transform="matrix(0.854372 -0.519662 0.51966 0.854373 49.9238 50.7246)" fill="#DB9300"/>
</g>
<g filter="url(#filter10_d_1395_13926)">
<ellipse cx="6.99038" cy="6.99038" rx="6.99038" ry="6.99038" transform="matrix(0.854372 -0.519662 0.51966 0.854373 49.1992 51.165)" fill="#FECB00"/>
</g>
<g filter="url(#filter11_i_1395_13926)">
<ellipse cx="6.01949" cy="6.0195" rx="6.01949" ry="6.0195" transform="matrix(0.854372 -0.519662 0.51966 0.854373 50.5332 51.4897)" fill="#DB9300"/>
</g>
<g filter="url(#filter12_d_1395_13926)">
<path d="M59.5585 51.005L59.7997 51.4016C59.8218 51.4379 59.8288 51.4745 59.8208 51.5113C59.8128 51.5481 59.7916 51.577 59.7571 51.598L59.1364 51.9755C59.3068 52.3833 59.3324 52.7832 59.2132 53.1753C59.094 53.5674 58.8407 53.9167 58.4535 54.2233C59.1455 54.4345 60.1334 54.7853 61.4171 55.2758C61.4768 55.2963 61.5085 55.3374 61.5123 55.3991C61.521 55.4577 61.4994 55.5028 61.4477 55.5342L60.7272 55.9725C60.6878 55.9964 60.6476 55.9996 60.6065 55.982C59.2741 55.4891 58.2106 55.1221 57.416 54.881C57.3797 54.8711 57.3512 54.8493 57.3307 54.8156L57.0304 54.3218C57.0099 54.2881 57.0038 54.2519 57.0123 54.213C57.0207 54.1741 57.0409 54.145 57.0729 54.1255L57.4868 53.8738C57.8119 53.676 58.0397 53.4611 58.1702 53.229C58.3007 52.997 58.3284 52.7582 58.2533 52.5126L56.6756 53.4723C56.6411 53.4932 56.6057 53.4988 56.5693 53.489C56.533 53.4791 56.5038 53.456 56.4817 53.4198L56.2405 53.0232C56.2184 52.9869 56.2113 52.9503 56.2193 52.9135C56.2273 52.8767 56.2485 52.8478 56.283 52.8268L57.809 51.8986C57.4904 51.6911 57.0713 51.7454 56.5515 52.0616L56.0158 52.3874C55.9838 52.4069 55.9486 52.4115 55.9102 52.4011C55.8718 52.3907 55.8424 52.3686 55.8219 52.3349L55.5073 51.8178C55.4852 51.7815 55.4782 51.7449 55.4862 51.7081C55.4942 51.6713 55.5154 51.6424 55.5499 51.6214L58.624 49.7516C58.6585 49.7307 58.6939 49.7251 58.7303 49.7349C58.7666 49.7448 58.7958 49.7679 58.8179 49.8041L59.0591 50.2008C59.0812 50.237 59.0883 50.2736 59.0803 50.3104C59.0723 50.3472 59.0511 50.3761 59.0166 50.3971L58.1557 50.9207C58.3676 51.0084 58.56 51.1471 58.7327 51.3368L59.3645 50.9525C59.399 50.9315 59.4344 50.926 59.4708 50.9358C59.5072 50.9457 59.5364 50.9687 59.5585 51.005Z" fill="#FECB00"/>
</g>
<defs>
<filter id="filter0_f_1395_13926" x="0.857427" y="61.4898" width="48.6719" height="12.519" filterUnits="userSpaceOnUse" color-interpolation-filters="sRGB">
<feFlood flood-opacity="0" result="BackgroundImageFix"/>
<feBlend mode="normal" in="SourceGraphic" in2="BackgroundImageFix" result="shape"/>
<feGaussianBlur stdDeviation="2" result="effect1_foregroundBlur_1395_13926"/>
</filter>
<filter id="filter1_d_1395_13926" x="14.2168" y="18.8872" width="16.7305" height="16.731" filterUnits="userSpaceOnUse" color-interpolation-filters="sRGB">
<feFlood flood-opacity="0" result="BackgroundImageFix"/>
<feColorMatrix in="SourceAlpha" type="matrix" values="0 0 0 0 0 0 0 0 0 0 0 0 0 0 0 0 0 0 127 0" result="hardAlpha"/>
<feOffset dy="1.375"/>
<feGaussianBlur stdDeviation="0.687499"/>
<feComposite in2="hardAlpha" operator="out"/>
<feColorMatrix type="matrix" values="0 0 0 0 0 0 0 0 0 0 0 0 0 0 0 0 0 0 0.1 0"/>
<feBlend mode="normal" in2="BackgroundImageFix" result="effect1_dropShadow_1395_13926"/>
<feBlend mode="normal" in="SourceGraphic" in2="effect1_dropShadow_1395_13926" result="shape"/>
</filter>
<filter id="filter2_d_1395_13926" x="13.3691" y="18.8872" width="16.7305" height="16.731" filterUnits="userSpaceOnUse" color-interpolation-filters="sRGB">
<feFlood flood-opacity="0" result="BackgroundImageFix"/>
<feColorMatrix in="SourceAlpha" type="matrix" values="0 0 0 0 0 0 0 0 0 0 0 0 0 0 0 0 0 0 127 0" result="hardAlpha"/>
<feOffset dy="1.375"/>
<feGaussianBlur stdDeviation="0.687499"/>
<feComposite in2="hardAlpha" operator="out"/>
<feColorMatrix type="matrix" values="0 0 0 0 0 0 0 0 0 0 0 0 0 0 0 0 0 0 0.1 0"/>
<feBlend mode="normal" in2="BackgroundImageFix" result="effect1_dropShadow_1395_13926"/>
<feBlend mode="normal" in="SourceGraphic" in2="effect1_dropShadow_1395_13926" result="shape"/>
</filter>
<filter id="filter3_i_1395_13926" x="15.7148" y="19.8579" width="12.3828" height="13.4141" filterUnits="userSpaceOnUse" color-interpolation-filters="sRGB">
<feFlood flood-opacity="0" result="BackgroundImageFix"/>
<feBlend mode="normal" in="SourceGraphic" in2="BackgroundImageFix" result="shape"/>
<feColorMatrix in="SourceAlpha" type="matrix" values="0 0 0 0 0 0 0 0 0 0 0 0 0 0 0 0 0 0 127 0" result="hardAlpha"/>
<feOffset dx="0.34375" dy="1.375"/>
<feGaussianBlur stdDeviation="0.687499"/>
<feComposite in2="hardAlpha" operator="arithmetic" k2="-1" k3="1"/>
<feColorMatrix type="matrix" values="0 0 0 0 0 0 0 0 0 0 0 0 0 0 0 0 0 0 0.25 0"/>
<feBlend mode="normal" in2="shape" result="effect1_innerShadow_1395_13926"/>
</filter>
<filter id="filter4_d_1395_13926" x="18.418" y="22.5767" width="6.63281" height="9.15771" filterUnits="userSpaceOnUse" color-interpolation-filters="sRGB">
<feFlood flood-opacity="0" result="BackgroundImageFix"/>
<feColorMatrix in="SourceAlpha" type="matrix" values="0 0 0 0 0 0 0 0 0 0 0 0 0 0 0 0 0 0 127 0" result="hardAlpha"/>
<feOffset dy="1.375"/>
<feGaussianBlur stdDeviation="0.687499"/>
<feComposite in2="hardAlpha" operator="out"/>
<feColorMatrix type="matrix" values="0 0 0 0 0 0 0 0 0 0 0 0 0 0 0 0 0 0 0.15 0"/>
<feBlend mode="normal" in2="BackgroundImageFix" result="effect1_dropShadow_1395_13926"/>
<feBlend mode="normal" in="SourceGraphic" in2="effect1_dropShadow_1395_13926" result="shape"/>
</filter>
<filter id="filter5_d_1395_13926" x="40.5625" y="26.0664" width="16.7324" height="16.731" filterUnits="userSpaceOnUse" color-interpolation-filters="sRGB">
<feFlood flood-opacity="0" result="BackgroundImageFix"/>
<feColorMatrix in="SourceAlpha" type="matrix" values="0 0 0 0 0 0 0 0 0 0 0 0 0 0 0 0 0 0 127 0" result="hardAlpha"/>
<feOffset dy="1.375"/>
<feGaussianBlur stdDeviation="0.687499"/>
<feComposite in2="hardAlpha" operator="out"/>
<feColorMatrix type="matrix" values="0 0 0 0 0 0 0 0 0 0 0 0 0 0 0 0 0 0 0.1 0"/>
<feBlend mode="normal" in2="BackgroundImageFix" result="effect1_dropShadow_1395_13926"/>
<feBlend mode="normal" in="SourceGraphic" in2="effect1_dropShadow_1395_13926" result="shape"/>
</filter>
<filter id="filter6_d_1395_13926" x="39.9824" y="25.4497" width="16.7324" height="16.731" filterUnits="userSpaceOnUse" color-interpolation-filters="sRGB">
<feFlood flood-opacity="0" result="BackgroundImageFix"/>
<feColorMatrix in="SourceAlpha" type="matrix" values="0 0 0 0 0 0 0 0 0 0 0 0 0 0 0 0 0 0 127 0" result="hardAlpha"/>
<feOffset dy="1.375"/>
<feGaussianBlur stdDeviation="0.687499"/>
<feComposite in2="hardAlpha" operator="out"/>
<feColorMatrix type="matrix" values="0 0 0 0 0 0 0 0 0 0 0 0 0 0 0 0 0 0 0.1 0"/>
<feBlend mode="normal" in2="BackgroundImageFix" result="effect1_dropShadow_1395_13926"/>
<feBlend mode="normal" in="SourceGraphic" in2="effect1_dropShadow_1395_13926" result="shape"/>
</filter>
<filter id="filter7_i_1395_13926" x="42.3281" y="26.4209" width="12.3828" height="13.4141" filterUnits="userSpaceOnUse" color-interpolation-filters="sRGB">
<feFlood flood-opacity="0" result="BackgroundImageFix"/>
<feBlend mode="normal" in="SourceGraphic" in2="BackgroundImageFix" result="shape"/>
<feColorMatrix in="SourceAlpha" type="matrix" values="0 0 0 0 0 0 0 0 0 0 0 0 0 0 0 0 0 0 127 0" result="hardAlpha"/>
<feOffset dx="0.34375" dy="1.375"/>
<feGaussianBlur stdDeviation="0.687499"/>
<feComposite in2="hardAlpha" operator="arithmetic" k2="-1" k3="1"/>
<feColorMatrix type="matrix" values="0 0 0 0 0 0 0 0 0 0 0 0 0 0 0 0 0 0 0.25 0"/>
<feBlend mode="normal" in2="shape" result="effect1_innerShadow_1395_13926"/>
</filter>
<filter id="filter8_d_1395_13926" x="44.9219" y="28.8193" width="8.47265" height="9.42138" filterUnits="userSpaceOnUse" color-interpolation-filters="sRGB">
<feFlood flood-opacity="0" result="BackgroundImageFix"/>
<feColorMatrix in="SourceAlpha" type="matrix" values="0 0 0 0 0 0 0 0 0 0 0 0 0 0 0 0 0 0 127 0" result="hardAlpha"/>
<feOffset dy="1.375"/>
<feGaussianBlur stdDeviation="0.687499"/>
<feComposite in2="hardAlpha" operator="out"/>
<feColorMatrix type="matrix" values="0 0 0 0 0 0 0 0 0 0 0 0 0 0 0 0 0 0 0.15 0"/>
<feBlend mode="normal" in2="BackgroundImageFix" result="effect1_dropShadow_1395_13926"/>
<feBlend mode="normal" in="SourceGraphic" in2="effect1_dropShadow_1395_13926" result="shape"/>
</filter>
<filter id="filter9_d_1395_13926" x="51.1621" y="46.0728" width="16.7324" height="16.7329" filterUnits="userSpaceOnUse" color-interpolation-filters="sRGB">
<feFlood flood-opacity="0" result="BackgroundImageFix"/>
<feColorMatrix in="SourceAlpha" type="matrix" values="0 0 0 0 0 0 0 0 0 0 0 0 0 0 0 0 0 0 127 0" result="hardAlpha"/>
<feOffset dy="1.375"/>
<feGaussianBlur stdDeviation="0.687499"/>
<feComposite in2="hardAlpha" operator="out"/>
<feColorMatrix type="matrix" values="0 0 0 0 0 0 0 0 0 0 0 0 0 0 0 0 0 0 0.1 0"/>
<feBlend mode="normal" in2="BackgroundImageFix" result="effect1_dropShadow_1395_13926"/>
<feBlend mode="normal" in="SourceGraphic" in2="effect1_dropShadow_1395_13926" result="shape"/>
</filter>
<filter id="filter10_d_1395_13926" x="50.4375" y="46.5132" width="16.7324" height="16.7329" filterUnits="userSpaceOnUse" color-interpolation-filters="sRGB">
<feFlood flood-opacity="0" result="BackgroundImageFix"/>
<feColorMatrix in="SourceAlpha" type="matrix" values="0 0 0 0 0 0 0 0 0 0 0 0 0 0 0 0 0 0 127 0" result="hardAlpha"/>
<feOffset dy="1.375"/>
<feGaussianBlur stdDeviation="0.687499"/>
<feComposite in2="hardAlpha" operator="out"/>
<feColorMatrix type="matrix" values="0 0 0 0 0 0 0 0 0 0 0 0 0 0 0 0 0 0 0.1 0"/>
<feBlend mode="normal" in2="BackgroundImageFix" result="effect1_dropShadow_1395_13926"/>
<feBlend mode="normal" in="SourceGraphic" in2="effect1_dropShadow_1395_13926" result="shape"/>
</filter>
<filter id="filter11_i_1395_13926" x="52.7832" y="47.4844" width="12.3848" height="13.4155" filterUnits="userSpaceOnUse" color-interpolation-filters="sRGB">
<feFlood flood-opacity="0" result="BackgroundImageFix"/>
<feBlend mode="normal" in="SourceGraphic" in2="BackgroundImageFix" result="shape"/>
<feColorMatrix in="SourceAlpha" type="matrix" values="0 0 0 0 0 0 0 0 0 0 0 0 0 0 0 0 0 0 127 0" result="hardAlpha"/>
<feOffset dx="0.34375" dy="1.375"/>
<feGaussianBlur stdDeviation="0.687499"/>
<feComposite in2="hardAlpha" operator="arithmetic" k2="-1" k3="1"/>
<feColorMatrix type="matrix" values="0 0 0 0 0 0 0 0 0 0 0 0 0 0 0 0 0 0 0.25 0"/>
<feBlend mode="normal" in2="shape" result="effect1_innerShadow_1395_13926"/>
</filter>
<filter id="filter12_d_1395_13926" x="54.1074" y="49.7305" width="8.78125" height="9.01269" filterUnits="userSpaceOnUse" color-interpolation-filters="sRGB">
<feFlood flood-opacity="0" result="BackgroundImageFix"/>
<feColorMatrix in="SourceAlpha" type="matrix" values="0 0 0 0 0 0 0 0 0 0 0 0 0 0 0 0 0 0 127 0" result="hardAlpha"/>
<feOffset dy="1.375"/>
<feGaussianBlur stdDeviation="0.687499"/>
<feComposite in2="hardAlpha" operator="out"/>
<feColorMatrix type="matrix" values="0 0 0 0 0 0 0 0 0 0 0 0 0 0 0 0 0 0 0.15 0"/>
<feBlend mode="normal" in2="BackgroundImageFix" result="effect1_dropShadow_1395_13926"/>
<feBlend mode="normal" in="SourceGraphic" in2="effect1_dropShadow_1395_13926" result="shape"/>
</filter>
</defs>
</svg>
