
<svg width="26" height="25" viewBox="0 0 26 25" fill="none" xmlns="http://www.w3.org/2000/svg">
<mask id="path-1-inside-1_1395_14072" fill="white">
<path d="M9.47461 17.2736C9.47461 15.3243 11.0548 13.7441 13.004 13.7441C14.9533 13.7441 16.5334 15.3243 16.5334 17.2736V24.0971H9.47461V17.2736Z"/>
</mask>
<path d="M8.47461 17.2736C8.47461 14.772 10.5025 12.7441 13.004 12.7441C15.5055 12.7441 17.5334 14.772 17.5334 17.2736H15.5334C15.5334 15.8766 14.401 14.7441 13.004 14.7441C11.6071 14.7441 10.4746 15.8766 10.4746 17.2736H8.47461ZM16.5334 24.0971H9.47461H16.5334ZM8.47461 24.0971V17.2736C8.47461 14.772 10.5025 12.7441 13.004 12.7441V14.7441C11.6071 14.7441 10.4746 15.8766 10.4746 17.2736V24.0971H8.47461ZM13.004 12.7441C15.5055 12.7441 17.5334 14.772 17.5334 17.2736V24.0971H15.5334V17.2736C15.5334 15.8766 14.401 14.7441 13.004 14.7441V12.7441Z" fill="#3F4599" mask="url(#path-1-inside-1_1395_14072)"/>
<path d="M1.00391 10.45L13.1683 1.50879L25.0039 10.45" stroke="#3F4599" stroke-linecap="round"/>
<path d="M4.0625 9.50879V21.8617C4.0625 22.9663 4.95793 23.8617 6.0625 23.8617H9.70956" stroke="#3F4599" stroke-linecap="round"/>
<path d="M22.1797 9.50879V21.8617C22.1797 22.9663 21.2843 23.8617 20.1797 23.8617H16.5326" stroke="#3F4599" stroke-linecap="round"/>
</svg>
