
<svg width="5" height="9" viewBox="0 0 5 9" fill="none" xmlns="http://www.w3.org/2000/svg">
<path d="M3.87548 0C3.31107 0 2.84928 0.461791 2.84928 1.0262C2.84928 1.59061 3.31107 2.0524 3.87548 2.0524C4.43989 2.0524 4.90168 1.59061 4.90168 1.0262C4.90168 0.461791 4.43989 0 3.87548 0ZM2.33618 2.5655C1.48443 2.5655 0.796875 3.25306 0.796875 4.1048H1.82308C1.82308 3.81747 2.04884 3.5917 2.33618 3.5917C2.62351 3.5917 2.84928 3.81747 2.84928 4.1048C2.84928 4.39214 1.82308 5.78777 1.82308 6.67031C1.82308 7.55284 2.51063 8.20961 3.36238 8.20961C4.21412 8.20961 4.90168 7.52205 4.90168 6.67031H3.87548C3.87548 6.95764 3.64971 7.18341 3.36238 7.18341C3.07504 7.18341 2.84928 6.95764 2.84928 6.67031C2.84928 6.30087 3.87548 4.7821 3.87548 4.1048C3.87548 3.27358 3.18792 2.5655 2.33618 2.5655Z" fill="white"/>
</svg>
