
<svg width="21" height="21" viewBox="0 0 21 21" fill="none" xmlns="http://www.w3.org/2000/svg">
<path d="M10.6641 0.0820312C13.4275 0.0820312 15.7851 1.06012 17.7367 3.0163C19.6883 4.97249 20.6641 7.32773 20.6641 10.082C20.6641 12.8363 19.6883 15.1916 17.7367 17.1478C15.7851 19.1039 13.4275 20.082 10.6641 20.082C7.9006 20.082 5.54306 19.1039 3.59146 17.1478C1.63986 15.1916 0.664062 12.8363 0.664062 10.082C0.664062 7.32773 1.63986 4.97249 3.59146 3.0163C5.54306 1.06012 7.9006 0.0820312 10.6641 0.0820312ZM11.6711 15.1055V9.09612H9.65704V15.1055H11.6711ZM11.6711 7.07734V5.05856H9.65704V7.07734H11.6711Z" fill="#3F4599"/>
</svg>
