<svg xmlns="http://www.w3.org/2000/svg" width="35" height="31" viewBox="0 0 35 31" fill="none">
  <path d="M3.41528 8.07077V4.80177L8.05105 4.00707V7.40852L3.41528 8.07077Z" stroke="#3F4599"/>
  <path d="M14.0891 8.08088V5.03669L8.64824 4.01653V7.40077L14.0891 8.08088Z" stroke="#3F4599"/>
  <path d="M1.80518 23.0796V8.67723L6.44094 8.01498V23.0796H1.80518Z" stroke="#3F4599"/>
  <path d="M16.1023 23.0407V8.74711L6.63587 7.9806V23.0407H16.1023Z" stroke="#3F4599"/>
  <path d="M2.91528 11.0617L6.13572 10.6592L15.797 11.8668" stroke="#3F4599" stroke-linecap="round"/>
  <path d="M10.1614 5.83008L12.5767 6.23263" stroke="#3F4599" stroke-linecap="round"/>
  <path d="M2.91528 13.4778L6.13572 13.0752L15.797 14.2829" stroke="#3F4599" stroke-linecap="round"/>
  <path d="M2.91528 15.8938L6.13572 15.4912L15.797 16.6989" stroke="#3F4599" stroke-linecap="round"/>
  <path d="M2.91528 18.3078L6.13572 17.9053L15.797 19.5155" stroke="#3F4599" stroke-linecap="round"/>
  <rect x="22.6677" y="5.41992" width="4.60076" height="2.36046" stroke="#3F4599"/>
  <path d="M18.0319 22.8449C13.3273 18.3643 19.2454 11.0833 22.7925 8.00293H27.5534C35.1144 14.7238 35.1144 18.3643 33.7142 21.7248C32.314 25.0853 23.9127 28.4457 18.0319 22.8449Z" stroke="#3F4599"/>
  <path d="M27.4889 15.0898V15.6173C27.4889 15.6655 27.4758 15.7052 27.4496 15.7362C27.4234 15.7672 27.3899 15.7828 27.3492 15.7828H26.6157C26.5488 16.2792 26.361 16.6825 26.0525 16.9928C25.744 17.3031 25.3423 17.4927 24.8476 17.5616C25.3336 18.1753 26.0016 19.0992 26.8515 20.3334C26.8922 20.3885 26.898 20.4471 26.8689 20.5092C26.8457 20.5713 26.8035 20.6023 26.7423 20.6023H25.891C25.8444 20.6023 25.808 20.5816 25.7818 20.5402C24.8912 19.275 24.1665 18.2908 23.6077 17.5875C23.5815 17.5565 23.5684 17.5185 23.5684 17.4737V16.817C23.5684 16.7722 23.5822 16.7334 23.6098 16.7006C23.6375 16.6679 23.6702 16.6515 23.7081 16.6515H24.197C24.5812 16.6515 24.8905 16.5774 25.1248 16.4292C25.3591 16.2809 25.5083 16.0654 25.5723 15.7828H23.7081C23.6673 15.7828 23.6338 15.7672 23.6077 15.7362C23.5815 15.7052 23.5684 15.6655 23.5684 15.6173V15.0898C23.5684 15.0416 23.5815 15.0019 23.6077 14.9709C23.6338 14.9399 23.6673 14.9243 23.7081 14.9243H25.5112C25.3453 14.5348 24.9552 14.34 24.3411 14.34H23.7081C23.6702 14.34 23.6375 14.3236 23.6098 14.2909C23.5822 14.2581 23.5684 14.2193 23.5684 14.1745V13.4868C23.5684 13.4385 23.5815 13.3989 23.6077 13.3678C23.6338 13.3368 23.6673 13.3213 23.7081 13.3213H27.3405C27.3812 13.3213 27.4147 13.3368 27.4409 13.3678C27.4671 13.3989 27.4802 13.4385 27.4802 13.4868V14.0142C27.4802 14.0625 27.4671 14.1021 27.4409 14.1332C27.4147 14.1642 27.3812 14.1797 27.3405 14.1797H26.3232C26.46 14.39 26.5531 14.6382 26.6026 14.9243H27.3492C27.3899 14.9243 27.4234 14.9399 27.4496 14.9709C27.4758 15.0019 27.4889 15.0416 27.4889 15.0898Z" fill="#3F4599"/>
  <path d="M24.1278 5.20057C24.0344 4.92053 23.7357 3.9124 23.2877 2.12015C21.4954 2.34418 21.0474 2.96027 21.0474 3.2403L22.4476 5.20057H24.1278ZM24.1278 5.20057H24.4078M24.4078 5.20057H27.4882C28.0483 4.26711 28.4404 2.28817 27.7683 1.84011C27.0962 1.39205 24.5012 1.09335 23.2877 1L24.4078 5.20057Z" stroke="#3F4599"/>
  <path d="M0.5 29.5632V21.4421V21.1621L14.887 23.1224V29.5632L0.5 29.5632Z" fill="white" stroke="#3F4599"/>
  <path d="M14.8872 29.562V23.4011V23.1211L18.5277 23.6812V29.562H14.8872Z" fill="white" stroke="#3F4599"/>
  <path d="M18.8079 29.5637V23.6829C20.0214 23.0294 22.9524 21.5251 24.9687 21.7491C27.489 22.0291 26.3689 23.9894 24.9687 24.2695C23.0084 24.2695 23.2885 25.6696 23.5685 25.9497C23.8485 26.2297 26.1045 25.9894 28.6092 25.3632C30.8495 24.8032 30.8495 24.5231 31.9696 23.8207C34.77 20.3225 34.439 22.5628 34.49 23.4294C34.714 27.2379 31.2229 29.1235 29.4493 29.5902L18.8079 29.5637Z" fill="#F5F5F5" stroke="#3F4599"/>
</svg>