<svg xmlns="http://www.w3.org/2000/svg" width="36" height="32" viewBox="0 0 36 32" fill="none">
  <path d="M12.6682 5.33287C13.0361 5.33287 13.3348 5.03421 13.3348 4.66625V2.66632H19.3346V4.66625C19.3346 5.03421 19.6325 5.33287 20.0012 5.33287C20.3698 5.33287 20.6678 5.03421 20.6678 4.66625V1.99963C20.6678 1.63167 20.3698 1.33301 20.0012 1.33301H12.6681C12.3001 1.33301 12.0015 1.63167 12.0015 1.99963V4.66617C12.0015 5.03421 12.3002 5.33287 12.6682 5.33287Z" fill="#3F4599"/>
  <path d="M12.0015 9.99962V12.6662C12.0015 13.0341 12.3001 13.3328 12.6681 13.3328C13.036 13.3328 13.3347 13.0341 13.3347 12.6662V9.99962C13.3347 9.63167 13.036 9.33301 12.6681 9.33301C12.3001 9.33301 12.0015 9.63167 12.0015 9.99962Z" fill="#3F4599"/>
  <path d="M20.0015 9.99962V12.6662C20.0015 13.0341 20.2994 13.3328 20.6681 13.3328C21.0367 13.3328 21.3347 13.0341 21.3347 12.6662V9.99962C21.3347 9.63167 21.0367 9.33301 20.6681 9.33301C20.2994 9.33301 20.0015 9.63167 20.0015 9.99962Z" fill="#3F4599"/>
  <path d="M16.0015 9.99962V12.6662C16.0015 13.0341 16.3001 13.3328 16.6681 13.3328C17.036 13.3328 17.3347 13.0341 17.3347 12.6662V9.99962C17.3347 9.63167 17.036 9.33301 16.6681 9.33301C16.3001 9.33301 16.0015 9.63167 16.0015 9.99962Z" fill="#3F4599"/>
  <path d="M28.6673 20.0011C29.0359 20.0011 29.3339 19.7024 29.3339 19.3344V15.3346C29.3339 14.9666 29.0359 14.668 28.6673 14.668H4.66808C4.30013 14.668 4.00146 14.9666 4.00146 15.3346V19.3344C4.00146 19.7024 4.30013 20.0011 4.66808 20.0011C5.03604 20.0011 5.3347 19.7024 5.3347 19.3344V16.0012H28.0006V19.3344C28.0006 19.7024 28.2986 20.0011 28.6673 20.0011Z" fill="#3F4599"/>
  <path d="M24.0015 18.0006V19.3339C24.0015 19.7019 24.2994 20.0005 24.6681 20.0005C25.0367 20.0005 25.3347 19.7019 25.3347 19.3339V18.0006C25.3347 17.6326 25.0367 17.334 24.6681 17.334C24.2994 17.334 24.0015 17.6326 24.0015 18.0006Z" fill="#3F4599"/>
  <path d="M24.6714 13.3334C25.0401 13.3334 25.3381 13.0347 25.3381 12.6668V7.33361C25.3381 6.96565 25.0401 6.66699 24.6714 6.66699H8.67199C8.30403 6.66699 8.00537 6.96565 8.00537 7.33361V12.6668C8.00537 13.0347 8.30403 13.3334 8.67199 13.3334C9.03995 13.3334 9.33861 13.0347 9.33861 12.6668V8.00023H24.0048V12.6667C24.0048 13.0347 24.3028 13.3334 24.6714 13.3334Z" fill="#3F4599"/>
  <path d="M32.6678 21.334H24.6681C24.2994 21.334 24.0015 21.6326 24.0015 22.0006V31.3336C24.0015 31.7016 24.2994 32.0003 24.6681 32.0003C25.0367 32.0003 25.3347 31.7016 25.3347 31.3336V22.6672H32.0012V31.3336C32.0012 31.7015 32.2991 32.0002 32.6678 32.0002C33.0365 32.0002 33.3344 31.7015 33.3344 31.3336V22.0006C33.3345 21.6326 33.0365 21.334 32.6678 21.334Z" fill="#3F4599"/>
  <path d="M20.6681 17.334C20.2994 17.334 20.0015 17.6326 20.0015 18.0006V31.3335C20.0015 31.7015 20.2994 32.0001 20.6681 32.0001C21.0367 32.0001 21.3347 31.7015 21.3347 31.3335V18.0006C21.3348 17.6326 21.0367 17.334 20.6681 17.334Z" fill="#3F4599"/>
  <path d="M16.6681 17.334C16.3001 17.334 16.0015 17.6326 16.0015 18.0006V31.3335C16.0015 31.7015 16.3001 32.0001 16.6681 32.0001C17.036 32.0001 17.3347 31.7015 17.3347 31.3335V18.0006C17.3348 17.6326 17.0361 17.334 16.6681 17.334Z" fill="#3F4599"/>
  <path d="M28.6642 24C28.2955 24 27.9976 24.2987 27.9976 24.6666V31.333C27.9976 31.701 28.2955 31.9996 28.6642 31.9996C29.0328 31.9996 29.3308 31.701 29.3308 31.333V24.6666C29.3309 24.2987 29.0328 24 28.6642 24Z" fill="#3F4599"/>
  <path d="M4.6653 5.33302H9.99848C10.3664 5.33302 10.6651 5.03436 10.6651 4.6664C10.6651 4.29845 10.3664 3.99978 9.99848 3.99978H4.6653C4.29797 3.99978 3.99868 3.7005 3.99868 3.33317C3.99868 2.83787 4.59335 2.49585 5.02662 2.77522C5.20927 2.89318 5.43793 2.91388 5.63863 2.83256C5.83995 2.75123 5.98862 2.57655 6.03729 2.36523C6.17798 1.75791 6.71062 1.33324 7.33193 1.33324C7.95324 1.33324 8.48587 1.75791 8.62657 2.36523C8.67524 2.57655 8.82391 2.75123 9.02523 2.83256C9.22655 2.91388 9.45451 2.89326 9.63724 2.77522C9.74927 2.70319 9.87059 2.66655 9.99856 2.66655C10.3665 2.66655 10.6652 2.36789 10.6652 1.99993C10.6652 1.63197 10.3665 1.33331 9.99856 1.33331C9.88325 1.33331 9.76856 1.34331 9.65591 1.36331C9.19593 0.534669 8.32065 0 7.33201 0C6.34337 0 5.46809 0.534669 5.0081 1.36331C4.89545 1.34331 4.78077 1.33331 4.66546 1.33331C3.56284 1.33331 2.66553 2.23063 2.66553 3.33324C2.66553 4.43586 3.56268 5.33302 4.6653 5.33302Z" fill="#3F4599"/>
  <path d="M33.9986 8.00053H33.2646C32.9553 6.48129 31.6086 5.33398 29.9987 5.33398C28.5154 5.33398 27.2001 6.33731 26.7988 7.7746C26.7001 8.12928 26.9068 8.49661 27.2621 8.5959C27.6128 8.69192 27.9842 8.48794 28.0828 8.13326C28.3235 7.26993 29.1121 6.6673 29.9988 6.6673C31.1014 6.6673 31.9987 7.56461 31.9987 8.66723C31.9987 9.03518 32.2967 9.33385 32.6653 9.33385H33.9986C34.3665 9.33385 34.6652 9.63313 34.6652 10.0005C34.6652 10.3678 34.3665 10.6671 33.9986 10.6671H27.3321C26.9635 10.6671 26.6655 10.9657 26.6655 11.3337C26.6655 11.7017 26.9635 12.0003 27.3321 12.0003H33.9986C35.1012 12.0003 35.9985 11.103 35.9985 10.0004C35.9985 8.89777 35.1012 8.00053 33.9986 8.00053Z" fill="#3F4599"/>
  <path d="M12.6681 17.334C12.3001 17.334 12.0015 17.6326 12.0015 18.0006V31.3335C12.0015 31.7015 12.3001 32.0001 12.6681 32.0001C13.036 32.0001 13.3347 31.7015 13.3347 31.3335V18.0006C13.3348 17.6326 13.0361 17.334 12.6681 17.334Z" fill="#3F4599"/>
  <path d="M4.66808 24C4.30013 24 4.00146 24.2987 4.00146 24.6666V31.333C4.00146 31.701 4.30013 31.9996 4.66808 31.9996C5.03604 31.9996 5.3347 31.701 5.3347 31.333V24.6666C5.33478 24.2987 5.03612 24 4.66808 24Z" fill="#3F4599"/>
  <path d="M8.66781 21.334H0.668083C0.300126 21.334 0.00146484 21.6326 0.00146484 22.0006V31.3336C0.00146484 31.7016 0.300126 32.0003 0.668083 32.0003C1.03604 32.0003 1.3347 31.7016 1.3347 31.3336V22.6672H8.00119V31.3336C8.00119 31.7015 8.29985 32.0002 8.66781 32.0002C9.03577 32.0002 9.33443 31.7015 9.33443 31.3336V22.0006C9.3345 21.6326 9.03584 21.334 8.66781 21.334Z" fill="#3F4599"/>
  <path d="M8.67199 17.334C8.30403 17.334 8.00537 17.6326 8.00537 18.0006V19.3339C8.00537 19.7019 8.30403 20.0005 8.67199 20.0005C9.03995 20.0005 9.33861 19.7019 9.33861 19.3339V18.0006C9.33868 17.6326 9.04002 17.334 8.67199 17.334Z" fill="#3F4599"/>
</svg>