<svg xmlns="http://www.w3.org/2000/svg" width="33" height="32" viewBox="0 0 33 32" fill="none">
  <path d="M16.5 32C13.3355 32 10.2421 31.0616 7.61088 29.3035C4.9797 27.5454 2.92894 25.0466 1.71793 22.1229C0.506933 19.1993 0.190079 15.9823 0.807443 12.8786C1.42481 9.77486 2.94866 6.92394 5.1863 4.6863C7.42394 2.44866 10.2749 0.924806 13.3786 0.307443C16.4823 -0.309921 19.6993 0.00693257 22.6229 1.21793C25.5466 2.42894 28.0454 4.4797 29.8035 7.11088C31.5616 9.74207 32.5 12.8355 32.5 16C32.5 20.2435 30.8143 24.3131 27.8137 27.3137C24.8131 30.3143 20.7435 32 16.5 32ZM16.5 1.33334C13.5992 1.33334 10.7636 2.19352 8.35164 3.80512C5.93972 5.41671 4.05986 7.70733 2.94977 10.3873C1.83969 13.0673 1.54924 16.0163 2.11516 18.8613C2.68107 21.7064 4.07794 24.3197 6.12911 26.3709C8.18028 28.4221 10.7936 29.8189 13.6387 30.3848C16.4837 30.9508 19.4327 30.6603 22.1127 29.5502C24.7927 28.4401 27.0833 26.5603 28.6949 24.1484C30.3065 21.7364 31.1667 18.9008 31.1667 16C31.1667 12.1102 29.6214 8.37964 26.8709 5.62911C24.1204 2.87857 20.3898 1.33334 16.5 1.33334Z" fill="#3F4599"/>
  <path d="M16.4997 24.6673C14.2011 24.6673 11.9967 23.7542 10.3714 22.1289C8.7461 20.5036 7.83301 18.2992 7.83301 16.0006C7.83301 13.7021 8.7461 11.4977 10.3714 9.87239C11.9967 8.24708 14.2011 7.33398 16.4997 7.33398V8.66732C15.2939 8.66772 14.1068 8.96544 13.0435 9.53413C11.9802 10.1028 11.0736 10.9249 10.4039 11.9276C9.73417 12.9303 9.32205 14.0827 9.204 15.2827C9.08596 16.4827 9.26564 17.6933 9.72713 18.8073C10.1886 19.9213 10.9177 20.9043 11.8498 21.6693C12.7818 22.4343 13.8882 22.9576 15.0708 23.1929C16.2534 23.4283 17.4758 23.3684 18.6297 23.0186C19.7836 22.6687 20.8335 22.0397 21.6863 21.1873L22.6263 22.1273C21.8243 22.9355 20.8697 23.5762 19.8179 24.0122C18.7662 24.4482 17.6382 24.6709 16.4997 24.6673Z" fill="#3F4599"/>
  <path d="M16.4997 18.6673C15.9723 18.6673 15.4567 18.5109 15.0182 18.2179C14.5796 17.9249 14.2378 17.5084 14.036 17.0211C13.8342 16.5339 13.7814 15.9977 13.8842 15.4804C13.9871 14.9631 14.2411 14.488 14.6141 14.115C14.987 13.7421 15.4622 13.4881 15.9794 13.3852C16.4967 13.2823 17.0329 13.3351 17.5202 13.537C18.0074 13.7388 18.4239 14.0806 18.7169 14.5191C19.0099 14.9577 19.1663 15.4732 19.1663 16.0007C19.1663 16.7079 18.8854 17.3862 18.3853 17.8863C17.8852 18.3864 17.2069 18.6673 16.4997 18.6673ZM16.4997 14.6673C16.236 14.6673 15.9782 14.7455 15.7589 14.892C15.5396 15.0385 15.3688 15.2468 15.2678 15.4904C15.1669 15.734 15.1405 16.0021 15.192 16.2608C15.2434 16.5194 15.3704 16.757 15.5569 16.9435C15.7433 17.1299 15.9809 17.2569 16.2396 17.3084C16.4982 17.3598 16.7663 17.3334 17.0099 17.2325C17.2536 17.1316 17.4618 16.9607 17.6083 16.7414C17.7548 16.5221 17.833 16.2644 17.833 16.0007C17.833 15.647 17.6925 15.3079 17.4425 15.0578C17.1924 14.8078 16.8533 14.6673 16.4997 14.6673Z" fill="#3F4599"/>
  <path d="M3.83366 15.334H1.16699V16.6673H3.83366V15.334Z" fill="#3F4599"/>
  <path d="M17.1663 28.666H15.833V31.3327H17.1663V28.666Z" fill="#3F4599"/>
  <path d="M17.1663 0.666016H15.833V3.33268H17.1663V0.666016Z" fill="#3F4599"/>
  <path d="M31.8337 15.334H29.167V16.6673H31.8337V15.334Z" fill="#3F4599"/>
  <path d="M22.0419 9.51719L17.3687 14.0254L18.2944 14.985L22.9676 10.4768L22.0419 9.51719Z" fill="#3F4599"/>
  <path d="M18.3881 16.9429L17.4453 17.8857L24.7002 25.1407L25.643 24.1978L18.3881 16.9429Z" fill="#3F4599"/>
  <path d="M5.19245 21.7608L2.88281 23.0938L3.54928 24.2486L5.85891 22.9156L5.19245 21.7608Z" fill="#3F4599"/>
  <path d="M29.4478 7.75887L27.1382 9.0918L27.8046 10.2466L30.1143 8.91368L29.4478 7.75887Z" fill="#3F4599"/>
  <path d="M23.4097 26.6431L22.2549 27.3096L23.5878 29.6192L24.7426 28.9527L23.4097 26.6431Z" fill="#3F4599"/>
  <path d="M9.40872 2.38822L8.25391 3.05469L9.58684 5.36432L10.7417 4.69786L9.40872 2.38822Z" fill="#3F4599"/>
  <path d="M9.58781 26.6367L8.25488 28.9463L9.4097 29.6128L10.7426 27.3031L9.58781 26.6367Z" fill="#3F4599"/>
  <path d="M23.5868 2.38763L22.2539 4.69727L23.4087 5.36373L24.7417 3.0541L23.5868 2.38763Z" fill="#3F4599"/>
  <path d="M27.8046 21.7514L27.1382 22.9062L29.4478 24.2392L30.1143 23.0844L27.8046 21.7514Z" fill="#3F4599"/>
  <path d="M3.55563 7.76022L2.88916 8.91504L5.19879 10.248L5.86526 9.09315L3.55563 7.76022Z" fill="#3F4599"/>
  <path d="M15.639 11.8067L14.6924 10.86L17.559 8.00003L14.6924 5.14003L15.639 4.19336L18.9724 7.52669C19.0349 7.58867 19.0845 7.6624 19.1183 7.74364C19.1522 7.82488 19.1696 7.91202 19.1696 8.00003C19.1696 8.08803 19.1522 8.17517 19.1183 8.25641C19.0845 8.33765 19.0349 8.41138 18.9724 8.47336L15.639 11.8067Z" fill="#3F4599"/>
  <path d="M18.5 7.33398H16.5V8.66732H18.5V7.33398Z" fill="#3F4599"/>
</svg>