<svg xmlns="http://www.w3.org/2000/svg" width="32" height="32" viewBox="0 0 32 32" fill="none">
  <path d="M25.7871 19.2598H16.0036C15.103 19.2598 14.373 19.9897 14.373 20.8903V22.5209C14.373 23.4215 15.103 24.1515 16.0036 24.1515H25.7871C26.6877 24.1515 27.4176 23.4215 27.4176 22.5209V20.8903C27.4176 19.9897 26.6877 19.2598 25.7871 19.2598ZM25.7871 22.5209H16.0036V20.8903H25.7871V22.5209Z" fill="#3F4599" stroke="white" stroke-width="0.6"/>
  <path d="M25.7871 12.7383H16.0036C15.103 12.7383 14.373 13.4682 14.373 14.3689V15.9994C14.373 16.9001 15.103 17.63 16.0036 17.63H25.7871C26.6877 17.63 27.4176 16.9001 27.4176 15.9994V14.3689C27.4176 13.4682 26.6877 12.7383 25.7871 12.7383ZM25.7871 15.9994H16.0036V14.3689H25.7871V15.9994Z" fill="#3F4599" stroke="white" stroke-width="0.6"/>
  <path d="M8.66042 2.9541H5.39927C4.9487 2.9541 4.58398 3.31881 4.58398 3.76939V7.03053C4.58398 7.48111 4.9487 7.84582 5.39927 7.84582H8.66042C9.11099 7.84582 9.4757 7.48111 9.4757 7.03053V3.76939C9.4757 3.31881 9.11099 2.9541 8.66042 2.9541ZM7.84513 6.21525H6.21456V4.58467H7.84513V6.21525Z" fill="#3F4599" stroke="white" stroke-width="0.6"/>
  <path d="M15.1917 2.9541H11.9305C11.4799 2.9541 11.1152 3.31881 11.1152 3.76939V7.03053C11.1152 7.48111 11.4799 7.84582 11.9305 7.84582H15.1917C15.6422 7.84582 16.007 7.48111 16.007 7.03053V3.76939C16.007 3.31881 15.6422 2.9541 15.1917 2.9541ZM14.3764 6.21525H12.7458V4.58467H14.3764V6.21525Z" fill="#3F4599" stroke="white" stroke-width="0.6"/>
  <path d="M8.66042 9.47852H5.39927C4.9487 9.47852 4.58398 9.84323 4.58398 10.2938V13.5549C4.58398 14.0055 4.9487 14.3702 5.39927 14.3702H8.66042C9.11099 14.3702 9.4757 14.0055 9.4757 13.5549V10.2938C9.4757 9.84323 9.11099 9.47852 8.66042 9.47852ZM7.84513 12.7397H6.21456V11.1091H7.84513V12.7397Z" fill="#3F4599" stroke="white" stroke-width="0.6"/>
  <path d="M8.66042 16H5.39927C4.9487 16 4.58398 16.3647 4.58398 16.8153V20.0764C4.58398 20.527 4.9487 20.8917 5.39927 20.8917H8.66042C9.11099 20.8917 9.4757 20.527 9.4757 20.0764V16.8153C9.4757 16.3647 9.11099 16 8.66042 16ZM7.84513 19.2611H6.21456V17.6306H7.84513V19.2611Z" fill="#3F4599" stroke="white" stroke-width="0.6"/>
  <path d="M8.66042 22.5225H5.39927C4.9487 22.5225 4.58398 22.8872 4.58398 23.3377V26.5989C4.58398 27.0495 4.9487 27.4142 5.39927 27.4142H8.66042C9.11099 27.4142 9.4757 27.0495 9.4757 26.5989V23.3377C9.4757 22.8872 9.11099 22.5225 8.66042 22.5225ZM7.84513 25.7836H6.21456V24.153H7.84513V25.7836Z" fill="#3F4599" stroke="white" stroke-width="0.6"/>
  <path fill-rule="evenodd" clip-rule="evenodd" d="M1.63057 1.32484C1.63057 0.593055 2.22363 0 2.95541 0H17.6306C18.3624 0 18.9554 0.593055 18.9554 1.32484V7.5414H17.9363V1.01911H2.64968V30.9809H11.414V11.1083C11.414 10.3765 12.0071 9.78344 12.7389 9.78344H29.0446C29.7764 9.78344 30.3694 10.3765 30.3694 11.1083V30.9809H31.4904C31.7722 30.9809 32 31.2087 32 31.4904C32 31.7722 31.7722 32 31.4904 32H0.509554C0.227832 32 0 31.7722 0 31.4904C0 31.2087 0.227833 30.9809 0.509554 30.9809H1.63057V1.32484ZM29.3503 10.8025H12.4331V30.9809H14.6752V27.414C14.6752 26.6822 15.2682 26.0892 16 26.0892H19.2611C19.9929 26.0892 20.586 26.6822 20.586 27.414V30.9809H22.828V27.414C22.828 26.6822 23.4211 26.0892 24.1529 26.0892H25.7834C26.5152 26.0892 27.1083 26.6822 27.1083 27.414V30.9809H29.3503V10.8025ZM19.5669 30.9809V27.1083H15.6943V30.9809H19.5669ZM26.0892 27.1083H23.8471V30.9809H26.0892V27.1083Z" fill="#3F4599"/>
</svg>