
<svg width="26" height="27" viewBox="0 0 26 27" fill="none" xmlns="http://www.w3.org/2000/svg">
<path d="M25.8798 3.68427C25.9347 3.62911 25.9722 3.55889 25.9873 3.48248C26.0024 3.40607 25.9946 3.32689 25.9647 3.25494C25.9349 3.18299 25.8844 3.12149 25.8197 3.07821C25.7549 3.03492 25.6788 3.01179 25.6009 3.01173H24.0571L25.8792 1.19068C25.9178 1.15455 25.9487 1.11103 25.9701 1.06272C25.9915 1.0144 26.003 0.962268 26.0039 0.909425C26.0047 0.856582 25.9949 0.804105 25.9751 0.755114C25.9553 0.706124 25.9258 0.66162 25.8884 0.62425C25.8511 0.586879 25.8066 0.557405 25.7576 0.537578C25.7086 0.517752 25.6561 0.50798 25.6033 0.508841C25.5504 0.509703 25.4983 0.521182 25.45 0.542595C25.4017 0.564008 25.3582 0.594918 25.322 0.633487L23.501 2.45562V0.911274C23.5011 0.833313 23.4781 0.75708 23.4348 0.692239C23.3915 0.627397 23.3299 0.576868 23.2579 0.547056C23.1859 0.517244 23.1066 0.509492 23.0301 0.524783C22.9537 0.540074 22.8835 0.577719 22.8285 0.632946L20.5126 2.94892C18.325 1.37094 15.6968 0.520262 12.9995 0.517066C10.4292 0.517066 7.91665 1.27926 5.77954 2.70726C3.64242 4.13527 1.97675 6.16494 0.993142 8.53963C0.00953706 10.9143 -0.247819 13.5273 0.253619 16.0483C0.755056 18.5692 1.99277 20.8849 3.81023 22.7024C5.6277 24.5199 7.94329 25.7576 10.4642 26.2591C12.9851 26.7605 15.5981 26.5032 17.9727 25.5195C20.3473 24.5359 22.377 22.8702 23.8049 20.733C25.2329 18.5959 25.9951 16.0833 25.9951 13.5129C25.9914 10.8158 25.1403 8.18799 23.5622 6.00078L25.8798 3.68427ZM22.7132 1.86214V3.40648C22.7134 3.51089 22.7551 3.61094 22.829 3.68472C22.9028 3.7585 23.0029 3.8 23.1074 3.80015H24.6506L21.7623 6.6901H19.8254V4.75101L22.7132 1.86214ZM25.2072 13.5129C25.2197 16.2596 24.3098 18.9309 22.6233 21.0988C20.9368 23.2668 18.5714 24.8058 15.9061 25.4693C13.2408 26.1327 10.43 25.8822 7.92399 24.7579C5.41801 23.6336 3.36199 21.7006 2.08542 19.2686C0.808844 16.8366 0.385622 14.0465 0.883573 11.3453C1.38152 8.64412 2.77182 6.18831 4.83166 4.3714C6.8915 2.5545 9.50164 1.48168 12.2438 1.32489C14.9859 1.16809 17.7013 1.93639 19.9548 3.50666L19.1535 4.30752C19.0795 4.38128 19.0378 4.48139 19.0376 4.58585V6.91428L18.182 7.76984C16.8633 6.57469 15.1712 5.87323 13.3937 5.78472V4.58748C13.3937 4.53571 13.3835 4.48445 13.3637 4.43662C13.3439 4.38879 13.3148 4.34534 13.2782 4.30873C13.2416 4.27213 13.1982 4.24309 13.1504 4.22328C13.1025 4.20347 13.0513 4.19327 12.9995 4.19327C12.9477 4.19327 12.8965 4.20347 12.8486 4.22328C12.8008 4.24309 12.7574 4.27213 12.7208 4.30873C12.6842 4.34534 12.6551 4.38879 12.6353 4.43662C12.6155 4.48445 12.6053 4.53571 12.6053 4.58748V5.78905C10.6931 5.88837 8.88559 6.69266 7.53167 8.04661C6.17775 9.40056 5.37348 11.2081 5.27416 13.1203H4.07316C3.96875 13.1203 3.86862 13.1618 3.7948 13.2356C3.72097 13.3095 3.6795 13.4096 3.6795 13.514C3.6795 13.6184 3.72097 13.7185 3.7948 13.7924C3.86862 13.8662 3.96875 13.9077 4.07316 13.9077H5.27416C5.37348 15.8199 6.17775 17.6275 7.53167 18.9814C8.88559 20.3354 10.6931 21.1396 12.6053 21.239V22.4405C12.6053 22.5451 12.6468 22.6454 12.7208 22.7193C12.7947 22.7932 12.895 22.8347 12.9995 22.8347C13.104 22.8347 13.2043 22.7932 13.2782 22.7193C13.3522 22.6454 13.3937 22.5451 13.3937 22.4405V21.239C15.3058 21.1395 17.1132 20.3352 18.467 18.9812C19.8208 17.6273 20.625 15.8198 20.7243 13.9077H21.9258C22.0302 13.9077 22.1304 13.8662 22.2042 13.7924C22.278 13.7185 22.3195 13.6184 22.3195 13.514C22.3195 13.4096 22.278 13.3095 22.2042 13.2356C22.1304 13.1618 22.0302 13.1203 21.9258 13.1203H20.7243C20.6357 11.3426 19.9343 9.65041 18.7392 8.33137L19.5953 7.47581H21.9237C22.0289 7.47597 22.1299 7.43451 22.2047 7.36047L22.9969 6.56826C24.4316 8.60013 25.2035 11.0256 25.2072 13.5129ZM18.7755 13.906H19.937C19.8392 15.6097 19.1185 17.218 17.9119 18.4247C16.7054 19.6315 15.0973 20.3525 13.3937 20.4505V19.289C13.3937 19.1845 13.3522 19.0842 13.2782 19.0103C13.2043 18.9364 13.104 18.8948 12.9995 18.8948C12.895 18.8948 12.7947 18.9364 12.7208 19.0103C12.6468 19.0842 12.6053 19.1845 12.6053 19.289V20.4505C10.9018 20.3526 9.29379 19.6318 8.08726 18.4253C6.88073 17.2187 6.15992 15.6107 6.06202 13.9071H7.2235C7.32791 13.9071 7.42804 13.8657 7.50186 13.7918C7.57569 13.718 7.61716 13.6179 7.61716 13.5135C7.61716 13.4091 7.57569 13.3089 7.50186 13.2351C7.42804 13.1613 7.32791 13.1198 7.2235 13.1198H6.06202C6.16013 11.4163 6.88098 9.8082 8.08744 8.60151C9.2939 7.39482 10.9018 6.6737 12.6053 6.5753V7.73735C12.6053 7.8419 12.6468 7.94217 12.7208 8.0161C12.7947 8.09002 12.895 8.13156 12.9995 8.13156C13.104 8.13156 13.2043 8.09002 13.2782 8.0161C13.3522 7.94217 13.3937 7.8419 13.3937 7.73735V6.5753C14.9624 6.66328 16.4546 7.28238 17.6248 8.33083L14.4572 11.4986C13.9454 11.1265 13.3122 10.961 12.6838 11.0352C12.0554 11.1093 11.4781 11.4176 11.067 11.8986C10.6558 12.3796 10.4411 12.9979 10.4657 13.6301C10.4903 14.2624 10.7523 14.8622 11.1995 15.3098C11.6467 15.7575 12.2462 16.0201 12.8784 16.0452C13.5106 16.0704 14.1291 15.8563 14.6105 15.4457C15.0919 15.035 15.4007 14.458 15.4755 13.8296C15.5502 13.2013 15.3854 12.5679 15.0138 12.0558L18.1815 8.88694C19.2299 10.0576 19.8488 11.5502 19.9364 13.1193H18.775C18.722 13.1173 18.6692 13.126 18.6197 13.1449C18.5702 13.1639 18.525 13.1926 18.4868 13.2293C18.4487 13.2661 18.4183 13.3102 18.3976 13.359C18.3768 13.4077 18.3661 13.4602 18.3661 13.5132C18.3661 13.5662 18.3768 13.6186 18.3976 13.6674C18.4183 13.7162 18.4487 13.7603 18.4868 13.7971C18.525 13.8338 18.5702 13.8625 18.6197 13.8814C18.6692 13.9004 18.722 13.9091 18.775 13.9071L18.7755 13.906ZM12.7206 13.7907C12.7946 13.8645 12.8948 13.906 12.9992 13.906C13.1037 13.906 13.2039 13.8645 13.2778 13.7907L14.448 12.6211C14.6157 12.8884 14.7052 13.1973 14.7063 13.5129C14.7063 13.8504 14.6062 14.1802 14.4187 14.4608C14.2313 14.7414 13.9648 14.9601 13.6531 15.0892C13.3414 15.2184 12.9983 15.2522 12.6674 15.1864C12.3364 15.1206 12.0324 14.9582 11.7938 14.7196C11.5551 14.481 11.3926 14.1771 11.3267 13.8461C11.2608 13.5152 11.2945 13.1721 11.4236 12.8603C11.5526 12.5486 11.7712 12.282 12.0517 12.0945C12.3322 11.9069 12.6621 11.8068 12.9995 11.8067C13.3149 11.8078 13.6236 11.8973 13.8908 12.065L12.7206 13.2357C12.684 13.2722 12.655 13.3155 12.6352 13.3632C12.6154 13.4109 12.6052 13.4621 12.6052 13.5137C12.6052 13.5654 12.6154 13.6166 12.6352 13.6643C12.655 13.712 12.684 13.7553 12.7206 13.7918V13.7907Z" fill="#3F4599"/>
</svg>
