
<svg width="26" height="31" viewBox="0 0 26 31" fill="none" xmlns="http://www.w3.org/2000/svg">
<rect x="0.175781" y="6.59619" width="15.7847" height="24" rx="2.23842" fill="#161719"/>
<path d="M1.07812 10.0153C1.07812 8.77903 2.0803 7.77686 3.31655 7.77686H12.8213C14.0575 7.77686 15.0597 8.77903 15.0597 10.0153V26.29H1.07812V10.0153Z" fill="white"/>
<ellipse cx="8.06909" cy="28.2991" rx="1.04565" ry="1.04565" fill="white"/>
<path d="M23.5635 8.43258C23.5658 9.34076 23.3536 10.2366 22.9442 11.0472C22.4587 12.0187 21.7124 12.8357 20.7888 13.4068C19.8652 13.978 18.8008 14.2808 17.7149 14.2812C16.8067 14.2836 15.9108 14.0714 15.1002 13.6619L11.1782 14.9692L12.4856 11.0472C12.0761 10.2366 11.8639 9.34076 11.8663 8.43258C11.8667 7.34666 12.1695 6.28228 12.7406 5.35868C13.3118 4.43508 14.1288 3.68875 15.1002 3.20327C15.9108 2.79382 16.8067 2.58164 17.7149 2.584H18.0589C19.4931 2.66313 20.8477 3.26847 21.8633 4.28413C22.879 5.29979 23.4843 6.65438 23.5635 8.08854V8.43258Z" fill="#3F4599"/>
<path d="M20.1231 7.05644H15.3066M20.1231 9.80872H16.6828M15.1002 13.6619L11.1782 14.9692L12.4856 11.0472C12.4856 11.0472 11.8663 10.1528 11.8663 8.43258C11.8663 5.20249 14.4848 2.58398 17.7149 2.58398C20.945 2.58398 23.5635 5.20249 23.5635 8.43258C23.5635 11.6627 20.945 14.2812 17.7149 14.2812C15.9364 14.2812 15.1002 13.6619 15.1002 13.6619Z" stroke="white" stroke-width="0.516052" stroke-linecap="round" stroke-linejoin="round"/>
</svg>
