<svg xmlns="http://www.w3.org/2000/svg" width="33" height="42" viewBox="0 0 33 42" fill="none">
  <path d="M16.5 42.0005C19.6645 42.0005 22.7579 41.0767 25.3891 39.3461C28.0203 37.6154 30.0711 35.1556 31.2821 32.2776C32.4931 29.3996 32.8099 26.2328 32.1926 23.1775C31.5752 20.1223 30.0513 17.3159 27.8137 15.1131C25.5761 12.9104 22.7251 11.4104 19.6214 10.8026C16.5177 10.1949 13.3007 10.5068 10.3771 11.6989C7.45345 12.891 4.95459 14.9098 3.19649 17.4999C1.43838 20.09 0.5 23.1351 0.5 26.2502C0.5 30.4275 2.18571 34.4336 5.18629 37.3873C8.18687 40.3411 12.2565 42.0005 16.5 42.0005ZM16.5 12.25C19.3129 12.25 22.0626 13.0711 24.4014 14.6095C26.7403 16.1479 28.5632 18.3344 29.6396 20.8926C30.7161 23.4508 30.9977 26.2658 30.4489 28.9815C29.9002 31.6973 28.5456 34.1919 26.5566 36.1499C24.5676 38.1079 22.0335 39.4412 19.2746 39.9814C16.5158 40.5216 13.6562 40.2444 11.0574 39.1848C8.45862 38.1251 6.23741 36.3307 4.67465 34.0283C3.1119 31.726 2.27778 29.0192 2.27778 26.2502C2.27778 22.5372 3.77618 18.9761 6.44337 16.3506C9.11055 13.7251 12.728 12.25 16.5 12.25Z" fill="#3F4599"/>
  <path d="M16.5011 29.7511C17.2043 29.7511 17.8917 29.5458 18.4764 29.1612C19.0612 28.7766 19.5169 28.23 19.786 27.5904C20.0551 26.9509 20.1255 26.2471 19.9883 25.5682C19.8511 24.8893 19.5125 24.2656 19.0152 23.7761C18.518 23.2866 17.8844 22.9533 17.1947 22.8182C16.505 22.6832 15.7901 22.7525 15.1404 23.0174C14.4907 23.2823 13.9354 23.7309 13.5447 24.3065C13.1541 24.8821 12.9455 25.5588 12.9455 26.251C12.9455 27.1793 13.3201 28.0696 13.9869 28.7259C14.6537 29.3823 15.5581 29.7511 16.5011 29.7511ZM16.5011 24.501C16.8527 24.501 17.1964 24.6036 17.4888 24.7959C17.7811 24.9882 18.009 25.2615 18.1435 25.5813C18.2781 25.9011 18.3133 26.253 18.2447 26.5924C18.1761 26.9319 18.0068 27.2437 17.7582 27.4885C17.5095 27.7332 17.1928 27.8999 16.8479 27.9674C16.5031 28.035 16.1456 28.0003 15.8208 27.8678C15.4959 27.7354 15.2183 27.5111 15.0229 27.2233C14.8276 26.9355 14.7233 26.5972 14.7233 26.251C14.7233 25.7869 14.9106 25.3418 15.244 25.0136C15.5774 24.6854 16.0296 24.501 16.5011 24.501Z" fill="#3F4599"/>
  <path d="M16.5002 35.8763C18.4346 35.8769 20.3256 35.3127 21.9342 34.2552C23.5427 33.1976 24.7965 31.6941 25.5368 29.9349C26.2771 28.1758 26.4707 26.24 26.0932 24.3725C25.7156 22.505 24.7839 20.7896 23.4158 19.4435L22.1536 20.686C23.4615 21.9752 24.275 23.671 24.4552 25.4844C24.6354 27.2977 24.1713 29.1165 23.1419 30.6308C22.1125 32.1451 20.5816 33.2611 18.8099 33.7888C17.0383 34.3164 15.1357 34.223 13.4262 33.5245C11.7167 32.826 10.3061 31.5655 9.43486 29.958C8.56362 28.3504 8.2856 26.4952 8.64818 24.7085C9.01076 22.9217 9.9915 21.314 11.4233 20.1593C12.8551 19.0046 14.6493 18.3744 16.5002 18.376V16.626C13.907 16.626 11.42 17.6401 9.58629 19.4451C7.7526 21.2502 6.72245 23.6984 6.72245 26.2511C6.72245 28.8039 7.7526 31.2521 9.58629 33.0571C11.42 34.8622 13.907 35.8763 16.5002 35.8763Z" fill="#3F4599"/>
  <path d="M16.4994 8.75013C17.3784 8.75013 18.2377 8.49354 18.9686 8.0128C19.6995 7.53206 20.2691 6.84877 20.6055 6.04933C20.9419 5.24989 21.0299 4.37021 20.8584 3.52153C20.687 2.67286 20.2637 1.89329 19.6421 1.28143C19.0205 0.669565 18.2286 0.252881 17.3665 0.0840676C16.5043 -0.0847452 15.6107 0.00189565 14.7986 0.333034C13.9865 0.664172 13.2923 1.22494 12.804 1.94441C12.3156 2.66389 12.055 3.50976 12.055 4.37507C12.055 5.53541 12.5232 6.64822 13.3567 7.46871C14.1902 8.28919 15.3207 8.75013 16.4994 8.75013ZM16.4994 1.75003C17.0268 1.75003 17.5424 1.90398 17.9809 2.19243C18.4195 2.48087 18.7612 2.89085 18.9631 3.37051C19.1649 3.85017 19.2177 4.37798 19.1148 4.88719C19.0119 5.3964 18.758 5.86413 18.385 6.23125C18.0121 6.59837 17.5369 6.84838 17.0196 6.94967C16.5024 7.05096 15.9662 6.99897 15.4789 6.80029C14.9916 6.6016 14.5752 6.26515 14.2822 5.83346C13.9891 5.40178 13.8327 4.89425 13.8327 4.37507C13.8327 3.67886 14.1137 3.01117 14.6138 2.51888C15.1139 2.02659 15.7922 1.75003 16.4994 1.75003Z" fill="#3F4599"/>
  <path d="M15.6119 5.25098H17.3896V11.3761H15.6119V5.25098Z" fill="#3F4599"/>
  <path d="M24.7615 16.8797L26.0186 18.1172L18.9098 25.115L17.6527 23.8775L24.7615 16.8797Z" fill="#3F4599"/>
</svg>