
<svg width="9" height="16" viewBox="0 0 9 16" fill="none" xmlns="http://www.w3.org/2000/svg">
<path d="M9 4.14347V5.23011C9 5.32955 8.96993 5.41122 8.9098 5.47514C8.84967 5.53906 8.77283 5.57102 8.67929 5.57102H6.99555C6.84187 6.59375 6.41091 7.42472 5.70267 8.06392C4.99443 8.70312 4.07238 9.09375 2.93653 9.2358C4.05234 10.5 5.58575 12.4034 7.53675 14.946C7.63029 15.0597 7.64365 15.1804 7.57684 15.3082C7.52339 15.4361 7.4265 15.5 7.28619 15.5H5.33185C5.22494 15.5 5.14143 15.4574 5.08129 15.3722C3.03675 12.7656 1.37305 10.7379 0.0902004 9.28906C0.0300668 9.22514 0 9.14702 0 9.05469V7.7017C0 7.60938 0.0317372 7.52947 0.0952116 7.462C0.158686 7.39453 0.233853 7.3608 0.320713 7.3608H1.44321C2.32517 7.3608 3.03508 7.2081 3.57294 6.9027C4.1108 6.5973 4.45323 6.15341 4.60022 5.57102H0.320713C0.227171 5.57102 0.150334 5.53906 0.0902004 5.47514C0.0300668 5.41122 0 5.32955 0 5.23011V4.14347C0 4.04403 0.0300668 3.96236 0.0902004 3.89844C0.150334 3.83452 0.227171 3.80256 0.320713 3.80256H4.45991C4.07906 3 3.18374 2.59872 1.77394 2.59872H0.320713C0.233853 2.59872 0.158686 2.56499 0.0952116 2.49751C0.0317372 2.43004 0 2.35014 0 2.25781V0.840909C0 0.741477 0.0300668 0.659801 0.0902004 0.595881C0.150334 0.53196 0.227171 0.5 0.320713 0.5H8.65924C8.75278 0.5 8.82962 0.53196 8.88975 0.595881C8.94989 0.659801 8.97996 0.741477 8.97996 0.840909V1.92756C8.97996 2.02699 8.94989 2.10866 8.88975 2.17259C8.82962 2.23651 8.75278 2.26847 8.65924 2.26847H6.32405C6.63808 2.7017 6.85189 3.21307 6.96548 3.80256H8.67929C8.77283 3.80256 8.84967 3.83452 8.9098 3.89844C8.96993 3.96236 9 4.04403 9 4.14347Z" fill="#161719"/>
</svg>
