
<svg width="7" height="12" viewBox="0 0 7 12" fill="none" xmlns="http://www.w3.org/2000/svg">
<path d="M7 2.91477V3.78409C7 3.86364 6.97661 3.92898 6.92984 3.98011C6.88307 4.03125 6.82331 4.05682 6.75056 4.05682H5.44098C5.32146 4.875 4.98627 5.53977 4.43541 6.05114C3.88456 6.5625 3.16741 6.875 2.28396 6.98864C3.15182 8 4.34447 9.52273 5.86192 11.5568C5.93467 11.6477 5.94506 11.7443 5.8931 11.8466C5.85152 11.9489 5.77617 12 5.66704 12H4.14699C4.06385 12 3.99889 11.9659 3.95212 11.8977C2.36192 9.8125 1.06793 8.19034 0.0701559 7.03125C0.0233853 6.98011 0 6.91761 0 6.84375V5.76136C0 5.6875 0.0246845 5.62358 0.0740535 5.5696C0.123422 5.51562 0.181886 5.48864 0.249443 5.48864H1.12249C1.80846 5.48864 2.36062 5.36648 2.77895 5.12216C3.19729 4.87784 3.46362 4.52273 3.57795 4.05682H0.249443C0.176689 4.05682 0.116926 4.03125 0.0701559 3.98011C0.0233853 3.92898 0 3.86364 0 3.78409V2.91477C0 2.83523 0.0233853 2.76989 0.0701559 2.71875C0.116926 2.66761 0.176689 2.64205 0.249443 2.64205H3.46882C3.17261 2 2.47624 1.67898 1.37973 1.67898H0.249443C0.181886 1.67898 0.123422 1.65199 0.0740535 1.59801C0.0246845 1.54403 0 1.48011 0 1.40625V0.272727C0 0.193182 0.0233853 0.127841 0.0701559 0.0767045C0.116926 0.0255682 0.176689 0 0.249443 0H6.73497C6.80772 0 6.86748 0.0255682 6.91425 0.0767045C6.96102 0.127841 6.98441 0.193182 6.98441 0.272727V1.14205C6.98441 1.22159 6.96102 1.28693 6.91425 1.33807C6.86748 1.3892 6.80772 1.41477 6.73497 1.41477H4.91871C5.16295 1.76136 5.32925 2.17045 5.41759 2.64205H6.75056C6.82331 2.64205 6.88307 2.66761 6.92984 2.71875C6.97661 2.76989 7 2.83523 7 2.91477Z" fill="#161719"/>
</svg>
