<svg xmlns="http://www.w3.org/2000/svg" width="32" height="32" viewBox="0 0 32 32" fill="none">
  <path d="M16 32C12.8355 32 9.74207 31.0616 7.11088 29.3035C4.4797 27.5454 2.42894 25.0466 1.21793 22.1229C0.00693257 19.1993 -0.309921 15.9823 0.307443 12.8786C0.924806 9.77486 2.44866 6.92394 4.6863 4.6863C6.92394 2.44866 9.77486 0.924806 12.8786 0.307443C15.9823 -0.309921 19.1993 0.00693257 22.1229 1.21793C25.0466 2.42894 27.5454 4.4797 29.3035 7.11088C31.0616 9.74207 32 12.8355 32 16C32 20.2435 30.3143 24.3131 27.3137 27.3137C24.3131 30.3143 20.2435 32 16 32ZM16 1.33334C13.0992 1.33334 10.2636 2.19352 7.85164 3.80512C5.43972 5.41671 3.55986 7.70733 2.44977 10.3873C1.33969 13.0673 1.04924 16.0163 1.61516 18.8613C2.18107 21.7064 3.57794 24.3197 5.62911 26.3709C7.68028 28.4221 10.2936 29.8189 13.1387 30.3848C15.9837 30.9508 18.9327 30.6603 21.6127 29.5502C24.2927 28.4401 26.5833 26.5603 28.1949 24.1484C29.8065 21.7364 30.6667 18.9008 30.6667 16C30.6667 12.1102 29.1214 8.37964 26.3709 5.62911C23.6204 2.87857 19.8898 1.33334 16 1.33334Z" fill="#3F4599"/>
  <path d="M15.9997 18.6663C15.4723 18.6663 14.9567 18.5099 14.5182 18.2169C14.0796 17.9239 13.7378 17.5074 13.536 17.0202C13.3342 16.5329 13.2814 15.9967 13.3842 15.4794C13.4871 14.9622 13.7411 14.487 14.1141 14.1141C14.487 13.7411 14.9622 13.4871 15.4794 13.3842C15.9967 13.2814 16.5329 13.3342 17.0202 13.536C17.5074 13.7378 17.9239 14.0796 18.2169 14.5182C18.5099 14.9567 18.6663 15.4723 18.6663 15.9997C18.6663 16.7069 18.3854 17.3852 17.8853 17.8853C17.3852 18.3854 16.7069 18.6663 15.9997 18.6663ZM15.9997 14.6663C15.736 14.6663 15.4782 14.7445 15.2589 14.891C15.0396 15.0376 14.8688 15.2458 14.7678 15.4894C14.6669 15.7331 14.6405 16.0012 14.692 16.2598C14.7434 16.5184 14.8704 16.756 15.0569 16.9425C15.2433 17.129 15.4809 17.2559 15.7396 17.3074C15.9982 17.3588 16.2663 17.3324 16.5099 17.2315C16.7536 17.1306 16.9618 16.9597 17.1083 16.7404C17.2548 16.5212 17.333 16.2634 17.333 15.9997C17.333 15.6461 17.1925 15.3069 16.9425 15.0569C16.6924 14.8068 16.3533 14.6663 15.9997 14.6663Z" fill="#3F4599"/>
  <path d="M5.33366 15.333H2.66699V16.6663H5.33366V15.333Z" fill="#3F4599"/>
  <path d="M29.3337 15.333H26.667V16.6663H29.3337V15.333Z" fill="#3F4599"/>
  <path d="M16.6663 2.66699H15.333V5.33366H16.6663V2.66699Z" fill="#3F4599"/>
  <path d="M16.6663 26.667H15.333V29.3337H16.6663V26.667Z" fill="#3F4599"/>
  <path d="M6.4278 20.755L4.11816 22.0879L4.78463 23.2427L7.09426 21.9098L6.4278 20.755Z" fill="#3F4599"/>
  <path d="M27.213 8.75789L24.9033 10.0908L25.5698 11.2456L27.8794 9.91271L27.213 8.75789Z" fill="#3F4599"/>
  <path d="M9.90763 4.12044L8.75293 4.78711L10.0863 7.09651L11.241 6.42984L9.90763 4.12044Z" fill="#3F4599"/>
  <path d="M21.9135 24.9095L20.7588 25.5762L22.0921 27.8856L23.2468 27.2189L21.9135 24.9095Z" fill="#3F4599"/>
  <path d="M10.0868 24.9033L8.75391 27.2129L9.90872 27.8794L11.2417 25.5697L10.0868 24.9033Z" fill="#3F4599"/>
  <path d="M21.5735 5.00313L16.415 13.9414L17.5699 14.6079L22.7283 5.66959L21.5735 5.00313Z" fill="#3F4599"/>
  <path d="M4.78874 8.7535L4.12207 9.9082L6.43147 11.2415L7.09814 10.0868L4.78874 8.7535Z" fill="#3F4599"/>
  <path d="M25.568 20.7525L24.9014 21.9072L27.2108 23.2406L27.8774 22.0859L25.568 20.7525Z" fill="#3F4599"/>
  <path d="M18.069 16.4254L17.4023 17.5801L22.05 20.2634L22.7167 19.1087L18.069 16.4254Z" fill="#3F4599"/>
</svg>