<svg xmlns="http://www.w3.org/2000/svg" width="24" height="34" viewBox="0 0 24 34" fill="none">
  <path fill-rule="evenodd" clip-rule="evenodd" d="M21.4041 3.04456C21.0477 2.40255 20.3697 1.98828 19.6033 1.98828C18.8369 1.98828 18.1589 2.40255 17.8025 3.04456L17.7746 3.0948L17.718 3.08476C17.6321 3.06949 17.5444 3.06184 17.4562 3.06184C17.2044 3.06184 17 3.26627 17 3.51808C17 3.76988 17.2044 3.97431 17.4562 3.97431C17.5755 3.97431 17.6882 4.00866 17.7907 4.0746L17.7908 4.07469C17.9157 4.15537 18.0717 4.16961 18.2098 4.11384C18.3474 4.05823 18.4492 3.93875 18.4825 3.79414L18.4825 3.79404C18.6042 3.26872 19.0654 2.90074 19.6034 2.90074C20.1413 2.90074 20.6025 3.26872 20.7242 3.79404L20.7242 3.79414C20.7576 3.93875 20.8593 4.05823 20.9969 4.11384L20.997 4.11387C21.1345 4.16958 21.291 4.15533 21.4159 4.07469L21.4159 4.07465C21.8197 3.81427 22.3678 4.13067 22.3678 4.59158C22.3678 4.93181 22.0907 5.20884 21.7505 5.20884H17.4563C17.2045 5.20884 17.0001 5.41327 17.0001 5.66508C17.0001 5.91688 17.2045 6.12131 17.4563 6.12131H21.7505C22.5938 6.12131 23.2802 5.43498 23.2802 4.59164C23.2802 3.7483 22.5937 3.06184 21.7504 3.06184C21.6622 3.06184 21.5745 3.06949 21.4885 3.08476L21.432 3.0948L21.4041 3.04456Z" fill="#3F4599"/>
  <rect x="4.64844" y="10.9424" width="3.26334" height="17.1192" stroke="#3F4599"/>
  <rect x="10.9414" y="10.9424" width="3.26334" height="17.1192" stroke="#3F4599"/>
  <path d="M1 5.19629V32.9996H17.2623V5.19629H1Z" stroke="#3F4599"/>
  <path d="M16.7383 33.0002H22.5088V17.7871H16.7383" stroke="#3F4599"/>
  <path d="M5.19531 3.62295V1H13.0642V3.62295" stroke="#3F4599"/>
</svg>