
<svg width="32" height="32" viewBox="0 0 32 32" fill="none" xmlns="http://www.w3.org/2000/svg">
<path d="M6.00014 29.9992H0.666682C0.489867 29.9992 0.320294 29.9289 0.195267 29.8039C0.0702395 29.6789 0 29.5093 0 29.3325V19.9987C0 19.8219 0.0702395 19.6523 0.195267 19.5273C0.320294 19.4023 0.489867 19.332 0.666682 19.332H6.00014C6.17695 19.332 6.34653 19.4023 6.47155 19.5273C6.59658 19.6523 6.66682 19.8219 6.66682 19.9987V29.3325C6.66682 29.5093 6.59658 29.6789 6.47155 29.8039C6.34653 29.9289 6.17695 29.9992 6.00014 29.9992ZM1.33336 28.6658H5.33346V20.6654H1.33336V28.6658Z" fill="#3F4599"/>
<path d="M17.9995 31.9997H17.8528L5.85254 29.3329L6.14588 27.9995L17.9262 30.6663L30.6664 24.8994V23.4927L22.1396 25.3328L21.8596 23.9994L31.1931 21.9993C31.2916 21.9781 31.3936 21.9795 31.4914 22.0034C31.5892 22.0273 31.6804 22.073 31.758 22.1372C31.8356 22.2013 31.8977 22.2822 31.9396 22.3738C31.9815 22.4654 32.0021 22.5653 31.9998 22.666V25.3328C31.9995 25.461 31.9623 25.5865 31.8925 25.6941C31.8228 25.8017 31.7234 25.8869 31.6065 25.9395L18.2728 31.9397C18.187 31.9788 18.0938 31.9993 17.9995 31.9997Z" fill="#3F4599"/>
<path d="M15.9997 27.9994C15.9104 27.9992 15.822 27.9811 15.7397 27.946L11.073 25.946L11.593 24.7192L16.0664 26.666L21.3332 25.4659V23.9992H16.6664C16.5357 23.9982 16.4082 23.9588 16.2998 23.8859L12.4663 21.3324H5.99951V19.999H12.6663C12.797 20 12.9245 20.0395 13.033 20.1124L16.8664 22.6658H21.9999C22.1767 22.6658 22.3463 22.7361 22.4713 22.8611C22.5963 22.9861 22.6666 23.1557 22.6666 23.3325V25.9993C22.6703 26.1534 22.6206 26.3041 22.5258 26.4256C22.4309 26.5472 22.2969 26.6321 22.1466 26.666L16.1464 27.9994H15.9997Z" fill="#3F4599"/>
<path d="M3.9984 25.999H2.66504V27.3324H3.9984V25.999Z" fill="#3F4599"/>
<path d="M28.2002 21.7121L27.2669 20.7588C28.6013 19.4507 29.5917 17.833 30.1497 16.0496C30.7078 14.2662 30.8162 12.3725 30.4654 10.537C30.1146 8.70158 29.3154 6.98135 28.139 5.52948C26.9626 4.07761 25.4455 2.93915 23.7227 2.21544C21.9999 1.49173 20.1249 1.20523 18.2646 1.38144C16.4043 1.55766 14.6164 2.19112 13.0601 3.22544C11.5039 4.25976 10.2275 5.66284 9.34458 7.30977C8.46169 8.95671 7.99971 10.7964 7.99975 12.6651C7.99854 14.6308 8.50858 16.563 9.47979 18.272L8.32643 18.9387C7.1548 16.8825 6.58258 14.5393 6.67463 12.1745C6.76668 9.80975 7.51932 7.51807 8.84725 5.55922C10.1752 3.60037 12.0253 2.05269 14.1878 1.09161C16.3504 0.130535 18.7389 -0.205507 21.0827 0.121577C23.4265 0.44866 25.6318 1.42579 27.4486 2.94221C29.2655 4.45862 30.6212 6.45368 31.3621 8.70125C32.103 10.9488 32.1995 13.359 31.6407 15.6586C31.0819 17.9582 29.89 20.0553 28.2002 21.7121Z" fill="#3F4599"/>
<path d="M19.3337 15.3316C18.8063 15.3316 18.2907 15.1752 17.8522 14.8822C17.4136 14.5892 17.0718 14.1727 16.87 13.6854C16.6681 13.1981 16.6153 12.6619 16.7182 12.1446C16.8211 11.6273 17.0751 11.1521 17.4481 10.7791C17.821 10.4062 18.2962 10.1522 18.8135 10.0493C19.3308 9.94639 19.867 9.9992 20.3542 10.201C20.8415 10.4029 21.258 10.7447 21.551 11.1832C21.844 11.6218 22.0005 12.1374 22.0005 12.6648C22.0005 13.3721 21.7195 14.0504 21.2194 14.5505C20.7193 15.0507 20.041 15.3316 19.3337 15.3316ZM19.3337 11.3314C19.07 11.3314 18.8122 11.4096 18.5929 11.5562C18.3737 11.7027 18.2028 11.9109 18.1019 12.1546C18.0009 12.3982 17.9745 12.6663 18.026 12.925C18.0774 13.1836 18.2044 13.4212 18.3909 13.6077C18.5774 13.7942 18.8149 13.9212 19.0736 13.9726C19.3322 14.0241 19.6003 13.9977 19.844 13.8967C20.0876 13.7958 20.2959 13.6249 20.4424 13.4056C20.5889 13.1864 20.6671 12.9286 20.6671 12.6648C20.6671 12.3112 20.5266 11.972 20.2766 11.722C20.0265 11.4719 19.6874 11.3314 19.3337 11.3314Z" fill="#3F4599"/>
<path d="M14.5567 4.29357L13.4473 5.0332L17.6705 11.3682L18.7799 10.6285L14.5567 4.29357Z" fill="#3F4599"/>
<path d="M25.0066 8.74662L20.7529 11.1113L21.4008 12.2767L25.6545 9.91204L25.0066 8.74662Z" fill="#3F4599"/>
<path d="M28.6688 11.998H27.3354V13.3314H28.6688V11.998Z" fill="#3F4599"/>
<path d="M11.3329 11.998H9.99951V13.3314H11.3329V11.998Z" fill="#3F4599"/>
<path d="M19.9999 3.33105H18.6665V4.66445H19.9999V3.33105Z" fill="#3F4599"/>
<path d="M19.9999 20.665H18.6665V21.9984H19.9999V20.665Z" fill="#3F4599"/>
</svg>
