
<svg width="30" height="35" viewBox="0 0 30 35" fill="none" xmlns="http://www.w3.org/2000/svg">
<path d="M14.4741 10.9183L10.0349 33.8946" stroke="#3F4599"/>
<path d="M19.2342 25.4559H3.37176C2.65074 25.4559 1.17986 25.8597 1.06449 27.4748C0.949129 29.0898 2.5546 29.782 3.37176 29.9262L20.9646 30.0704C22.9354 27.7632 27.2808 22.7449 28.8959 21.1298C29.7034 18.3611 27.3096 18.438 26.0118 18.8225L19.2342 25.4559Z" fill="white" stroke="#3F4599"/>
<path d="M3.66015 30.0708L2.79492 34.1085" stroke="#3F4599"/>
<path d="M20.8203 30.0708L21.6855 34.1085" stroke="#3F4599"/>
<path d="M16.2062 0.774793C7.66933 -0.840292 3.22785 5.29319 2.07422 8.56181C6.78488 9.57124 18.1385 11.965 25.8679 13.4647C26.3005 4.6683 19.9555 1.92843 16.2062 0.774793Z" fill="white" stroke="#3F4599"/>
<path d="M13.4674 0.508789C11.8331 1.42208 8.56445 4.57534 8.56445 9.88205" stroke="#3F4599"/>
<path d="M19.2426 1.95094C20.1852 3.56853 21.5003 7.47625 18.8011 12.0452" stroke="#3F4599"/>
</svg>
