
<svg width="18" height="22" viewBox="0 0 18 22" fill="none" xmlns="http://www.w3.org/2000/svg">
<path d="M10.3967 18.8208C10.0723 18.8208 9.79045 19.0442 9.72131 19.3633C9.66813 19.6026 9.57772 19.7994 9.4554 19.9429C9.38626 20.0227 9.18417 20.2567 8.59917 20.2567C8.01417 20.2567 7.81207 20.0174 7.74294 19.9429C7.62062 19.7994 7.53021 19.6026 7.47703 19.3633C7.40789 19.0442 7.12603 18.8208 6.80162 18.8208C6.35489 18.8208 6.03048 19.2356 6.1262 19.6664C6.39211 20.8524 7.24303 21.6394 8.59917 21.6394C9.95531 21.6394 10.8062 20.8577 11.0721 19.6664C11.1679 19.2356 10.8381 18.8208 10.3967 18.8208Z" fill="#7E838D"/>
<path d="M16.9 16.1187C16.081 15.0391 14.4696 14.4062 14.4696 9.57197C14.4696 4.61009 12.2785 2.61576 10.2363 2.13712C10.0449 2.08926 9.90659 2.02544 9.90659 1.82335V1.66912C9.90659 0.961797 9.33222 0.36084 8.63022 0.36084H8.59831C7.8963 0.36084 7.32194 0.961797 7.32194 1.66912V1.82335C7.32194 2.02012 7.18367 2.08926 6.99221 2.13712C4.9447 2.62108 2.75892 4.61009 2.75892 9.57197C2.75892 14.4062 1.1475 15.0338 0.328498 16.1187C-0.198004 16.8154 0.301907 17.8099 1.17409 17.8099H16.0704C16.9266 17.8099 17.4212 16.8101 16.9 16.1187ZM14.8259 16.4271H2.42387C2.22178 16.4271 2.11542 16.1931 2.24837 16.0389C2.62064 15.6135 3.03015 15.055 3.36519 14.2626C3.87574 13.0607 4.1257 11.5238 4.1257 9.57197C4.1257 7.58828 4.49797 6.03537 5.2372 4.95577C5.89666 3.98786 6.72098 3.6209 7.29535 3.48794C7.74208 3.38158 8.06117 3.17949 8.28453 2.92953C8.45472 2.73808 8.74722 2.72744 8.9174 2.9189C9.18863 3.22203 9.55559 3.40285 9.91722 3.48794C10.4916 3.6209 11.3159 3.98786 11.9754 4.95577C12.7146 6.03537 13.0869 7.58828 13.0869 9.57197C13.0869 11.5238 13.3368 13.0607 13.8474 14.2626C14.1931 15.071 14.6132 15.64 14.9908 16.0655C15.1078 16.2091 15.0121 16.4271 14.8259 16.4271Z" fill="#7E838D"/>
</svg>

