
<svg width="54" height="35" viewBox="0 0 54 35" fill="none" xmlns="http://www.w3.org/2000/svg">
<path d="M48.2148 18.3711L47.5913 18.9624L47.5805 18.9571L26.995 6.38204L26.4858 4.98242L47.5502 17.1506L47.5805 17.2062L48.2148 18.3711Z" fill="#2C3162"/>
<path d="M32.4246 0.0805438L52.408 11.6251C52.726 11.8097 52.735 12.1986 52.4259 12.4907L47.552 17.1519L26.4858 4.98188L31.4241 0.263336C31.6939 0.00348431 32.1405 -0.0771593 32.4246 0.0805438Z" fill="url(#paint0_linear_334_3666)"/>
<path d="M53.161 13.4537C53.161 13.4537 53.1574 13.4698 53.1574 13.4788C53.1574 13.4913 53.1539 13.5038 53.1521 13.5164C53.1503 13.5218 53.1503 13.5271 53.1503 13.5307C53.1485 13.5361 53.1467 13.5415 53.1449 13.5468C53.1378 13.5755 53.1289 13.6042 53.1163 13.6347C53.1146 13.6382 53.1128 13.6436 53.111 13.6472C53.111 13.649 53.1092 13.6526 53.1074 13.6544C53.0949 13.683 53.0788 13.7117 53.061 13.7404C53.061 13.7404 53.0592 13.7422 53.0592 13.744C53.0413 13.7709 53.0199 13.7977 52.9984 13.8246C52.9966 13.8264 52.9949 13.8282 52.9931 13.83C52.9752 13.8515 52.9556 13.8712 52.9341 13.8909L48.2138 18.3711L47.5903 18.9625L47.5796 18.9733V17.1221L52.4249 12.4913C52.4481 12.4698 52.4678 12.4465 52.4875 12.4232C52.5107 12.3981 52.5303 12.3712 52.5482 12.3444C52.5482 12.3426 52.55 12.3408 52.55 12.3408C52.5696 12.3121 52.5839 12.2834 52.5982 12.253C52.6018 12.2476 52.6036 12.2404 52.6054 12.235C52.6179 12.2046 52.6268 12.1759 52.634 12.1472C52.6375 12.1365 52.6393 12.1257 52.6411 12.1168C52.6447 12.1042 52.6447 12.0917 52.6465 12.0773C52.6483 12.0648 52.65 12.0505 52.65 12.0361V12.0092C52.6483 11.9931 52.6483 11.9752 52.6447 11.9591C52.6447 11.9537 52.6447 11.9465 52.6447 11.9411C52.6393 11.9178 52.634 11.8963 52.6268 11.873L53.136 13.2727C53.136 13.2727 53.136 13.278 53.1396 13.2816C53.1449 13.2978 53.1503 13.3157 53.1539 13.3336V13.3408C53.1539 13.3408 53.1557 13.3533 53.1574 13.3605C53.1574 13.3694 53.161 13.3802 53.161 13.3891V13.4089C53.161 13.4089 53.1628 13.4268 53.161 13.4357C53.161 13.4411 53.1628 13.4483 53.1628 13.4537H53.161Z" fill="#2D3366"/>
<path d="M50.5589 12.0934L50.2587 12.3837L47.1553 15.3819L29.1783 5.17237L28.6655 4.88026L32.0691 1.5918L50.5589 12.0934Z" fill="#363B84"/>
<path d="M50.5589 12.0934L50.2587 12.3837L32.2817 2.17422L29.1783 5.17237L28.6655 4.88026L32.0691 1.5918L50.5589 12.0934Z" fill="#212E68"/>
<path d="M48.2028 12.7127C48.1581 12.8901 48.0241 13.089 47.8008 13.3059C47.5774 13.5227 47.3559 13.675 47.1361 13.7557C46.9164 13.8363 46.7234 13.8309 46.5573 13.7378C46.3911 13.6446 46.3304 13.5102 46.375 13.331C46.4197 13.1517 46.5537 12.9546 46.777 12.736C47.0004 12.5174 47.2201 12.3686 47.4399 12.288C47.6596 12.2073 47.8526 12.2127 48.0187 12.3059C48.1849 12.3991 48.2456 12.5335 48.201 12.7127H48.2028ZM46.8556 12.9582C46.8145 13.003 46.7645 13.0675 46.7073 13.1517L47.9616 12.7019C47.9848 12.6303 47.9848 12.5747 47.9669 12.5335C47.9491 12.4941 47.9205 12.4636 47.8794 12.4403C47.774 12.3812 47.64 12.3901 47.4756 12.4672C47.3094 12.5442 47.1451 12.6661 46.9753 12.831C46.936 12.8686 46.8967 12.9098 46.8538 12.9546M47.129 13.5532C47.3041 13.4564 47.4702 13.3345 47.6221 13.184C47.7168 13.0926 47.7954 12.9958 47.8579 12.8955L46.6037 13.3525C46.5876 13.4098 46.5876 13.4582 46.6019 13.4994C46.6162 13.5388 46.6448 13.5711 46.6859 13.5962C46.8056 13.6625 46.9539 13.6482 47.1308 13.5532" fill="#D6DAED"/>
<path d="M46.5621 11.7537C46.5175 11.9311 46.3835 12.13 46.1601 12.3469C45.9368 12.5637 45.7153 12.7161 45.4955 12.7967C45.2758 12.8773 45.0828 12.872 44.9166 12.7788C44.7505 12.6856 44.6897 12.5512 44.7344 12.372C44.7791 12.1928 44.9131 11.9956 45.1364 11.777C45.3597 11.5584 45.5795 11.4096 45.7992 11.329C46.019 11.2483 46.2119 11.2537 46.3781 11.3469C46.5443 11.4401 46.605 11.5745 46.5603 11.7537H46.5621ZM45.215 11.9992C45.1739 12.044 45.1239 12.1085 45.0667 12.1928L46.3209 11.743C46.3442 11.6713 46.3442 11.6157 46.3263 11.5745C46.3084 11.5351 46.2798 11.5046 46.2387 11.4813C46.1333 11.4222 45.9993 11.4311 45.835 11.5082C45.6688 11.5852 45.5044 11.7071 45.3347 11.872C45.2954 11.9096 45.2561 11.9508 45.2132 11.9956M45.4884 12.5942C45.6635 12.4974 45.8296 12.3756 45.9815 12.225C46.0762 12.1336 46.1548 12.0369 46.2173 11.9365L44.9631 12.3935C44.947 12.4508 44.947 12.4992 44.9613 12.5404C44.9756 12.5799 45.0042 12.6121 45.0453 12.6372C45.165 12.7035 45.3133 12.6892 45.4902 12.5942" fill="#D6DAED"/>
<path d="M47.2687 17.396L21.9683 32.1449C21.686 32.3097 21.2268 32.3097 20.941 32.1449L1.05939 20.6307C0.775318 20.4659 0.773531 20.1989 1.05582 20.0358L22.867 7.31917L26.3562 5.28516L47.2687 17.396Z" fill="url(#paint1_linear_334_3666)"/>
<path d="M21.9661 32.1435C21.9232 32.1686 21.8731 32.1883 21.8231 32.2062C21.8053 32.2116 21.7874 32.217 21.7677 32.2224C21.7445 32.2295 21.7195 32.2349 21.6945 32.2403C21.6659 32.2457 21.6355 32.251 21.6052 32.2564C21.598 32.2564 21.5909 32.2582 21.5837 32.26C21.5426 32.2636 21.5033 32.2672 21.4622 32.2672C21.4551 32.2672 21.4497 32.2672 21.4426 32.2672C21.4015 32.2672 21.3622 32.2654 21.3229 32.26C21.3175 32.26 21.3104 32.26 21.305 32.2582C21.2657 32.2528 21.2264 32.2475 21.1889 32.2385C21.1817 32.2385 21.1746 32.2349 21.1674 32.2331C21.1335 32.2242 21.0995 32.2134 21.0656 32.2027C21.0602 32.2009 21.0531 32.1991 21.0477 32.1973C21.0084 32.1829 20.9709 32.165 20.937 32.1453L1.05716 20.6294C0.914227 20.547 0.842762 20.4376 0.842762 20.3301L0.837402 22.0828C0.837402 22.1921 0.908867 22.2996 1.0518 22.3821L20.9334 33.8962C20.9655 33.9159 21.0013 33.932 21.0388 33.9463C21.0406 33.9463 21.0424 33.9463 21.0442 33.9481C21.0495 33.9499 21.0567 33.9517 21.062 33.9535C21.0835 33.9607 21.1049 33.9696 21.1263 33.975C21.1388 33.9786 21.1496 33.9804 21.1621 33.984C21.1692 33.984 21.1764 33.9876 21.1835 33.9894C21.1907 33.9894 21.196 33.9929 21.2032 33.9947C21.2264 34.0001 21.2514 34.0037 21.2746 34.0073C21.2836 34.0073 21.2925 34.0091 21.2996 34.0109C21.305 34.0109 21.3121 34.0109 21.3175 34.0127C21.3264 34.0127 21.3354 34.0144 21.3443 34.0162C21.3675 34.018 21.3925 34.0198 21.4158 34.0198C21.4229 34.0198 21.4301 34.0198 21.4372 34.0198C21.4444 34.0198 21.4497 34.0198 21.4569 34.0198C21.4676 34.0198 21.4783 34.0198 21.489 34.0198C21.5158 34.0198 21.5426 34.0162 21.5694 34.0144C21.573 34.0144 21.5748 34.0144 21.5784 34.0144C21.5855 34.0144 21.5926 34.0127 21.5998 34.0109C21.6212 34.0091 21.6409 34.0055 21.6623 34.0019C21.6713 34.0019 21.6802 33.9965 21.6891 33.9947C21.7141 33.9894 21.7374 33.984 21.7624 33.9768C21.7749 33.9732 21.7892 33.9714 21.8017 33.9679C21.807 33.9661 21.8124 33.9625 21.8178 33.9607C21.8678 33.9428 21.916 33.9231 21.9607 33.898L47.2629 19.1491L47.2683 17.3965L21.9661 32.1435Z" fill="#2D3366"/>
<path d="M44.0686 17.394L43.1414 17.9334C43.1038 17.9549 43.0574 17.9549 43.0199 17.9334L40.2649 16.3385C40.1845 16.2919 40.1845 16.1754 40.2649 16.1288L41.1921 15.5894C41.2297 15.5679 41.2761 15.5679 41.3136 15.5894L44.0686 17.1843C44.149 17.2309 44.149 17.3474 44.0686 17.394Z" fill="#3F4599"/>
<path d="M40.2561 15.184L39.3289 15.7235C39.2913 15.745 39.2449 15.745 39.2074 15.7235L36.4524 14.1285C36.372 14.0819 36.372 13.9654 36.4524 13.9188L37.3796 13.3794C37.4172 13.3579 37.4636 13.3579 37.5011 13.3794L40.2561 14.9744C40.3365 15.021 40.3365 15.1374 40.2561 15.184Z" fill="#363B84"/>
<path d="M36.2474 12.8278L35.3005 13.3798C35.2558 13.4067 35.1986 13.4067 35.154 13.3798L25.047 7.52687C24.9863 7.49103 24.9863 7.40322 25.047 7.36738L26.0047 6.80825C26.0493 6.78137 26.1065 6.78137 26.1512 6.80825L36.2474 12.654C36.3135 12.6916 36.3135 12.7884 36.2474 12.8261V12.8278Z" fill="#F5F6FC"/>
<path d="M30.5629 24.4675C30.8237 24.618 30.8255 24.8635 30.5664 25.0141L22.6785 29.6126C22.4194 29.7631 21.9996 29.7631 21.7387 29.6126L18.9248 27.9835C18.6639 27.833 18.6622 27.5875 18.9212 27.437L26.8092 22.8385C27.0682 22.688 27.4881 22.688 27.7489 22.8385L30.5629 24.4675Z" fill="#1ABC8A"/>
<path d="M26.3382 10.2683C26.5883 10.4135 26.5901 10.65 26.34 10.7952L23.5082 12.4457C23.258 12.5909 22.8543 12.5909 22.6024 12.4457L19.7527 10.7952C19.5026 10.65 19.5008 10.4153 19.7491 10.2701L22.5809 8.61961C22.831 8.47445 23.2366 8.47445 23.4867 8.61961L26.3364 10.2701L26.3382 10.2683Z" fill="#F5F6FC"/>
<path d="M31.1255 13.0369C31.3756 13.182 31.3774 13.4186 31.129 13.5638L28.2972 15.2143C28.0471 15.3594 27.6415 15.3594 27.3914 15.2143L24.5417 13.5638C24.2916 13.4186 24.2898 13.1838 24.5382 13.0387L27.37 11.3882C27.6201 11.243 28.0257 11.243 28.2758 11.3882L31.1255 13.0387V13.0369Z" fill="#F5F6FC"/>
<path d="M35.9692 15.8474C36.2193 15.9926 36.2211 16.2291 35.9728 16.3743L33.141 18.0248C32.8909 18.17 32.4853 18.17 32.2352 18.0248L29.3855 16.3743C29.1354 16.2291 29.1336 15.9944 29.3819 15.8492L32.2137 14.1987C32.4639 14.0536 32.8694 14.0536 33.1195 14.1987L35.9692 15.8492V15.8474Z" fill="#F5F6FC"/>
<path d="M40.754 18.6179C41.0042 18.7631 41.006 18.9996 40.7558 19.1448L37.924 20.7953C37.6739 20.9405 37.2683 20.9405 37.0182 20.7953L34.1667 19.1448C33.9166 18.9996 33.9148 18.7649 34.1632 18.6197L36.995 16.9692C37.2451 16.8241 37.6507 16.8241 37.9008 16.9692L40.7522 18.6197L40.754 18.6179Z" fill="#F5F6FC"/>
<path d="M21.2427 13.2359C21.4928 13.3811 21.4946 13.6159 21.2462 13.761L18.4144 15.4115C18.1643 15.5567 17.7605 15.5567 17.5086 15.4115L14.6589 13.761C14.4088 13.6159 14.407 13.3811 14.6554 13.2359L17.4872 11.5854C17.7373 11.4403 18.1411 11.4403 18.393 11.5854L21.2427 13.2359Z" fill="#F5F6FC"/>
<path d="M26.0317 16.0047C26.2818 16.1498 26.2854 16.3864 26.0353 16.5315L23.2035 18.182C22.9534 18.3272 22.5478 18.3272 22.2977 18.182L19.448 16.5315C19.1979 16.3864 19.1961 16.1516 19.4444 16.0064L22.2762 14.3559C22.5264 14.2108 22.9301 14.2108 23.182 14.3559L26.0317 16.0064V16.0047Z" fill="#F5F6FC"/>
<path d="M30.8755 18.8152C31.1256 18.9604 31.1292 19.1969 30.879 19.3421L28.0472 20.9926C27.7971 21.1377 27.3915 21.1377 27.1414 20.9926L24.2917 19.3421C24.0416 19.1969 24.0398 18.9622 24.2882 18.817L27.12 17.1665C27.3701 17.0213 27.7739 17.0213 28.0258 17.1665L30.8755 18.817V18.8152Z" fill="#F5F6FC"/>
<path d="M35.6585 21.5855C35.9086 21.7307 35.9104 21.9655 35.6621 22.1106L32.8303 23.7611C32.5801 23.9063 32.1746 23.9063 31.9245 23.7611L29.073 22.1106C28.8229 21.9655 28.8211 21.7307 29.0694 21.5855L31.9012 19.935C32.1514 19.7899 32.5551 19.7899 32.807 19.935L35.6585 21.5855Z" fill="#F5F6FC"/>
<path d="M16.1567 16.2037C16.4068 16.3489 16.4086 16.5854 16.1603 16.7288L13.3285 18.3793C13.0784 18.5245 12.6746 18.5245 12.4227 18.3793L9.573 16.7288C9.32287 16.5836 9.32108 16.3489 9.56942 16.2037L12.4012 14.5532C12.6496 14.408 13.0551 14.408 13.307 14.5532L16.1567 16.2037Z" fill="#F5F6FC"/>
<path d="M20.938 18.9724C21.1881 19.1176 21.1899 19.3541 20.9415 19.4993L18.1097 21.1498C17.8596 21.295 17.454 21.295 17.2039 21.1498L14.3542 19.4993C14.1041 19.3541 14.1023 19.1194 14.3507 18.9742L17.1825 17.3237C17.4308 17.1786 17.8364 17.1786 18.0883 17.3237L20.938 18.9742V18.9724Z" fill="#F5F6FC"/>
<path d="M25.7895 21.783C26.0397 21.9281 26.0414 22.1647 25.7931 22.3098L22.9613 23.9604C22.7112 24.1055 22.3056 24.1055 22.0555 23.9604L19.2058 22.3098C18.9557 22.1647 18.9539 21.9299 19.2022 21.7848L22.034 20.1343C22.2824 19.9891 22.6879 19.9891 22.9399 20.1343L25.7895 21.7848V21.783Z" fill="#F5F6FC"/>
<path d="M11.063 19.1715C11.3131 19.3166 11.3149 19.5514 11.0665 19.6966L8.23473 21.3471C7.98461 21.4922 7.58083 21.4922 7.32891 21.3471L4.47925 19.6966C4.22912 19.5514 4.22733 19.3166 4.47567 19.1715L7.30748 17.521C7.5576 17.3758 7.96138 17.3758 8.21329 17.521L11.063 19.1715Z" fill="#F5F6FC"/>
<path d="M15.8442 21.9422C16.0943 22.0873 16.0979 22.3239 15.8478 22.469L13.016 24.1195C12.7659 24.2647 12.3603 24.2647 12.1102 24.1195L9.26049 22.469C9.01037 22.3239 9.00858 22.0891 9.25692 21.9439L12.0887 20.2934C12.3389 20.1483 12.7426 20.1483 12.9945 20.2934L15.8442 21.9439V21.9422Z" fill="#F5F6FC"/>
<path d="M20.6958 24.7498C20.9459 24.8949 20.9495 25.1315 20.6994 25.2766L17.8675 26.9271C17.6174 27.0723 17.2119 27.0723 16.9617 26.9271L14.1121 25.2766C13.8619 25.1315 13.8601 24.8967 14.1085 24.7516L16.9403 23.1011C17.1904 22.9559 17.5942 22.9559 17.8461 23.1011L20.6958 24.7516V24.7498Z" fill="#F5F6FC"/>
<path d="M19.7552 11.5241L22.6048 13.1746C22.6334 13.1907 22.6656 13.2068 22.6977 13.2194C22.6977 13.2194 22.7013 13.2194 22.7031 13.2194C22.7085 13.2212 22.7138 13.223 22.7192 13.2248C22.7371 13.2319 22.7567 13.2391 22.7764 13.2445C22.7871 13.2481 22.7978 13.2498 22.8085 13.2516C22.8139 13.2516 22.821 13.2552 22.8264 13.257C22.8317 13.257 22.8371 13.2606 22.8425 13.2606C22.8639 13.2642 22.8853 13.2678 22.905 13.2714C22.9121 13.2714 22.9211 13.2714 22.9282 13.2731C22.9336 13.2731 22.9389 13.2731 22.9443 13.2731C22.9514 13.2731 22.9604 13.2749 22.9675 13.2749C22.989 13.2749 23.0086 13.2785 23.0301 13.2785C23.0372 13.2785 23.0426 13.2785 23.0497 13.2785C23.0551 13.2785 23.0604 13.2785 23.0658 13.2785C23.0747 13.2785 23.0854 13.2785 23.0944 13.2785C23.1176 13.2785 23.1426 13.2767 23.1658 13.2731C23.1694 13.2731 23.1712 13.2731 23.1748 13.2731C23.1819 13.2731 23.1873 13.2714 23.1944 13.2714C23.2123 13.2696 23.2319 13.2678 23.2498 13.2642C23.257 13.2642 23.2659 13.2606 23.273 13.2588C23.2945 13.2534 23.3159 13.2481 23.3374 13.2427C23.3481 13.2391 23.3606 13.2373 23.3713 13.2337C23.3767 13.2337 23.3802 13.2283 23.3856 13.2265C23.4303 13.2104 23.4731 13.1925 23.5124 13.171L26.3443 11.5205C26.3443 11.5205 26.3496 11.5169 26.3514 11.5151C26.3639 11.5079 26.3728 11.499 26.3836 11.4918C26.3996 11.4811 26.4157 11.4703 26.4282 11.4578C26.4282 11.4578 26.4318 11.456 26.4318 11.4542C26.4461 11.4398 26.4604 11.4255 26.4711 11.4112C26.4729 11.4076 26.4747 11.404 26.4782 11.4004C26.48 11.3968 26.4836 11.3933 26.4854 11.3897C26.489 11.3843 26.4943 11.3771 26.4979 11.3717C26.505 11.3592 26.5104 11.3467 26.5158 11.3359C26.5158 11.3341 26.5158 11.3323 26.5158 11.3305C26.5158 11.3287 26.5158 11.3252 26.5176 11.3234C26.5193 11.3162 26.5229 11.3072 26.5247 11.3001C26.5265 11.2875 26.5283 11.275 26.5283 11.2624C26.5283 11.2606 26.5283 11.2588 26.5283 11.2571V10.5259C26.5301 10.5474 26.5265 10.5707 26.5193 10.5922C26.5193 10.594 26.5193 10.5976 26.5176 10.5994C26.5104 10.6191 26.4997 10.6406 26.4872 10.6585C26.4854 10.6621 26.4818 10.6657 26.48 10.6693C26.4657 10.689 26.4497 10.7069 26.4282 10.7248C26.4157 10.7373 26.3979 10.7481 26.3836 10.7589C26.3711 10.7678 26.3585 10.7786 26.3443 10.7875L23.5124 12.438C23.4731 12.4595 23.4303 12.4775 23.3856 12.4936C23.3695 12.499 23.3534 12.5043 23.3374 12.5079C23.3159 12.5133 23.2945 12.5187 23.273 12.5241C23.248 12.5294 23.2212 12.5348 23.1944 12.5366C23.1873 12.5366 23.1819 12.5384 23.1748 12.5384C23.139 12.542 23.1033 12.5438 23.0676 12.5438C23.0622 12.5438 23.0569 12.5438 23.0497 12.5438C23.014 12.5438 22.9782 12.542 22.9443 12.5384C22.9389 12.5384 22.9336 12.5384 22.9282 12.5384C22.8925 12.5348 22.8585 12.5276 22.8246 12.5205C22.8192 12.5205 22.8121 12.5169 22.8067 12.5151C22.7764 12.5079 22.746 12.499 22.7174 12.4882C22.712 12.4864 22.7067 12.4846 22.7013 12.4828C22.6674 12.4703 22.6334 12.4542 22.6031 12.4362L19.7534 10.7857C19.6265 10.7123 19.564 10.6173 19.564 10.5205V11.2517C19.5622 11.3467 19.6247 11.4434 19.7516 11.5169L19.7552 11.5241Z" fill="#2D3366"/>
<path d="M24.3656 13.3695C24.3584 13.3462 24.3531 13.3211 24.3531 13.2979V14.029C24.3513 14.124 24.4138 14.2208 24.5407 14.2942L27.3903 15.9448C27.4189 15.9609 27.4511 15.977 27.4832 15.9896C27.4832 15.9896 27.4868 15.9896 27.4886 15.9896C27.494 15.9913 27.4993 15.9931 27.5047 15.9949C27.5243 16.0021 27.5422 16.0093 27.5618 16.0146C27.5726 16.0182 27.5833 16.02 27.594 16.0218C27.5994 16.0218 27.6065 16.0254 27.6119 16.0272C27.6172 16.0272 27.6226 16.0308 27.6279 16.0308C27.6494 16.0344 27.6708 16.0379 27.6923 16.0415C27.6994 16.0415 27.7066 16.0415 27.7137 16.0433C27.7191 16.0433 27.7244 16.0433 27.7298 16.0433C27.7387 16.0433 27.7459 16.0451 27.7548 16.0469C27.7762 16.0469 27.7977 16.0505 27.8173 16.0505C27.8245 16.0505 27.8298 16.0505 27.837 16.0505C27.8423 16.0505 27.8477 16.0505 27.8531 16.0505C27.8638 16.0505 27.8727 16.0505 27.8834 16.0505C27.9067 16.0505 27.9317 16.0487 27.9549 16.0451C27.9567 16.0451 27.9603 16.0451 27.962 16.0451C27.9674 16.0451 27.9746 16.0451 27.9799 16.0433C27.9996 16.0415 28.0174 16.0379 28.0353 16.0362C28.0424 16.0362 28.0496 16.0326 28.0585 16.0308C28.08 16.0254 28.1014 16.02 28.1228 16.0146C28.1336 16.0111 28.1461 16.0093 28.1568 16.0057C28.1622 16.0057 28.1657 16.0003 28.1711 16.0003C28.2158 15.9842 28.2586 15.9681 28.2961 15.9448L31.128 14.2942C31.128 14.2942 31.1333 14.2907 31.1351 14.2889C31.1476 14.2817 31.1565 14.2727 31.1673 14.2656C31.1833 14.2548 31.1994 14.2441 31.2119 14.2333C31.2119 14.2333 31.2155 14.2315 31.2155 14.2297C31.2298 14.2154 31.2441 14.2011 31.2548 14.1867C31.2566 14.1831 31.2602 14.1796 31.262 14.176C31.2637 14.1724 31.2673 14.1688 31.2691 14.1652C31.2727 14.1598 31.278 14.1545 31.2816 14.1473C31.2887 14.1348 31.2941 14.1222 31.2995 14.1115C31.2995 14.1097 31.2995 14.1079 31.2995 14.1061C31.2995 14.1043 31.2995 14.1007 31.3013 14.0989C31.303 14.0917 31.3066 14.0828 31.3084 14.0756C31.3102 14.0631 31.312 14.0505 31.312 14.038C31.312 14.0362 31.312 14.0344 31.312 14.0326V13.3014C31.3138 13.3229 31.3102 13.3462 31.303 13.3677C31.303 13.3695 31.303 13.3731 31.3013 13.3749C31.2941 13.3946 31.2834 13.4143 31.2709 13.4341C31.2691 13.4376 31.2655 13.4412 31.2637 13.4448C31.2494 13.4645 31.2334 13.4824 31.2137 13.5004C31.2012 13.5111 31.1851 13.5219 31.169 13.5326C31.1548 13.5416 31.144 13.5523 31.1297 13.5613L28.2979 15.2118C28.2604 15.2333 28.2175 15.2512 28.1729 15.2673C28.1568 15.2727 28.1407 15.2781 28.1246 15.2817C28.1032 15.2871 28.0818 15.2924 28.0603 15.2978C28.0335 15.3032 28.0085 15.3086 27.9817 15.3122C27.9763 15.3122 27.9692 15.3139 27.9638 15.3139C27.9281 15.3175 27.8924 15.3193 27.8549 15.3193C27.8495 15.3193 27.8441 15.3193 27.8388 15.3193C27.803 15.3193 27.7673 15.3175 27.7316 15.3139C27.7262 15.3139 27.7209 15.3139 27.7155 15.3139C27.6798 15.3104 27.6458 15.3032 27.6119 15.296C27.6047 15.296 27.5994 15.2924 27.594 15.2906C27.5636 15.2835 27.5333 15.2745 27.5047 15.2638C27.4993 15.262 27.494 15.2602 27.4886 15.2584C27.4546 15.2458 27.4207 15.2297 27.3903 15.2118L24.5407 13.5613C24.446 13.5057 24.387 13.4394 24.3638 13.3677L24.3656 13.3695Z" fill="#2D3366"/>
<path d="M29.1968 16.1084V16.8396C29.195 16.9345 29.2576 17.0313 29.3844 17.1048L32.2341 18.7553C32.2627 18.7714 32.2948 18.7876 32.327 18.8001C32.327 18.8001 32.3306 18.8001 32.3323 18.8001C32.3377 18.8019 32.3431 18.8037 32.3484 18.8055C32.3681 18.8126 32.3859 18.8198 32.4056 18.8252C32.4163 18.8288 32.427 18.8306 32.4378 18.8324C32.4431 18.8324 32.4503 18.8359 32.4556 18.8377C32.461 18.8377 32.4663 18.8413 32.4735 18.8413C32.4949 18.8449 32.5164 18.8485 32.5378 18.8521C32.545 18.8521 32.5521 18.8521 32.5592 18.8539C32.5646 18.8539 32.57 18.8539 32.5753 18.8539C32.5843 18.8539 32.5914 18.8557 32.6003 18.8575C32.6218 18.8575 32.6432 18.861 32.6629 18.861C32.67 18.861 32.6754 18.861 32.6825 18.861C32.6879 18.861 32.6932 18.861 32.6986 18.861C32.7093 18.861 32.7183 18.861 32.729 18.861C32.7522 18.861 32.7772 18.8592 32.8004 18.8557C32.8022 18.8557 32.8058 18.8557 32.8076 18.8557C32.8129 18.8557 32.8201 18.8557 32.8255 18.8539C32.8451 18.8521 32.863 18.8485 32.8826 18.8467C32.8898 18.8467 32.8969 18.8431 32.9059 18.8413C32.9273 18.8359 32.9487 18.8306 32.9702 18.8252C32.9809 18.8216 32.9934 18.8198 33.0041 18.8162C33.0095 18.8162 33.013 18.8109 33.0184 18.8109C33.0631 18.7947 33.106 18.7786 33.1435 18.7553L35.9753 17.1048C35.9753 17.1048 35.9806 17.1012 35.9824 17.0994C35.9949 17.0923 36.0039 17.0833 36.0146 17.0761C36.0307 17.0654 36.0467 17.0546 36.0592 17.0439C36.0592 17.0439 36.0628 17.0421 36.0628 17.0403C36.0771 17.0259 36.0914 17.0116 36.1021 16.9973C36.1039 16.9937 36.1075 16.9901 36.1093 16.9865C36.1111 16.9829 36.1146 16.9794 36.1164 16.9758C36.12 16.9704 36.1254 16.965 36.1289 16.9578C36.1361 16.9453 36.1414 16.9328 36.1468 16.922C36.1468 16.9202 36.1468 16.9184 36.1468 16.9166C36.1468 16.9148 36.1468 16.9113 36.1486 16.9095C36.1504 16.9023 36.1539 16.8933 36.1557 16.8862C36.1575 16.8736 36.1593 16.8611 36.1593 16.8485C36.1593 16.8467 36.1593 16.8449 36.1593 16.8432V16.112C36.1611 16.1335 36.1575 16.1568 36.1504 16.1783C36.1504 16.1801 36.1504 16.1837 36.1486 16.1855C36.1414 16.2052 36.1307 16.2249 36.1182 16.2446C36.1164 16.2482 36.1128 16.2518 36.1111 16.2553C36.0968 16.2751 36.0807 16.293 36.061 16.3109C36.0485 16.3234 36.0324 16.3324 36.0164 16.345C36.0039 16.3539 35.9914 16.3647 35.9771 16.3736L33.1453 18.0241C33.1077 18.0456 33.0649 18.0636 33.0202 18.0797C33.0041 18.0851 32.988 18.0904 32.972 18.094C32.9505 18.0994 32.9291 18.1048 32.9076 18.1102C32.8808 18.1155 32.8558 18.1209 32.829 18.1245C32.8237 18.1245 32.8165 18.1263 32.8112 18.1263C32.7754 18.1299 32.7397 18.1317 32.7022 18.1317C32.6968 18.1317 32.6915 18.1317 32.6861 18.1317C32.6504 18.1317 32.6146 18.1299 32.5789 18.1263C32.5735 18.1263 32.5682 18.1263 32.5628 18.1263C32.5271 18.1227 32.4931 18.1155 32.4592 18.1084C32.452 18.1084 32.4467 18.1048 32.4413 18.103C32.411 18.0958 32.3806 18.0869 32.352 18.0761C32.3466 18.0743 32.3413 18.0725 32.3359 18.0707C32.302 18.0582 32.268 18.0421 32.2377 18.0241L29.388 16.3736C29.2611 16.3002 29.1986 16.2052 29.1986 16.1084H29.1968Z" fill="#2D3366"/>
<path d="M40.9298 18.9467C40.9298 18.9467 40.9298 18.9521 40.928 18.9539C40.9209 18.9736 40.9102 18.9951 40.8977 19.013C40.8959 19.0166 40.8923 19.0202 40.8905 19.0237C40.8762 19.0435 40.8601 19.0614 40.8387 19.0793C40.8262 19.09 40.8101 19.1008 40.794 19.1116C40.7798 19.1205 40.769 19.1313 40.753 19.1402L37.9211 20.7907C37.8836 20.8122 37.8408 20.8302 37.7961 20.8463C37.78 20.8517 37.7639 20.857 37.7478 20.8606C37.7264 20.866 37.705 20.8714 37.6835 20.8768C37.6585 20.8821 37.6317 20.8875 37.6049 20.8911C37.5978 20.8911 37.5924 20.8929 37.587 20.8929C37.5513 20.8965 37.5156 20.8983 37.4799 20.8983C37.4745 20.8983 37.4691 20.8983 37.462 20.8983C37.4263 20.8983 37.3905 20.8965 37.3566 20.8929C37.3512 20.8929 37.3459 20.8929 37.3405 20.8929C37.3048 20.8893 37.2708 20.8821 37.2369 20.875C37.2315 20.875 37.2244 20.8714 37.219 20.8696C37.1886 20.8624 37.16 20.8535 37.1315 20.8427C37.1261 20.8409 37.1207 20.8391 37.1154 20.8373C37.0814 20.8248 37.0493 20.8087 37.0189 20.7907L34.1674 19.1402C34.0406 19.0668 33.9781 18.9718 33.9781 18.875V19.6062C33.9763 19.7011 34.0388 19.7979 34.1657 19.8714L37.0171 21.5219C37.0457 21.538 37.0761 21.5542 37.1082 21.5667C37.1082 21.5667 37.1118 21.5667 37.1136 21.5667C37.119 21.5685 37.1243 21.5703 37.1297 21.5721C37.1475 21.5792 37.1672 21.5864 37.1868 21.5918C37.1976 21.5954 37.2083 21.5972 37.219 21.599C37.2244 21.599 37.2315 21.6025 37.2369 21.6043C37.2422 21.6043 37.2476 21.6079 37.253 21.6079C37.2744 21.6115 37.2958 21.6151 37.3173 21.6187C37.3244 21.6187 37.3316 21.6187 37.3405 21.6205C37.3459 21.6205 37.3512 21.6205 37.3566 21.6205C37.3637 21.6205 37.3727 21.6223 37.3798 21.6223C37.4012 21.6223 37.4227 21.6258 37.4423 21.6258C37.4495 21.6258 37.4548 21.6258 37.462 21.6258C37.4673 21.6258 37.4727 21.6258 37.4799 21.6258C37.4888 21.6258 37.4995 21.6258 37.5084 21.6258C37.5317 21.6258 37.5567 21.6241 37.5799 21.6205C37.5817 21.6205 37.5853 21.6205 37.587 21.6205C37.5924 21.6205 37.5996 21.6187 37.6049 21.6187C37.6228 21.6169 37.6424 21.6151 37.6603 21.6115C37.6674 21.6115 37.6746 21.6079 37.6835 21.6061C37.705 21.6008 37.7264 21.5954 37.7478 21.59C37.7586 21.5864 37.7711 21.5846 37.7818 21.581C37.7872 21.581 37.7907 21.5757 37.7961 21.5757C37.8408 21.5595 37.8836 21.5434 37.9211 21.5201L40.753 19.8696C40.753 19.8696 40.7583 19.866 40.7601 19.8642C40.7726 19.8571 40.7815 19.8481 40.7923 19.8409C40.8083 19.8302 40.8244 19.8194 40.8369 19.8087C40.8369 19.8087 40.8405 19.8069 40.8405 19.8051C40.8548 19.7908 40.8691 19.7764 40.8798 19.7621C40.8834 19.7585 40.8852 19.7549 40.887 19.7513C40.8887 19.7477 40.8923 19.7442 40.8941 19.7406C40.8977 19.7352 40.903 19.7298 40.9066 19.7227C40.9137 19.7101 40.9191 19.6976 40.9245 19.6868C40.9245 19.685 40.9245 19.6832 40.9245 19.6814C40.9245 19.6796 40.9245 19.6761 40.9263 19.6743C40.928 19.6671 40.9316 19.6581 40.9334 19.651C40.9352 19.6384 40.937 19.6259 40.937 19.6133C40.937 19.6115 40.937 19.6098 40.937 19.608V18.8768C40.9388 18.8983 40.9352 18.9216 40.928 18.9431L40.9298 18.9467Z" fill="#2D3366"/>
<path d="M14.6578 14.4918L17.5075 16.1424C17.5361 16.1585 17.5683 16.1746 17.6004 16.1872C17.6004 16.1872 17.604 16.1872 17.6058 16.1872C17.6111 16.1889 17.6165 16.1907 17.6219 16.1925C17.6415 16.1997 17.6594 16.2069 17.679 16.2122C17.6898 16.2158 17.7005 16.2176 17.7112 16.2194C17.7166 16.2194 17.7237 16.223 17.7291 16.2248C17.7344 16.2248 17.7398 16.2284 17.7451 16.2284C17.7666 16.232 17.788 16.2355 17.8077 16.2391C17.8148 16.2391 17.8238 16.2391 17.8309 16.2409C17.8363 16.2409 17.8416 16.2409 17.847 16.2409C17.8541 16.2409 17.8631 16.2427 17.8702 16.2427C17.8916 16.2427 17.9113 16.2463 17.9327 16.2463C17.9399 16.2463 17.9452 16.2463 17.9524 16.2463C17.9577 16.2463 17.9631 16.2463 17.9685 16.2463C17.9774 16.2463 17.9881 16.2463 17.9971 16.2463C18.0203 16.2463 18.0453 16.2445 18.0685 16.2409C18.0721 16.2409 18.0739 16.2409 18.0775 16.2409C18.0846 16.2409 18.09 16.2391 18.0971 16.2391C18.115 16.2373 18.1346 16.2355 18.1525 16.232C18.1596 16.232 18.1686 16.2284 18.1757 16.2266C18.1972 16.2212 18.2186 16.2158 18.24 16.2105C18.2508 16.2069 18.2633 16.2051 18.274 16.2015C18.2793 16.2015 18.2829 16.1961 18.2883 16.1943C18.3329 16.1782 18.3758 16.1603 18.4151 16.1388L21.2469 14.4883C21.2469 14.4883 21.2523 14.4847 21.2541 14.4829C21.2666 14.4757 21.2755 14.4668 21.2862 14.4596C21.3023 14.4488 21.3184 14.4381 21.3309 14.4255C21.3309 14.4255 21.3345 14.4237 21.3345 14.422C21.3488 14.4076 21.3631 14.3933 21.3738 14.3789C21.3756 14.3754 21.3774 14.3718 21.3809 14.3682C21.3827 14.3646 21.3863 14.361 21.3881 14.3574C21.3916 14.3521 21.397 14.3449 21.4006 14.3395C21.4077 14.327 21.4131 14.3162 21.4184 14.3037C21.4184 14.3019 21.4184 14.3001 21.4184 14.2983C21.4184 14.2965 21.4184 14.2929 21.4202 14.2911C21.422 14.284 21.4256 14.275 21.4274 14.2678C21.4292 14.2553 21.4309 14.2427 21.4309 14.2302C21.4309 14.2284 21.4309 14.2266 21.4309 14.2248V13.4937C21.4327 13.5152 21.4292 13.5385 21.422 13.56C21.422 13.5618 21.422 13.5653 21.4202 13.5671C21.4131 13.5868 21.4024 13.6066 21.3899 13.6263C21.3881 13.6299 21.3845 13.6334 21.3827 13.637C21.3684 13.6567 21.3523 13.6747 21.3327 13.6926C21.3202 13.7051 21.3023 13.7159 21.288 13.7266C21.2755 13.7356 21.263 13.7463 21.2487 13.7553L18.4169 15.4058C18.3776 15.4273 18.3347 15.4452 18.2901 15.4614C18.274 15.4667 18.2579 15.4721 18.2418 15.4757C18.2204 15.4811 18.1989 15.4865 18.1775 15.4918C18.1525 15.4972 18.1257 15.5026 18.0989 15.5044C18.0917 15.5044 18.0864 15.5062 18.0792 15.5062C18.0435 15.5097 18.0078 15.5115 17.972 15.5115C17.9667 15.5115 17.9613 15.5115 17.956 15.5115C17.9202 15.5115 17.8845 15.5097 17.8488 15.5062C17.8434 15.5062 17.838 15.5062 17.8327 15.5062C17.797 15.5026 17.763 15.4954 17.7291 15.4882C17.7237 15.4882 17.7166 15.4847 17.7112 15.4829C17.6808 15.4757 17.6504 15.4667 17.6219 15.456C17.6165 15.4542 17.6111 15.4524 17.6058 15.4506C17.5718 15.4381 17.5379 15.4219 17.5075 15.404L14.6578 13.7535C14.5953 13.7177 14.5471 13.6747 14.5167 13.6299C14.4845 13.5851 14.4703 13.5367 14.4703 13.4883V14.2195C14.4685 14.3144 14.531 14.4112 14.6578 14.4847V14.4918Z" fill="#2D3366"/>
<path d="M22.3859 18.9552C22.3859 18.9552 22.3895 18.9552 22.3913 18.9552C22.3966 18.957 22.402 18.9588 22.4073 18.9606C22.427 18.9678 22.4449 18.9749 22.4645 18.9803C22.4752 18.9839 22.486 18.9857 22.4967 18.9875C22.502 18.9875 22.5092 18.9911 22.5145 18.9928C22.5199 18.9928 22.5253 18.9964 22.5324 18.9964C22.5539 19 22.5753 19.0054 22.5967 19.0072C22.6039 19.0072 22.611 19.0072 22.6182 19.009C22.6235 19.009 22.6289 19.009 22.6343 19.009C22.6432 19.009 22.6503 19.0108 22.6593 19.0126C22.6807 19.0126 22.7021 19.0161 22.7218 19.0161C22.7289 19.0161 22.7343 19.0161 22.7414 19.0161C22.7468 19.0161 22.7522 19.0161 22.7575 19.0161C22.7682 19.0161 22.7772 19.0161 22.7879 19.0161C22.8111 19.0161 22.8361 19.0144 22.8594 19.0108C22.8612 19.0108 22.8647 19.0108 22.8665 19.0108C22.8719 19.0108 22.879 19.0108 22.8844 19.009C22.904 19.0072 22.9219 19.0036 22.9416 19.0018C22.9487 19.0018 22.9558 18.9982 22.9648 18.9964C22.9862 18.9911 23.0077 18.9857 23.0291 18.9803C23.0398 18.9767 23.0523 18.9749 23.063 18.9713C23.0684 18.9713 23.072 18.966 23.0773 18.966C23.122 18.9498 23.1649 18.9337 23.2024 18.9104L26.0342 17.2599C26.0342 17.2599 26.0396 17.2563 26.0413 17.2545C26.0539 17.2474 26.0628 17.2384 26.0735 17.2312C26.0896 17.2205 26.1057 17.2097 26.1182 17.199C26.1182 17.199 26.1217 17.1972 26.1217 17.1954C26.136 17.1811 26.1503 17.1667 26.1611 17.1524C26.1628 17.1488 26.1646 17.1452 26.1682 17.1416C26.17 17.138 26.1736 17.1345 26.1753 17.1309C26.1789 17.1255 26.1843 17.1201 26.1879 17.113C26.195 17.1004 26.2004 17.0897 26.2057 17.0771C26.2057 17.0753 26.2057 17.0735 26.2057 17.0717C26.2057 17.0699 26.2057 17.0664 26.2075 17.0646C26.2093 17.0574 26.2129 17.0484 26.2147 17.0413C26.2164 17.0287 26.2182 17.0162 26.2182 17.0036C26.2182 17.0018 26.2182 17.0001 26.2182 16.9983V16.2671C26.22 16.2886 26.2164 16.3119 26.2093 16.3334C26.2093 16.3352 26.2093 16.3388 26.2075 16.3406C26.2004 16.3603 26.1896 16.38 26.1771 16.3997C26.1753 16.4033 26.1718 16.4069 26.17 16.4105C26.1557 16.4302 26.1396 16.4481 26.12 16.466C26.1075 16.4768 26.0914 16.4875 26.0753 16.4983C26.0628 16.5072 26.0503 16.518 26.036 16.5269L23.2042 18.1775C23.1667 18.199 23.1238 18.2169 23.0791 18.233C23.063 18.2384 23.047 18.2438 23.0309 18.2473C23.0094 18.2527 22.988 18.2581 22.9666 18.2635C22.9398 18.2688 22.9148 18.2742 22.888 18.2778C22.8826 18.2778 22.8754 18.2796 22.8701 18.2796C22.8344 18.2832 22.7986 18.285 22.7611 18.285C22.7557 18.285 22.7504 18.285 22.745 18.285C22.7093 18.285 22.6736 18.2832 22.6378 18.2796C22.6325 18.2796 22.6271 18.2796 22.6217 18.2796C22.586 18.276 22.5521 18.2688 22.5181 18.2617C22.5128 18.2617 22.5056 18.2581 22.5003 18.2563C22.4699 18.2491 22.4395 18.2402 22.4109 18.2294C22.4056 18.2276 22.4002 18.2258 22.3948 18.224C22.3609 18.2115 22.327 18.1954 22.2966 18.1775L19.4469 16.5269C19.3844 16.4911 19.3361 16.4481 19.3058 16.4033C19.2736 16.3585 19.2593 16.3101 19.2593 16.2617V16.9929C19.2575 17.0879 19.3201 17.1846 19.4469 17.2581L22.2966 18.9086C22.3252 18.9247 22.3573 18.9409 22.3895 18.9534L22.3859 18.9552Z" fill="#2D3366"/>
<path d="M30.8929 20.067C30.9054 20.0599 30.9144 20.0509 30.9251 20.0437C30.9394 20.033 30.9572 20.0222 30.9697 20.0115C30.9697 20.0115 30.9733 20.0097 30.9733 20.0079C30.9876 19.9936 31.0019 19.9792 31.0126 19.9649C31.0144 19.9613 31.0162 19.9577 31.0198 19.9541C31.0215 19.9505 31.0251 19.947 31.0269 19.9434C31.0305 19.938 31.0358 19.9326 31.0394 19.9255C31.0466 19.9129 31.0519 19.9022 31.0573 19.8896C31.0573 19.8878 31.0573 19.886 31.0573 19.8842C31.0573 19.8824 31.0573 19.8789 31.0591 19.8771C31.0609 19.8699 31.0644 19.8609 31.0662 19.8538C31.068 19.8412 31.0698 19.8287 31.0698 19.8161C31.0698 19.8143 31.0698 19.8126 31.0698 19.8108V19.0796C31.0716 19.1011 31.068 19.1244 31.0609 19.1459C31.0609 19.1477 31.0609 19.1513 31.0591 19.1531C31.0519 19.1728 31.0412 19.1925 31.0287 19.2122C31.0269 19.2158 31.0233 19.2194 31.0215 19.223C31.0073 19.2427 30.9912 19.2606 30.9715 19.2785C30.959 19.2893 30.9429 19.3 30.9269 19.3108C30.9144 19.3197 30.9018 19.3305 30.8876 19.3394L28.0557 20.99C28.0182 21.0115 27.9754 21.0294 27.9307 21.0455C27.9146 21.0509 27.8985 21.0563 27.8824 21.0598C27.861 21.0652 27.8396 21.0706 27.8181 21.076C27.7913 21.0813 27.7663 21.0867 27.7395 21.0903C27.7342 21.0903 27.727 21.0921 27.7217 21.0921C27.6859 21.0957 27.6502 21.0975 27.6127 21.0975C27.6073 21.0975 27.6019 21.0975 27.5966 21.0975C27.5609 21.0975 27.5251 21.0957 27.4894 21.0921C27.484 21.0921 27.4787 21.0921 27.4733 21.0921C27.4376 21.0885 27.4036 21.0813 27.3697 21.0742C27.3643 21.0742 27.3572 21.0706 27.3518 21.0688C27.3214 21.0616 27.2911 21.0527 27.2625 21.0419C27.2571 21.0401 27.2518 21.0383 27.2464 21.0365C27.2125 21.024 27.1785 21.0079 27.1481 20.99L24.2985 19.3394C24.2359 19.3036 24.1877 19.2606 24.1573 19.2158C24.1252 19.171 24.1109 19.1226 24.1109 19.0742V19.8054C24.1091 19.9004 24.1716 19.9971 24.2985 20.0706L27.1481 21.7211C27.1767 21.7373 27.2089 21.7534 27.241 21.7659C27.241 21.7659 27.2446 21.7659 27.2464 21.7659C27.2518 21.7677 27.2571 21.7695 27.2625 21.7713C27.2821 21.7785 27.3 21.7856 27.3197 21.791C27.3304 21.7946 27.3411 21.7964 27.3518 21.7982C27.3572 21.7982 27.3643 21.8018 27.3697 21.8036C27.375 21.8036 27.3804 21.8071 27.3875 21.8071C27.409 21.8107 27.4304 21.8143 27.4519 21.8179C27.459 21.8179 27.4662 21.8179 27.4733 21.8197C27.4787 21.8197 27.484 21.8197 27.4894 21.8197C27.4983 21.8197 27.5055 21.8215 27.5144 21.8233C27.5358 21.8233 27.5573 21.8269 27.5769 21.8269C27.5841 21.8269 27.5894 21.8269 27.5966 21.8269C27.6019 21.8269 27.6073 21.8269 27.6127 21.8269C27.6234 21.8269 27.6323 21.8269 27.643 21.8269C27.6663 21.8269 27.6913 21.8251 27.7145 21.8215C27.7163 21.8215 27.7199 21.8215 27.7217 21.8215C27.727 21.8215 27.7342 21.8215 27.7395 21.8197C27.7592 21.8179 27.777 21.8143 27.7967 21.8125C27.8038 21.8125 27.811 21.8089 27.8199 21.8071C27.8414 21.8018 27.8628 21.7964 27.8842 21.791C27.895 21.7874 27.9075 21.7856 27.9182 21.7821C27.9235 21.7821 27.9271 21.7767 27.9325 21.7767C27.9771 21.7605 28.02 21.7444 28.0575 21.7211L30.8893 20.0706C30.8893 20.0706 30.8947 20.067 30.8965 20.0652L30.8929 20.067Z" fill="#2D3366"/>
<path d="M35.8463 21.9216C35.8392 21.9413 35.8285 21.9611 35.816 21.9808C35.8142 21.9843 35.8106 21.9879 35.8088 21.9915C35.7945 22.0112 35.7785 22.0291 35.7588 22.0471C35.7463 22.0578 35.7302 22.0686 35.7141 22.0793C35.7016 22.0883 35.6891 22.099 35.6748 22.108L32.843 23.7585C32.8055 23.78 32.7626 23.7979 32.718 23.8141C32.7019 23.8194 32.6858 23.8248 32.6697 23.8284C32.6483 23.8338 32.6268 23.8392 32.6054 23.8445C32.5804 23.8499 32.5536 23.8553 32.5268 23.8589C32.5214 23.8589 32.5143 23.8607 32.5089 23.8607C32.4732 23.8642 32.4375 23.866 32.4017 23.866C32.3964 23.866 32.391 23.866 32.3839 23.866C32.3481 23.866 32.3124 23.8642 32.2785 23.8607C32.2731 23.8607 32.2677 23.8607 32.2624 23.8607C32.2266 23.8571 32.1927 23.8499 32.1587 23.8427C32.1534 23.8427 32.1462 23.8392 32.1409 23.8374C32.1105 23.8302 32.0819 23.8212 32.0533 23.8105C32.048 23.8087 32.0426 23.8069 32.0373 23.8051C32.0033 23.7926 31.9712 23.7764 31.9408 23.7585L29.0893 22.108C28.9625 22.0345 28.8999 21.9395 28.8999 21.8428V22.5739C28.8982 22.6689 28.9607 22.7657 29.0875 22.8392L31.939 24.4897C31.9676 24.5058 31.998 24.5219 32.0301 24.5345C32.0301 24.5345 32.0337 24.5345 32.0355 24.5363C32.0408 24.5381 32.0462 24.5399 32.0515 24.5416C32.0694 24.5488 32.0891 24.556 32.1087 24.5614C32.1194 24.5649 32.1302 24.5667 32.1409 24.5685C32.1462 24.5685 32.1534 24.5721 32.1587 24.5739C32.1641 24.5739 32.1695 24.5775 32.1748 24.5775C32.1963 24.5811 32.2177 24.5847 32.2391 24.5882C32.2463 24.5882 32.2534 24.5882 32.2624 24.59C32.2677 24.59 32.2731 24.59 32.2785 24.59C32.2856 24.59 32.2945 24.5918 32.3017 24.5918C32.3231 24.5918 32.3446 24.5954 32.3642 24.5954C32.3714 24.5954 32.3767 24.5954 32.3839 24.5954C32.3892 24.5954 32.3946 24.5954 32.4017 24.5954C32.4107 24.5954 32.4214 24.5954 32.4303 24.5954C32.4535 24.5954 32.4786 24.5936 32.5018 24.59C32.5036 24.59 32.5071 24.59 32.5089 24.59C32.5143 24.59 32.5214 24.5882 32.5268 24.5882C32.5447 24.5865 32.5643 24.5847 32.5822 24.5811C32.5893 24.5811 32.5965 24.5775 32.6054 24.5757C32.6268 24.5703 32.6483 24.5649 32.6697 24.5596C32.6804 24.556 32.6929 24.5542 32.7037 24.5506C32.709 24.5506 32.7126 24.5452 32.718 24.5452C32.7626 24.5291 32.8055 24.513 32.843 24.4897L35.6748 22.8392C35.6748 22.8392 35.6802 22.8356 35.682 22.8338C35.6945 22.8266 35.7034 22.8177 35.7141 22.8105C35.7302 22.7997 35.7463 22.789 35.7588 22.7782C35.7588 22.7782 35.7624 22.7764 35.7624 22.7747C35.7767 22.7603 35.791 22.746 35.8017 22.7316C35.8035 22.7281 35.807 22.7245 35.8088 22.7209C35.8106 22.7173 35.8142 22.7137 35.816 22.7101C35.8195 22.7048 35.8249 22.6994 35.8285 22.6922C35.8356 22.6797 35.841 22.6671 35.8463 22.6564C35.8463 22.6546 35.8463 22.6528 35.8463 22.651C35.8463 22.6492 35.8463 22.6456 35.8481 22.6438C35.8499 22.6367 35.8535 22.6277 35.8553 22.6205C35.8571 22.608 35.8589 22.5954 35.8589 22.5829C35.8589 22.5811 35.8589 22.5793 35.8589 22.5775V21.8464C35.8606 21.8679 35.8571 21.8912 35.8499 21.9127C35.8499 21.9145 35.8499 21.918 35.8481 21.9198L35.8463 21.9216Z" fill="#2D3366"/>
<path d="M9.5737 17.4586L12.4234 19.1091C12.452 19.1253 12.4841 19.1414 12.5163 19.154C12.5163 19.154 12.5198 19.154 12.5216 19.154C12.527 19.1557 12.5324 19.1575 12.5377 19.1593C12.5556 19.1665 12.5752 19.1737 12.5949 19.179C12.6056 19.1826 12.6163 19.1844 12.627 19.1862C12.6324 19.1862 12.6395 19.1898 12.6449 19.1916C12.6503 19.1916 12.6556 19.1952 12.661 19.1952C12.6824 19.1988 12.7039 19.2023 12.7235 19.2059C12.7307 19.2059 12.7378 19.2059 12.7467 19.2077C12.7521 19.2077 12.7575 19.2077 12.7628 19.2095C12.77 19.2095 12.7789 19.2113 12.7861 19.2113C12.8075 19.2113 12.8271 19.2149 12.8486 19.2149C12.8557 19.2149 12.8611 19.2149 12.8682 19.2149C12.8736 19.2149 12.879 19.2149 12.8861 19.2149C12.895 19.2149 12.9058 19.2149 12.9147 19.2149C12.9379 19.2149 12.9629 19.2131 12.9862 19.2095C12.9897 19.2095 12.9915 19.2095 12.9933 19.2095C13.0004 19.2095 13.0058 19.2077 13.013 19.2077C13.0308 19.2059 13.0487 19.2041 13.0666 19.2005C13.0737 19.2005 13.0826 19.197 13.0898 19.1952C13.1112 19.1898 13.1327 19.1844 13.1541 19.179C13.1648 19.1755 13.1773 19.1737 13.188 19.1701C13.1934 19.1701 13.197 19.1647 13.2023 19.1629C13.247 19.1468 13.2899 19.1289 13.3292 19.1074L16.161 17.4569C16.161 17.4569 16.1663 17.4533 16.1681 17.4515C16.1806 17.4443 16.1896 17.4353 16.2003 17.4282C16.2164 17.4174 16.2325 17.4067 16.245 17.3959C16.245 17.3959 16.2485 17.3941 16.2485 17.3923C16.2628 17.378 16.2771 17.3637 16.2878 17.3493C16.2896 17.3457 16.2914 17.3422 16.295 17.3386C16.2968 17.335 16.3003 17.3314 16.3021 17.3278C16.3057 17.3224 16.3111 17.3171 16.3146 17.3099C16.3218 17.2974 16.3271 17.2848 16.3325 17.2741C16.3325 17.2723 16.3325 17.2705 16.3325 17.2687C16.3325 17.2669 16.3325 17.2633 16.3343 17.2615C16.3361 17.2543 16.3397 17.2454 16.3414 17.2382C16.3432 17.2257 16.345 17.2131 16.345 17.2006C16.345 17.1988 16.345 17.197 16.345 17.1952V16.464C16.3468 16.4855 16.3432 16.5088 16.3361 16.5303C16.3361 16.5321 16.3361 16.5357 16.3343 16.5375C16.3271 16.5572 16.3164 16.5769 16.3039 16.5967C16.3021 16.6002 16.2986 16.6038 16.2968 16.6074C16.2825 16.6271 16.2664 16.645 16.2467 16.663C16.2342 16.6737 16.2182 16.6845 16.2021 16.6952C16.1896 16.7042 16.1771 16.7149 16.1628 16.7239L13.331 18.3744C13.2917 18.3959 13.2488 18.4138 13.2041 18.43C13.188 18.4353 13.172 18.4407 13.1559 18.4443C13.1344 18.4497 13.113 18.455 13.0916 18.4604C13.0666 18.4658 13.0398 18.4712 13.013 18.473C13.0058 18.473 13.0004 18.4748 12.9933 18.4748C12.9576 18.4783 12.9218 18.4801 12.8861 18.4801C12.8807 18.4801 12.8754 18.4801 12.87 18.4801C12.8343 18.4801 12.7986 18.4783 12.7646 18.4748C12.7593 18.4748 12.7539 18.4748 12.7485 18.473C12.7128 18.4694 12.6789 18.4622 12.6449 18.455C12.6395 18.455 12.6324 18.4515 12.627 18.4497C12.5967 18.4425 12.5663 18.4335 12.5377 18.4228C12.5324 18.421 12.527 18.4192 12.5216 18.4174C12.4877 18.4049 12.4537 18.3887 12.4234 18.3708L9.5737 16.7203C9.44685 16.6468 9.38431 16.5519 9.38431 16.4551V17.1862C9.38253 17.2812 9.44506 17.378 9.57191 17.4515L9.5737 17.4586Z" fill="#2D3366"/>
<path d="M21.0834 19.3712C21.0834 19.3712 21.078 19.3784 21.0762 19.382C21.0619 19.4017 21.0459 19.4196 21.0262 19.4375C21.0137 19.4483 20.9976 19.459 20.9815 19.4698C20.969 19.4788 20.9565 19.4895 20.9422 19.4985L18.1104 21.149C18.0729 21.1705 18.03 21.1884 17.9854 21.2045C17.9693 21.2099 17.9532 21.2153 17.9371 21.2189C17.9157 21.2242 17.8943 21.2296 17.8728 21.235C17.846 21.2404 17.821 21.2457 17.7942 21.2493C17.7888 21.2493 17.7817 21.2511 17.7763 21.2511C17.7406 21.2547 17.7049 21.2565 17.6691 21.2565C17.6638 21.2565 17.6584 21.2565 17.6513 21.2565C17.6155 21.2565 17.5798 21.2547 17.5459 21.2511C17.5405 21.2511 17.5351 21.2511 17.5298 21.2493C17.4941 21.2457 17.4601 21.2386 17.4262 21.2314C17.419 21.2314 17.4137 21.2278 17.4083 21.226C17.3779 21.2189 17.3475 21.2099 17.319 21.1992C17.3136 21.1974 17.3082 21.1956 17.3029 21.1938C17.2689 21.1812 17.235 21.1651 17.2046 21.1472L14.3549 19.4967C14.2281 19.4232 14.1656 19.3282 14.1656 19.2314V19.9626C14.1638 20.0576 14.2263 20.1544 14.3532 20.2278L17.2028 21.8783C17.2314 21.8945 17.2636 21.9106 17.2957 21.9231C17.2957 21.9231 17.2993 21.9231 17.3011 21.9231C17.3065 21.9249 17.3118 21.9267 17.3172 21.9285C17.3368 21.9357 17.3547 21.9429 17.3743 21.9482C17.3851 21.9518 17.3958 21.9536 17.4065 21.9554C17.4119 21.9554 17.419 21.959 17.4244 21.9608C17.4297 21.9608 17.4351 21.9644 17.4405 21.9644C17.4619 21.968 17.4833 21.9715 17.5048 21.9751C17.5119 21.9751 17.5191 21.9751 17.5262 21.9769C17.5316 21.9769 17.5369 21.9769 17.5423 21.9787C17.5512 21.9787 17.5584 21.9805 17.5673 21.9823C17.5887 21.9823 17.6102 21.9859 17.6298 21.9859C17.637 21.9859 17.6423 21.9859 17.6495 21.9859C17.6548 21.9859 17.6602 21.9859 17.6674 21.9859C17.6781 21.9859 17.687 21.9859 17.6977 21.9859C17.721 21.9859 17.746 21.9841 17.7692 21.9805C17.771 21.9805 17.7746 21.9805 17.7763 21.9805C17.7817 21.9805 17.7888 21.9805 17.7942 21.9787C17.8139 21.9769 17.8317 21.9733 17.8496 21.9715C17.8567 21.9715 17.8639 21.968 17.8728 21.9662C17.8943 21.9608 17.9157 21.9554 17.9371 21.95C17.9479 21.9464 17.9604 21.9447 17.9711 21.9411C17.9764 21.9411 17.98 21.9357 17.9854 21.9357C18.03 21.9196 18.0729 21.9034 18.1104 21.8801L20.9422 20.2296C20.9422 20.2296 20.9476 20.2261 20.9494 20.2243C20.9619 20.2171 20.9708 20.2081 20.9815 20.201C20.9958 20.1902 21.0119 20.1795 21.0262 20.1687C21.0262 20.1687 21.0298 20.1669 21.0298 20.1651C21.0441 20.1508 21.0584 20.1364 21.0691 20.1221C21.0727 20.1185 21.0745 20.1149 21.0762 20.1114C21.078 20.1078 21.0816 20.1042 21.0834 20.1006C21.087 20.0952 21.0923 20.0899 21.0941 20.0827C21.1012 20.0701 21.1066 20.0576 21.112 20.0468C21.112 20.0451 21.112 20.0433 21.112 20.0415C21.112 20.0397 21.112 20.0361 21.1138 20.0343C21.1155 20.0271 21.1191 20.0182 21.1209 20.011C21.1227 19.9985 21.1245 19.9859 21.1245 19.9734C21.1245 19.9716 21.1245 19.9698 21.1245 19.968V19.2368C21.1263 19.2583 21.1227 19.2816 21.1155 19.3031C21.1155 19.3049 21.1155 19.3085 21.1138 19.3103C21.1066 19.33 21.0959 19.3497 21.0834 19.3694V19.3712Z" fill="#2D3366"/>
<path d="M25.9671 22.1208C25.96 22.1406 25.9492 22.1603 25.9367 22.18C25.9349 22.1836 25.9314 22.1872 25.9296 22.1907C25.9153 22.2104 25.8992 22.2284 25.8796 22.2463C25.8671 22.257 25.851 22.2678 25.8349 22.2785C25.8224 22.2875 25.8099 22.2983 25.7956 22.3072L22.9638 23.9577C22.9263 23.9792 22.8834 23.9972 22.8387 24.0133C22.8226 24.0187 22.8066 24.024 22.7905 24.0276C22.769 24.033 22.7476 24.0384 22.7262 24.0437C22.6994 24.0491 22.6744 24.0545 22.6476 24.0581C22.6422 24.0581 22.635 24.0599 22.6297 24.0599C22.594 24.0635 22.5582 24.0653 22.5207 24.0653C22.5153 24.0653 22.51 24.0653 22.5046 24.0653C22.4689 24.0653 22.4332 24.0635 22.3974 24.0599C22.3921 24.0599 22.3867 24.0599 22.3813 24.0599C22.3456 24.0563 22.3117 24.0491 22.2777 24.042C22.2724 24.042 22.2652 24.0384 22.2599 24.0366C22.2295 24.0294 22.1991 24.0204 22.1705 24.0097C22.1652 24.0079 22.1598 24.0061 22.1544 24.0043C22.1205 23.9918 22.0866 23.9756 22.0562 23.9577L19.2065 22.3072C19.0797 22.2337 19.0171 22.1388 19.0171 22.042V22.7732C19.0153 22.8681 19.0779 22.9649 19.2047 23.0384L22.0544 24.6889C22.083 24.705 22.1151 24.7212 22.1473 24.7337C22.1473 24.7337 22.1509 24.7337 22.1527 24.7337C22.158 24.7355 22.1634 24.7373 22.1687 24.7391C22.1884 24.7462 22.2063 24.7534 22.2259 24.7588C22.2366 24.7624 22.2473 24.7642 22.2581 24.766C22.2634 24.766 22.2706 24.7695 22.2759 24.7713C22.2813 24.7713 22.2867 24.7749 22.2938 24.7749C22.3152 24.7785 22.3367 24.7839 22.3581 24.7857C22.3653 24.7857 22.3724 24.7857 22.3796 24.7875C22.3849 24.7875 22.3903 24.7875 22.3956 24.7875C22.4046 24.7875 22.4117 24.7893 22.4207 24.791C22.4421 24.791 22.4635 24.7946 22.4832 24.7946C22.4903 24.7946 22.4957 24.7946 22.5028 24.7946C22.5082 24.7946 22.5136 24.7946 22.5189 24.7946C22.5296 24.7946 22.5386 24.7946 22.5493 24.7946C22.5725 24.7946 22.5975 24.7928 22.6208 24.7893C22.6225 24.7893 22.6261 24.7893 22.6279 24.7893C22.6333 24.7893 22.6404 24.7893 22.6458 24.7875C22.6654 24.7857 22.6833 24.7821 22.7029 24.7803C22.7101 24.7803 22.7172 24.7767 22.7262 24.7749C22.7476 24.7695 22.769 24.7642 22.7905 24.7588C22.8012 24.7552 22.8137 24.7534 22.8244 24.7498C22.8298 24.7498 22.8334 24.7445 22.8387 24.7445C22.8834 24.7283 22.9263 24.7122 22.9638 24.6889L25.7956 23.0384C25.7956 23.0384 25.8009 23.0348 25.8027 23.033C25.8152 23.0258 25.8242 23.0169 25.8349 23.0097C25.8492 22.999 25.8653 22.9882 25.8796 22.9775C25.8796 22.9775 25.8831 22.9757 25.8831 22.9739C25.8974 22.9595 25.9117 22.9452 25.9224 22.9309C25.926 22.9273 25.9278 22.9237 25.9296 22.9201C25.9314 22.9165 25.9349 22.9129 25.9367 22.9094C25.9403 22.904 25.9457 22.8986 25.9475 22.8914C25.9546 22.8789 25.96 22.8663 25.9653 22.8556C25.9653 22.8538 25.9653 22.852 25.9653 22.8502C25.9653 22.8484 25.9653 22.8448 25.9671 22.8431C25.9689 22.8359 25.9725 22.8269 25.9743 22.8198C25.976 22.8072 25.9778 22.7947 25.9778 22.7821C25.9778 22.7803 25.9778 22.7785 25.9778 22.7767V22.0456C25.9796 22.0671 25.976 22.0904 25.9689 22.1119C25.9689 22.1137 25.9689 22.1173 25.9671 22.1191V22.1208Z" fill="#2D3366"/>
<path d="M11.0744 20.4214C11.0869 20.4142 11.0958 20.4052 11.1065 20.3981C11.1226 20.3873 11.1387 20.3766 11.1512 20.364C11.1512 20.364 11.1548 20.3622 11.1548 20.3604C11.1691 20.3461 11.1834 20.3318 11.1941 20.3174C11.1959 20.3138 11.1977 20.3103 11.2012 20.3067C11.203 20.3031 11.2066 20.2995 11.2084 20.2959C11.212 20.2905 11.2173 20.2834 11.2209 20.278C11.228 20.2655 11.2334 20.2547 11.2388 20.2422C11.2388 20.2404 11.2388 20.2386 11.2388 20.2368C11.2388 20.235 11.2388 20.2314 11.2405 20.2296C11.2423 20.2224 11.2459 20.2135 11.2477 20.2063C11.2495 20.1938 11.2513 20.1812 11.2513 20.1687C11.2513 20.1669 11.2513 20.1651 11.2513 20.1633V19.4321C11.253 19.4536 11.2495 19.4769 11.2423 19.4984C11.2423 19.5002 11.2423 19.5038 11.2405 19.5056C11.2334 19.5253 11.2227 19.545 11.2102 19.5647C11.2084 19.5683 11.2048 19.5719 11.203 19.5755C11.1887 19.5952 11.1727 19.6131 11.153 19.6311C11.1405 19.6436 11.1226 19.6544 11.1083 19.6651C11.0958 19.6741 11.0833 19.6848 11.069 19.6938L8.23722 21.3443C8.19792 21.3658 8.15504 21.3837 8.11037 21.3998C8.09429 21.4052 8.07821 21.4106 8.06213 21.4142C8.04069 21.4196 8.01925 21.4249 7.99782 21.4303C7.9728 21.4357 7.946 21.4411 7.92099 21.4428C7.91384 21.4428 7.90848 21.4446 7.90134 21.4446C7.8656 21.4482 7.82987 21.45 7.79414 21.45C7.78878 21.45 7.78342 21.45 7.77627 21.45C7.74054 21.45 7.70481 21.4482 7.67086 21.4446C7.6655 21.4446 7.66014 21.4446 7.65478 21.4446C7.61905 21.4411 7.5851 21.4339 7.55116 21.4267C7.5458 21.4267 7.53865 21.4231 7.53329 21.4213C7.50292 21.4142 7.47255 21.4052 7.44396 21.3945C7.4386 21.3927 7.43324 21.3909 7.42788 21.3891C7.39393 21.3765 7.35999 21.3604 7.32962 21.3425L4.47995 19.692C4.3531 19.6185 4.29056 19.5235 4.29056 19.4268V20.1579C4.28878 20.2529 4.35131 20.3497 4.47816 20.4232L7.32783 22.0737C7.35642 22.0898 7.38858 22.1059 7.42073 22.1185C7.42073 22.1185 7.42431 22.1185 7.42609 22.1185C7.43145 22.1203 7.43681 22.122 7.44217 22.1238C7.46004 22.131 7.47969 22.1382 7.49935 22.1436C7.51007 22.1471 7.52079 22.1489 7.53151 22.1507C7.53687 22.1507 7.54401 22.1543 7.54937 22.1561C7.55473 22.1561 7.56009 22.1597 7.56545 22.1597C7.58689 22.1633 7.60833 22.1668 7.62798 22.1704C7.63513 22.1704 7.64406 22.1704 7.65121 22.1722C7.65657 22.1722 7.66193 22.1722 7.66729 22.1722C7.67444 22.1722 7.68337 22.174 7.69052 22.174C7.71195 22.174 7.73161 22.1776 7.75305 22.1776C7.76019 22.1776 7.76555 22.1776 7.7727 22.1776C7.77806 22.1776 7.78342 22.1776 7.79057 22.1776C7.7995 22.1776 7.81022 22.1776 7.81915 22.1776C7.84238 22.1776 7.86739 22.1758 7.89062 22.1722C7.89419 22.1722 7.89598 22.1722 7.89776 22.1722C7.90491 22.1722 7.91027 22.1704 7.91742 22.1704C7.93528 22.1686 7.95315 22.1668 7.97102 22.1633C7.97816 22.1633 7.9871 22.1597 7.99424 22.1579C8.01568 22.1525 8.03712 22.1471 8.05856 22.1418C8.06928 22.1382 8.08179 22.1364 8.09251 22.1328C8.09787 22.1328 8.10144 22.1274 8.1068 22.1274C8.15146 22.1113 8.19434 22.0934 8.23365 22.0719L11.0655 20.4214C11.0655 20.4214 11.0708 20.4178 11.0726 20.416L11.0744 20.4214Z" fill="#2D3366"/>
<path d="M15.8574 23.1919C15.8699 23.1847 15.8789 23.1757 15.8896 23.1686C15.9057 23.1578 15.9217 23.1471 15.9342 23.1363C15.9342 23.1363 15.9378 23.1345 15.9378 23.1327C15.9521 23.1184 15.9664 23.1041 15.9771 23.0897C15.9789 23.0861 15.9807 23.0826 15.9843 23.079C15.9861 23.0754 15.9896 23.0718 15.9914 23.0682C15.995 23.0628 16.0004 23.0575 16.0039 23.0503C16.0111 23.0378 16.0164 23.027 16.0218 23.0145C16.0218 23.0127 16.0218 23.0109 16.0218 23.0091C16.0218 23.0073 16.0218 23.0037 16.0236 23.0019C16.0254 22.9947 16.0289 22.9858 16.0307 22.9786C16.0325 22.9661 16.0343 22.9535 16.0343 22.941C16.0343 22.9392 16.0343 22.9374 16.0343 22.9356V22.2044C16.0361 22.2259 16.0325 22.2492 16.0254 22.2707C16.0254 22.2725 16.0254 22.2761 16.0236 22.2779C16.0164 22.2976 16.0057 22.3173 15.9932 22.337C15.9914 22.3406 15.9878 22.3442 15.9861 22.3478C15.9718 22.3675 15.9557 22.3854 15.936 22.4034C15.9235 22.4141 15.9074 22.4249 15.8914 22.4356C15.8789 22.4446 15.8664 22.4553 15.8521 22.4643L13.0203 24.1148C12.9827 24.1363 12.9399 24.1542 12.8952 24.1703C12.8791 24.1757 12.863 24.1811 12.847 24.1847C12.8255 24.1901 12.8041 24.1954 12.7826 24.2008C12.7558 24.2062 12.7308 24.2116 12.704 24.2151C12.6987 24.2151 12.6915 24.2169 12.6862 24.2169C12.6504 24.2205 12.6147 24.2223 12.5772 24.2223C12.5718 24.2223 12.5665 24.2223 12.5593 24.2223C12.5236 24.2223 12.4878 24.2205 12.4521 24.2169C12.4468 24.2169 12.4414 24.2169 12.436 24.2151C12.4003 24.2116 12.3664 24.2044 12.3324 24.1972C12.327 24.1972 12.3199 24.1936 12.3145 24.1919C12.2842 24.1847 12.2538 24.1757 12.2252 24.165C12.2199 24.1632 12.2145 24.1614 12.2091 24.1596C12.1752 24.1471 12.1412 24.1309 12.1109 24.113L9.2612 22.4625C9.13435 22.389 9.07181 22.294 9.07181 22.1973V22.9284C9.07003 23.0234 9.13256 23.1202 9.25941 23.1937L12.1091 24.8442C12.1377 24.8603 12.1698 24.8764 12.202 24.889C12.202 24.889 12.2056 24.889 12.2073 24.889C12.2127 24.8908 12.2181 24.8926 12.2234 24.8943C12.2431 24.9015 12.2609 24.9087 12.2806 24.9141C12.2913 24.9176 12.302 24.9194 12.3128 24.9212C12.3181 24.9212 12.3253 24.9248 12.3306 24.9266C12.336 24.9266 12.3413 24.9302 12.3485 24.9302C12.3699 24.9338 12.3914 24.9374 12.4128 24.9409C12.42 24.9409 12.4271 24.9409 12.4342 24.9427C12.4396 24.9427 12.445 24.9427 12.4503 24.9445C12.4593 24.9445 12.4664 24.9463 12.4753 24.9481C12.4968 24.9481 12.5182 24.9517 12.5379 24.9517C12.545 24.9517 12.5504 24.9517 12.5575 24.9517C12.5629 24.9517 12.5682 24.9517 12.5754 24.9517C12.5861 24.9517 12.595 24.9517 12.6058 24.9517C12.629 24.9517 12.654 24.9499 12.6772 24.9463C12.679 24.9463 12.6826 24.9463 12.6844 24.9463C12.6897 24.9463 12.6969 24.9463 12.7022 24.9445C12.7219 24.9427 12.7398 24.9391 12.7576 24.9374C12.7648 24.9374 12.7719 24.9338 12.7809 24.932C12.8023 24.9266 12.8237 24.9212 12.8452 24.9159C12.8559 24.9123 12.8684 24.9105 12.8791 24.9069C12.8845 24.9069 12.8881 24.9015 12.8934 24.9015C12.9381 24.8854 12.981 24.8693 13.0185 24.846L15.8503 23.1955C15.8503 23.1955 15.8556 23.1919 15.8574 23.1901V23.1919Z" fill="#2D3366"/>
<path d="M20.8716 25.0886C20.8644 25.1083 20.8537 25.128 20.8412 25.1478C20.8394 25.1513 20.8358 25.1549 20.834 25.1585C20.8198 25.1782 20.8037 25.1961 20.784 25.2141C20.7715 25.2248 20.7554 25.2356 20.7394 25.2463C20.7269 25.2553 20.7143 25.266 20.7001 25.275L17.8682 26.9255C17.8307 26.947 17.7879 26.9649 17.7432 26.9811C17.7271 26.9864 17.711 26.9918 17.6949 26.9954C17.6735 27.0008 17.6521 27.0061 17.6306 27.0115C17.6038 27.0169 17.5788 27.0223 17.552 27.0259C17.5467 27.0259 17.5395 27.0277 17.5342 27.0277C17.4984 27.0312 17.4627 27.033 17.4252 27.033C17.4198 27.033 17.4144 27.033 17.4091 27.033C17.3734 27.033 17.3376 27.0312 17.3019 27.0277C17.2965 27.0277 17.2912 27.0277 17.2858 27.0277C17.2501 27.0241 17.2161 27.0169 17.1822 27.0097C17.1768 27.0097 17.1697 27.0061 17.1643 27.0044C17.1339 26.9972 17.1036 26.9882 17.075 26.9775C17.0696 26.9757 17.0643 26.9739 17.0589 26.9721C17.025 26.9595 16.991 26.9434 16.9606 26.9255L14.111 25.275C14.0484 25.2392 14.0002 25.1961 13.9698 25.1513C13.9377 25.1065 13.9234 25.0582 13.9234 25.0098V25.7409C13.9216 25.8359 13.9841 25.9327 14.111 26.0062L16.9606 27.6567C16.9892 27.6728 17.0214 27.6889 17.0535 27.7015C17.0535 27.7015 17.0571 27.7015 17.0589 27.7015C17.0643 27.7033 17.0696 27.7051 17.0732 27.7068C17.0929 27.714 17.1107 27.7212 17.1304 27.7266C17.1411 27.7301 17.1518 27.7319 17.1625 27.7337C17.1679 27.7337 17.175 27.7373 17.1804 27.7391C17.1858 27.7391 17.1911 27.7427 17.1983 27.7427C17.2197 27.7463 17.2411 27.7499 17.2626 27.7534C17.2697 27.7534 17.2769 27.7534 17.284 27.7552C17.2894 27.7552 17.2947 27.7552 17.3001 27.7552C17.309 27.7552 17.3162 27.757 17.3251 27.7588C17.3466 27.7588 17.368 27.7624 17.3876 27.7624C17.3948 27.7624 17.4002 27.7624 17.4073 27.7624C17.4127 27.7624 17.418 27.7624 17.4234 27.7624C17.4341 27.7624 17.443 27.7624 17.4538 27.7624C17.477 27.7624 17.502 27.7606 17.5252 27.757C17.527 27.757 17.5306 27.757 17.5324 27.757C17.5377 27.757 17.5449 27.757 17.5502 27.7552C17.5699 27.7534 17.5877 27.7499 17.6074 27.7481C17.6145 27.7481 17.6217 27.7445 17.6306 27.7427C17.6521 27.7373 17.6735 27.7319 17.6949 27.7266C17.7057 27.723 17.7182 27.7212 17.7289 27.7176C17.7343 27.7176 17.7378 27.7122 17.7432 27.7122C17.7879 27.6961 17.8307 27.68 17.8682 27.6567L20.7001 26.0062C20.7001 26.0062 20.7054 26.0026 20.7072 26.0008C20.7197 25.9936 20.7286 25.9847 20.7394 25.9775C20.7554 25.9667 20.7715 25.956 20.784 25.9452C20.784 25.9452 20.7876 25.9434 20.7876 25.9416C20.8019 25.9273 20.8162 25.913 20.8269 25.8986C20.8287 25.8951 20.8305 25.8915 20.834 25.8879C20.8358 25.8843 20.8394 25.8807 20.8412 25.8771C20.8448 25.8718 20.8501 25.8664 20.8537 25.8592C20.8608 25.8467 20.8662 25.8359 20.8716 25.8234C20.8716 25.8216 20.8716 25.8198 20.8716 25.818C20.8716 25.8162 20.8716 25.8126 20.8734 25.8108C20.8751 25.8037 20.8787 25.7947 20.8805 25.7875C20.8823 25.775 20.8841 25.7624 20.8841 25.7499C20.8841 25.7481 20.8841 25.7463 20.8841 25.7445V25.0134C20.8859 25.0349 20.8823 25.0582 20.8751 25.0797C20.8751 25.0814 20.8751 25.085 20.8734 25.0868L20.8716 25.0886Z" fill="#2D3366"/>
<path d="M16.4899 14.4642C16.4881 14.4982 16.4863 14.5323 16.4828 14.5663C16.4792 14.5968 16.4756 14.6255 16.472 14.6559C16.4667 14.69 16.4631 14.724 16.456 14.7581C16.4506 14.7885 16.4435 14.819 16.4363 14.8477C16.4292 14.8817 16.4202 14.914 16.4113 14.948C16.4024 14.9785 16.3934 15.009 16.3845 15.0376C16.3738 15.0699 16.3631 15.104 16.3523 15.1362C16.3416 15.1649 16.3309 15.1954 16.3184 15.224C16.3041 15.2581 16.2898 15.2939 16.2755 15.328C16.263 15.3566 16.2487 15.3853 16.2362 15.414C16.2201 15.448 16.2023 15.4821 16.1826 15.5161C16.1683 15.543 16.1522 15.5717 16.1362 15.5986C16.1129 15.6398 16.0879 15.6792 16.0611 15.7204C16.045 15.7455 16.0307 15.7688 16.0129 15.7939C15.9825 15.8387 15.9503 15.8835 15.9164 15.9265C15.9021 15.9462 15.8896 15.9642 15.8735 15.9839C15.8181 16.0538 15.7592 16.1219 15.6966 16.19C15.6806 16.2079 15.6627 16.224 15.6466 16.2419C15.5966 16.2939 15.5466 16.3459 15.493 16.396C15.468 16.4193 15.4447 16.4426 15.4179 16.4659C15.3858 16.4946 15.3536 16.5233 15.3197 16.552C15.2893 16.5788 15.2571 16.6039 15.225 16.6308C15.191 16.6595 15.1553 16.6864 15.1178 16.715C15.0838 16.7401 15.0517 16.767 15.0159 16.7921C14.9784 16.819 14.9391 16.8459 14.9016 16.8727C14.8659 16.8978 14.8301 16.9229 14.7926 16.9462C14.7515 16.9731 14.7104 16.9982 14.6693 17.0251C14.6175 17.0573 14.5657 17.0896 14.5121 17.1218C14.3638 17.2079 14.2102 17.2867 14.053 17.3638C14.0119 17.3835 13.969 17.4032 13.9279 17.4229C13.785 17.4892 13.6402 17.5519 13.492 17.6093C13.4723 17.6165 13.4544 17.6254 13.4348 17.6326C13.2633 17.6989 13.0864 17.758 12.9077 17.8136C12.8809 17.8225 12.8523 17.8297 12.8255 17.8387C12.6522 17.8906 12.4771 17.9372 12.3003 17.9802C12.2735 17.9874 12.2449 17.9928 12.2181 18C12.0394 18.0412 11.859 18.0788 11.6767 18.1111C11.6392 18.1182 11.5999 18.1236 11.5606 18.129C11.4052 18.1541 11.2479 18.1774 11.0889 18.1953C11.0425 18.2007 10.996 18.206 10.9514 18.2114C10.7673 18.2311 10.5833 18.2473 10.3975 18.258C10.3636 18.2598 10.3296 18.2616 10.2957 18.2634C10.1045 18.2724 9.91334 18.2795 9.72217 18.2795C9.70251 18.2795 9.68465 18.2795 9.665 18.2795C9.52207 18.2795 9.37913 18.2741 9.2362 18.267C9.12007 18.2616 9.00573 18.2562 8.89139 18.2491C8.78597 18.2419 8.68056 18.2329 8.57694 18.2222C8.4626 18.2114 8.35004 18.1989 8.23748 18.1845C8.0874 18.1648 7.93733 18.1469 7.78904 18.1218C7.77832 18.12 7.7676 18.1182 7.75688 18.1164C7.5675 18.0842 7.38169 18.0448 7.19766 18.0035C7.16908 17.9964 7.13871 17.991 7.11012 17.9838C6.93682 17.9426 6.7653 17.896 6.59736 17.8458C6.54912 17.8315 6.50088 17.8154 6.45443 17.801C6.31507 17.7562 6.17571 17.7096 6.03993 17.6595C6.00062 17.6451 5.95953 17.6308 5.92201 17.6165C5.79873 17.5681 5.67903 17.5161 5.56111 17.4623C5.50215 17.4355 5.44141 17.4122 5.38424 17.3853C5.21272 17.3028 5.04478 17.2168 4.88398 17.1236C3.54044 16.3459 2.87045 15.3244 2.87224 14.3047L2.86867 15.7294C2.86509 16.7491 3.53686 17.7706 4.88041 18.5483C5.0412 18.6415 5.20915 18.7275 5.38066 18.81C5.43784 18.8369 5.49858 18.8602 5.55575 18.887C5.65759 18.9318 5.75764 18.9802 5.86305 19.0214C5.88092 19.0286 5.90057 19.034 5.91844 19.0412C5.95774 19.0555 5.99705 19.0698 6.03636 19.0842C6.17214 19.1343 6.30971 19.1809 6.45085 19.2257C6.49909 19.2401 6.54554 19.2562 6.59557 19.2705C6.62773 19.2795 6.65989 19.292 6.69205 19.301C6.82962 19.3404 6.96898 19.3763 7.10833 19.4085C7.1387 19.4157 7.16729 19.4211 7.19766 19.4282C7.26556 19.4444 7.33345 19.4605 7.40313 19.4748C7.51926 19.4999 7.63717 19.5214 7.75688 19.5411C7.7676 19.5429 7.7801 19.5447 7.79082 19.5465C7.8873 19.5627 7.98199 19.5788 8.07847 19.5913C8.13207 19.5985 8.18567 19.6021 8.23748 19.6092C8.35004 19.6236 8.46438 19.6361 8.57873 19.6469C8.63232 19.6523 8.68592 19.6612 8.74131 19.6648C8.79133 19.6684 8.84315 19.6702 8.89317 19.6738C9.00752 19.6809 9.12365 19.6881 9.23799 19.6917C9.29516 19.6935 9.35412 19.6989 9.41129 19.7006C9.49705 19.7024 9.58102 19.7024 9.66678 19.7024C9.68643 19.7024 9.7043 19.7024 9.72395 19.7024C9.85259 19.7024 9.98123 19.7006 10.1099 19.6953C10.1724 19.6935 10.2349 19.6881 10.2975 19.6863C10.3314 19.6863 10.3654 19.6827 10.3993 19.6809C10.5547 19.672 10.7102 19.6612 10.8638 19.6451C10.8942 19.6415 10.9228 19.6379 10.9514 19.6343C10.9978 19.629 11.0443 19.6236 11.0889 19.6182C11.2479 19.5985 11.4052 19.577 11.5606 19.5519C11.5999 19.5447 11.6374 19.5394 11.6767 19.534C11.6946 19.5304 11.7143 19.5286 11.7321 19.525C11.8965 19.4946 12.0573 19.4605 12.2181 19.4229C12.2449 19.4157 12.2735 19.4103 12.3003 19.4032C12.4789 19.3601 12.654 19.3136 12.8255 19.2616C12.8523 19.2526 12.8809 19.2455 12.9077 19.2365C12.9452 19.2239 12.9828 19.215 13.0203 19.2024C13.1614 19.1576 13.299 19.1075 13.4348 19.0555C13.4544 19.0483 13.4741 19.0394 13.492 19.0322C13.6402 18.9731 13.7867 18.9121 13.9279 18.8458C13.969 18.8261 14.0119 18.8064 14.053 18.7867C14.2102 18.7096 14.3656 18.6308 14.5121 18.5447C14.5407 18.5286 14.5675 18.5125 14.5961 18.4946C14.6211 18.4784 14.6461 18.4623 14.6711 18.448C14.7122 18.4211 14.7551 18.396 14.7944 18.3691C14.8319 18.344 14.8677 18.3207 14.9034 18.2957C14.9427 18.2688 14.9802 18.2419 15.0177 18.215C15.0517 18.1899 15.0856 18.1648 15.1196 18.1379C15.1553 18.1111 15.191 18.0824 15.2268 18.0537C15.2589 18.0286 15.2893 18.0017 15.3215 17.9749C15.3554 17.9462 15.3876 17.9175 15.4197 17.8888C15.4322 17.8763 15.4465 17.8656 15.4608 17.853C15.4733 17.8423 15.4823 17.8297 15.4948 17.819C15.5484 17.7688 15.6002 17.7168 15.6484 17.6648C15.6645 17.6469 15.6824 17.6308 15.6984 17.6129C15.761 17.5448 15.8199 17.4767 15.8753 17.4068C15.8771 17.4032 15.8807 17.4014 15.8825 17.3978C15.895 17.3817 15.9057 17.3656 15.9182 17.3494C15.9521 17.3064 15.9843 17.2616 16.0147 17.2168C16.0307 17.1917 16.0468 17.1684 16.0629 17.1433C16.0879 17.1039 16.1147 17.0627 16.1379 17.0215C16.1451 17.0107 16.1522 17 16.1576 16.9892C16.1665 16.9731 16.1737 16.9552 16.1826 16.939C16.2005 16.905 16.2183 16.8709 16.2362 16.8369C16.2505 16.8082 16.263 16.7796 16.2755 16.7509C16.2916 16.7168 16.3059 16.681 16.3184 16.6469C16.3238 16.6308 16.3327 16.6165 16.338 16.6003C16.3434 16.586 16.347 16.5717 16.3523 16.5591C16.3648 16.5269 16.3756 16.4928 16.3845 16.4606C16.3934 16.4301 16.4024 16.4014 16.4113 16.371C16.4202 16.3369 16.4274 16.3046 16.4363 16.2706C16.4399 16.2527 16.4452 16.2348 16.4488 16.2168C16.4506 16.2043 16.4524 16.1917 16.4542 16.181C16.4613 16.1469 16.4649 16.1129 16.4703 16.0788C16.4738 16.0484 16.4792 16.0197 16.481 15.9892C16.4845 15.9552 16.4863 15.9211 16.4881 15.8871C16.4881 15.8674 16.4917 15.8477 16.4917 15.8262C16.4917 15.8065 16.4917 15.7867 16.4917 15.767L16.4953 14.3423C16.4953 14.3817 16.4917 14.423 16.4899 14.4624V14.4642Z" fill="#0F7C52"/>
<path d="M16.4966 14.3424C16.5026 12.156 13.4575 10.3751 9.69515 10.3645C5.93277 10.3539 2.87786 12.1177 2.8718 14.304C2.86575 16.4903 5.91085 18.2713 9.67322 18.2819C13.4356 18.2925 16.4905 16.5287 16.4966 14.3424Z" fill="#1ABC8A"/>
<path d="M17.7321 12.4505C17.7303 12.4846 17.7285 12.5186 17.7249 12.5527C17.7214 12.5831 17.7178 12.6118 17.7142 12.6423C17.7089 12.6763 17.7053 12.7104 17.6982 12.7444C17.6928 12.7749 17.6856 12.8053 17.6785 12.834C17.6714 12.8681 17.6624 12.9003 17.6535 12.9344C17.6446 12.9648 17.6356 12.9953 17.6267 13.024C17.616 13.0562 17.6052 13.0903 17.5945 13.1225C17.5838 13.1512 17.5731 13.1817 17.5606 13.2104C17.5463 13.2444 17.532 13.2802 17.5177 13.3143C17.5052 13.343 17.4909 13.3716 17.4784 13.4003C17.4623 13.4344 17.4444 13.4684 17.4248 13.5025C17.4105 13.5293 17.3944 13.558 17.3783 13.5849C17.3551 13.6261 17.3301 13.6655 17.3033 13.7068C17.2872 13.7318 17.2729 13.7551 17.2551 13.7802C17.2247 13.825 17.1925 13.8698 17.1586 13.9128C17.1443 13.9326 17.1318 13.9505 17.1157 13.9702C17.0603 14.0401 17.0014 14.1082 16.9388 14.1763C16.9228 14.1942 16.9049 14.2103 16.8888 14.2283C16.8388 14.2802 16.7888 14.3322 16.7352 14.3824C16.7101 14.4057 16.6869 14.429 16.6601 14.4523C16.628 14.4809 16.5958 14.5096 16.5619 14.5383C16.5315 14.5652 16.4993 14.5903 16.4672 14.6171C16.4332 14.6458 16.3975 14.6727 16.36 14.7014C16.326 14.7265 16.2939 14.7533 16.2581 14.7784C16.2206 14.8053 16.1813 14.8322 16.1438 14.8591C16.1081 14.8842 16.0723 14.9092 16.0348 14.9325C15.9937 14.9594 15.9526 14.9845 15.9115 15.0114C15.8597 15.0437 15.8079 15.0759 15.7543 15.1082C15.606 15.1942 15.4524 15.273 15.2951 15.3501C15.254 15.3698 15.2112 15.3895 15.1701 15.4092C15.0271 15.4755 14.8824 15.5383 14.7341 15.5956C14.7145 15.6028 14.6966 15.6117 14.677 15.6189C14.5054 15.6852 14.3286 15.7444 14.1499 15.7999C14.1231 15.8089 14.0945 15.816 14.0677 15.825C13.8944 15.877 13.7193 15.9236 13.5425 15.9666C13.5157 15.9737 13.4871 15.9791 13.4603 15.9863C13.2816 16.0275 13.1012 16.0651 12.9189 16.0974C12.8814 16.1046 12.8421 16.1099 12.8028 16.1153C12.6474 16.1404 12.4901 16.1637 12.3311 16.1816C12.2847 16.187 12.2382 16.1924 12.1936 16.1978C12.0095 16.2175 11.8255 16.2336 11.6397 16.2443C11.6058 16.2461 11.5718 16.2479 11.5379 16.2497C11.3467 16.2587 11.1555 16.2659 10.9644 16.2659C10.9447 16.2659 10.9268 16.2659 10.9072 16.2659C10.7643 16.2659 10.6213 16.2605 10.4784 16.2533C10.3623 16.2479 10.2479 16.2426 10.1336 16.2354C10.0282 16.2282 9.92275 16.2193 9.81913 16.2085C9.70478 16.1978 9.59222 16.1852 9.47967 16.1709C9.32959 16.1512 9.17951 16.1332 9.03122 16.1081C9.0205 16.1064 9.00978 16.1046 8.99906 16.1028C8.80968 16.0705 8.62387 16.0311 8.43985 15.9899C8.41126 15.9827 8.38089 15.9773 8.35231 15.9702C8.179 15.9289 8.00749 15.8823 7.83954 15.8322C7.79131 15.8178 7.74307 15.8017 7.69661 15.7874C7.55726 15.7426 7.4179 15.696 7.28212 15.6458C7.24281 15.6315 7.20172 15.6171 7.1642 15.6028C7.04092 15.5544 6.92122 15.5024 6.8033 15.4487C6.74434 15.4218 6.6836 15.3985 6.62642 15.3716C6.45491 15.2892 6.28697 15.2031 6.12617 15.11C4.78263 14.3322 4.11264 13.3107 4.11443 12.291L4.11085 13.7157C4.10728 14.7354 4.77905 15.7569 6.1226 16.5347C6.28339 16.6279 6.45134 16.7139 6.62285 16.7963C6.68002 16.8232 6.74077 16.8465 6.79794 16.8734C6.89978 16.9182 6.99983 16.9666 7.10524 17.0078C7.12311 17.0149 7.14276 17.0203 7.16063 17.0275C7.19993 17.0418 7.23924 17.0562 7.27854 17.0705C7.41433 17.1207 7.5519 17.1673 7.69304 17.2121C7.74128 17.2264 7.78773 17.2425 7.83776 17.2569C7.86992 17.2658 7.90208 17.2784 7.93424 17.2873C8.07181 17.3268 8.21116 17.3626 8.35052 17.3949C8.38089 17.402 8.40948 17.4074 8.43985 17.4146C8.50774 17.4307 8.57563 17.4468 8.64531 17.4612C8.76144 17.4863 8.87936 17.5078 8.99906 17.5275C9.00978 17.5293 9.02229 17.5311 9.03301 17.5329C9.12949 17.549 9.22418 17.5651 9.32066 17.5777C9.37426 17.5848 9.42786 17.5884 9.47967 17.5956C9.59222 17.6099 9.70657 17.6225 9.82091 17.6332C9.87451 17.6386 9.92811 17.6475 9.9835 17.6511C10.0335 17.6547 10.0853 17.6565 10.1354 17.6601C10.2497 17.6673 10.3658 17.6744 10.4802 17.678C10.5374 17.6798 10.5963 17.6852 10.6535 17.687C10.7392 17.6888 10.8232 17.6888 10.909 17.6888C10.9286 17.6888 10.9465 17.6888 10.9661 17.6888C11.0948 17.6888 11.2234 17.687 11.3521 17.6816C11.4146 17.6798 11.4771 17.6744 11.5396 17.6726C11.5736 17.6726 11.6075 17.669 11.6415 17.6673C11.7969 17.6583 11.9524 17.6475 12.106 17.6314C12.1364 17.6278 12.165 17.6242 12.1936 17.6207C12.24 17.6153 12.2865 17.6099 12.3311 17.6045C12.4901 17.5848 12.6474 17.5633 12.8028 17.5382C12.8421 17.5311 12.8796 17.5257 12.9189 17.5203C12.9368 17.5167 12.9564 17.5149 12.9743 17.5113C13.1387 17.4809 13.2995 17.4468 13.4603 17.4092C13.4871 17.402 13.5157 17.3967 13.5425 17.3895C13.7211 17.3465 13.8962 17.2999 14.0677 17.2479C14.0945 17.239 14.1231 17.2318 14.1499 17.2228C14.1874 17.2103 14.2249 17.2013 14.2625 17.1888C14.4036 17.144 14.5412 17.0938 14.677 17.0418C14.6966 17.0347 14.7163 17.0257 14.7341 17.0185C14.8824 16.9594 15.0289 16.8985 15.1701 16.8321C15.2112 16.8124 15.254 16.7927 15.2951 16.773C15.4524 16.696 15.6078 16.6171 15.7543 16.5311C15.7829 16.515 15.8097 16.4988 15.8383 16.4809C15.8633 16.4648 15.8883 16.4486 15.9133 16.4343C15.9544 16.4074 15.9973 16.3823 16.0366 16.3555C16.0741 16.3304 16.1098 16.3071 16.1456 16.282C16.1849 16.2551 16.2224 16.2282 16.2599 16.2013C16.2939 16.1762 16.3278 16.1512 16.3618 16.1243C16.3975 16.0974 16.4332 16.0687 16.469 16.04C16.5011 16.015 16.5315 15.9881 16.5636 15.9612C16.5976 15.9325 16.6297 15.9039 16.6619 15.8752C16.6744 15.8626 16.6887 15.8519 16.703 15.8393C16.7155 15.8286 16.7244 15.816 16.7369 15.8053C16.7905 15.7551 16.8424 15.7031 16.8906 15.6512C16.9067 15.6332 16.9245 15.6171 16.9406 15.5992C17.0032 15.5311 17.0621 15.463 17.1175 15.3931C17.1193 15.3895 17.1229 15.3877 17.1246 15.3841C17.1371 15.368 17.1479 15.3519 17.1604 15.3358C17.1943 15.2928 17.2265 15.2479 17.2569 15.2031C17.2729 15.1781 17.289 15.1548 17.3051 15.1297C17.3301 15.0902 17.3569 15.049 17.3801 15.0078C17.3873 14.9971 17.3944 14.9863 17.3998 14.9756C17.4087 14.9594 17.4159 14.9415 17.4248 14.9254C17.4427 14.8913 17.4605 14.8573 17.4784 14.8232C17.4927 14.7946 17.5052 14.7659 17.5177 14.7372C17.5338 14.7032 17.5481 14.6673 17.5606 14.6333C17.5659 14.6171 17.5749 14.6028 17.5802 14.5867C17.5856 14.5723 17.5892 14.558 17.5945 14.5455C17.607 14.5132 17.6178 14.4791 17.6267 14.4469C17.6356 14.4164 17.6446 14.3878 17.6535 14.3573C17.6624 14.3232 17.6696 14.291 17.6785 14.2569C17.6821 14.239 17.6874 14.2211 17.691 14.2032C17.6928 14.1906 17.6946 14.1781 17.6964 14.1673C17.7035 14.1333 17.7071 14.0992 17.7124 14.0652C17.716 14.0347 17.7214 14.006 17.7232 13.9756C17.7267 13.9415 17.7285 13.9075 17.7303 13.8734C17.7303 13.8537 17.7339 13.834 17.7339 13.8125C17.7339 13.7928 17.7339 13.7731 17.7339 13.7534L17.7375 12.3287C17.7375 12.3681 17.7339 12.4093 17.7321 12.4487V12.4505Z" fill="#0F7C52"/>
<path d="M15.7313 9.5121C18.4005 11.0569 18.4148 13.564 15.7635 15.1088C13.1121 16.6535 8.79742 16.6535 6.12999 15.1088C3.46077 13.564 3.44647 11.0569 6.09783 9.5121C8.74918 7.96732 13.0639 7.96732 15.7313 9.5121ZM6.9697 14.6195C9.16725 15.8919 12.7316 15.8919 14.9166 14.6195C17.1017 13.3471 17.0892 11.2755 14.8898 10.0031C12.6923 8.73075 9.12795 8.73075 6.9429 10.0031C4.75786 11.2755 4.77036 13.3471 6.9697 14.6195Z" fill="#1ABC8A"/>
<path d="M14.8903 10.0012C17.0879 11.2735 17.1004 13.3452 14.9171 14.6176C12.7339 15.8899 9.16954 15.8899 6.9702 14.6176C4.77265 13.3452 4.76014 11.2735 6.9434 10.0012C9.12666 8.72878 12.691 8.72878 14.8903 10.0012ZM7.07383 14.5584C9.2142 15.7985 12.6856 15.7985 14.8117 14.5584C16.9378 13.3183 16.9289 11.3022 14.7867 10.0621C12.6463 8.82197 9.17311 8.82197 7.04703 10.0621C4.92094 11.3022 4.93345 13.3183 7.07383 14.5584Z" fill="#0F7C52"/>
<path d="M13.0744 12.9527L13.4121 12.7556C13.4425 12.7377 13.4585 12.7162 13.4568 12.6929C13.455 12.6696 13.4389 12.6481 13.4067 12.6284L12.8118 12.2843C12.9547 12.1552 13.0405 12.019 13.0655 11.8775L13.8766 12.347C13.9088 12.3649 13.9463 12.3757 13.9874 12.3757C14.0285 12.3757 14.0642 12.3667 14.0946 12.3488L14.4323 12.1517C14.4626 12.1337 14.4787 12.1122 14.4769 12.0889C14.4769 12.0656 14.4591 12.0441 14.4269 12.0244L11.5308 10.347C11.4986 10.3291 11.4611 10.3184 11.42 10.3184C11.3807 10.3184 11.3432 10.3273 11.3128 10.3452L10.8733 10.6015C10.8447 10.6176 10.8304 10.6391 10.8322 10.6642C10.834 10.6893 10.8483 10.7108 10.8787 10.727L11.3843 11.0191C11.8738 11.3022 12.0596 11.5549 11.9435 11.7771L10.5053 10.9456C10.4731 10.9277 10.4356 10.9169 10.3945 10.9169C10.3552 10.9169 10.3177 10.9259 10.2873 10.9438L9.94961 11.1409C9.91924 11.1588 9.90494 11.1804 9.90494 11.2036C9.90494 11.2269 9.92281 11.2484 9.95497 11.2682L11.4414 12.1284C11.2092 12.2036 10.9537 12.2162 10.6714 12.1624C10.3909 12.1104 10.0961 11.9957 9.7906 11.8183L9.39933 11.5925C9.36896 11.5746 9.33322 11.5656 9.29034 11.5656C9.24747 11.5656 9.20995 11.5728 9.18315 11.5889L8.7615 11.8345C8.7347 11.8506 8.72041 11.8703 8.72041 11.8936C8.71684 12.4133 8.66324 13.1158 8.56497 13.9993C8.55961 14.0262 8.57569 14.0513 8.61143 14.0728L9.29034 14.4652C9.33858 14.4939 9.39218 14.5011 9.45114 14.4885C9.51367 14.4796 9.54762 14.4545 9.55119 14.4151C9.66196 13.562 9.72092 12.9097 9.72628 12.4563C10.164 12.6588 10.6053 12.7735 11.0502 12.8004C11.4933 12.8273 11.9024 12.7645 12.274 12.6104L12.8582 12.9491C12.8904 12.9671 12.9279 12.9778 12.969 12.9778C13.0101 12.9778 13.0458 12.9688 13.0762 12.9509" fill="#EEFCF7"/>
<path d="M14.7886 10.0619C12.6482 8.82181 9.17505 8.82181 7.04896 10.0619C4.92288 11.302 4.93538 13.3181 7.07576 14.5583C9.21614 15.7984 12.6876 15.7984 14.8136 14.5583C16.9397 13.3181 16.9308 11.302 14.7886 10.0619ZM14.4384 12.1551L14.1008 12.3522C14.0704 12.3701 14.0347 12.3791 13.9936 12.3791C13.9525 12.3791 13.9168 12.3683 13.8828 12.3504L13.0717 11.8809C13.0467 12.0225 12.9609 12.1587 12.818 12.2877L13.4129 12.6318C13.4451 12.6497 13.4612 12.6712 13.463 12.6963C13.463 12.7196 13.4487 12.7411 13.4183 12.759L13.0806 12.9561C13.0502 12.9741 13.0145 12.983 12.9734 12.983C12.9323 12.983 12.8966 12.9723 12.8626 12.9543L12.2784 12.6156C11.9086 12.7698 11.4994 12.8343 11.0546 12.8056C10.6097 12.7787 10.1684 12.664 9.73069 12.4615C9.72533 12.9149 9.66637 13.5672 9.5556 14.4203C9.55202 14.4597 9.51987 14.4848 9.45555 14.4937C9.39659 14.5063 9.34299 14.4991 9.29475 14.4704L8.61583 14.078C8.57831 14.0565 8.56402 14.0314 8.56938 14.0045C8.66943 13.121 8.72124 12.4203 8.72482 11.8988C8.72482 11.8755 8.73732 11.8558 8.76591 11.8397L9.18755 11.5942C9.21435 11.578 9.25187 11.5691 9.29475 11.5709C9.33763 11.5709 9.37336 11.5798 9.40373 11.5977L9.79501 11.8235C10.1005 12.001 10.3953 12.1157 10.6758 12.1676C10.9581 12.2196 11.2136 12.2088 11.4458 12.1336L9.95938 11.2734C9.92722 11.2555 9.91114 11.2339 9.90935 11.2089C9.90935 11.1856 9.92364 11.1641 9.95402 11.1461L10.2917 10.949C10.3221 10.9311 10.3596 10.9221 10.3989 10.9221C10.44 10.9221 10.4757 10.9329 10.5097 10.9508L11.9479 11.7823C12.064 11.5601 11.8782 11.3074 11.3887 11.0243L10.8831 10.7322C10.8527 10.7142 10.8366 10.6945 10.8366 10.6694C10.8366 10.6444 10.8491 10.6228 10.8777 10.6067L11.3172 10.3505C11.3476 10.3325 11.3851 10.3236 11.4244 10.3236C11.4655 10.3236 11.5012 10.3343 11.5352 10.3522L14.4313 12.0296C14.4635 12.0476 14.4795 12.0691 14.4813 12.0941C14.4813 12.1174 14.467 12.1389 14.4367 12.1569L14.4384 12.1551Z" fill="#19BC8A"/>
<path d="M30.7485 24.8113C30.7485 24.8113 30.7485 24.8166 30.7467 24.8184C30.7396 24.8399 30.7288 24.8596 30.7145 24.8812C30.7128 24.8847 30.7092 24.8883 30.7074 24.8919C30.6931 24.9116 30.6752 24.9313 30.6556 24.9493C30.6413 24.9618 30.6252 24.9725 30.6091 24.9833C30.5948 24.9923 30.5841 25.003 30.568 25.012L22.6801 29.6105C22.6408 29.6338 22.5961 29.6517 22.5497 29.6678C22.5336 29.6732 22.5157 29.6786 22.4996 29.6839C22.4782 29.6893 22.4568 29.6965 22.4335 29.7001C22.4067 29.7054 22.3799 29.7108 22.3531 29.7144C22.346 29.7144 22.3406 29.7162 22.3335 29.7162C22.296 29.7198 22.2584 29.7216 22.2209 29.7216C22.2156 29.7216 22.2084 29.7216 22.2031 29.7216C22.1655 29.7216 22.1298 29.7198 22.0923 29.7162C22.0869 29.7162 22.0816 29.7162 22.0762 29.7144C22.0405 29.7108 22.0047 29.7036 21.969 29.6965C21.9619 29.6965 21.9565 29.6929 21.9494 29.6911C21.9172 29.6839 21.8868 29.6732 21.8564 29.6624C21.8511 29.6606 21.8457 29.6588 21.8404 29.657C21.8046 29.6427 21.7707 29.6266 21.7385 29.6087L18.9246 27.9797C18.8263 27.9223 18.7638 27.8524 18.7406 27.7789C18.7316 27.7539 18.7281 27.7288 18.7281 27.7055V28.4366C18.7263 28.537 18.7906 28.6356 18.9228 28.7126L21.7367 30.3416C21.7671 30.3595 21.7993 30.3739 21.8332 30.3882C21.8332 30.3882 21.8368 30.3882 21.8386 30.3882C21.8439 30.39 21.8493 30.3918 21.8547 30.3936C21.8743 30.4008 21.894 30.4079 21.9136 30.4133C21.9243 30.4169 21.9351 30.4187 21.9458 30.4223C21.9529 30.4223 21.9583 30.4258 21.9654 30.4276C21.9708 30.4276 21.9779 30.4312 21.9833 30.4312C22.0047 30.4366 22.0262 30.4402 22.0494 30.442C22.0565 30.442 22.0655 30.442 22.0726 30.4438C22.078 30.4438 22.0833 30.4438 22.0887 30.4456C22.0976 30.4456 22.1048 30.4474 22.1137 30.4491C22.1352 30.4509 22.1566 30.4527 22.1798 30.4527C22.187 30.4527 22.1941 30.4527 22.1995 30.4527C22.2048 30.4527 22.2102 30.4527 22.2173 30.4527C22.2281 30.4527 22.237 30.4527 22.2477 30.4527C22.2727 30.4527 22.2977 30.4509 22.321 30.4474C22.3245 30.4474 22.3263 30.4474 22.3299 30.4474C22.337 30.4474 22.3424 30.4456 22.3496 30.4456C22.3692 30.4438 22.3889 30.4402 22.4067 30.4384C22.4157 30.4384 22.4228 30.4348 22.43 30.433C22.4532 30.4276 22.4746 30.4223 22.4961 30.4169C22.5086 30.4133 22.5193 30.4115 22.5318 30.4079C22.5372 30.4079 22.5407 30.4026 22.5461 30.4008C22.5925 30.3846 22.6372 30.3667 22.6765 30.3434L30.5645 25.7449C30.5645 25.7449 30.5698 25.7414 30.5734 25.7396C30.5859 25.7324 30.5948 25.7234 30.6073 25.7145C30.6234 25.7037 30.6395 25.693 30.6538 25.6804C30.6538 25.6804 30.6574 25.6786 30.6574 25.6768C30.6735 25.6625 30.686 25.6482 30.6985 25.632C30.702 25.6285 30.7038 25.6249 30.7056 25.6213C30.7074 25.6177 30.711 25.6141 30.7128 25.6105C30.7163 25.6052 30.7217 25.598 30.7253 25.5926C30.7324 25.5801 30.7378 25.5675 30.7431 25.555C30.7431 25.5532 30.7431 25.5514 30.7431 25.5496C30.7431 25.5478 30.7431 25.5442 30.7449 25.5424C30.7467 25.5335 30.7503 25.5263 30.7521 25.5173C30.7538 25.5048 30.7556 25.4923 30.7556 25.4797C30.7556 25.4779 30.7556 25.4761 30.7556 25.4743V24.7432C30.7574 24.7665 30.7538 24.7898 30.7467 24.8113H30.7485Z" fill="#0F7C52"/>
<defs>
<linearGradient id="paint0_linear_334_3666" x1="37.9345" y1="10.652" x2="42.997" y2="4.34283" gradientUnits="userSpaceOnUse">
<stop stop-color="#6775C6"/>
<stop offset="1" stop-color="#4052B8"/>
</linearGradient>
<linearGradient id="paint1_linear_334_3666" x1="22.1863" y1="26.1521" x2="27.063" y2="7.23135" gradientUnits="userSpaceOnUse">
<stop stop-color="#6775C6"/>
<stop offset="1" stop-color="#4052B8"/>
</linearGradient>
</defs>
</svg>
