
<svg width="24" height="24" viewBox="0 0 24 24" fill="none" xmlns="http://www.w3.org/2000/svg">
<circle cx="12" cy="12" r="12" fill="#3F4599"/>
<path fill-rule="evenodd" clip-rule="evenodd" d="M13.9282 12.8343L13.9278 12.8365L16.9063 7.0489L16.2206 6.35861L10.4014 9.30027L10.4019 9.3002L16.2194 6.35938L16.9051 7.04966L13.9282 12.8343ZM13.7978 13.7314L13.7863 13.7332L13.7847 13.7435L6.98646 17.1807L6 16.1873L9.46777 9.44855L9.47899 9.44677L9.48061 9.43646L16.2786 6L17.2654 6.99339L13.7978 13.7314ZM6.35906 16.1318L9.33774 10.3435L9.33741 10.3456L6.35955 16.1323L6.35906 16.1318ZM14.6001 8.65324L11.5219 10.2093L13.03 11.704L14.6001 8.65324ZM11.7435 12.9707L10.2357 11.4761L8.66574 14.5268L11.7435 12.9707ZM11.9635 13.1887L7.99094 15.1973L7.99024 15.1987L11.9641 13.1894L11.9635 13.1887Z" fill="white"/>
</svg>
