
<svg width="24" height="24" viewBox="0 0 24 24" fill="none" xmlns="http://www.w3.org/2000/svg">
<path fill-rule="evenodd" clip-rule="evenodd" d="M0 12C0 18.619 5.3848 24 11.9999 24C18.6147 24 24 18.619 24 12C24 5.38096 18.6147 0 11.9999 0C5.3848 0 0 5.38097 0 12ZM1.49981 12C1.49981 6.21959 6.20821 1.51245 11.9999 1.51245C17.7915 1.51245 22.5002 6.21935 22.5002 12C22.5002 17.7807 17.7915 22.4876 11.9999 22.4876C6.20821 22.4876 1.49981 17.7804 1.49981 12ZM14.2852 23.5322C19.6779 22.4657 23.7571 17.7002 23.7571 12C23.7571 5.51819 18.4825 0.244898 11.9999 0.244898C11.2242 0.244898 10.4659 0.320387 9.73177 0.464404C10.4656 0.320472 11.2238 0.245028 11.9992 0.245028C18.4819 0.245028 23.7565 5.51832 23.7565 12.0001C23.7565 17.7001 19.6776 22.4655 14.2852 23.5322ZM9.9274 1.46797C4.99199 2.43547 1.25696 6.79024 1.25696 12C1.25696 17.9178 6.07623 22.7325 11.9999 22.7325C12.7142 22.7325 13.4124 22.6624 14.0881 22.5289C13.4122 22.6625 12.7137 22.7326 11.9992 22.7326C6.07557 22.7326 1.25629 17.9179 1.25629 12.0001C1.25629 6.79014 4.99166 2.43521 9.9274 1.46797ZM10.5376 11.3944L10.5378 11.3941L10.5373 11.3936L10.5371 11.394L10.5376 11.3944ZM13.4624 12.6049L13.4622 12.6052L13.4634 12.6064L13.4636 12.6061L13.4624 12.6049ZM14.1355 14.1423L14.147 14.1405L17.5856 7.40248L16.6071 6.40909L9.86586 9.84555L9.86409 9.85691L9.85285 9.85871L6.41406 16.5974L7.39228 17.5909L14.1337 14.1536L14.1355 14.1423ZM13.2239 14.2882L13.2226 14.2884L7.44954 17.232L7.44982 17.2322L13.2239 14.2882ZM10.7761 9.71085L16.5495 6.7677L16.5506 6.76875L10.7806 9.71013L10.7761 9.71085ZM11.8892 10.6189L14.9426 9.06233L13.3852 12.114L11.8892 10.6189ZM13.6022 12.3309L15.6117 8.39354L15.6142 8.39227L13.6034 12.3321L13.6022 12.3309ZM12.1104 13.3804L9.05753 14.937L10.6148 11.8854L12.1104 13.3804ZM10.3977 11.6684L8.38766 15.6074L8.38677 15.6079L10.3973 11.668L10.3977 11.6684Z" fill="#7E838D"/>
</svg>
