<svg xmlns="http://www.w3.org/2000/svg" width="20" height="22" viewBox="0 0 20 22" fill="none">
<path fill-rule="evenodd" clip-rule="evenodd" d="M9.68 1.69231C8.91624 1.69231 8.29714 2.32369 8.29714 3.10256C8.29714 3.88144 8.91624 4.51282 9.68 4.51282C10.4438 4.51282 11.0629 3.88144 11.0629 3.10256C11.0629 2.32369 10.4438 1.69231 9.68 1.69231ZM6.75223 2.25641C7.11339 0.954181 8.2874 0 9.68 0C11.0726 0 12.2466 0.954181 12.6078 2.25641H18.5303C18.9885 2.25641 19.36 2.63525 19.36 3.10256C19.36 3.56988 18.9885 3.94872 18.5303 3.94872H12.6078C12.2466 5.25095 11.0726 6.20513 9.68 6.20513C8.2874 6.20513 7.11339 5.25095 6.75223 3.94872H0.829714C0.371476 3.94872 0 3.56988 0 3.10256C0 2.63525 0.371476 2.25641 0.829714 2.25641H6.75223ZM13.3899 10.1538C13.7511 8.85159 14.9251 7.89744 16.3177 7.89744C17.998 7.89744 19.36 9.28647 19.36 11C19.36 12.7135 17.998 14.1026 16.3177 14.1026C14.9251 14.1026 13.7511 13.1484 13.3899 11.8462H0.829714C0.371476 11.8462 0 11.4673 0 11C0 10.5327 0.371476 10.1538 0.829714 10.1538H13.3899ZM16.3177 9.58974C15.5539 9.58974 14.9349 10.2211 14.9349 11C14.9349 11.7789 15.5539 12.4103 16.3177 12.4103C17.0815 12.4103 17.7006 11.7789 17.7006 11C17.7006 10.2211 17.0815 9.58974 16.3177 9.58974ZM0 18.8974C0 17.1839 1.36209 15.7949 3.04229 15.7949C4.43485 15.7949 5.6089 16.749 5.97006 18.0513H18.5303C18.9885 18.0513 19.36 18.4301 19.36 18.8974C19.36 19.3648 18.9885 19.7436 18.5303 19.7436H5.97006C5.6089 21.0458 4.43485 22 3.04229 22C1.36209 22 0 20.611 0 18.8974ZM3.04229 17.4872C2.27855 17.4872 1.65943 18.1185 1.65943 18.8974C1.65943 19.6763 2.27855 20.3077 3.04229 20.3077C3.80603 20.3077 4.42514 19.6763 4.42514 18.8974C4.42514 18.1185 3.80603 17.4872 3.04229 17.4872Z" fill="#5F6570"/>
</svg>