
<svg width="36" height="39" viewBox="0 0 36 39" fill="none" xmlns="http://www.w3.org/2000/svg">
<path d="M30.6715 10.4781L35.7884 5.36117L32.5758 4.75755L31.9721 1.54492L26.8684 6.6487C24.0988 4.63559 20.6916 3.44764 17.0058 3.44764C7.73075 3.44764 0.210938 10.9675 0.210938 20.2426C0.210938 20.2456 0.210938 20.2487 0.210938 20.2518C0.210938 20.2549 0.210938 20.2572 0.210938 20.2603C0.210938 20.2634 0.210938 20.2665 0.210938 20.2696C0.210938 20.2727 0.210938 20.2757 0.210938 20.2788C0.210938 20.2819 0.210938 20.285 0.210938 20.2881C0.210938 20.2912 0.210938 20.2943 0.210938 20.2974C0.210938 20.3004 0.210938 20.3035 0.210938 20.3066C0.210938 20.3097 0.210938 20.3128 0.210938 20.3159C0.210938 20.319 0.210938 20.3221 0.210938 20.3251C0.210938 20.3282 0.210938 20.3313 0.210938 20.3344C0.210938 20.3375 0.210938 20.3406 0.210938 20.3437C0.210938 20.3468 0.210938 20.3498 0.210938 20.3529C0.210938 20.356 0.210938 20.3591 0.210938 20.3622C0.210938 20.3653 0.210938 20.3684 0.210938 20.3715C0.210938 20.3745 0.210938 20.3776 0.210938 20.3807C0.210938 20.3838 0.210938 20.3869 0.210938 20.39C0.210938 20.3931 0.210938 20.3962 0.210938 20.3992C0.210938 20.4023 0.210938 20.4054 0.210938 20.4085C0.210938 20.4116 0.210938 20.4147 0.210938 20.4178C0.210938 20.4209 0.210938 20.424 0.210938 20.427C0.210938 20.4301 0.210938 20.4332 0.210938 20.4363C0.210938 20.4394 0.210938 20.4425 0.210938 20.4456C0.210938 20.4487 0.210938 20.4517 0.210938 20.4548C0.210938 20.4579 0.210938 20.461 0.210938 20.4641C0.210938 20.4672 0.210938 20.4703 0.210938 20.4733C0.210938 20.4764 0.210938 20.4795 0.210938 20.4826C0.210938 20.4857 0.210938 20.4888 0.210938 20.4919C0.210938 20.495 0.210938 20.4981 0.210938 20.5011C0.210938 20.5042 0.210938 20.5073 0.210938 20.5104C0.210938 20.5135 0.210938 20.5166 0.210938 20.5197C0.210938 20.5228 0.210938 20.5258 0.210938 20.5289C0.210938 20.532 0.210938 20.5351 0.210938 20.5382C0.210938 20.5413 0.210938 20.5444 0.210938 20.5475C0.210938 20.5505 0.210938 20.5536 0.210938 20.5567C0.210938 20.5598 0.210938 20.5629 0.210938 20.566C0.210938 20.5691 0.210938 20.5722 0.210938 20.5752C0.210938 20.5783 0.210938 20.5814 0.210938 20.5845C0.210938 20.5876 0.210938 20.5907 0.210938 20.5938C0.210938 20.5969 0.210938 20.5999 0.210938 20.603C0.210938 20.6061 0.210938 20.6092 0.210938 20.6123C0.210938 20.6154 0.210938 20.6185 0.210938 20.6216C0.210938 20.6246 0.210938 20.6277 0.210938 20.6308C0.210938 20.6339 0.210938 20.637 0.210938 20.6401C0.210938 20.6432 0.210938 20.6463 0.210938 20.6493C0.210938 20.6524 0.210938 20.6555 0.210938 20.6586C0.210938 20.6617 0.210938 20.6648 0.210938 20.6679C0.210938 20.671 0.210938 20.674 0.210938 20.6771C0.210938 20.6802 0.210938 20.6833 0.210938 20.6864C0.210938 20.6895 0.210938 20.6926 0.210938 20.6957C0.210938 20.6987 0.210938 20.7018 0.210938 20.7049C0.210938 20.708 0.210938 20.7111 0.210938 20.7142C0.210938 20.7173 0.210938 20.7204 0.210938 20.7234C0.210938 20.7265 0.210938 20.7296 0.210938 20.7327C0.210938 20.7358 0.210938 20.7389 0.210938 20.742C0.210938 20.7451 0.210938 20.7481 0.210938 20.7512C0.210938 20.7543 0.210938 20.7574 0.210938 20.7605C0.210938 20.7636 0.210938 20.7667 0.210938 20.7698C0.210938 20.7728 0.210938 20.7759 0.210938 20.779C0.210938 20.7821 0.210938 20.7852 0.210938 20.7883C0.210938 20.7914 0.210938 20.7945 0.210938 20.7975C0.210938 20.8006 0.210938 20.8037 0.210938 20.8068C0.210938 20.8099 0.210938 20.813 0.210938 20.8161C0.210938 20.8192 0.210938 20.8222 0.210938 20.8253C0.210938 20.8284 0.210938 20.8315 0.210938 20.8346C0.210938 20.8377 0.210938 20.8408 0.210938 20.8439C0.210938 20.8469 0.210938 20.85 0.210938 20.8531C0.210938 20.8562 0.210938 20.8593 0.210938 20.8624C0.210938 20.8655 0.210938 20.8686 0.210938 20.8716C0.210938 20.8747 0.210938 20.8778 0.210938 20.8809C0.210938 20.884 0.210938 20.8871 0.210938 20.8902C0.210938 20.8933 0.210938 20.8963 0.210938 20.8994C0.210938 20.9025 0.210938 20.9056 0.210938 20.9087C0.210938 20.9118 0.210938 20.9149 0.210938 20.918C0.210938 20.921 0.210938 20.9241 0.210938 20.9272C0.210938 20.9303 0.210938 20.9334 0.210938 20.9365C0.210938 20.9396 0.210938 20.9427 0.210938 20.9458C0.210938 20.9488 0.210938 20.9519 0.210938 20.955C0.210938 20.9581 0.210938 20.9612 0.210938 20.9643C0.210938 20.9674 0.210938 20.9705 0.210938 20.9735C0.210938 20.9766 0.210938 20.9797 0.210938 20.9828C0.210938 20.9859 0.210938 20.989 0.210938 20.9921C0.210938 20.9952 0.210938 20.9982 0.210938 21.0013C0.210938 21.0044 0.210938 21.0075 0.210938 21.0106C0.210938 21.0137 0.210938 21.0168 0.210938 21.0199C0.210938 21.0229 0.210938 21.026 0.210938 21.0291C0.210938 21.0322 0.210938 21.0353 0.210938 21.0384C0.210938 21.0415 0.210938 21.0446 0.210938 21.0476C0.210938 21.0507 0.210938 21.0538 0.210938 21.0569C0.210938 21.06 0.210938 21.0631 0.210938 21.0662C0.210938 21.0693 0.210938 21.0723 0.210938 21.0754C0.210938 21.0785 0.210938 21.0816 0.210938 21.0847C0.210938 21.0878 0.210938 21.0909 0.210938 21.094C0.210938 21.097 0.210938 21.1001 0.210938 21.1032C0.210938 21.1063 0.210938 21.1094 0.210938 21.1125C0.210938 21.1156 0.210938 21.1187 0.210938 21.1217C0.210938 21.1248 0.210938 21.1279 0.210938 21.131C0.210938 21.1341 0.210938 21.1372 0.210938 21.1403C0.210938 21.1434 0.210938 21.1464 0.210938 21.1495C0.210938 21.1526 0.210938 21.1557 0.210938 21.1588C0.210938 21.1619 0.210938 21.165 0.210938 21.1681C0.210938 21.1711 0.210938 21.1742 0.210938 21.1773C0.210938 21.1804 0.210938 21.1835 0.210938 21.1866C0.210938 21.1897 0.210938 21.1928 0.210938 21.1958C0.210938 21.1989 0.210938 21.202 0.210938 21.2051C0.210938 21.2082 0.210938 21.2113 0.210938 21.2144C0.210938 21.2175 0.210938 21.2205 0.210938 21.2236C0.210938 21.2267 0.210938 21.2298 0.210938 21.2329C0.210938 21.236 0.210938 21.2391 0.210938 21.2422C0.210938 21.2452 0.210938 21.2483 0.210938 21.2514C0.210938 21.2545 0.210938 21.2576 0.210938 21.2607C0.210938 21.2638 0.210938 21.2669 0.210938 21.2699C0.210938 21.273 0.210938 21.2761 0.210938 21.2792C0.210938 21.2823 0.210938 21.2854 0.210938 21.2885C0.210938 21.2916 0.210938 21.2946 0.210938 21.2977C0.210938 21.3008 0.210938 21.3039 0.210938 21.307C0.210938 21.3101 0.210938 21.3132 0.210938 21.3163C0.210938 21.3193 0.210938 21.3224 0.210938 21.3255C0.210938 21.3286 0.210938 21.3317 0.210938 21.3348C0.210938 21.3379 0.210938 21.341 0.210938 21.344C0.210938 21.3471 0.210938 21.3502 0.210938 21.3533C0.210938 21.3564 0.210938 21.3595 0.210938 21.3626C0.210938 21.3657 0.210938 21.3687 0.210938 21.3718C0.210938 21.3749 0.210938 21.378 0.210938 21.3811C0.210938 21.3842 0.210938 21.3873 0.210938 21.3904C0.210938 21.3934 0.210938 21.3965 0.210938 21.3996C0.210938 21.4027 0.210938 21.4058 0.210938 21.4089C0.210938 21.412 0.210938 21.4151 0.210938 21.4182C0.210938 21.4212 0.210938 21.4243 0.210938 21.4274C0.210938 21.4305 0.210938 21.4336 0.210938 21.4367C0.210938 21.4398 0.210938 21.4429 0.210938 21.4459C0.210938 21.449 0.210938 21.4521 0.210938 21.4552C0.210938 21.4583 0.210938 21.4614 0.210938 21.4645C0.210938 21.4676 0.210938 21.4706 0.210938 21.4737C0.210938 21.4768 0.210938 21.4799 0.210938 21.483C0.210938 21.4861 0.210938 21.4892 0.210938 21.4923C0.210938 21.4953 0.210938 21.4984 0.210938 21.5015C0.210938 21.5046 0.210938 21.5077 0.210938 21.5108C0.210938 21.5139 0.210938 21.517 0.210938 21.52C0.210938 21.5231 0.210938 21.5262 0.210938 21.5293C0.210938 21.5324 0.210938 21.5355 0.210938 21.5386C0.210938 21.5417 0.210938 21.5447 0.210938 21.5478C0.210938 21.5509 0.210938 21.554 0.210938 21.5571C0.210938 21.5602 0.210938 21.5633 0.210938 21.5664C0.210938 21.5694 0.210938 21.5725 0.210938 21.5756C0.210938 21.5787 0.210938 21.5818 0.210938 21.5849C0.210938 21.588 0.210938 21.5911 0.210938 21.5941C0.210938 21.5972 0.210938 21.6003 0.210938 21.6034C0.210938 21.6065 0.210938 21.6096 0.210938 21.6127C0.210938 21.6158 0.210938 21.6188 0.210938 21.6219C0.210938 21.625 0.210938 21.6281 0.210938 21.6312C0.210938 21.6343 0.210938 21.6374 0.210938 21.6405C0.210938 21.6435 0.210938 21.6466 0.210938 21.6497C0.210938 21.6528 0.210938 21.6559 0.210938 21.659C0.210938 21.6621 0.210938 21.6652 0.210938 21.6682C0.210938 21.6713 0.210938 21.6744 0.210938 21.6775C0.210938 21.6806 0.210938 21.6837 0.210938 21.6868C0.210938 21.6899 0.210938 21.6929 0.210938 21.696C0.210938 21.6991 0.210938 21.7022 0.210938 21.7053C0.210938 21.7084 0.210938 21.7115 0.210938 21.7146C0.210938 21.7176 0.210938 21.7207 0.210938 21.7238C0.210938 21.7269 0.210938 21.73 0.210938 21.7331C0.210938 21.7362 0.210938 21.7393 0.210938 21.7423C0.210938 21.7454 0.210938 21.7485 0.210938 21.7516C0.210938 21.7547 0.210938 21.7578 0.210938 21.7609C0.210938 21.764 0.210938 21.767 0.210938 21.7701C0.210938 21.7732 0.210938 21.7763 0.210938 21.7794C0.210938 21.7825 0.210938 21.7856 0.210938 21.7887C0.210938 21.7917 0.210938 21.7948 0.210938 21.7979C0.210938 21.801 0.210938 21.8041 0.210938 21.8072C0.210938 21.8103 0.210938 21.8134 0.210938 21.8164C0.210938 21.8195 0.210938 21.8226 0.210938 21.8257C0.210938 21.8288 0.210938 21.8319 0.210938 21.835C0.210938 21.8381 0.210938 21.8411 0.210938 21.8442C0.210938 21.8473 0.210938 21.8504 0.210938 21.8535C0.210938 21.8566 0.210938 21.8597 0.210938 21.8628C0.210938 21.8658 0.210938 21.8689 0.210938 21.872C0.210938 21.8751 0.210938 21.8782 0.210938 21.8813C0.210938 21.8844 0.210938 21.8875 0.210938 21.8906C0.210938 21.8936 0.210938 21.8967 0.210938 21.8998C0.210938 21.9029 0.210938 21.906 0.210938 21.9091C0.210938 21.9122 0.210938 21.9153 0.210938 21.9183C0.210938 21.9214 0.210938 21.9245 0.210938 21.9276C0.210938 21.9307 0.210938 21.9338 0.210938 21.9369C0.210938 21.94 0.210938 21.943 0.210938 21.9461C0.210938 31.2212 7.73075 38.741 17.0058 38.741C20.7735 38.741 24.2501 37.5006 27.0513 35.4072C27.5654 35.0236 28.0548 34.6106 28.521 34.1722C28.9023 33.8125 29.2674 33.435 29.614 33.0414C30.0385 32.5597 30.4353 32.0533 30.8027 31.5254C32.592 28.9542 33.6796 25.8589 33.7907 22.5166C33.7907 22.5081 33.7907 22.4988 33.7915 22.4903C33.7946 22.4046 33.7969 22.3182 33.7984 22.2317C33.7992 22.1785 33.7992 22.1252 33.8 22.0727C33.8 22.031 33.8015 21.9894 33.8015 21.9469C33.8015 21.9446 33.8015 21.9423 33.8015 21.94C33.8015 21.9361 33.8015 21.933 33.8015 21.9291C33.8015 21.9268 33.8015 21.9245 33.8015 21.9222C33.8015 21.9183 33.8015 21.9153 33.8015 21.9114C33.8015 21.9091 33.8015 21.9068 33.8015 21.9044C33.8015 21.9006 33.8015 21.8975 33.8015 21.8936C33.8015 21.8913 33.8015 21.889 33.8015 21.8867C33.8015 21.8828 33.8015 21.8797 33.8015 21.8759C33.8015 21.8736 33.8015 21.8713 33.8015 21.8689C33.8015 21.8651 33.8015 21.862 33.8015 21.8581C33.8015 21.8558 33.8015 21.8535 33.8015 21.8512C33.8015 21.8473 33.8015 21.8442 33.8015 21.8404C33.8015 21.8381 33.8015 21.8357 33.8015 21.8334C33.8015 21.8296 33.8015 21.8265 33.8015 21.8226C33.8015 21.8203 33.8015 21.818 33.8015 21.8157C33.8015 21.8118 33.8015 21.8087 33.8015 21.8049C33.8015 21.8026 33.8015 21.8002 33.8015 21.7979C33.8015 21.7941 33.8015 21.791 33.8015 21.7871C33.8015 21.7848 33.8015 21.7825 33.8015 21.7802C33.8015 21.7763 33.8015 21.7732 33.8015 21.7694C33.8015 21.767 33.8015 21.7647 33.8015 21.7624C33.8015 21.7586 33.8015 21.7555 33.8015 21.7516C33.8015 21.7493 33.8015 21.747 33.8015 21.7447C33.8015 21.7408 33.8015 21.7377 33.8015 21.7339C33.8015 21.7315 33.8015 21.7292 33.8015 21.7261C33.8015 21.7223 33.8015 21.7192 33.8015 21.7153C33.8015 21.713 33.8015 21.7107 33.8015 21.7084C33.8015 21.7045 33.8015 21.7014 33.8015 21.6976C33.8015 21.6953 33.8015 21.6929 33.8015 21.6906C33.8015 21.6868 33.8015 21.6837 33.8015 21.6798C33.8015 21.6775 33.8015 21.6752 33.8015 21.6721C33.8015 21.6682 33.8015 21.6652 33.8015 21.6613C33.8015 21.659 33.8015 21.6567 33.8015 21.6536C33.8015 21.6497 33.8015 21.6466 33.8015 21.6428C33.8015 21.6405 33.8015 21.6381 33.8015 21.6351C33.8015 21.6312 33.8015 21.6281 33.8015 21.6242C33.8015 21.6219 33.8015 21.6196 33.8015 21.6165C33.8015 21.6127 33.8015 21.6096 33.8015 21.6057C33.8015 21.6034 33.8015 21.6011 33.8015 21.598C33.8015 21.5941 33.8015 21.5911 33.8015 21.5872C33.8015 21.5849 33.8015 21.5826 33.8015 21.5795C33.8015 21.5756 33.8015 21.5725 33.8015 21.5687C33.8015 21.5664 33.8015 21.564 33.8015 21.561C33.8015 21.5571 33.8015 21.554 33.8015 21.5501C33.8015 21.5478 33.8015 21.5455 33.8015 21.5424C33.8015 21.5386 33.8015 21.5355 33.8015 21.5316C33.8015 21.5293 33.8015 21.527 33.8015 21.5239C33.8015 21.52 33.8015 21.517 33.8015 21.5131C33.8015 21.5108 33.8015 21.5085 33.8015 21.5054C33.8015 21.5015 33.8015 21.4984 33.8015 21.4946C33.8015 21.4923 33.8015 21.4899 33.8015 21.4868C33.8015 21.483 33.8015 21.4799 33.8015 21.476C33.8015 21.4737 33.8015 21.4714 33.8015 21.4683C33.8015 21.4645 33.8015 21.4614 33.8015 21.4575C33.8015 21.4552 33.8015 21.4529 33.8015 21.4498C33.8015 21.4459 33.8015 21.4429 33.8015 21.439C33.8015 21.4367 33.8015 21.4344 33.8015 21.4313C33.8015 21.4274 33.8015 21.4243 33.8015 21.4205C33.8015 21.4181 33.8015 21.4158 33.8015 21.4127C33.8015 21.4089 33.8015 21.4058 33.8015 21.4019C33.8015 21.3996 33.8015 21.3973 33.8015 21.3942C33.8015 21.3904 33.8015 21.3873 33.8015 21.3834C33.8015 21.3811 33.8015 21.3788 33.8015 21.3757C33.8015 21.3718 33.8015 21.3688 33.8015 21.3649C33.8015 21.3626 33.8015 21.3603 33.8015 21.3572C33.8015 21.3533 33.8015 21.3502 33.8015 21.3464C33.8015 21.3441 33.8015 21.3417 33.8015 21.3386C33.8015 21.3348 33.8015 21.3317 33.8015 21.3278C33.8015 21.3255 33.8015 21.3232 33.8015 21.3201C33.8015 21.3163 33.8015 21.3132 33.8015 21.3093C33.8015 21.307 33.8015 21.3047 33.8015 21.3016C33.8015 21.2977 33.8015 21.2946 33.8015 21.2908C33.8015 21.2885 33.8015 21.2862 33.8015 21.2831C33.8015 21.2792 33.8015 21.2761 33.8015 21.2723C33.8015 21.2699 33.8015 21.2676 33.8015 21.2645C33.8015 21.2607 33.8015 21.2576 33.8015 21.2537C33.8015 21.2514 33.8015 21.2491 33.8015 21.246C33.8015 21.2422 33.8015 21.2391 33.8015 21.2352C33.8015 21.2329 33.8015 21.2306 33.8015 21.2275C33.8015 21.2236 33.8015 21.2205 33.8015 21.2167C33.8015 21.2144 33.8015 21.2121 33.8015 21.209C33.8015 21.2051 33.8015 21.202 33.8015 21.1982C33.8015 21.1958 33.8015 21.1935 33.8015 21.1904C33.8015 21.1866 33.8015 21.1835 33.8015 21.1796C33.8015 21.1773 33.8015 21.175 33.8015 21.1719C33.8015 21.1681 33.8015 21.165 33.8015 21.1611C33.8015 21.1588 33.8015 21.1565 33.8015 21.1534C33.8015 21.1495 33.8015 21.1464 33.8015 21.1426C33.8015 21.1403 33.8015 21.1372 33.8015 21.1349C33.8015 21.131 33.8015 21.1279 33.8015 21.1241C33.8015 21.1217 33.8015 21.1194 33.8015 21.1163C33.8015 21.1125 33.8015 21.1094 33.8015 21.1055C33.8015 21.1032 33.8015 21.1001 33.8015 21.0978C33.8015 21.0947 33.8015 21.0909 33.8015 21.0878C33.8015 21.0855 33.8015 21.0824 33.8015 21.0801C33.8015 21.0762 33.8015 21.0731 33.8015 21.0693C33.8015 21.0669 33.8015 21.0639 33.8015 21.0615C33.8015 21.0577 33.8015 21.0546 33.8015 21.0507C33.8015 21.0484 33.8015 21.0453 33.8015 21.043C33.8015 21.0399 33.8015 21.0361 33.8015 21.0322C33.8015 21.0299 33.8015 21.0268 33.8015 21.0245C33.8015 21.0206 33.8015 21.0175 33.8015 21.0145C33.8015 21.0121 33.8015 21.009 33.8015 21.0067C33.8015 21.0036 33.8015 20.9998 33.8015 20.9967C33.8015 20.9944 33.8015 20.9913 33.8015 20.989C33.8015 20.9859 33.8015 20.982 33.8015 20.9789C33.8015 20.9766 33.8015 20.9735 33.8015 20.9712C33.8015 20.9681 33.8015 20.9643 33.8015 20.9612C33.8015 20.9589 33.8015 20.9558 33.8015 20.9535C33.8015 20.9504 33.8015 20.9465 33.8015 20.9434C33.8015 20.9411 33.8015 20.938 33.8015 20.9357C33.8015 20.9326 33.8015 20.9288 33.8015 20.9257C33.8015 20.9234 33.8015 20.9203 33.8015 20.918C33.8015 20.9149 33.8015 20.911 33.8015 20.9079C33.8015 20.9056 33.8015 20.9025 33.8015 20.9002C33.8015 20.8964 33.8015 20.8933 33.8015 20.8902C33.8015 20.8879 33.8015 20.8848 33.8015 20.8825C33.8015 20.8794 33.8015 20.8755 33.8015 20.8724C33.8015 20.8701 33.8015 20.867 33.8015 20.8647C33.8015 20.8616 33.8015 20.8578 33.8015 20.8547C33.8015 20.8524 33.8015 20.8493 33.8015 20.8469C33.8015 20.8439 33.8015 20.84 33.8015 20.8369C33.8015 20.8346 33.8015 20.8315 33.8015 20.8292C33.8015 20.8261 33.8015 20.8222 33.8015 20.8192C33.8015 20.8168 33.8015 20.8138 33.8015 20.8114C33.8015 20.8084 33.8015 20.8045 33.8015 20.8014C33.8015 20.7991 33.8015 20.796 33.8015 20.7937C33.8015 20.7906 33.8015 20.7867 33.8015 20.7837C33.8015 20.7813 33.8015 20.7782 33.8015 20.7759C33.8015 20.7728 33.8015 20.769 33.8015 20.7659C33.8015 20.7636 33.8015 20.7605 33.8015 20.7582C33.8015 20.7551 33.8015 20.7512 33.8015 20.7481C33.8015 20.7458 33.8015 20.7427 33.8015 20.7404C33.8015 20.7373 33.8015 20.7335 33.8015 20.7304C33.8015 20.7281 33.8015 20.725 33.8015 20.7227C33.8015 20.7196 33.8015 20.7157 33.8015 20.7126C33.8015 20.7103 33.8015 20.7072 33.8015 20.7049C33.8015 20.7018 33.8015 20.698 33.8015 20.6949C33.8015 20.6926 33.8015 20.6895 33.8015 20.6872C33.8015 20.6841 33.8015 20.6802 33.8015 20.6771C33.8015 20.6748 33.8015 20.6717 33.8015 20.6694C33.8015 20.6663 33.8015 20.6625 33.8015 20.6594C33.8015 20.6571 33.8015 20.654 33.8015 20.6517C33.8015 20.6486 33.8015 20.6447 33.8015 20.6416C33.8015 20.6393 33.8015 20.6362 33.8015 20.6339C33.8015 20.6308 33.8015 20.627 33.8015 20.6239C33.8015 20.6216 33.8015 20.6185 33.8015 20.6161C33.8015 20.6131 33.8015 20.6092 33.8015 20.6061C33.8015 20.6038 33.8015 20.6007 33.8015 20.5984C33.8015 20.5953 33.8015 20.5915 33.8015 20.5884C33.8015 20.586 33.8015 20.583 33.8015 20.5806C33.8015 20.5776 33.8015 20.5737 33.8015 20.5706C33.8015 20.5683 33.8015 20.5652 33.8015 20.5629C33.8015 20.5598 33.8015 20.5559 33.8015 20.5529C33.8015 20.5505 33.8015 20.5475 33.8015 20.5451C33.8015 20.542 33.8015 20.5382 33.8015 20.5351C33.8015 20.5328 33.8015 20.5297 33.8015 20.5274C33.8015 20.5243 33.8015 20.5204 33.8015 20.5173C33.8015 20.515 33.8015 20.5119 33.8015 20.5096C33.8015 20.5065 33.8015 20.5027 33.8015 20.4996C33.8015 20.4973 33.8015 20.4942 33.8015 20.4919C33.8015 20.4888 33.8015 20.4849 33.8015 20.4818C33.8015 20.4795 33.8015 20.4764 33.8015 20.4741C33.8015 20.471 33.8015 20.4672 33.8015 20.4641C33.8015 20.4618 33.8015 20.4587 33.8015 20.4564C33.8015 20.4533 33.8015 20.4494 33.8015 20.4463C33.8015 20.444 33.8015 20.4409 33.8015 20.4386C33.8015 20.4355 33.8015 20.4317 33.8015 20.4286C33.8015 20.4263 33.8015 20.4232 33.8015 20.4209C33.8015 20.4178 33.8015 20.4139 33.8015 20.4108C33.8015 20.4085 33.8015 20.4054 33.8015 20.4031C33.8015 20.4 33.8015 20.3962 33.8015 20.3931C33.8015 20.3908 33.8015 20.3877 33.8015 20.3854C33.8015 20.3823 33.8015 20.3784 33.8015 20.3753C33.8015 20.373 33.8015 20.3699 33.8015 20.3676C33.8015 20.3645 33.8015 20.3607 33.8015 20.3576C33.8015 20.3552 33.8015 20.3522 33.8015 20.3498C33.8015 20.3468 33.8015 20.3429 33.8015 20.3398C33.8015 20.3375 33.8015 20.3344 33.8015 20.3321C33.8015 20.329 33.8015 20.3251 33.8015 20.3221C33.8015 20.3197 33.8015 20.3167 33.8015 20.3143C33.8015 20.3113 33.8015 20.3074 33.8015 20.3043C33.8015 20.302 33.8015 20.2989 33.8015 20.2966C33.8015 20.2935 33.8015 20.2896 33.8015 20.2866C33.8015 16.6447 32.6421 13.2739 30.6723 10.5228L30.6715 10.4781Z" fill="#2D3366"/>
<path d="M33.8008 18.7073C33.8008 18.7073 33.8008 18.7003 33.8008 18.6973C33.8008 9.42215 26.2809 1.90234 17.0058 1.90234C7.73075 1.90234 0.210938 9.42215 0.210938 18.6973C0.210938 18.7003 0.210938 18.7034 0.210938 18.7065C0.210938 18.7096 0.210938 18.7127 0.210938 18.7158C0.210938 18.7189 0.210938 18.722 0.210938 18.725C0.210938 18.7281 0.210938 18.7312 0.210938 18.7343C0.210938 18.7374 0.210938 18.7405 0.210938 18.7436C0.210938 18.7467 0.210938 18.7497 0.210938 18.7528C0.210938 18.7559 0.210938 18.759 0.210938 18.7621C0.210938 18.7652 0.210938 18.7683 0.210938 18.7714C0.210938 18.7744 0.210938 18.7775 0.210938 18.7806C0.210938 18.7837 0.210938 18.7868 0.210938 18.7899C0.210938 18.793 0.210938 18.7961 0.210938 18.7991C0.210938 18.8022 0.210938 18.8053 0.210938 18.8084C0.210938 18.8115 0.210938 18.8146 0.210938 18.8177C0.210938 18.8208 0.210938 18.8238 0.210938 18.8269C0.210938 18.83 0.210938 18.8331 0.210938 18.8362C0.210938 18.8393 0.210938 18.8424 0.210938 18.8455C0.210938 18.8485 0.210938 18.8516 0.210938 18.8547C0.210938 18.8578 0.210938 18.8609 0.210938 18.864C0.210938 18.8671 0.210938 18.8702 0.210938 18.8732C0.210938 18.8763 0.210938 18.8794 0.210938 18.8825C0.210938 18.8856 0.210938 18.8887 0.210938 18.8918C0.210938 18.8949 0.210938 18.8979 0.210938 18.901C0.210938 18.9041 0.210938 18.9072 0.210938 18.9103C0.210938 18.9134 0.210938 18.9165 0.210938 18.9196C0.210938 18.9226 0.210938 18.9257 0.210938 18.9288C0.210938 18.9319 0.210938 18.935 0.210938 18.9381C0.210938 18.9412 0.210938 18.9443 0.210938 18.9473C0.210938 18.9504 0.210938 18.9535 0.210938 18.9566C0.210938 18.9597 0.210938 18.9628 0.210938 18.9659C0.210938 18.969 0.210938 18.972 0.210938 18.9751C0.210938 18.9782 0.210938 18.9813 0.210938 18.9844C0.210938 18.9875 0.210938 18.9906 0.210938 18.9937C0.210938 18.9967 0.210938 18.9998 0.210938 19.0029C0.210938 19.006 0.210938 19.0091 0.210938 19.0122C0.210938 19.0153 0.210938 19.0184 0.210938 19.0214C0.210938 19.0245 0.210938 19.0276 0.210938 19.0307C0.210938 19.0338 0.210938 19.0369 0.210938 19.04C0.210938 19.0431 0.210938 19.0461 0.210938 19.0492C0.210938 19.0523 0.210938 19.0554 0.210938 19.0585C0.210938 19.0616 0.210938 19.0647 0.210938 19.0678C0.210938 19.0708 0.210938 19.0739 0.210938 19.077C0.210938 19.0801 0.210938 19.0832 0.210938 19.0863C0.210938 19.0894 0.210938 19.0925 0.210938 19.0955C0.210938 19.0986 0.210938 19.1017 0.210938 19.1048C0.210938 19.1079 0.210938 19.111 0.210938 19.1141C0.210938 19.1172 0.210938 19.1203 0.210938 19.1233C0.210938 19.1264 0.210938 19.1295 0.210938 19.1326C0.210938 19.1357 0.210938 19.1388 0.210938 19.1419C0.210938 19.145 0.210938 19.148 0.210938 19.1511C0.210938 19.1542 0.210938 19.1573 0.210938 19.1604C0.210938 19.1635 0.210938 19.1666 0.210938 19.1697C0.210938 19.1727 0.210938 19.1758 0.210938 19.1789C0.210938 19.182 0.210938 19.1851 0.210938 19.1882C0.210938 19.1913 0.210938 19.1944 0.210938 19.1974C0.210938 19.2005 0.210938 19.2036 0.210938 19.2067C0.210938 19.2098 0.210938 19.2129 0.210938 19.216C0.210938 19.2191 0.210938 19.2221 0.210938 19.2252C0.210938 19.2283 0.210938 19.2314 0.210938 19.2345C0.210938 19.2376 0.210938 19.2407 0.210938 19.2438C0.210938 19.2468 0.210938 19.2499 0.210938 19.253C0.210938 19.2561 0.210938 19.2592 0.210938 19.2623C0.210938 19.2654 0.210938 19.2685 0.210938 19.2715C0.210938 19.2746 0.210938 19.2777 0.210938 19.2808C0.210938 19.2839 0.210938 19.287 0.210938 19.2901C0.210938 19.2932 0.210938 19.2962 0.210938 19.2993C0.210938 19.3024 0.210938 19.3055 0.210938 19.3086C0.210938 19.3117 0.210938 19.3148 0.210938 19.3179C0.210938 19.3209 0.210938 19.324 0.210938 19.3271C0.210938 19.3302 0.210938 19.3333 0.210938 19.3364C0.210938 19.3395 0.210938 19.3426 0.210938 19.3456C0.210938 19.3487 0.210938 19.3518 0.210938 19.3549C0.210938 19.358 0.210938 19.3611 0.210938 19.3642C0.210938 19.3673 0.210938 19.3703 0.210938 19.3734C0.210938 19.3765 0.210938 19.3796 0.210938 19.3827C0.210938 19.3858 0.210938 19.3889 0.210938 19.392C0.210938 19.395 0.210938 19.3981 0.210938 19.4012C0.210938 19.4043 0.210938 19.4074 0.210938 19.4105C0.210938 19.4136 0.210938 19.4167 0.210938 19.4197C0.210938 19.4228 0.210938 19.4259 0.210938 19.429C0.210938 19.4321 0.210938 19.4352 0.210938 19.4383C0.210938 19.4414 0.210938 19.4444 0.210938 19.4475C0.210938 19.4506 0.210938 19.4537 0.210938 19.4568C0.210938 19.4599 0.210938 19.463 0.210938 19.4661C0.210938 19.4691 0.210938 19.4722 0.210938 19.4753C0.210938 19.4784 0.210938 19.4815 0.210938 19.4846C0.210938 19.4877 0.210938 19.4908 0.210938 19.4938C0.210938 19.4969 0.210938 19.5 0.210938 19.5031C0.210938 19.5062 0.210938 19.5093 0.210938 19.5124C0.210938 19.5155 0.210938 19.5185 0.210938 19.5216C0.210938 19.5247 0.210938 19.5278 0.210938 19.5309C0.210938 19.534 0.210938 19.5371 0.210938 19.5402C0.210938 19.5432 0.210938 19.5463 0.210938 19.5494C0.210938 19.5525 0.210938 19.5556 0.210938 19.5587C0.210938 19.5618 0.210938 19.5649 0.210938 19.568C0.210938 19.571 0.210938 19.5741 0.210938 19.5772C0.210938 19.5803 0.210938 19.5834 0.210938 19.5865C0.210938 19.5896 0.210938 19.5926 0.210938 19.5957C0.210938 19.5988 0.210938 19.6019 0.210938 19.605C0.210938 19.6081 0.210938 19.6112 0.210938 19.6143C0.210938 19.6173 0.210938 19.6204 0.210938 19.6235C0.210938 19.6266 0.210938 19.6297 0.210938 19.6328C0.210938 19.6359 0.210938 19.639 0.210938 19.6421C0.210938 19.6451 0.210938 19.6482 0.210938 19.6513C0.210938 19.6544 0.210938 19.6575 0.210938 19.6606C0.210938 19.6637 0.210938 19.6668 0.210938 19.6698C0.210938 19.6729 0.210938 19.676 0.210938 19.6791C0.210938 19.6822 0.210938 19.6853 0.210938 19.6884C0.210938 19.6915 0.210938 19.6945 0.210938 19.6976C0.210938 19.7007 0.210938 19.7038 0.210938 19.7069C0.210938 19.71 0.210938 19.7131 0.210938 19.7162C0.210938 19.7192 0.210938 19.7223 0.210938 19.7254C0.210938 19.7285 0.210938 19.7316 0.210938 19.7347C0.210938 19.7378 0.210938 19.7409 0.210938 19.7439C0.210938 19.747 0.210938 19.7501 0.210938 19.7532C0.210938 19.7563 0.210938 19.7594 0.210938 19.7625C0.210938 19.7656 0.210938 19.7686 0.210938 19.7717C0.210938 19.7748 0.210938 19.7779 0.210938 19.781C0.210938 19.7841 0.210938 19.7872 0.210938 19.7903C0.210938 19.7933 0.210938 19.7964 0.210938 19.7995C0.210938 19.8026 0.210938 19.8057 0.210938 19.8088C0.210938 19.8119 0.210938 19.815 0.210938 19.818C0.210938 19.8211 0.210938 19.8242 0.210938 19.8273C0.210938 19.8304 0.210938 19.8335 0.210938 19.8366C0.210938 19.8397 0.210938 19.8427 0.210938 19.8458C0.210938 19.8489 0.210938 19.852 0.210938 19.8551C0.210938 19.8582 0.210938 19.8613 0.210938 19.8644C0.210938 19.8674 0.210938 19.8705 0.210938 19.8736C0.210938 19.8767 0.210938 19.8798 0.210938 19.8829C0.210938 19.886 0.210938 19.8891 0.210938 19.8921C0.210938 19.8952 0.210938 19.8983 0.210938 19.9014C0.210938 19.9045 0.210938 19.9076 0.210938 19.9107C0.210938 19.9138 0.210938 19.9168 0.210938 19.9199C0.210938 19.923 0.210938 19.9261 0.210938 19.9292C0.210938 19.9323 0.210938 19.9354 0.210938 19.9385C0.210938 19.9415 0.210938 19.9446 0.210938 19.9477C0.210938 19.9508 0.210938 19.9539 0.210938 19.957C0.210938 19.9601 0.210938 19.9632 0.210938 19.9662C0.210938 19.9693 0.210938 19.9724 0.210938 19.9755C0.210938 19.9786 0.210938 19.9817 0.210938 19.9848C0.210938 19.9879 0.210938 19.9909 0.210938 19.994C0.210938 19.9971 0.210938 20.0002 0.210938 20.0033C0.210938 20.0064 0.210938 20.0095 0.210938 20.0126C0.210938 20.0156 0.210938 20.0187 0.210938 20.0218C0.210938 20.0249 0.210938 20.028 0.210938 20.0311C0.210938 20.0342 0.210938 20.0373 0.210938 20.0403C0.210938 20.0434 0.210938 20.0465 0.210938 20.0496C0.210938 20.0527 0.210938 20.0558 0.210938 20.0589C0.210938 20.062 0.210938 20.0651 0.210938 20.0681C0.210938 20.0712 0.210938 20.0743 0.210938 20.0774C0.210938 20.0805 0.210938 20.0836 0.210938 20.0867C0.210938 20.0898 0.210938 20.0928 0.210938 20.0959C0.210938 20.099 0.210938 20.1021 0.210938 20.1052C0.210938 20.1083 0.210938 20.1114 0.210938 20.1145C0.210938 20.1175 0.210938 20.1206 0.210938 20.1237C0.210938 20.1268 0.210938 20.1299 0.210938 20.133C0.210938 20.1361 0.210938 20.1392 0.210938 20.1422C0.210938 20.1453 0.210938 20.1484 0.210938 20.1515C0.210938 20.1546 0.210938 20.1577 0.210938 20.1608C0.210938 20.1639 0.210938 20.1669 0.210938 20.17C0.210938 20.1731 0.210938 20.1762 0.210938 20.1793C0.210938 20.1824 0.210938 20.1855 0.210938 20.1886C0.210938 20.1916 0.210938 20.1947 0.210938 20.1978C0.210938 20.2009 0.210938 20.204 0.210938 20.2071C0.210938 20.2102 0.210938 20.2133 0.210938 20.2163C0.210938 20.2194 0.210938 20.2225 0.210938 20.2256C0.210938 20.2287 0.210938 20.2318 0.210938 20.2349C0.210938 20.238 0.210938 20.241 0.210938 20.2441C0.210938 20.2472 0.210938 20.2503 0.210938 20.2534C0.210938 20.2565 0.210938 20.2596 0.210938 20.2627C0.210938 20.2657 0.210938 20.2688 0.210938 20.2719C0.210938 20.275 0.210938 20.2781 0.210938 20.2812C0.210938 20.2843 0.210938 20.2874 0.210938 20.2904C0.210938 20.2935 0.210938 20.2966 0.210938 20.2997C0.210938 20.3028 0.210938 20.3059 0.210938 20.309C0.210938 20.3121 0.210938 20.3151 0.210938 20.3182C0.210938 20.3213 0.210938 20.3244 0.210938 20.3275C0.210938 20.3306 0.210938 20.3337 0.210938 20.3368C0.210938 20.3398 0.210938 20.3429 0.210938 20.346C0.210938 20.3491 0.210938 20.3522 0.210938 20.3553C0.210938 20.3584 0.210938 20.3615 0.210938 20.3645C0.210938 20.3676 0.210938 20.3707 0.210938 20.3738C0.210938 20.3769 0.210938 20.38 0.210938 20.3831C0.210938 20.3862 0.210938 20.3892 0.210938 20.3923C0.210938 20.3954 0.210938 20.3985 0.210938 20.4016C0.210938 29.6767 7.73075 37.1965 17.0058 37.1965C20.7735 37.1965 24.2501 35.9561 27.0513 33.8627C27.5654 33.4791 28.0548 33.0661 28.521 32.6277C28.9023 32.268 29.2674 31.8905 29.614 31.4968C30.0385 31.0152 30.4353 30.5088 30.8027 29.9808C32.592 27.4096 33.6796 24.3143 33.7907 20.972C33.7907 20.9635 33.7907 20.9543 33.7907 20.9458C33.7938 20.8601 33.7961 20.7737 33.7977 20.6872C33.7984 20.6339 33.7984 20.5807 33.7992 20.5282C33.7992 20.4865 33.8008 20.4448 33.8008 20.4024C33.8008 20.4001 33.8008 20.3977 33.8008 20.3954C33.8008 20.3916 33.8008 20.3885 33.8008 20.3846C33.8008 20.3823 33.8008 20.38 33.8008 20.3777C33.8008 20.3738 33.8008 20.3707 33.8008 20.3669C33.8008 20.3645 33.8008 20.3622 33.8008 20.3599C33.8008 20.3561 33.8008 20.353 33.8008 20.3491C33.8008 20.3468 33.8008 20.3445 33.8008 20.3422C33.8008 20.3383 33.8008 20.3352 33.8008 20.3314C33.8008 20.329 33.8008 20.3267 33.8008 20.3244C33.8008 20.3205 33.8008 20.3175 33.8008 20.3136C33.8008 20.3113 33.8008 20.309 33.8008 20.3067C33.8008 20.3028 33.8008 20.2997 33.8008 20.2958C33.8008 20.2935 33.8008 20.2912 33.8008 20.2889C33.8008 20.285 33.8008 20.282 33.8008 20.2781C33.8008 20.2758 33.8008 20.2735 33.8008 20.2711C33.8008 20.2673 33.8008 20.2642 33.8008 20.2603C33.8008 20.258 33.8008 20.2557 33.8008 20.2534C33.8008 20.2495 33.8008 20.2464 33.8008 20.2426C33.8008 20.2403 33.8008 20.238 33.8008 20.2356C33.8008 20.2318 33.8008 20.2287 33.8008 20.2248C33.8008 20.2225 33.8008 20.2202 33.8008 20.2179C33.8008 20.214 33.8008 20.2109 33.8008 20.2071C33.8008 20.2048 33.8008 20.2024 33.8008 20.2001C33.8008 20.1963 33.8008 20.1932 33.8008 20.1893C33.8008 20.187 33.8008 20.1847 33.8008 20.1824C33.8008 20.1785 33.8008 20.1754 33.8008 20.1716C33.8008 20.1693 33.8008 20.1669 33.8008 20.1639C33.8008 20.16 33.8008 20.1569 33.8008 20.153C33.8008 20.1507 33.8008 20.1484 33.8008 20.1461C33.8008 20.1422 33.8008 20.1392 33.8008 20.1353C33.8008 20.133 33.8008 20.1307 33.8008 20.1276C33.8008 20.1237 33.8008 20.1206 33.8008 20.1168C33.8008 20.1145 33.8008 20.1121 33.8008 20.109C33.8008 20.1052 33.8008 20.1021 33.8008 20.0982C33.8008 20.0959 33.8008 20.0936 33.8008 20.0905C33.8008 20.0867 33.8008 20.0836 33.8008 20.0797C33.8008 20.0774 33.8008 20.0751 33.8008 20.072C33.8008 20.0681 33.8008 20.0651 33.8008 20.0612C33.8008 20.0589 33.8008 20.0566 33.8008 20.0535C33.8008 20.0496 33.8008 20.0465 33.8008 20.0427C33.8008 20.0403 33.8008 20.038 33.8008 20.0349C33.8008 20.0311 33.8008 20.028 33.8008 20.0241C33.8008 20.0218 33.8008 20.0195 33.8008 20.0164C33.8008 20.0126 33.8008 20.0095 33.8008 20.0056C33.8008 20.0033 33.8008 20.001 33.8008 19.9979C33.8008 19.994 33.8008 19.9909 33.8008 19.9871C33.8008 19.9848 33.8008 19.9825 33.8008 19.9794C33.8008 19.9755 33.8008 19.9724 33.8008 19.9686C33.8008 19.9662 33.8008 19.9639 33.8008 19.9608C33.8008 19.957 33.8008 19.9539 33.8008 19.95C33.8008 19.9477 33.8008 19.9454 33.8008 19.9423C33.8008 19.9385 33.8008 19.9354 33.8008 19.9315C33.8008 19.9292 33.8008 19.9269 33.8008 19.9238C33.8008 19.9199 33.8008 19.9168 33.8008 19.913C33.8008 19.9107 33.8008 19.9084 33.8008 19.9053C33.8008 19.9014 33.8008 19.8983 33.8008 19.8945C33.8008 19.8921 33.8008 19.8898 33.8008 19.8867C33.8008 19.8829 33.8008 19.8798 33.8008 19.8759C33.8008 19.8736 33.8008 19.8713 33.8008 19.8682C33.8008 19.8644 33.8008 19.8613 33.8008 19.8574C33.8008 19.8551 33.8008 19.8528 33.8008 19.8497C33.8008 19.8458 33.8008 19.8427 33.8008 19.8389C33.8008 19.8366 33.8008 19.8343 33.8008 19.8312C33.8008 19.8273 33.8008 19.8242 33.8008 19.8204C33.8008 19.818 33.8008 19.8157 33.8008 19.8126C33.8008 19.8088 33.8008 19.8057 33.8008 19.8018C33.8008 19.7995 33.8008 19.7972 33.8008 19.7941C33.8008 19.7903 33.8008 19.7872 33.8008 19.7833C33.8008 19.781 33.8008 19.7787 33.8008 19.7756C33.8008 19.7717 33.8008 19.7686 33.8008 19.7648C33.8008 19.7625 33.8008 19.7602 33.8008 19.7571C33.8008 19.7532 33.8008 19.7501 33.8008 19.7463C33.8008 19.7439 33.8008 19.7416 33.8008 19.7385C33.8008 19.7347 33.8008 19.7316 33.8008 19.7277C33.8008 19.7254 33.8008 19.7231 33.8008 19.72C33.8008 19.7162 33.8008 19.7131 33.8008 19.7092C33.8008 19.7069 33.8008 19.7046 33.8008 19.7015C33.8008 19.6976 33.8008 19.6945 33.8008 19.6907C33.8008 19.6884 33.8008 19.6861 33.8008 19.683C33.8008 19.6791 33.8008 19.676 33.8008 19.6722C33.8008 19.6698 33.8008 19.6675 33.8008 19.6644C33.8008 19.6606 33.8008 19.6575 33.8008 19.6536C33.8008 19.6513 33.8008 19.649 33.8008 19.6459C33.8008 19.6421 33.8008 19.639 33.8008 19.6351C33.8008 19.6328 33.8008 19.6305 33.8008 19.6274C33.8008 19.6235 33.8008 19.6204 33.8008 19.6166C33.8008 19.6143 33.8008 19.6119 33.8008 19.6089C33.8008 19.605 33.8008 19.6019 33.8008 19.5981C33.8008 19.5957 33.8008 19.5926 33.8008 19.5903C33.8008 19.5865 33.8008 19.5834 33.8008 19.5795C33.8008 19.5772 33.8008 19.5749 33.8008 19.5718C33.8008 19.5679 33.8008 19.5649 33.8008 19.561C33.8008 19.5587 33.8008 19.5556 33.8008 19.5533C33.8008 19.5502 33.8008 19.5463 33.8008 19.5425C33.8008 19.5402 33.8008 19.5371 33.8008 19.5348C33.8008 19.5309 33.8008 19.5278 33.8008 19.524C33.8008 19.5216 33.8008 19.5185 33.8008 19.5162C33.8008 19.5124 33.8008 19.5093 33.8008 19.5054C33.8008 19.5031 33.8008 19.5 33.8008 19.4977C33.8008 19.4938 33.8008 19.4908 33.8008 19.4869C33.8008 19.4846 33.8008 19.4815 33.8008 19.4792C33.8008 19.4753 33.8008 19.4722 33.8008 19.4691C33.8008 19.4668 33.8008 19.4637 33.8008 19.4614C33.8008 19.4576 33.8008 19.4545 33.8008 19.4514C33.8008 19.4491 33.8008 19.446 33.8008 19.4437C33.8008 19.4398 33.8008 19.4367 33.8008 19.4336C33.8008 19.4313 33.8008 19.4282 33.8008 19.4259C33.8008 19.4221 33.8008 19.419 33.8008 19.4159C33.8008 19.4136 33.8008 19.4105 33.8008 19.4082C33.8008 19.4043 33.8008 19.4012 33.8008 19.3981C33.8008 19.3958 33.8008 19.3927 33.8008 19.3904C33.8008 19.3873 33.8008 19.3835 33.8008 19.3804C33.8008 19.3781 33.8008 19.375 33.8008 19.3727C33.8008 19.3688 33.8008 19.3657 33.8008 19.3626C33.8008 19.3603 33.8008 19.3572 33.8008 19.3549C33.8008 19.351 33.8008 19.348 33.8008 19.3449C33.8008 19.3426 33.8008 19.3395 33.8008 19.3372C33.8008 19.3341 33.8008 19.3302 33.8008 19.3271C33.8008 19.3248 33.8008 19.3217 33.8008 19.3194C33.8008 19.3163 33.8008 19.3125 33.8008 19.3094C33.8008 19.307 33.8008 19.304 33.8008 19.3016C33.8008 19.2986 33.8008 19.2947 33.8008 19.2916C33.8008 19.2893 33.8008 19.2862 33.8008 19.2839C33.8008 19.2808 33.8008 19.2769 33.8008 19.2739C33.8008 19.2715 33.8008 19.2685 33.8008 19.2661C33.8008 19.2631 33.8008 19.2592 33.8008 19.2561C33.8008 19.2538 33.8008 19.2507 33.8008 19.2484C33.8008 19.2453 33.8008 19.2414 33.8008 19.2383C33.8008 19.236 33.8008 19.2329 33.8008 19.2306C33.8008 19.2275 33.8008 19.2237 33.8008 19.2206C33.8008 19.2183 33.8008 19.2152 33.8008 19.2129C33.8008 19.2098 33.8008 19.2059 33.8008 19.2028C33.8008 19.2005 33.8008 19.1974 33.8008 19.1951C33.8008 19.192 33.8008 19.1882 33.8008 19.1851C33.8008 19.1828 33.8008 19.1797 33.8008 19.1774C33.8008 19.1743 33.8008 19.1704 33.8008 19.1673C33.8008 19.165 33.8008 19.1619 33.8008 19.1596C33.8008 19.1565 33.8008 19.1527 33.8008 19.1496C33.8008 19.1473 33.8008 19.1442 33.8008 19.1419C33.8008 19.1388 33.8008 19.1349 33.8008 19.1318C33.8008 19.1295 33.8008 19.1264 33.8008 19.1241C33.8008 19.121 33.8008 19.1172 33.8008 19.1141C33.8008 19.1118 33.8008 19.1087 33.8008 19.1064C33.8008 19.1033 33.8008 19.0994 33.8008 19.0963C33.8008 19.094 33.8008 19.0909 33.8008 19.0886C33.8008 19.0855 33.8008 19.0817 33.8008 19.0786C33.8008 19.0763 33.8008 19.0732 33.8008 19.0709C33.8008 19.0678 33.8008 19.0639 33.8008 19.0608C33.8008 19.0585 33.8008 19.0554 33.8008 19.0531C33.8008 19.05 33.8008 19.0461 33.8008 19.0431C33.8008 19.0407 33.8008 19.0377 33.8008 19.0353C33.8008 19.0323 33.8008 19.0284 33.8008 19.0253C33.8008 19.023 33.8008 19.0199 33.8008 19.0176C33.8008 19.0145 33.8008 19.0106 33.8008 19.0076C33.8008 19.0052 33.8008 19.0021 33.8008 18.9998C33.8008 18.9967 33.8008 18.9929 33.8008 18.9898C33.8008 18.9875 33.8008 18.9844 33.8008 18.9821C33.8008 18.979 33.8008 18.9751 33.8008 18.972C33.8008 18.9697 33.8008 18.9666 33.8008 18.9643C33.8008 18.9612 33.8008 18.9574 33.8008 18.9543C33.8008 18.952 33.8008 18.9489 33.8008 18.9466C33.8008 18.9435 33.8008 18.9396 33.8008 18.9365C33.8008 18.9342 33.8008 18.9311 33.8008 18.9288C33.8008 18.9257 33.8008 18.9219 33.8008 18.9188C33.8008 18.9165 33.8008 18.9134 33.8008 18.9111C33.8008 18.908 33.8008 18.9041 33.8008 18.901C33.8008 18.8987 33.8008 18.8956 33.8008 18.8933C33.8008 18.8902 33.8008 18.8864 33.8008 18.8833C33.8008 18.881 33.8008 18.8779 33.8008 18.8756C33.8008 18.8725 33.8008 18.8686 33.8008 18.8655C33.8008 18.8632 33.8008 18.8601 33.8008 18.8578C33.8008 18.8547 33.8008 18.8509 33.8008 18.8478C33.8008 18.8455 33.8008 18.8424 33.8008 18.8401C33.8008 18.837 33.8008 18.8331 33.8008 18.83C33.8008 18.8277 33.8008 18.8246 33.8008 18.8223C33.8008 18.8192 33.8008 18.8154 33.8008 18.8123C33.8008 18.8099 33.8008 18.8069 33.8008 18.8045C33.8008 18.8015 33.8008 18.7976 33.8008 18.7945C33.8008 18.7922 33.8008 18.7891 33.8008 18.7868C33.8008 18.7837 33.8008 18.7798 33.8008 18.7768C33.8008 18.7744 33.8008 18.7714 33.8008 18.769C33.8008 18.766 33.8008 18.7621 33.8008 18.759C33.8008 18.7567 33.8008 18.7536 33.8008 18.7513V18.7073Z" fill="#2D3366"/>
<path d="M33.2516 18.6981C33.2516 22.1423 32.1802 25.3348 30.3516 27.9624C29.9965 28.4726 29.6129 28.9628 29.2023 29.4282C28.8665 29.8088 28.5137 30.1739 28.1448 30.522C27.694 30.9458 27.2208 31.3448 26.7237 31.7169C24.0144 33.7423 20.652 34.9411 17.0086 34.9411C8.03766 34.9411 0.765625 27.6691 0.765625 18.6981C0.765625 14.658 2.23995 10.9637 4.67991 8.12157C7.65943 4.65267 12.077 2.45508 17.0086 2.45508C21.9403 2.45508 26.3586 4.65267 29.3373 8.12157C31.7773 10.9637 33.2516 14.658 33.2516 18.6981Z" fill="white"/>
<path d="M29.3373 8.12139C26.2698 4.8061 21.8816 2.73047 17.0086 2.73047C12.1357 2.73047 7.74742 4.8061 4.67991 8.12139C2.23995 10.9635 0.765625 14.6578 0.765625 18.6979C0.765625 27.6689 8.03766 34.9409 17.0086 34.9409C20.652 34.9409 24.0144 33.7422 26.7237 31.7167C27.2208 31.3454 27.694 30.9456 28.1448 30.5218C28.5137 30.1737 28.8665 29.8086 29.2023 29.428C29.6129 28.9626 29.9965 28.4724 30.3516 27.9622C32.1802 25.3347 33.2516 22.1421 33.2516 18.6979C33.2516 14.6578 31.7773 10.9635 29.3373 8.12139ZM17.0086 32.978C9.59071 32.978 3.55603 26.9433 3.55603 19.5254C3.55603 12.1075 9.59071 6.07278 17.0086 6.07278C24.4265 6.07278 30.4612 12.1075 30.4612 19.5254C30.4612 26.9433 24.4265 32.978 17.0086 32.978Z" fill="#2D3366"/>
<path d="M17.0058 1.90234C7.73075 1.90234 0.210938 9.42215 0.210938 18.6973C0.210938 27.9724 7.73075 35.4922 17.0058 35.4922C20.7735 35.4922 24.2501 34.2517 27.0513 32.1583C28.5009 31.0746 29.7684 29.7632 30.8027 28.2765C32.6931 25.5594 33.8008 22.2588 33.8008 18.698C33.8008 9.42292 26.2809 1.90312 17.0058 1.90312V1.90234ZM17.0058 32.1491C9.58793 32.1491 3.55325 26.1144 3.55325 18.6965C3.55325 11.2786 9.58793 5.24388 17.0058 5.24388C24.4238 5.24388 30.4584 11.2786 30.4584 18.6965C30.4584 26.1144 24.4238 32.1491 17.0058 32.1491Z" fill="#6876C7"/>
<path d="M17.009 29.2289C11.6582 29.2289 7.30469 24.8754 7.30469 19.5246C7.30469 14.1738 11.6582 9.82031 17.009 9.82031C22.3597 9.82031 26.7132 14.1738 26.7132 19.5246C26.7132 24.8754 22.3597 29.2289 17.009 29.2289ZM17.009 13.1302C13.4829 13.1302 10.6146 15.9986 10.6146 19.5246C10.6146 23.0506 13.4829 25.919 17.009 25.919C20.535 25.919 23.4033 23.0506 23.4033 19.5246C23.4033 15.9986 20.535 13.1302 17.009 13.1302Z" fill="#01845C"/>
<path d="M17.009 28.4007C11.6582 28.4007 7.30469 24.0472 7.30469 18.6965C7.30469 13.3457 11.6582 8.99219 17.009 8.99219C22.3597 8.99219 26.7132 13.3457 26.7132 18.6965C26.7132 24.0472 22.3597 28.4007 17.009 28.4007ZM17.009 12.3021C13.4829 12.3021 10.6146 15.1704 10.6146 18.6965C10.6146 22.2225 13.4829 25.0908 17.009 25.0908C20.535 25.0908 23.4033 22.2225 23.4033 18.6965C23.4033 15.1704 20.535 12.3021 17.009 12.3021Z" fill="#19BC8A"/>
<path d="M17.0048 21.5935C18.6038 21.5935 19.9001 20.2972 19.9001 18.6981C19.9001 17.099 18.6038 15.8027 17.0048 15.8027C15.4057 15.8027 14.1094 17.099 14.1094 18.6981C14.1094 20.2972 15.4057 21.5935 17.0048 21.5935Z" fill="#6876C7"/>
<path d="M19.6707 19.8438C19.4569 20.3393 19.1088 20.7623 18.6719 21.0687L21.1605 23.5573C21.5603 23.2154 21.9169 22.8256 22.2226 22.3956L19.6707 19.8438Z" fill="#E6E7E8"/>
<path d="M28.5234 30.9218C28.5312 30.9149 28.5389 30.9071 28.5474 30.8994C28.5396 30.9071 28.5312 30.9141 28.5234 30.9218Z" fill="#E6E7E8"/>
<path d="M24.9346 25.1133C24.6297 25.544 24.2908 25.9492 23.9219 26.3244L26.1511 28.5536C26.5355 28.197 26.8991 27.818 27.2395 27.4182L24.9346 25.1133Z" fill="#E6E7E8"/>
<path d="M29.6016 29.8011C29.6016 29.8011 29.6077 29.7949 29.6101 29.791C29.6101 29.791 29.6047 29.7972 29.6016 29.8011Z" fill="#E6E7E8"/>
<path d="M29.6097 29.8016C29.6097 29.8016 29.6151 29.7946 29.6182 29.7916L27.2446 27.418C26.9042 27.817 26.5407 28.196 26.1562 28.5534L28.5252 30.9224C28.5329 30.9147 28.5414 30.9077 28.5491 30.9C28.6333 30.8205 28.7166 30.7402 28.7984 30.6592C28.8023 30.6553 28.8062 30.6514 28.81 30.6476C29.0856 30.3751 29.3527 30.0926 29.6089 29.8016H29.6097Z" fill="#6876C7"/>
<path d="M24.5796 24.7577L22.2184 22.3965C21.9127 22.8257 21.5561 23.2162 21.1562 23.5582L23.5013 25.9024L23.9235 26.3247C24.2925 25.9495 24.6313 25.5443 24.9362 25.1136L24.5804 24.7577H24.5796Z" fill="#01845C"/>
<path d="M17.804 17.9869C17.6049 17.7877 17.3239 17.719 17.0684 17.7785C16.9997 17.7939 16.9333 17.8194 16.8708 17.8541C16.8685 17.8549 16.867 17.8564 16.8639 17.8572C16.8384 17.8719 16.8129 17.8888 16.7874 17.9066C16.7805 17.9105 16.7751 17.9159 16.7682 17.9205C16.7419 17.9406 16.7157 17.9629 16.691 17.9869C16.6717 18.0062 16.6539 18.0255 16.6369 18.0463C16.4023 18.335 16.4023 18.7503 16.6369 19.0382C16.6531 19.059 16.6717 19.0783 16.691 19.0984L18.6608 21.0683C19.0977 20.7618 19.4459 20.3388 19.6597 19.8433L17.8025 17.9861L17.804 17.9869Z" fill="#2D3366"/>
<path d="M32.1791 4.71812L17.7716 19.1256C17.4852 19.4119 17.0206 19.4119 16.7342 19.1256L16.6601 19.0514C16.3737 18.7651 16.3737 18.3012 16.6601 18.0148L31.0675 3.60736C31.3539 3.32098 31.8186 3.32098 32.105 3.60736L32.1791 3.68146C32.4654 3.96783 32.4654 4.43251 32.1791 4.71889V4.71812Z" fill="#6876C7"/>
<path d="M31.5596 4.17039L17.227 18.503C17.0279 18.7021 16.7477 18.7716 16.4922 18.7114C16.5246 18.8495 16.5933 18.98 16.7006 19.0881C17.0078 19.3953 17.5049 19.3953 17.8121 19.0881L32.1447 4.75549C32.4519 4.44827 32.4519 3.95117 32.1447 3.64396C32.0374 3.53666 31.9062 3.46719 31.768 3.43555C31.8274 3.69104 31.7587 3.97124 31.5596 4.17039Z" fill="#2D3366"/>
<path d="M32.5714 3.21263L35.7841 3.81625L30.6139 8.98641L27.4013 8.38279L26.7969 5.17016L31.967 0L32.5714 3.21263Z" fill="#6876C7"/>
<path d="M35.789 3.81651L30.6189 8.98667L27.4062 8.38305L32.5764 3.21289L35.789 3.81651Z" fill="#2D3366"/>
</svg>
