
<svg width="40" height="40" viewBox="0 0 40 40" fill="none" xmlns="http://www.w3.org/2000/svg">
<path d="M28.3875 28.6825C28.3875 28.7239 28.3858 28.7645 28.3834 28.8051C28.2454 30.8087 24.7244 32.4137 20.4022 32.4137C16.08 32.4137 12.5591 30.8087 12.4211 28.8051C12.4186 28.7645 12.417 28.7239 12.417 28.6825C12.417 28.6411 12.4186 28.6005 12.4211 28.5608C12.4787 27.727 13.1209 26.9623 14.1633 26.355C15.6262 25.4993 17.8774 24.9521 20.4022 24.9521C22.927 24.9521 25.1783 25.4993 26.6412 26.355C27.6836 26.9623 28.3258 27.727 28.3834 28.5608C28.3858 28.6005 28.3875 28.6419 28.3875 28.6825Z" fill="#D1D8FF"/>
<path d="M25.7433 28.6822C25.7433 28.7041 25.7425 28.726 25.7401 28.7479C25.6475 29.8244 23.2908 30.6866 20.3966 30.6866C17.5024 30.6866 15.1448 29.8244 15.0531 28.7479C15.0506 28.726 15.0498 28.7041 15.0498 28.6822C15.0498 28.6602 15.0506 28.6383 15.0531 28.6164C15.1456 27.5399 17.5024 26.6777 20.3966 26.6777C23.2908 26.6777 25.6483 27.5399 25.7401 28.6164C25.7425 28.6383 25.7433 28.6602 25.7433 28.6822Z" fill="#FFBD8E"/>
<path d="M15.1602 29.0881C15.6611 28.1756 17.8141 27.4896 20.3958 27.4896C22.9774 27.4896 25.1304 28.1756 25.6313 29.0881C25.6922 28.9777 25.7295 28.864 25.7401 28.7479C25.7417 28.726 25.7433 28.7041 25.7433 28.6822C25.7433 28.6602 25.7425 28.6383 25.7401 28.6164C25.6475 27.5399 23.2908 26.6777 20.3966 26.6777C17.5024 26.6777 15.1448 27.5399 15.0531 28.6164C15.0514 28.6383 15.0498 28.6602 15.0498 28.6822C15.0498 28.7041 15.0506 28.726 15.0531 28.7479C15.0628 28.864 15.101 28.9777 15.1618 29.0881H15.1602Z" fill="#FF8125"/>
<path d="M12.4211 28.5596C12.4178 28.6002 12.417 28.6408 12.417 28.6822C12.417 28.7236 12.4186 28.7642 12.4211 28.8047C12.5591 30.8084 16.0792 32.4134 20.4022 32.4134C24.7253 32.4134 28.2454 30.8084 28.3834 28.8047C28.3866 28.7642 28.3875 28.7236 28.3875 28.6822C28.3875 28.6408 28.3858 28.6002 28.3834 28.5596V31.1574C28.3866 31.198 28.3875 31.2386 28.3875 31.28C28.3875 31.3214 28.3858 31.362 28.3834 31.4026C28.2454 33.4062 24.7253 35.0112 20.4022 35.0112C16.0792 35.0112 12.5591 33.407 12.4211 31.4026C12.4178 31.362 12.417 31.3214 12.417 31.28C12.417 31.2386 12.4186 31.198 12.4211 31.1574V28.5596Z" fill="#6876C7"/>
<path d="M28.3875 24.623C28.3875 24.6644 28.3858 24.705 28.3834 24.7456C28.2454 26.7492 24.7244 28.3542 20.4022 28.3542C16.08 28.3542 12.5591 26.7492 12.4211 24.7456C12.4186 24.705 12.417 24.6644 12.417 24.623C12.417 24.5816 12.4186 24.541 12.4211 24.5012C12.4787 23.6674 13.1209 22.9027 14.1633 22.2954C15.6262 21.4398 17.8774 20.8926 20.4022 20.8926C22.927 20.8926 25.1783 21.4398 26.6412 22.2954C27.6836 22.9027 28.3258 23.6674 28.3834 24.5012C28.3858 24.541 28.3875 24.5824 28.3875 24.623Z" fill="#D1D8FF"/>
<path d="M25.7433 24.6226C25.7433 24.6445 25.7425 24.6664 25.7401 24.6883C25.6475 25.7648 23.2908 26.627 20.3966 26.627C17.5024 26.627 15.1448 25.7648 15.0531 24.6883C15.0506 24.6664 15.0498 24.6445 15.0498 24.6226C15.0498 24.6007 15.0506 24.5788 15.0531 24.5568C15.1456 23.4803 17.5024 22.6182 20.3966 22.6182C23.2908 22.6182 25.6483 23.4803 25.7401 24.5568C25.7425 24.5788 25.7433 24.6007 25.7433 24.6226Z" fill="#FFBD8E"/>
<path d="M15.1602 25.0285C15.6611 24.116 17.8141 23.43 20.3958 23.43C22.9774 23.43 25.1304 24.116 25.6313 25.0285C25.6922 24.9181 25.7295 24.8044 25.7401 24.6883C25.7417 24.6664 25.7433 24.6445 25.7433 24.6226C25.7433 24.6007 25.7425 24.5788 25.7401 24.5568C25.6475 23.4803 23.2908 22.6182 20.3966 22.6182C17.5024 22.6182 15.1448 23.4803 15.0531 24.5568C15.0514 24.5788 15.0498 24.6007 15.0498 24.6226C15.0498 24.6445 15.0506 24.6664 15.0531 24.6883C15.0628 24.8044 15.101 24.9181 15.1618 25.0285H15.1602Z" fill="#FF8125"/>
<path d="M12.4211 24.5C12.4178 24.5406 12.417 24.5812 12.417 24.6226C12.417 24.664 12.4186 24.7046 12.4211 24.7452C12.5591 26.7488 16.0792 28.3538 20.4022 28.3538C24.7253 28.3538 28.2454 26.7496 28.3834 24.7452C28.3866 24.7046 28.3875 24.664 28.3875 24.6226C28.3875 24.5812 28.3858 24.5406 28.3834 24.5V27.0979C28.3866 27.1385 28.3875 27.1791 28.3875 27.2205C28.3875 27.2619 28.3858 27.3025 28.3834 27.3431C28.2454 29.3467 24.7253 30.9517 20.4022 30.9517C16.0792 30.9517 12.5591 29.3475 12.4211 27.3431C12.4178 27.3025 12.417 27.2619 12.417 27.2205C12.417 27.1791 12.4186 27.1385 12.4211 27.0979V24.5Z" fill="#2D3366"/>
<path d="M28.3875 20.5644C28.3875 20.6058 28.3858 20.6464 28.3834 20.687C28.2454 22.6906 24.7244 24.2956 20.4022 24.2956C16.08 24.2956 12.5591 22.6906 12.4211 20.687C12.4186 20.6464 12.417 20.6058 12.417 20.5644C12.417 20.523 12.4186 20.4824 12.4211 20.4426C12.4787 19.6088 13.1209 18.8441 14.1633 18.2368C15.6262 17.3812 17.8774 16.834 20.4022 16.834C22.927 16.834 25.1783 17.3812 26.6412 18.2368C27.6836 18.8441 28.3258 19.6088 28.3834 20.4426C28.3858 20.4824 28.3875 20.5238 28.3875 20.5644Z" fill="#6876C7"/>
<path d="M25.7433 20.564C25.7433 20.5859 25.7425 20.6078 25.7401 20.6298C25.6475 21.7063 23.2908 22.5684 20.3966 22.5684C17.5024 22.5684 15.1448 21.7063 15.0531 20.6298C15.0506 20.6078 15.0498 20.5859 15.0498 20.564C15.0498 20.5421 15.0506 20.5202 15.0531 20.4982C15.1456 19.4217 17.5024 18.5596 20.3966 18.5596C23.2908 18.5596 25.6483 19.4217 25.7401 20.4982C25.7425 20.5202 25.7433 20.5421 25.7433 20.564Z" fill="#FFBD8E"/>
<path d="M15.1602 20.9699C15.6611 20.0574 17.8141 19.3714 20.3958 19.3714C22.9774 19.3714 25.1304 20.0574 25.6313 20.9699C25.6922 20.8595 25.7295 20.7458 25.7401 20.6298C25.7417 20.6078 25.7433 20.5859 25.7433 20.564C25.7433 20.5421 25.7425 20.5202 25.7401 20.4982C25.6475 19.4217 23.2908 18.5596 20.3966 18.5596C17.5024 18.5596 15.1448 19.4217 15.0531 20.4982C15.0514 20.5202 15.0498 20.5421 15.0498 20.564C15.0498 20.5859 15.0506 20.6078 15.0531 20.6298C15.0628 20.7458 15.101 20.8595 15.1618 20.9699H15.1602Z" fill="#FF8125"/>
<path d="M12.4211 20.4414C12.4178 20.482 12.417 20.5226 12.417 20.564C12.417 20.6054 12.4186 20.646 12.4211 20.6866C12.5591 22.6902 16.0792 24.2952 20.4022 24.2952C24.7253 24.2952 28.2454 22.691 28.3834 20.6866C28.3866 20.646 28.3875 20.6054 28.3875 20.564C28.3875 20.5226 28.3858 20.482 28.3834 20.4414V23.0393C28.3866 23.0799 28.3875 23.1205 28.3875 23.1619C28.3875 23.2033 28.3858 23.2439 28.3834 23.2845C28.2454 25.2881 24.7253 26.8931 20.4022 26.8931C16.0792 26.8931 12.5591 25.2889 12.4211 23.2845C12.4178 23.2439 12.417 23.2033 12.417 23.1619C12.417 23.1205 12.4186 23.0799 12.4211 23.0393V20.4414Z" fill="#2D3366"/>
<path d="M28.3875 16.5048C28.3875 16.5462 28.3858 16.5868 28.3834 16.6274C28.2454 18.631 24.7244 20.236 20.4022 20.236C16.08 20.236 12.5591 18.631 12.4211 16.6274C12.4186 16.5868 12.417 16.5462 12.417 16.5048C12.417 16.4634 12.4186 16.4228 12.4211 16.383C12.4787 15.5493 13.1209 14.7845 14.1633 14.1773C15.6262 13.3216 17.8774 12.7744 20.4022 12.7744C22.927 12.7744 25.1783 13.3216 26.6412 14.1773C27.6836 14.7845 28.3258 15.5493 28.3834 16.383C28.3858 16.4228 28.3875 16.4642 28.3875 16.5048Z" fill="#6876C7"/>
<path d="M25.7433 16.5044C25.7433 16.5263 25.7425 16.5483 25.7401 16.5702C25.6475 17.6467 23.2908 18.5089 20.3966 18.5089C17.5024 18.5089 15.1448 17.6467 15.0531 16.5702C15.0506 16.5483 15.0498 16.5263 15.0498 16.5044C15.0498 16.4825 15.0506 16.4606 15.0531 16.4387C15.1456 15.3622 17.5024 14.5 20.3966 14.5C23.2908 14.5 25.6483 15.3622 25.7401 16.4387C25.7425 16.4606 25.7433 16.4825 25.7433 16.5044Z" fill="#D1D8FF"/>
<path d="M15.1602 16.9103C15.6611 15.9978 17.8141 15.3118 20.3958 15.3118C22.9774 15.3118 25.1304 15.9978 25.6313 16.9103C25.6922 16.7999 25.7295 16.6863 25.7401 16.5702C25.7417 16.5483 25.7433 16.5263 25.7433 16.5044C25.7433 16.4825 25.7425 16.4606 25.7401 16.4387C25.6475 15.3622 23.2908 14.5 20.3966 14.5C17.5024 14.5 15.1448 15.3622 15.0531 16.4387C15.0514 16.4606 15.0498 16.4825 15.0498 16.5044C15.0498 16.5263 15.0506 16.5483 15.0531 16.5702C15.0628 16.6863 15.101 16.7999 15.1618 16.9103H15.1602Z" fill="#2D3366"/>
<path d="M12.4211 16.3818C12.4178 16.4224 12.417 16.463 12.417 16.5044C12.417 16.5458 12.4186 16.5864 12.4211 16.627C12.5591 18.6306 16.0792 20.2356 20.4022 20.2356C24.7253 20.2356 28.2454 18.6314 28.3834 16.627C28.3866 16.5864 28.3875 16.5458 28.3875 16.5044C28.3875 16.463 28.3858 16.4224 28.3834 16.3818V18.9797C28.3866 19.0203 28.3875 19.0609 28.3875 19.1023C28.3875 19.1437 28.3858 19.1843 28.3834 19.2249C28.2454 21.2285 24.7253 22.8335 20.4022 22.8335C16.0792 22.8335 12.5591 21.2293 12.4211 19.2249C12.4178 19.1843 12.417 19.1437 12.417 19.1023C12.417 19.0609 12.4186 19.0203 12.4211 18.9797V16.3818Z" fill="#2D3366"/>
<path d="M20.406 12.7744C17.8811 12.7744 15.6299 13.3216 14.167 14.1773C14.3813 14.4614 14.6143 14.7309 14.8652 14.9826C14.8709 14.9883 14.8757 14.994 14.8814 14.9997C14.8903 15.0086 14.8993 15.0167 14.9082 15.0256C14.9529 15.0695 14.9983 15.1133 15.0438 15.1563C15.0511 15.1637 15.0584 15.171 15.0657 15.1783H15.0665C15.2354 15.3358 15.4115 15.4868 15.5942 15.6296C15.5942 15.6296 15.5942 15.6296 15.595 15.6296C16.4612 14.9607 18.2895 14.4996 20.406 14.4996C22.5224 14.4996 24.3499 14.9607 25.2169 15.6296C25.2169 15.6296 25.2169 15.6296 25.2177 15.6296C25.4004 15.4868 25.5766 15.3358 25.7454 15.1774H25.7462C25.7535 15.171 25.7608 15.1637 25.7681 15.1563C25.8136 15.1133 25.8591 15.0695 25.9037 15.0256C25.9127 15.0167 25.9216 15.0086 25.9297 14.9997C25.9362 14.994 25.9411 14.9883 25.9467 14.9826C26.1976 14.7309 26.4306 14.4614 26.6449 14.1773C25.182 13.3216 22.9308 12.7744 20.406 12.7744Z" fill="#6876C7"/>
<path d="M28.2291 8.66371C28.2291 8.74976 28.2275 8.835 28.225 8.92025C28.0903 13.1166 24.6457 16.4768 20.4168 16.4768C16.1879 16.4768 12.7433 13.1166 12.6086 8.92025C12.6053 8.835 12.6045 8.74976 12.6045 8.66371C12.6045 8.57765 12.6061 8.49241 12.6086 8.40717C12.7433 4.21078 16.1879 0.850586 20.4168 0.850586C24.6457 0.850586 28.0903 4.21078 28.225 8.40717C28.2283 8.49241 28.2291 8.57765 28.2291 8.66371Z" fill="#19BC8A"/>
<path d="M28.1144 8.77645C28.1144 8.86088 28.1128 8.94531 28.1104 9.02893C27.9772 13.1644 24.5829 16.4767 20.4141 16.4767C16.2454 16.4767 12.8511 13.1644 12.7179 9.02893C12.7147 8.94531 12.7139 8.86088 12.7139 8.77645C12.7139 8.69202 12.7155 8.60758 12.7179 8.52397C12.8511 4.38847 16.2454 1.07617 20.4141 1.07617C24.5829 1.07617 27.9772 4.38847 28.1104 8.52397C28.1136 8.60758 28.1144 8.69202 28.1144 8.77645Z" fill="#19BC8A"/>
<path d="M28.2369 8.66377C28.2369 8.74982 28.2353 8.83506 28.2329 8.92031H12.6164C12.6131 8.83506 12.6123 8.74982 12.6123 8.66377C12.6123 8.57771 12.6139 8.49247 12.6164 8.40723H28.2329C28.2361 8.49247 28.2369 8.57771 28.2369 8.66377Z" fill="#19BC8A"/>
<path d="M20.4235 0.851562C20.5096 0.851562 20.5948 0.853186 20.6801 0.855621V16.4721C20.5948 16.4754 20.5096 16.4762 20.4235 16.4762C20.3375 16.4762 20.2522 16.4746 20.167 16.4721V0.855621C20.2522 0.852374 20.3375 0.851562 20.4235 0.851562Z" fill="#19BC8A"/>
<path d="M20.1748 16.4717C20.187 16.4725 20.1992 16.4725 20.2113 16.4733C20.1992 16.4733 20.187 16.4725 20.1748 16.4717Z" fill="#EC6502"/>
<path d="M20.6514 16.4735C20.6635 16.4735 20.6757 16.4735 20.6879 16.4727C20.6757 16.4727 20.6635 16.4727 20.6514 16.4735Z" fill="#EC6502"/>
<path d="M20.4337 16.477C20.376 16.477 20.3184 16.4762 20.2607 16.4746C20.3184 16.4762 20.3752 16.477 20.4337 16.477Z" fill="#EC6502"/>
<path d="M25.9486 14.1878C25.8877 14.2487 25.8268 14.308 25.7643 14.3656L14.7217 3.32302C14.7793 3.2605 14.8394 3.19962 14.8995 3.13873C14.9604 3.07784 15.0212 3.01858 15.0838 2.96094L26.1264 14.0035C26.0687 14.0661 26.0086 14.1269 25.9486 14.1878Z" fill="#19BC8A"/>
<path d="M25.9486 3.13971C26.0095 3.20059 26.0687 3.26148 26.1264 3.32399L15.0838 14.3666C15.0212 14.309 14.9604 14.2489 14.8995 14.1888C14.8386 14.1279 14.7793 14.067 14.7217 14.0045L25.7643 2.96191C25.8268 3.01955 25.8877 3.07963 25.9486 3.13971Z" fill="#19BC8A"/>
<path d="M24.7484 12.9959C27.1408 10.6035 27.1408 6.72464 24.7484 4.33224C22.356 1.93984 18.4772 1.93984 16.0848 4.33224C13.6924 6.72464 13.6924 10.6035 16.0848 12.9959C18.4772 15.3883 22.356 15.3883 24.7484 12.9959Z" fill="white"/>
<path d="M24.316 12.5705C26.4735 10.413 26.4735 6.91509 24.316 4.75762C22.1586 2.60014 18.6606 2.60014 16.5031 4.75762C14.3457 6.91509 14.3457 10.413 16.5031 12.5705C18.6606 14.728 22.1586 14.728 24.316 12.5705Z" fill="#19BC8A"/>
<path d="M22.2451 7.45739V7.89205C22.2451 7.93182 22.2318 7.96449 22.205 7.99006C22.1783 8.01562 22.1442 8.02841 22.1026 8.02841H21.3542C21.2859 8.4375 21.0944 8.76989 20.7796 9.02557C20.4649 9.28125 20.0551 9.4375 19.5502 9.49432C20.0462 10 20.7277 10.7614 21.5948 11.7784C21.6364 11.8239 21.6423 11.8722 21.6126 11.9233C21.5888 11.9744 21.5458 12 21.4834 12H20.6148C20.5673 12 20.5302 11.983 20.5035 11.9489C19.5948 10.9062 18.8554 10.0952 18.2852 9.51562C18.2585 9.49006 18.2451 9.45881 18.2451 9.42188V8.88068C18.2451 8.84375 18.2592 8.81179 18.2874 8.7848C18.3156 8.75781 18.3491 8.74432 18.3877 8.74432H18.8865C19.2785 8.74432 19.594 8.68324 19.8331 8.56108C20.0721 8.43892 20.2243 8.26136 20.2897 8.02841H18.3877C18.3461 8.02841 18.3119 8.01562 18.2852 7.99006C18.2585 7.96449 18.2451 7.93182 18.2451 7.89205V7.45739C18.2451 7.41761 18.2585 7.38494 18.2852 7.35938C18.3119 7.33381 18.3461 7.32102 18.3877 7.32102H20.2273C20.058 7 19.6601 6.83949 19.0335 6.83949H18.3877C18.3491 6.83949 18.3156 6.82599 18.2874 6.79901C18.2592 6.77202 18.2451 6.74006 18.2451 6.70312V6.13636C18.2451 6.09659 18.2585 6.06392 18.2852 6.03835C18.3119 6.01278 18.3461 6 18.3877 6H22.0937C22.1352 6 22.1694 6.01278 22.1961 6.03835C22.2228 6.06392 22.2362 6.09659 22.2362 6.13636V6.57102C22.2362 6.6108 22.2228 6.64347 22.1961 6.66903C22.1694 6.6946 22.1352 6.70739 22.0937 6.70739H21.0558C21.1954 6.88068 21.2904 7.08523 21.3409 7.32102H22.1026C22.1442 7.32102 22.1783 7.33381 22.205 7.35938C22.2318 7.38494 22.2451 7.41761 22.2451 7.45739Z" fill="black" fill-opacity="0.29"/>
<path d="M21.7451 6.95739V7.39205C21.7451 7.43182 21.7318 7.46449 21.705 7.49006C21.6783 7.51562 21.6442 7.52841 21.6026 7.52841H20.8542C20.7859 7.9375 20.5944 8.26989 20.2796 8.52557C19.9649 8.78125 19.5551 8.9375 19.0502 8.99432C19.5462 9.5 20.2277 10.2614 21.0948 11.2784C21.1364 11.3239 21.1423 11.3722 21.1126 11.4233C21.0888 11.4744 21.0458 11.5 20.9834 11.5H20.1148C20.0673 11.5 20.0302 11.483 20.0035 11.4489C19.0948 10.4062 18.3554 9.59517 17.7852 9.01562C17.7585 8.99006 17.7451 8.95881 17.7451 8.92188V8.38068C17.7451 8.34375 17.7592 8.31179 17.7874 8.2848C17.8156 8.25781 17.8491 8.24432 17.8877 8.24432H18.3865C18.7785 8.24432 19.094 8.18324 19.3331 8.06108C19.5721 7.93892 19.7243 7.76136 19.7897 7.52841H17.8877C17.8461 7.52841 17.8119 7.51562 17.7852 7.49006C17.7585 7.46449 17.7451 7.43182 17.7451 7.39205V6.95739C17.7451 6.91761 17.7585 6.88494 17.7852 6.85938C17.8119 6.83381 17.8461 6.82102 17.8877 6.82102H19.7273C19.558 6.5 19.1601 6.33949 18.5335 6.33949H17.8877C17.8491 6.33949 17.8156 6.32599 17.7874 6.29901C17.7592 6.27202 17.7451 6.24006 17.7451 6.20312V5.63636C17.7451 5.59659 17.7585 5.56392 17.7852 5.53835C17.8119 5.51278 17.8461 5.5 17.8877 5.5H21.5937C21.6352 5.5 21.6694 5.51278 21.6961 5.53835C21.7228 5.56392 21.7362 5.59659 21.7362 5.63636V6.07102C21.7362 6.1108 21.7228 6.14347 21.6961 6.16903C21.6694 6.1946 21.6352 6.20739 21.5937 6.20739H20.5558C20.6954 6.38068 20.7904 6.58523 20.8409 6.82102H21.6026C21.6442 6.82102 21.6783 6.83381 21.705 6.85938C21.7318 6.88494 21.7451 6.91761 21.7451 6.95739Z" fill="white"/>
<path d="M16.2156 32.7411C16.2156 32.7825 16.214 32.8231 16.2115 32.8637C16.0735 34.8673 12.5526 36.4723 8.23035 36.4723C3.90813 36.4723 0.387189 34.8673 0.249177 32.8637C0.246741 32.8231 0.245117 32.7825 0.245117 32.7411C0.245117 32.6997 0.246741 32.6591 0.249177 32.6194C0.306817 31.7856 0.948979 31.0209 1.99138 30.4136C3.45431 29.5579 5.70553 29.0107 8.23035 29.0107C10.7552 29.0107 13.0064 29.5579 14.4693 30.4136C15.5117 31.0209 16.1539 31.7856 16.2115 32.6194C16.214 32.6591 16.2156 32.7005 16.2156 32.7411Z" fill="#6876C7"/>
<path d="M13.5714 32.7408C13.5714 32.7627 13.5706 32.7846 13.5682 32.8065C13.4757 33.883 11.1189 34.7452 8.22469 34.7452C5.33049 34.7452 2.97291 33.883 2.88118 32.8065C2.87874 32.7846 2.87793 32.7627 2.87793 32.7408C2.87793 32.7188 2.87874 32.6969 2.88118 32.675C2.97373 31.5985 5.33049 30.7363 8.22469 30.7363C11.1189 30.7363 13.4765 31.5985 13.5682 32.675C13.5706 32.6969 13.5714 32.7188 13.5714 32.7408Z" fill="#FFBD8E"/>
<path d="M2.98834 33.1467C3.48924 32.2342 5.64224 31.5482 8.22388 31.5482C10.8055 31.5482 12.9585 32.2342 13.4594 33.1467C13.5203 33.0363 13.5576 32.9226 13.5682 32.8065C13.5698 32.7846 13.5714 32.7627 13.5714 32.7408C13.5714 32.7188 13.5706 32.6969 13.5682 32.675C13.4757 31.5985 11.1189 30.7363 8.22469 30.7363C5.33049 30.7363 2.97292 31.5985 2.88118 32.675C2.87955 32.6969 2.87793 32.7188 2.87793 32.7408C2.87793 32.7627 2.87874 32.7846 2.88118 32.8065C2.89092 32.9226 2.92908 33.0363 2.98996 33.1467H2.98834Z" fill="#FF8125"/>
<path d="M0.249177 32.6182C0.245929 32.6588 0.245117 32.6993 0.245117 32.7407C0.245117 32.7822 0.246741 32.8227 0.249177 32.8633C0.387189 34.867 3.90731 36.472 8.23035 36.472C12.5534 36.472 16.0735 34.8678 16.2115 32.8633C16.2148 32.8227 16.2156 32.7822 16.2156 32.7407C16.2156 32.6993 16.214 32.6588 16.2115 32.6182V35.216C16.2148 35.2566 16.2156 35.2972 16.2156 35.3386C16.2156 35.38 16.214 35.4206 16.2115 35.4612C16.0735 37.4648 12.5534 39.0698 8.23035 39.0698C3.90731 39.0698 0.387189 37.4656 0.249177 35.4612C0.245929 35.4206 0.245117 35.38 0.245117 35.3386C0.245117 35.2972 0.246741 35.2566 0.249177 35.216V32.6182Z" fill="#2D3366"/>
<path d="M16.2156 28.6825C16.2156 28.7239 16.214 28.7645 16.2115 28.8051C16.0735 30.8087 12.5526 32.4137 8.23035 32.4137C3.90813 32.4137 0.387189 30.8087 0.249177 28.8051C0.246741 28.7645 0.245117 28.7239 0.245117 28.6825C0.245117 28.6411 0.246741 28.6005 0.249177 28.5608C0.306817 27.727 0.948979 26.9623 1.99138 26.355C3.45431 25.4993 5.70553 24.9521 8.23035 24.9521C10.7552 24.9521 13.0064 25.4993 14.4693 26.355C15.5117 26.9623 16.1539 27.727 16.2115 28.5608C16.214 28.6005 16.2156 28.6419 16.2156 28.6825Z" fill="#D1D8FF"/>
<path d="M13.5714 28.6822C13.5714 28.7041 13.5706 28.726 13.5682 28.7479C13.4757 29.8244 11.1189 30.6866 8.22469 30.6866C5.33049 30.6866 2.97291 29.8244 2.88118 28.7479C2.87874 28.726 2.87793 28.7041 2.87793 28.6822C2.87793 28.6602 2.87874 28.6383 2.88118 28.6164C2.97373 27.5399 5.33049 26.6777 8.22469 26.6777C11.1189 26.6777 13.4765 27.5399 13.5682 28.6164C13.5706 28.6383 13.5714 28.6602 13.5714 28.6822Z" fill="#FFBD8E"/>
<path d="M2.98834 29.0881C3.48924 28.1756 5.64224 27.4896 8.22388 27.4896C10.8055 27.4896 12.9585 28.1756 13.4594 29.0881C13.5203 28.9777 13.5576 28.864 13.5682 28.7479C13.5698 28.726 13.5714 28.7041 13.5714 28.6822C13.5714 28.6602 13.5706 28.6383 13.5682 28.6164C13.4757 27.5399 11.1189 26.6777 8.22469 26.6777C5.33049 26.6777 2.97292 27.5399 2.88118 28.6164C2.87955 28.6383 2.87793 28.6602 2.87793 28.6822C2.87793 28.7041 2.87874 28.726 2.88118 28.7479C2.89092 28.864 2.92908 28.9777 2.98996 29.0881H2.98834Z" fill="#FF8125"/>
<path d="M0.249177 28.5596C0.245929 28.6002 0.245117 28.6408 0.245117 28.6822C0.245117 28.7236 0.246741 28.7642 0.249177 28.8047C0.387189 30.8084 3.90731 32.4134 8.23035 32.4134C12.5534 32.4134 16.0735 30.8084 16.2115 28.8047C16.2148 28.7642 16.2156 28.7236 16.2156 28.6822C16.2156 28.6408 16.214 28.6002 16.2115 28.5596V31.1574C16.2148 31.198 16.2156 31.2386 16.2156 31.28C16.2156 31.3214 16.214 31.362 16.2115 31.4026C16.0735 33.4062 12.5534 35.0112 8.23035 35.0112C3.90731 35.0112 0.387189 33.407 0.249177 31.4026C0.245929 31.362 0.245117 31.3214 0.245117 31.28C0.245117 31.2386 0.246741 31.198 0.249177 31.1574V28.5596Z" fill="#2D3366"/>
<path d="M16.2156 24.623C16.2156 24.6644 16.214 24.705 16.2115 24.7456C16.0735 26.7492 12.5526 28.3542 8.23035 28.3542C3.90813 28.3542 0.387189 26.7492 0.249177 24.7456C0.246741 24.705 0.245117 24.6644 0.245117 24.623C0.245117 24.5816 0.246741 24.541 0.249177 24.5012C0.306817 23.6674 0.948979 22.9027 1.99138 22.2954C3.45431 21.4398 5.70553 20.8926 8.23035 20.8926C10.7552 20.8926 13.0064 21.4398 14.4693 22.2954C15.5117 22.9027 16.1539 23.6674 16.2115 24.5012C16.214 24.541 16.2156 24.5824 16.2156 24.623Z" fill="#6876C7"/>
<path d="M13.5714 24.6226C13.5714 24.6445 13.5706 24.6664 13.5682 24.6883C13.4757 25.7648 11.1189 26.627 8.22469 26.627C5.33049 26.627 2.97291 25.7648 2.88118 24.6883C2.87874 24.6664 2.87793 24.6445 2.87793 24.6226C2.87793 24.6007 2.87874 24.5788 2.88118 24.5568C2.97373 23.4803 5.33049 22.6182 8.22469 22.6182C11.1189 22.6182 13.4765 23.4803 13.5682 24.5568C13.5706 24.5788 13.5714 24.6007 13.5714 24.6226Z" fill="#D1D8FF"/>
<path d="M2.98834 25.0285C3.48924 24.116 5.64224 23.43 8.22388 23.43C10.8055 23.43 12.9585 24.116 13.4594 25.0285C13.5203 24.9181 13.5576 24.8044 13.5682 24.6883C13.5698 24.6664 13.5714 24.6445 13.5714 24.6226C13.5714 24.6007 13.5706 24.5788 13.5682 24.5568C13.4757 23.4803 11.1189 22.6182 8.22469 22.6182C5.33049 22.6182 2.97292 23.4803 2.88118 24.5568C2.87955 24.5788 2.87793 24.6007 2.87793 24.6226C2.87793 24.6445 2.87874 24.6664 2.88118 24.6883C2.89092 24.8044 2.92908 24.9181 2.98996 25.0285H2.98834Z" fill="#2D3366"/>
<path d="M0.249177 24.5C0.245929 24.5406 0.245117 24.5812 0.245117 24.6226C0.245117 24.664 0.246741 24.7046 0.249177 24.7452C0.387189 26.7488 3.90731 28.3538 8.23035 28.3538C12.5534 28.3538 16.0735 26.7496 16.2115 24.7452C16.2148 24.7046 16.2156 24.664 16.2156 24.6226C16.2156 24.5812 16.214 24.5406 16.2115 24.5V27.0979C16.2148 27.1385 16.2156 27.1791 16.2156 27.2205C16.2156 27.2619 16.214 27.3025 16.2115 27.3431C16.0735 29.3467 12.5534 30.9517 8.23035 30.9517C3.90731 30.9517 0.387189 29.3475 0.249177 27.3431C0.245929 27.3025 0.245117 27.2619 0.245117 27.2205C0.245117 27.1791 0.246741 27.1385 0.249177 27.0979V24.5Z" fill="#2D3366"/>
<path d="M39.7546 32.7411C39.7546 32.7825 39.753 32.8231 39.7506 32.8637C39.6126 34.8673 36.0916 36.4723 31.7694 36.4723C27.4472 36.4723 23.9263 34.8673 23.7882 32.8637C23.7858 32.8231 23.7842 32.7825 23.7842 32.7411C23.7842 32.6997 23.7858 32.6591 23.7882 32.6194C23.8459 31.7856 24.488 31.0209 25.5304 30.4136C26.9934 29.5579 29.2446 29.0107 31.7694 29.0107C34.2942 29.0107 36.5454 29.5579 38.0084 30.4136C39.0508 31.0209 39.6929 31.7856 39.7506 32.6194C39.753 32.6591 39.7546 32.7005 39.7546 32.7411Z" fill="#6876C7"/>
<path d="M37.1105 32.7408C37.1105 32.7627 37.1097 32.7846 37.1073 32.8065C37.0147 33.883 34.6579 34.7452 31.7638 34.7452C28.8696 34.7452 26.512 33.883 26.4202 32.8065C26.4178 32.7846 26.417 32.7627 26.417 32.7408C26.417 32.7188 26.4178 32.6969 26.4202 32.675C26.5128 31.5985 28.8696 30.7363 31.7638 30.7363C34.6579 30.7363 37.0155 31.5985 37.1073 32.675C37.1097 32.6969 37.1105 32.7188 37.1105 32.7408Z" fill="#FFBD8E"/>
<path d="M26.5274 33.1467C27.0283 32.2342 29.1813 31.5482 31.7629 31.5482C34.3446 31.5482 36.4976 32.2342 36.9985 33.1467C37.0594 33.0363 37.0967 32.9226 37.1073 32.8065C37.1089 32.7846 37.1105 32.7627 37.1105 32.7408C37.1105 32.7188 37.1097 32.6969 37.1073 32.675C37.0147 31.5985 34.658 30.7363 31.7638 30.7363C28.8696 30.7363 26.512 31.5985 26.4202 32.675C26.4186 32.6969 26.417 32.7188 26.417 32.7408C26.417 32.7627 26.4178 32.7846 26.4202 32.8065C26.43 32.9226 26.4681 33.0363 26.529 33.1467H26.5274Z" fill="#FF8125"/>
<path d="M23.7882 32.6182C23.785 32.6588 23.7842 32.6993 23.7842 32.7407C23.7842 32.7822 23.7858 32.8227 23.7882 32.8633C23.9263 34.867 27.4464 36.472 31.7694 36.472C36.0924 36.472 39.6126 34.8678 39.7506 32.8633C39.7538 32.8227 39.7546 32.7822 39.7546 32.7407C39.7546 32.6993 39.753 32.6588 39.7506 32.6182V35.216C39.7538 35.2566 39.7546 35.2972 39.7546 35.3386C39.7546 35.38 39.753 35.4206 39.7506 35.4612C39.6126 37.4648 36.0924 39.0698 31.7694 39.0698C27.4464 39.0698 23.9263 37.4656 23.7882 35.4612C23.785 35.4206 23.7842 35.38 23.7842 35.3386C23.7842 35.2972 23.7858 35.2566 23.7882 35.216V32.6182Z" fill="#2D3366"/>
<path d="M39.7546 28.6825C39.7546 28.7239 39.753 28.7645 39.7506 28.8051C39.6126 30.8087 36.0916 32.4137 31.7694 32.4137C27.4472 32.4137 23.9263 30.8087 23.7882 28.8051C23.7858 28.7645 23.7842 28.7239 23.7842 28.6825C23.7842 28.6411 23.7858 28.6005 23.7882 28.5608C23.8459 27.727 24.488 26.9623 25.5304 26.355C26.9934 25.4993 29.2446 24.9521 31.7694 24.9521C34.2942 24.9521 36.5454 25.4993 38.0084 26.355C39.0508 26.9623 39.6929 27.727 39.7506 28.5608C39.753 28.6005 39.7546 28.6419 39.7546 28.6825Z" fill="#6876C7"/>
<path d="M37.1105 28.6822C37.1105 28.7041 37.1097 28.726 37.1073 28.7479C37.0147 29.8244 34.6579 30.6866 31.7638 30.6866C28.8696 30.6866 26.512 29.8244 26.4202 28.7479C26.4178 28.726 26.417 28.7041 26.417 28.6822C26.417 28.6602 26.4178 28.6383 26.4202 28.6164C26.5128 27.5399 28.8696 26.6777 31.7638 26.6777C34.6579 26.6777 37.0155 27.5399 37.1073 28.6164C37.1097 28.6383 37.1105 28.6602 37.1105 28.6822Z" fill="#D1D8FF"/>
<path d="M26.5274 29.0881C27.0283 28.1756 29.1813 27.4896 31.7629 27.4896C34.3446 27.4896 36.4976 28.1756 36.9985 29.0881C37.0594 28.9777 37.0967 28.864 37.1073 28.7479C37.1089 28.726 37.1105 28.7041 37.1105 28.6822C37.1105 28.6602 37.1097 28.6383 37.1073 28.6164C37.0147 27.5399 34.658 26.6777 31.7638 26.6777C28.8696 26.6777 26.512 27.5399 26.4202 28.6164C26.4186 28.6383 26.417 28.6602 26.417 28.6822C26.417 28.7041 26.4178 28.726 26.4202 28.7479C26.43 28.864 26.4681 28.9777 26.529 29.0881H26.5274Z" fill="#2D3366"/>
<path d="M23.7882 28.5596C23.785 28.6002 23.7842 28.6408 23.7842 28.6822C23.7842 28.7236 23.7858 28.7642 23.7882 28.8047C23.9263 30.8084 27.4464 32.4134 31.7694 32.4134C36.0924 32.4134 39.6126 30.8084 39.7506 28.8047C39.7538 28.7642 39.7546 28.7236 39.7546 28.6822C39.7546 28.6408 39.753 28.6002 39.7506 28.5596V31.1574C39.7538 31.198 39.7546 31.2386 39.7546 31.28C39.7546 31.3214 39.753 31.362 39.7506 31.4026C39.6126 33.4062 36.0924 35.0112 31.7694 35.0112C27.4464 35.0112 23.9263 33.407 23.7882 31.4026C23.785 31.362 23.7842 31.3214 23.7842 31.28C23.7842 31.2386 23.7858 31.198 23.7882 31.1574V28.5596Z" fill="#2D3366"/>
</svg>
