
<svg width="25" height="24" viewBox="0 0 25 24" fill="none" xmlns="http://www.w3.org/2000/svg">
<path d="M23.4 6H19C18.7349 6.0003 18.4807 6.10576 18.2932 6.29323C18.1058 6.4807 18.0003 6.73487 18 6.99999V22.9999C18.0003 23.265 18.1058 23.5192 18.2932 23.7066C18.4807 23.8941 18.7349 23.9996 19 23.9999H23.4C23.6651 23.9996 23.9193 23.8941 24.1067 23.7066C24.2942 23.5192 24.3996 23.265 24.3999 22.9999V6.99999C24.3996 6.73487 24.2942 6.4807 24.1067 6.29323C23.9193 6.10576 23.6651 6.0003 23.4 6ZM22.8 22.3999H19.6V7.59999H22.8V22.3999Z" fill="#7E838D"/>
<path d="M5.39996 11.2002H0.999992C0.734871 11.2005 0.480696 11.306 0.293227 11.4934C0.105758 11.6809 0.000304364 11.9351 0 12.2002V23.0001C0.000304364 23.2652 0.105758 23.5194 0.293227 23.7069C0.480696 23.8943 0.734871 23.9998 0.999992 24.0001H5.39996C5.66508 23.9998 5.91925 23.8943 6.10672 23.7069C6.29419 23.5194 6.39965 23.2652 6.39995 23.0001V12.2002C6.39965 11.9351 6.29419 11.6809 6.10672 11.4934C5.91925 11.306 5.66508 11.2005 5.39996 11.2002ZM4.79996 22.4001H1.59999V12.8002H4.79996V22.4001Z" fill="#7E838D"/>
<path d="M14.4 0H9.99999C9.73487 0.000304364 9.4807 0.105758 9.29323 0.293227C9.10576 0.480696 9.0003 0.734871 9 0.999992V22.9998C9.0003 23.2649 9.10576 23.5191 9.29323 23.7066C9.4807 23.8941 9.73487 23.9995 9.99999 23.9998H14.4C14.6651 23.9995 14.9193 23.8941 15.1067 23.7066C15.2942 23.5191 15.3996 23.2649 15.3999 22.9998V0.999992C15.3996 0.734871 15.2942 0.480696 15.1067 0.293227C14.9193 0.105758 14.6651 0.000304364 14.4 0ZM13.8 22.3998H10.6V1.59999H13.8V22.3998Z" fill="#7E838D"/>
</svg>
