
<svg width="23" height="22" viewBox="0 0 23 22" fill="none" xmlns="http://www.w3.org/2000/svg">
<path d="M21.3578 17.6121L17.6223 13.8905L14.7491 12.7078C15.7058 11.3523 16.2183 9.73525 16.2165 8.0782C16.2165 3.62385 12.5791 0 8.10823 0C3.63732 0 0 3.62385 0 8.0782C0 12.5326 3.63732 16.1564 8.10823 16.1564C9.78591 16.1583 11.4224 15.6388 12.7898 14.6703L13.9737 17.5252L17.7091 21.2471C17.9487 21.4858 18.2331 21.6751 18.5461 21.8043C18.8591 21.9335 19.1946 22 19.5334 22C19.8722 22 20.2077 21.9335 20.5207 21.8044C20.8337 21.6752 21.1181 21.4859 21.3577 21.2472C21.5973 21.0085 21.7873 20.7252 21.917 20.4133C22.0466 20.1015 22.1134 19.7672 22.1134 19.4297C22.1134 19.0921 22.0467 18.7579 21.917 18.446C21.7874 18.1342 21.5974 17.8508 21.3578 17.6121ZM1.47422 8.0782C1.47422 4.43383 4.45031 1.46876 8.10823 1.46876C11.7661 1.46876 14.7422 4.43383 14.7422 8.0782C14.7422 11.7226 11.7661 14.6876 8.10823 14.6876C4.45031 14.6876 1.47422 11.7226 1.47422 8.0782ZM20.3153 20.2085C20.1078 20.4148 19.8266 20.5307 19.5335 20.5307C19.2403 20.5307 18.9591 20.4148 18.7516 20.2085L15.224 16.694L14.1232 14.0394L16.7877 15.1361L20.3154 18.6507C20.5224 18.8575 20.6387 19.1376 20.6387 19.4296C20.6386 19.7217 20.5223 20.0018 20.3153 20.2085Z" fill="#868C97"/>
</svg>
