<svg xmlns="http://www.w3.org/2000/svg" width="17" height="16" viewBox="0 0 17 16" fill="none">
<path d="M15.533 12.8088L12.8162 10.1022L10.7266 9.24203C11.4224 8.25623 11.7951 7.08018 11.7938 5.87506C11.7938 2.63553 9.14846 0 5.89689 0C2.64533 0 0 2.63553 0 5.87506C0 9.11458 2.64533 11.7501 5.89689 11.7501C7.11702 11.7515 8.30721 11.3737 9.30165 10.6693L10.1627 12.7456L12.8794 15.4524C13.0536 15.626 13.2604 15.7637 13.4881 15.8577C13.7157 15.9516 13.9597 16 14.2061 16C14.4525 16 14.6965 15.9517 14.9241 15.8577C15.1518 15.7638 15.3586 15.6261 15.5329 15.4525C15.7071 15.2789 15.8453 15.0729 15.9396 14.8461C16.0339 14.6193 16.0825 14.3762 16.0825 14.1307C16.0825 13.8852 16.034 13.6421 15.9397 13.4153C15.8454 13.1885 15.7072 12.9824 15.533 12.8088ZM1.07216 5.87506C1.07216 3.2246 3.23659 1.06819 5.89689 1.06819C8.5572 1.06819 10.7216 3.2246 10.7216 5.87506C10.7216 8.52551 8.5572 10.6819 5.89689 10.6819C3.23659 10.6819 1.07216 8.52551 1.07216 5.87506ZM14.7748 14.6971C14.6238 14.8471 14.4194 14.9314 14.2062 14.9314C13.993 14.9314 13.7885 14.8471 13.6375 14.6971L11.072 12.1411L10.2714 10.2105L12.2093 11.0081L14.7748 13.5641C14.9254 13.7145 15.0099 13.9182 15.0099 14.1306C15.0099 14.343 14.9253 14.5468 14.7748 14.6971Z" fill="#5F6570"/>
</svg>