
<svg width="36" height="36" viewBox="0 0 36 36" fill="none" xmlns="http://www.w3.org/2000/svg">
<rect x="0.5" y="0.5" width="35" height="35" rx="7.5" stroke="#DDE0E7"/>
<path d="M22.2079 15.7079C21.7733 15.7057 21.3447 15.6077 20.9538 15.421C20.5629 15.2343 20.2196 14.9636 19.9493 14.6291L15.7048 17.2376C15.8595 17.7284 15.8595 18.2537 15.7048 18.7445L19.9493 21.353C20.3801 20.8286 20.9858 20.471 21.6591 20.3436C22.3324 20.2162 23.0298 20.3271 23.6279 20.6568C24.2259 20.9865 24.686 21.5136 24.9265 22.1448C25.1671 22.776 25.1726 23.4706 24.9421 24.1054C24.7116 24.7402 24.26 25.2744 23.6673 25.6132C23.0745 25.952 22.3789 26.0737 21.7037 25.9566C21.0284 25.8396 20.4171 25.4913 19.978 24.9736C19.5389 24.4559 19.3004 23.8021 19.3047 23.1281C19.3075 22.8729 19.3466 22.6193 19.4209 22.3747L15.1764 19.7662C14.8017 20.2299 14.2895 20.5675 13.7109 20.7323C13.1322 20.897 12.5158 20.8808 11.9469 20.6857C11.3781 20.4906 10.8851 20.1265 10.5363 19.6436C10.1874 19.1608 10 18.5832 10 17.991C10 17.3988 10.1874 16.8213 10.5363 16.3384C10.8851 15.8556 11.3781 15.4914 11.9469 15.2963C12.5158 15.1013 13.1322 15.085 13.7109 15.2498C14.2895 15.4145 14.8017 15.7522 15.1764 16.2159L19.4209 13.6074C19.3466 13.3628 19.3075 13.1092 19.3047 12.8539C19.3047 12.2895 19.475 11.7377 19.794 11.2684C20.113 10.799 20.5664 10.4333 21.0969 10.2172C21.6274 10.0012 22.2111 9.94472 22.7743 10.0548C23.3375 10.165 23.8548 10.4368 24.2608 10.8359C24.6668 11.235 24.9433 11.7436 25.0553 12.2972C25.1673 12.8508 25.1099 13.4246 24.8901 13.9461C24.6704 14.4676 24.2983 14.9133 23.8208 15.2269C23.3434 15.5405 22.7821 15.7079 22.2079 15.7079ZM22.2079 24.8405C22.5524 24.8405 22.8892 24.74 23.1757 24.5519C23.4621 24.3637 23.6854 24.0963 23.8172 23.7834C23.9491 23.4705 23.9836 23.1262 23.9164 22.794C23.8492 22.4619 23.6833 22.1568 23.4396 21.9173C23.196 21.6778 22.8857 21.5147 22.5478 21.4487C22.2099 21.3826 21.8596 21.4165 21.5413 21.5461C21.223 21.6757 20.951 21.8952 20.7596 22.1768C20.5682 22.4584 20.466 22.7894 20.466 23.1281C20.466 23.5823 20.6495 24.0178 20.9762 24.3389C21.3029 24.6601 21.7459 24.8405 22.2079 24.8405ZM12.9177 16.2787C12.5732 16.2787 12.2364 16.3791 11.95 16.5672C11.6635 16.7554 11.4403 17.0228 11.3084 17.3357C11.1766 17.6486 11.1421 17.9929 11.2093 18.3251C11.2765 18.6573 11.4424 18.9624 11.686 19.2018C11.9296 19.4413 12.24 19.6044 12.5779 19.6705C12.9158 19.7366 13.2661 19.7026 13.5843 19.573C13.9026 19.4434 14.1747 19.224 14.3661 18.9424C14.5575 18.6608 14.6597 18.3297 14.6597 17.991C14.6597 17.5369 14.4761 17.1013 14.1495 16.7802C13.8228 16.4591 13.3797 16.2787 12.9177 16.2787ZM22.2079 11.1416C21.8634 11.1416 21.5266 11.242 21.2402 11.4302C20.9537 11.6183 20.7305 11.8858 20.5986 12.1986C20.4668 12.5115 20.4323 12.8558 20.4995 13.188C20.5667 13.5202 20.7326 13.8253 20.9762 14.0648C21.2198 14.3042 21.5302 14.4673 21.8681 14.5334C22.206 14.5995 22.5562 14.5656 22.8745 14.436C23.1928 14.3063 23.4649 14.0869 23.6563 13.8053C23.8477 13.5237 23.9498 13.1926 23.9498 12.8539C23.9498 12.3998 23.7663 11.9642 23.4396 11.6431C23.113 11.322 22.6699 11.1416 22.2079 11.1416Z" fill="#5F6570"/>
</svg>
