<svg width="100" height="34" viewBox="0 0 100 35" fill="none" xmlns="http://www.w3.org/2000/svg">
<path d="M5.47026 29.8801C5.76459 29.8801 6.02948 29.9316 6.26494 30.0411C6.49304 30.1506 6.67699 30.3052 6.80944 30.5242C6.94924 30.7367 7.01547 31.0008 7.01547 31.3035V33.2678H6.39003V31.3807C6.39003 31.0523 6.29437 30.7947 6.11042 30.6208C5.92647 30.4404 5.66893 30.3567 5.35253 30.3567C5.03613 30.3567 4.76388 30.4469 4.57257 30.6336C4.38126 30.8204 4.27825 31.0845 4.27825 31.4323V33.2678H3.65281V31.3807C3.65281 31.0523 3.55716 30.7947 3.3732 30.6208C3.18925 30.4404 2.93172 30.3567 2.61532 30.3567C2.29892 30.3567 2.02667 30.4469 1.83536 30.6336C1.64405 30.8204 1.54103 31.0845 1.54103 31.4323V33.2678H0.900879V29.9381H1.53368V30.4147C1.65876 30.2408 1.828 30.112 2.03403 30.0154C2.24741 29.9188 2.47551 29.8737 2.73305 29.8737C3.0568 29.8737 3.33641 29.9381 3.57923 30.0605C3.82941 30.1893 4.006 30.376 4.12373 30.6143C4.2341 30.3825 4.4107 30.1957 4.65351 30.0669C4.90369 29.9381 5.17594 29.8737 5.47026 29.8737V29.8801ZM11.5407 33.3257C11.1875 33.3257 10.8638 33.2549 10.5768 33.1132C10.2898 32.9715 10.0617 32.7719 9.89248 32.5078C9.73061 32.2438 9.64967 31.9411 9.64967 31.5997C9.64967 31.2584 9.73796 30.9621 9.89984 30.6981C10.0691 30.4404 10.2972 30.2343 10.5915 30.0991C10.8858 29.9574 11.2096 29.8866 11.5701 29.8866C11.9307 29.8866 12.2544 29.9574 12.5488 30.0991C12.8431 30.2408 13.0712 30.4404 13.2404 30.6981C13.4097 30.9557 13.4906 31.2584 13.4906 31.6062C13.4906 31.9539 13.4023 32.2502 13.2331 32.5143C13.0638 32.7783 12.8284 32.978 12.534 33.1197C12.2397 33.2613 11.9086 33.3322 11.5481 33.3322L11.5407 33.3257ZM11.5407 32.8363C11.7688 32.8363 11.9822 32.7912 12.1809 32.6946C12.3795 32.6044 12.5414 32.4627 12.6665 32.276C12.7916 32.0892 12.8504 31.8638 12.8504 31.5933C12.8504 31.3228 12.7916 31.0974 12.6665 30.917C12.5414 30.7303 12.3869 30.5886 12.1956 30.4984C12.0043 30.4082 11.7909 30.3567 11.5628 30.3567C11.3347 30.3567 11.1213 30.4018 10.93 30.4984C10.7387 30.5886 10.5841 30.7238 10.4664 30.917C10.356 31.1038 10.2972 31.3292 10.2972 31.5933C10.2972 31.8573 10.356 32.0956 10.4664 32.2824C10.5768 32.4692 10.7313 32.6044 10.9226 32.701C11.1066 32.7912 11.32 32.8363 11.5407 32.8363ZM18.0158 29.8737C18.4794 29.8737 18.8547 29.996 19.1416 30.2408C19.4286 30.4855 19.5684 30.8397 19.5684 31.297V33.2613H18.943V31.3743C18.943 31.0458 18.8473 30.7882 18.656 30.6143C18.4647 30.434 18.2071 30.3503 17.876 30.3503C17.5449 30.3503 17.28 30.4404 17.0814 30.6208C16.8827 30.8075 16.787 31.0716 16.787 31.4194V33.2613H16.1542V29.9316H16.787V30.4082C16.9121 30.2408 17.0814 30.1055 17.3021 30.0154C17.5155 29.9188 17.7509 29.8737 18.0158 29.8737ZM25.9184 31.4709C25.9184 31.5804 25.9111 31.6899 25.8964 31.8058H22.8575C22.8795 32.1343 23.012 32.3919 23.2401 32.5722C23.4755 32.759 23.7552 32.8492 24.0863 32.8492C24.3659 32.8492 24.5866 32.7976 24.7706 32.6817C24.9545 32.5722 25.0796 32.4241 25.1532 32.2373H25.8301C25.7271 32.5593 25.5285 32.817 25.2194 33.0166C24.9104 33.2163 24.5351 33.3193 24.0789 33.3193C23.7184 33.3193 23.3946 33.2485 23.115 33.1068C22.828 32.9651 22.6073 32.7654 22.4454 32.5014C22.2835 32.2373 22.2026 31.9346 22.2026 31.5933C22.2026 31.2519 22.2835 30.9492 22.4381 30.6852C22.5999 30.4276 22.8207 30.2279 23.1003 30.0862C23.3873 29.9445 23.711 29.8737 24.0789 29.8737C24.4468 29.8737 24.7632 29.9381 25.0355 30.0798C25.3151 30.2215 25.5285 30.4082 25.6756 30.6465C25.8228 30.8913 25.9037 31.1618 25.9037 31.4645L25.9184 31.4709ZM25.2636 31.355C25.2636 31.1424 25.2121 30.9621 25.1017 30.814C24.9987 30.6594 24.8515 30.5435 24.6676 30.4662C24.4836 30.3889 24.2849 30.3503 24.0642 30.3503C23.7404 30.3503 23.4682 30.4404 23.2474 30.6143C23.0267 30.7947 22.8943 31.0394 22.8648 31.355H25.2636ZM31.8638 29.9316L29.5754 34.8328H28.9205L29.6711 33.2291L28.1332 29.9381H28.8322L30.0243 32.6366L31.2089 29.9381H31.8564L31.8638 29.9316ZM39.3985 29.9316L38.2138 33.2613H37.5663L36.6466 30.6208L35.7341 33.2613H35.0793L33.8873 29.9316H34.5348L35.4104 32.7268L36.3596 29.9316H37.0071L37.9269 32.7332L38.7878 29.9316H39.4058H39.3985ZM42.1946 29.3906C42.0695 29.3906 41.9738 29.352 41.8929 29.2812C41.8046 29.2103 41.7678 29.1201 41.7678 29.0171C41.7678 28.9141 41.8119 28.8239 41.8929 28.753C41.9738 28.6758 42.0768 28.6436 42.1946 28.6436C42.3049 28.6436 42.408 28.6822 42.4889 28.753C42.5698 28.8239 42.614 28.9141 42.614 29.0171C42.614 29.1201 42.5698 29.2103 42.4889 29.2812C42.4153 29.3584 42.3123 29.3906 42.1946 29.3906ZM42.4963 29.9316V33.2613H41.8635V29.9316H42.4963ZM46.764 33.3193C46.4696 33.3193 46.2047 33.2742 45.9766 33.1905C45.7485 33.1068 45.5646 32.978 45.4321 32.8298C45.2997 32.6753 45.2188 32.4949 45.2114 32.2888H45.8663C45.881 32.4563 45.9693 32.5915 46.1312 32.6946C46.293 32.7976 46.4991 32.8492 46.764 32.8492C47.0068 32.8492 47.1907 32.8041 47.3305 32.7075C47.4703 32.6173 47.5366 32.4949 47.5366 32.3532C47.5366 32.2116 47.463 32.0956 47.3158 32.0248C47.1686 31.9539 46.9405 31.8831 46.6241 31.8122C46.3445 31.7478 46.1091 31.6834 45.9325 31.619C45.7559 31.5546 45.6014 31.4516 45.4763 31.3228C45.3438 31.194 45.285 31.0201 45.285 30.8011C45.285 30.6336 45.3438 30.4726 45.4542 30.3309C45.5719 30.1893 45.7338 30.0733 45.9472 29.996C46.1606 29.9123 46.4034 29.8737 46.6757 29.8737C47.0951 29.8737 47.4335 29.9638 47.6911 30.1571C47.9486 30.3438 48.0884 30.595 48.1105 30.9235H47.4777C47.463 30.7496 47.382 30.6079 47.2349 30.5048C47.0951 30.3954 46.8964 30.3503 46.6536 30.3503C46.4255 30.3503 46.2489 30.3954 46.1164 30.4791C45.984 30.5628 45.9104 30.6723 45.9104 30.814C45.9104 30.9235 45.9546 31.0136 46.0355 31.0845C46.1164 31.1553 46.2195 31.2133 46.3372 31.2519C46.4623 31.297 46.6315 31.3421 46.8522 31.3936C47.1245 31.458 47.3452 31.5224 47.5145 31.5868C47.6837 31.6448 47.8309 31.7414 47.956 31.8702C48.0811 31.999 48.1399 32.16 48.1473 32.3661C48.1473 32.5465 48.0884 32.7139 47.978 32.8556C47.8603 33.0037 47.6984 33.1197 47.485 33.2034C47.2717 33.2871 47.0362 33.3257 46.764 33.3257V33.3193ZM54.3502 31.4709C54.3502 31.5804 54.3428 31.6899 54.3281 31.8058H51.2892C51.3113 32.1343 51.4363 32.3919 51.6718 32.5722C51.9073 32.759 52.1869 32.8492 52.518 32.8492C52.7902 32.8492 53.0183 32.7976 53.2023 32.6817C53.3862 32.5722 53.5113 32.4241 53.5849 32.2373H54.2692C54.1662 32.5593 53.9675 32.817 53.6585 33.0166C53.3568 33.2163 52.9742 33.3193 52.5254 33.3193C52.1648 33.3193 51.841 33.2485 51.5614 33.1068C51.2745 32.9651 51.0537 32.7654 50.8918 32.5014C50.73 32.2373 50.649 31.9346 50.649 31.5933C50.649 31.2519 50.73 30.9492 50.8845 30.6852C51.0464 30.4276 51.2598 30.2279 51.5467 30.0862C51.8337 29.9445 52.1574 29.8737 52.5327 29.8737C52.908 29.8737 53.217 29.9381 53.4893 30.0798C53.7689 30.2215 53.9823 30.4082 54.1294 30.6465C54.2766 30.8913 54.3575 31.1618 54.3575 31.4645L54.3502 31.4709ZM53.6953 31.355C53.6953 31.1424 53.6438 30.9621 53.5334 30.814C53.4304 30.6594 53.2832 30.5435 53.0993 30.4662C52.9153 30.3889 52.7167 30.3503 52.4886 30.3503C52.1722 30.3503 51.8999 30.4404 51.6792 30.6143C51.4511 30.7947 51.326 31.0394 51.2965 31.355H53.6953ZM57.2198 33.3C57.1021 33.3 56.9991 33.2613 56.9181 33.1905C56.8372 33.1197 56.793 33.0295 56.793 32.9264C56.793 32.8234 56.8372 32.7332 56.9181 32.6624C57.0064 32.5851 57.1021 32.5529 57.2198 32.5529C57.3376 32.5529 57.4332 32.5915 57.5141 32.6624C57.5951 32.7332 57.6392 32.8234 57.6392 32.9264C57.6392 33.0295 57.5951 33.1197 57.5141 33.1905C57.4332 33.2678 57.3376 33.3 57.2198 33.3ZM62.8046 30.5564C62.9371 30.3567 63.121 30.1957 63.3712 30.0669C63.6214 29.9445 63.901 29.8801 64.2247 29.8801C64.5632 29.8801 64.8722 29.951 65.1445 30.0927C65.4167 30.2343 65.6301 30.434 65.792 30.6916C65.9539 30.9492 66.0275 31.2519 66.0275 31.5933C66.0275 31.9346 65.9539 32.2309 65.792 32.4949C65.6301 32.759 65.4167 32.9586 65.1445 33.1068C64.8722 33.2549 64.5632 33.3257 64.2247 33.3257C63.8863 33.3257 63.6067 33.2613 63.3565 33.139C63.1063 33.0166 62.9224 32.8556 62.7973 32.6624V33.2742H62.1645V28.7788H62.7973V30.5628L62.8046 30.5564ZM65.38 31.5933C65.38 31.3421 65.3211 31.1231 65.2107 30.9363C65.093 30.7496 64.9385 30.6079 64.7398 30.5113C64.5485 30.4147 64.3277 30.3632 64.0923 30.3632C63.8568 30.3632 63.6508 30.4147 63.4521 30.5113C63.2608 30.6079 63.0989 30.756 62.9812 30.9428C62.8635 31.1296 62.8046 31.3485 62.8046 31.5997C62.8046 31.8509 62.8635 32.0699 62.9812 32.2631C63.0989 32.4563 63.2608 32.5915 63.4521 32.6946C63.6508 32.7912 63.8642 32.8427 64.0923 32.8427C64.3204 32.8427 64.5485 32.7912 64.7398 32.6946C64.9385 32.598 65.093 32.4498 65.2107 32.2631C65.3211 32.0763 65.38 31.8509 65.38 31.5997V31.5933ZM72.1715 31.4773C72.1715 31.5868 72.1641 31.6963 72.1494 31.8122H69.1105C69.1326 32.1407 69.265 32.3983 69.4931 32.5787C69.7286 32.7654 70.0082 32.8556 70.3393 32.8556C70.6189 32.8556 70.8397 32.8041 71.0236 32.6881C71.2076 32.5787 71.3327 32.4305 71.4062 32.2438H72.0906C71.9875 32.5658 71.7889 32.8234 71.4798 33.023C71.1708 33.2227 70.7955 33.3257 70.3393 33.3257C69.9788 33.3257 69.655 33.2549 69.3754 33.1132C69.0884 32.9715 68.8677 32.7719 68.7058 32.5078C68.5439 32.2438 68.463 31.9411 68.463 31.5997C68.463 31.2584 68.5439 30.9557 68.6985 30.6916C68.8603 30.434 69.0811 30.2343 69.3607 30.0927C69.6403 29.951 69.9714 29.8801 70.3393 29.8801C70.7072 29.8801 71.0236 29.9445 71.2959 30.0862C71.5755 30.2279 71.7889 30.4147 71.936 30.653C72.0832 30.8913 72.1641 31.1682 72.1641 31.4709L72.1715 31.4773ZM71.5166 31.3614C71.5166 31.1489 71.4651 30.9686 71.3547 30.8204C71.2517 30.6659 71.1046 30.5499 70.9206 30.4726C70.7367 30.3954 70.538 30.3567 70.3172 30.3567C69.9935 30.3567 69.7212 30.4469 69.5005 30.6208C69.2798 30.8011 69.1473 31.0458 69.1179 31.3614H71.5166ZM81.7591 29.9381L80.5744 33.2678H79.9269L79.0072 30.6272L78.0948 33.2678H77.4399L76.2479 29.9381H76.8954L77.771 32.7332L78.7202 29.9381H79.3677L80.2875 32.7397L81.1484 29.9381H81.7665H81.7591ZM84.5552 29.3971C84.4301 29.3971 84.3344 29.3584 84.2535 29.2876C84.1652 29.2168 84.1284 29.1266 84.1284 29.0235C84.1284 28.9205 84.1726 28.8303 84.2535 28.7595C84.3344 28.6822 84.4375 28.65 84.5552 28.65C84.6656 28.65 84.7686 28.6886 84.8495 28.7595C84.9304 28.8303 84.9746 28.9205 84.9746 29.0235C84.9746 29.1266 84.9304 29.2168 84.8495 29.2876C84.7686 29.3649 84.6729 29.3971 84.5552 29.3971ZM84.8569 29.9381V33.2678H84.2241V29.9381H84.8569ZM89.1246 33.3257C88.8302 33.3257 88.5654 33.2807 88.3372 33.1969C88.1092 33.1132 87.9252 32.9844 87.7927 32.8363C87.6603 32.6817 87.5794 32.5014 87.572 32.2953H88.2269C88.2416 32.4627 88.3299 32.598 88.4918 32.701C88.6536 32.8041 88.8597 32.8556 89.1246 32.8556C89.3674 32.8556 89.5513 32.8105 89.6911 32.7139C89.8309 32.6237 89.8972 32.5014 89.8972 32.3597C89.8972 32.218 89.8236 32.1021 89.6764 32.0312C89.5293 31.9604 89.3012 31.8895 88.9848 31.8187C88.7052 31.7543 88.4697 31.6899 88.2931 31.6255C88.1165 31.5611 87.962 31.458 87.8369 31.3292C87.7045 31.2004 87.6456 31.0265 87.6456 30.8075C87.6456 30.6401 87.7045 30.4791 87.8148 30.3374C87.9326 30.1957 88.0944 30.0798 88.3078 30.0025C88.5212 29.9188 88.764 29.8801 89.0363 29.8801C89.4557 29.8801 89.7942 29.9703 90.0517 30.1635C90.3092 30.3503 90.449 30.6014 90.4711 30.9299H89.8383C89.8236 30.756 89.7426 30.6143 89.5955 30.5113C89.4483 30.4018 89.257 30.3567 89.0142 30.3567C88.7861 30.3567 88.6095 30.4018 88.4771 30.4855C88.3446 30.5692 88.271 30.6787 88.271 30.8204C88.271 30.9299 88.3152 31.0201 88.3961 31.0909C88.4771 31.1618 88.5801 31.2197 88.6978 31.2584C88.8229 31.3035 88.9921 31.3485 89.2129 31.4001C89.4851 31.4645 89.7059 31.5289 89.8751 31.5933C90.0443 31.6512 90.1915 31.7478 90.3166 31.8767C90.4417 32.0055 90.5005 32.1665 90.5079 32.3726C90.5079 32.5529 90.449 32.7203 90.3387 32.862C90.2209 33.0102 90.059 33.1261 89.8457 33.2098C89.6323 33.2935 89.3968 33.3322 89.1246 33.3322V33.3257ZM96.7108 31.4773C96.7108 31.5868 96.7034 31.6963 96.6887 31.8122H93.6498C93.6719 32.1407 93.797 32.3983 94.0324 32.5787C94.2605 32.7654 94.5475 32.8556 94.8786 32.8556C95.1509 32.8556 95.379 32.8041 95.5629 32.6881C95.7395 32.5787 95.8719 32.4305 95.9455 32.2438H96.6298C96.5268 32.5658 96.3282 32.8234 96.0191 33.023C95.7174 33.2227 95.3348 33.3257 94.886 33.3257C94.5254 33.3257 94.2017 33.2549 93.9221 33.1132C93.6351 32.9715 93.4143 32.7719 93.2525 32.5078C93.0906 32.2438 93.0096 31.9411 93.0096 31.5997C93.0096 31.2584 93.0906 30.9557 93.2451 30.6916C93.407 30.434 93.6204 30.2343 93.9073 30.0927C94.1943 29.951 94.5181 29.8801 94.8933 29.8801C95.2686 29.8801 95.5776 29.9445 95.8499 30.0862C96.1295 30.2279 96.3429 30.4147 96.49 30.653C96.6372 30.8977 96.7181 31.1682 96.7181 31.4709L96.7108 31.4773ZM96.0559 31.3614C96.0559 31.1489 96.0044 30.9686 95.894 30.8204C95.7837 30.6659 95.6438 30.5499 95.4599 30.4726C95.2759 30.3954 95.0773 30.3567 94.8492 30.3567C94.5328 30.3567 94.2605 30.4469 94.0398 30.6208C93.8117 30.8011 93.6866 31.0458 93.6572 31.3614H96.0559ZM99.5804 33.3064C99.4627 33.3064 99.3597 33.2678 99.2787 33.1969C99.1978 33.1261 99.1537 33.0359 99.1537 32.9329C99.1537 32.8298 99.1978 32.7397 99.2787 32.6688C99.3671 32.5915 99.4627 32.5593 99.5804 32.5593C99.6982 32.5593 99.7938 32.598 99.8748 32.6688C99.9557 32.7397 99.9998 32.8298 99.9998 32.9329C99.9998 33.0359 99.9557 33.1261 99.8748 33.1969C99.7938 33.2742 99.6982 33.3064 99.5804 33.3064Z" fill="#383A42"/>
<path fill-rule="evenodd" clip-rule="evenodd" d="M25.3016 12.6986C25.3016 12.875 25.3016 13.0515 25.2944 13.228C24.3284 11.8456 22.6326 10.3015 19.7704 8.72062C19.9779 6.30149 19.9135 4.08825 19.7203 2.16913C23.0905 4.44855 25.3016 8.31621 25.3016 12.6986ZM24.1853 17.9265C23.6415 19.1324 22.9117 20.2427 22.0387 21.2133C20.4502 21.0001 18.7043 20.6471 16.9154 20.081C17.0442 19.7795 17.1659 19.4633 17.3018 19.1471C18.3179 16.5883 18.9762 14.1177 19.3769 11.7942C22.2319 14.6471 23.5628 16.6398 24.1853 17.9265ZM21.9027 21.3604C19.9207 23.4927 17.2231 24.9339 14.1892 25.3016C15.0478 24.0148 15.928 22.3824 16.8081 20.3236C18.647 20.8457 20.3643 21.1692 21.9027 21.3604ZM9.9675 25.1104C7.10533 24.4854 4.60809 22.8971 2.82639 20.6986C3.26287 18.6986 3.92117 16.4633 4.95155 14.2353C5.2807 14.4853 5.62416 14.7501 5.98909 15.0074C9.08738 17.2648 12.1785 18.7648 15.0478 19.7648C14.7688 20.1324 14.4683 20.4927 14.1534 20.853C12.5291 22.706 11.141 24.081 9.9675 25.1104ZM2.69759 20.5368C1.00176 18.3824 0 15.6545 0 12.6986C0 11.7353 0.107331 10.7942 0.314838 9.88974C1.35237 11.1397 2.76915 12.5295 4.70111 14.0368C3.72797 16.3824 3.10545 18.5957 2.70475 20.5368H2.69759ZM1.85325 6.07355C2.19671 5.50737 2.58311 4.97061 3.01243 4.47796C5.14475 4.53678 7.42017 4.85296 9.70275 5.5662C7.95683 7.77209 6.5973 10.0074 5.55261 12.1545C5.38803 11.9339 5.23777 11.7133 5.08035 11.4853C3.60633 9.30886 2.57595 7.52944 1.86041 6.07355H1.85325ZM3.21278 4.24266C5.53114 1.63971 8.89419 0 12.6508 0C13.4093 0 14.1534 0.0661767 14.8761 0.19853C13.5166 1.30148 12.0068 2.77942 10.3396 4.77943C10.268 4.86766 10.1893 4.9559 10.1178 5.04414C7.64914 4.50002 5.32363 4.27207 3.21994 4.24266H3.21278ZM18.8331 1.61765C19.0763 1.75736 19.3125 1.89707 19.5415 2.04413C19.7203 4.01472 19.7561 6.22796 19.4699 8.5515C18.4467 8.00003 17.2803 7.4412 15.9494 6.88973C14.5613 6.30885 13.1946 5.84561 11.8708 5.47796C12.4934 5.01472 13.1517 4.57355 13.8529 4.16913C15.8206 3.02207 17.4664 2.20589 18.8331 1.6103V1.61765ZM18.969 11.3824C18.325 14.1177 17.1659 16.8971 15.2554 19.478C11.8923 18.1545 8.50779 16.0001 5.82451 12.5074C7.10533 10.1912 8.82979 7.94856 11.1267 6.05885C13.3663 6.93385 15.5773 8.23532 17.6166 10.1103C18.0961 10.5515 18.5468 10.978 18.9619 11.3824H18.969Z" fill="url(#paint0_linear_56_1927)"/>
<path d="M80.7661 12.2286C80.7661 10.439 81.1261 8.87562 81.8461 7.53855C82.5866 6.20147 83.6048 5.17296 84.9008 4.45299C86.2173 3.73303 87.7189 3.37305 89.4057 3.37305C91.5656 3.37305 93.3655 3.93873 94.8054 5.0701C96.2659 6.20147 97.2224 7.79568 97.675 9.85272H92.0593C91.5861 8.53621 90.6708 7.87796 89.3131 7.87796C88.3463 7.87796 87.5749 8.25851 86.9989 9.01961C86.423 9.76015 86.135 10.8298 86.135 12.2286C86.135 13.6274 86.423 14.7073 86.9989 15.4684C87.5749 16.209 88.3463 16.5792 89.3131 16.5792C90.6708 16.5792 91.5861 15.921 92.0593 14.6045H97.675C97.2224 16.6204 96.2659 18.2043 94.8054 19.3562C93.3449 20.5082 91.545 21.0841 89.4057 21.0841C87.7189 21.0841 86.2173 20.7242 84.9008 20.0042C83.6048 19.2842 82.5866 18.2557 81.8461 16.9186C81.1261 15.5816 80.7661 14.0182 80.7661 12.2286Z" fill="#161719"/>
<path d="M71.9731 3.43457C74.1124 3.43457 75.8094 4.08254 77.0642 5.37847C78.3396 6.6744 78.9773 8.47431 78.9773 10.7782V20.8371H73.7318V11.4879C73.7318 10.3771 73.4336 9.5234 72.837 8.92686C72.2611 8.30975 71.4588 8.00119 70.4303 8.00119C69.4018 8.00119 68.5892 8.30975 67.9927 8.92686C67.4167 9.5234 67.1287 10.3771 67.1287 11.4879V20.8371H61.8833V11.4879C61.8833 10.3771 61.585 9.5234 60.9885 8.92686C60.4125 8.30975 59.6103 8.00119 58.5818 8.00119C57.5532 8.00119 56.7407 8.30975 56.1442 8.92686C55.5682 9.5234 55.2802 10.3771 55.2802 11.4879V20.8371H50.0039V3.6197H55.2802V5.77959C55.815 5.05963 56.5144 4.49394 57.3784 4.08254C58.2423 3.65056 59.2194 3.43457 60.3097 3.43457C61.6056 3.43457 62.7575 3.71227 63.7655 4.26767C64.794 4.82307 65.5963 5.61503 66.1722 6.64355C66.7688 5.69731 67.5813 4.92592 68.6098 4.32938C69.6383 3.73284 70.7594 3.43457 71.9731 3.43457Z" fill="#161719"/>
<path d="M40.6511 21.0841C39.1494 21.0841 37.8124 20.827 36.6398 20.3128C35.4673 19.7985 34.5417 19.0991 33.8628 18.2146C33.184 17.3095 32.8035 16.3015 32.7212 15.1907H37.9358C37.9975 15.7873 38.2752 16.2707 38.7689 16.6409C39.2626 17.0112 39.8694 17.1963 40.5894 17.1963C41.2476 17.1963 41.7516 17.0729 42.1013 16.8261C42.4715 16.5587 42.6567 16.2192 42.6567 15.8078C42.6567 15.3142 42.3996 14.9542 41.8853 14.7279C41.371 14.4811 40.5379 14.2136 39.386 13.9256C38.1518 13.6377 37.1233 13.3394 36.3004 13.0308C35.4776 12.7017 34.7679 12.1977 34.1714 11.5189C33.5749 10.8195 33.2766 9.88357 33.2766 8.71106C33.2766 7.72368 33.544 6.82887 34.0788 6.02663C34.6342 5.20381 35.4365 4.55584 36.4856 4.08272C37.5552 3.60961 38.8203 3.37305 40.2808 3.37305C42.4407 3.37305 44.1378 3.90788 45.372 4.97754C46.6268 6.0472 47.3467 7.46655 47.5319 9.2356H42.6567C42.5744 8.63906 42.307 8.16594 41.8544 7.81625C41.4225 7.46655 40.8465 7.2917 40.1265 7.2917C39.5094 7.2917 39.0363 7.41513 38.7072 7.66197C38.378 7.88825 38.2135 8.20709 38.2135 8.61849C38.2135 9.11218 38.4706 9.48245 38.9849 9.72929C39.5197 9.97614 40.3425 10.223 41.4533 10.4698C42.7287 10.799 43.7675 11.1281 44.5697 11.4572C45.372 11.7658 46.0714 12.28 46.6679 13C47.285 13.6994 47.6039 14.6456 47.6244 15.8387C47.6244 16.8466 47.3364 17.7517 46.7605 18.554C46.2051 19.3357 45.3925 19.9528 44.3229 20.4053C43.2738 20.8579 42.0499 21.0841 40.6511 21.0841Z" fill="#161719"/>
<defs>
<linearGradient id="paint0_linear_56_1927" x1="2.14663" y1="5.51473" x2="21.9822" y2="24.4599" gradientUnits="userSpaceOnUse">
<stop stop-color="#2D3AB8"/>
<stop offset="1" stop-color="#29AF8A"/>
</linearGradient>
</defs>
</svg>
