
<svg width="18" height="24" viewBox="0 0 18 24" fill="none" xmlns="http://www.w3.org/2000/svg">
<path fill-rule="evenodd" clip-rule="evenodd" d="M13.2819 7.71936C13.3518 7.78903 13.4072 7.8718 13.445 7.96291C13.4828 8.05403 13.5023 8.15171 13.5023 8.25036C13.5023 8.34901 13.4828 8.4467 13.445 8.53781C13.4072 8.62893 13.3518 8.7117 13.2819 8.78136L8.78195 13.2814C8.71228 13.3512 8.62952 13.4066 8.5384 13.4444C8.44728 13.4822 8.3496 13.5017 8.25095 13.5017C8.1523 13.5017 8.05461 13.4822 7.9635 13.4444C7.87238 13.4066 7.78962 13.3512 7.71995 13.2814L5.46995 11.0314C5.40022 10.9616 5.3449 10.8788 5.30716 10.7877C5.26942 10.6966 5.25 10.599 5.25 10.5004C5.25 10.4017 5.26942 10.3041 5.30716 10.213C5.3449 10.1219 5.40022 10.0391 5.46995 9.96936C5.53968 9.89963 5.62246 9.84432 5.71357 9.80658C5.80468 9.76884 5.90233 9.74942 6.00095 9.74942C6.09956 9.74942 6.19721 9.76884 6.28832 9.80658C6.37943 9.84432 6.46222 9.89963 6.53195 9.96936L8.25095 11.6899L12.2199 7.71936C12.2896 7.64952 12.3724 7.5941 12.4635 7.55629C12.5546 7.51849 12.6523 7.49902 12.7509 7.49902C12.8496 7.49902 12.9473 7.51849 13.0384 7.55629C13.1295 7.5941 13.2123 7.64952 13.2819 7.71936Z" fill="#7E838D"/>
<path d="M0 3C0 2.20435 0.31607 1.44129 0.87868 0.87868C1.44129 0.316071 2.20435 0 3 0L15 0C15.7956 0 16.5587 0.316071 17.1213 0.87868C17.6839 1.44129 18 2.20435 18 3V23.25C17.9999 23.3857 17.9631 23.5188 17.8933 23.6351C17.8236 23.7515 17.7236 23.8468 17.604 23.9108C17.4844 23.9748 17.3497 24.0052 17.2142 23.9988C17.0787 23.9923 16.9474 23.9492 16.8345 23.874L9 19.6515L1.1655 23.874C1.05256 23.9492 0.921345 23.9923 0.785837 23.9988C0.650329 24.0052 0.5156 23.9748 0.395999 23.9108C0.276399 23.8468 0.176406 23.7515 0.106671 23.6351C0.036936 23.5188 7.00806e-05 23.3857 0 23.25V3ZM3 1.5C2.60218 1.5 2.22064 1.65804 1.93934 1.93934C1.65804 2.22064 1.5 2.60218 1.5 3V21.849L8.5845 18.126C8.70759 18.0441 8.85215 18.0004 9 18.0004C9.14785 18.0004 9.29241 18.0441 9.4155 18.126L16.5 21.849V3C16.5 2.60218 16.342 2.22064 16.0607 1.93934C15.7794 1.65804 15.3978 1.5 15 1.5H3Z" fill="#7E838D"/>
</svg>
